<?xml version="1.0" encoding="utf-8"?>
<!-- Generator: Adobe Illustrator 17.0.0, SVG Export Plug-In . SVG Version: 6.00 Build 0)  -->
<!DOCTYPE svg PUBLIC "-//W3C//DTD SVG 1.1//EN" "http://www.w3.org/Graphics/SVG/1.1/DTD/svg11.dtd">
<svg version="1.1" id="Capa_1" xmlns="http://www.w3.org/2000/svg" xmlns:xlink="http://www.w3.org/1999/xlink" x="0px" y="0px"
	 width="653px" height="83px" viewBox="0 0 653 83" enable-background="new 0 0 653 83" xml:space="preserve">
<g id="Layer_2">
</g>
<g enable-background="new    ">
	<path d="M231.617,71.976h-7.163v-12.85h7.163v1.327h-5.669v4.14h5.326v1.318h-5.326v4.729h5.669V71.976z"/>
	<path d="M240.802,70.684h-0.079c-0.674,0.979-1.682,1.468-3.023,1.468c-1.26,0-2.24-0.431-2.94-1.292s-1.05-2.086-1.05-3.674
		s0.352-2.821,1.055-3.7s1.682-1.318,2.936-1.318c1.307,0,2.309,0.475,3.006,1.424h0.114l-0.062-0.694l-0.035-0.677v-3.92h1.459
		v13.676h-1.187L240.802,70.684z M237.884,70.93c0.996,0,1.718-0.271,2.167-0.813c0.448-0.541,0.672-1.416,0.672-2.623v-0.308
		c0-1.365-0.227-2.339-0.681-2.923c-0.454-0.582-1.179-0.874-2.175-0.874c-0.855,0-1.51,0.333-1.964,0.997
		c-0.454,0.666-0.681,1.604-0.681,2.817c0,1.23,0.226,2.159,0.677,2.786S237.011,70.93,237.884,70.93z"/>
	<path d="M245.153,59.732c0-0.334,0.082-0.578,0.246-0.733s0.369-0.233,0.615-0.233c0.234,0,0.437,0.079,0.606,0.237
		s0.255,0.401,0.255,0.729s-0.085,0.573-0.255,0.733c-0.17,0.162-0.372,0.242-0.606,0.242c-0.246,0-0.451-0.08-0.615-0.242
		C245.235,60.306,245.153,60.061,245.153,59.732z M246.735,71.976h-1.459v-9.633h1.459V71.976z"/>
	<path d="M252.94,70.947c0.258,0,0.507-0.019,0.747-0.058c0.24-0.037,0.431-0.077,0.571-0.118v1.116
		c-0.158,0.076-0.391,0.139-0.699,0.189c-0.308,0.049-0.584,0.074-0.831,0.074c-1.863,0-2.795-0.981-2.795-2.944v-5.73h-1.38v-0.703
		l1.38-0.606l0.615-2.057h0.844v2.232h2.795v1.134h-2.795v5.669c0,0.58,0.138,1.025,0.413,1.336S252.459,70.947,252.94,70.947z"/>
	<path d="M262.107,71.976l-0.29-1.371h-0.07c-0.48,0.604-0.959,1.013-1.437,1.227c-0.478,0.213-1.074,0.32-1.789,0.32
		c-0.955,0-1.704-0.246-2.246-0.738c-0.542-0.492-0.813-1.192-0.813-2.101c0-1.945,1.556-2.965,4.667-3.059l1.635-0.053v-0.598
		c0-0.756-0.163-1.313-0.488-1.675c-0.325-0.359-0.845-0.54-1.56-0.54c-0.803,0-1.711,0.246-2.725,0.738l-0.448-1.116
		c0.475-0.258,0.995-0.46,1.56-0.606s1.132-0.22,1.701-0.22c1.148,0,2,0.255,2.553,0.765c0.553,0.51,0.831,1.327,0.831,2.452v6.574
		h-1.081V71.976z M258.811,70.947c0.908,0,1.622-0.249,2.14-0.747s0.778-1.195,0.778-2.092v-0.87L260.27,67.3
		c-1.16,0.041-1.997,0.222-2.509,0.541c-0.512,0.319-0.769,0.815-0.769,1.489c0,0.527,0.16,0.929,0.479,1.204
		S258.236,70.947,258.811,70.947z"/>
	<path d="M270.588,62.167c0.428,0,0.812,0.035,1.151,0.105l-0.202,1.354c-0.398-0.088-0.75-0.132-1.055-0.132
		c-0.779,0-1.446,0.316-2,0.949s-0.831,1.421-0.831,2.364v5.168h-1.459v-9.633h1.204l0.167,1.784h0.07
		c0.357-0.627,0.788-1.11,1.292-1.45S269.985,62.167,270.588,62.167z"/>
</g>
<g enable-background="new    ">
	<path d="M383.208,60.277c-1.412,0-2.527,0.47-3.345,1.411c-0.817,0.939-1.226,2.228-1.226,3.862c0,1.682,0.394,2.981,1.182,3.897
		c0.788,0.918,1.912,1.376,3.371,1.376c0.896,0,1.919-0.161,3.067-0.483v1.31c-0.891,0.334-1.989,0.501-3.296,0.501
		c-1.893,0-3.354-0.574-4.382-1.723s-1.542-2.78-1.542-4.896c0-1.324,0.247-2.484,0.742-3.48s1.21-1.764,2.145-2.303
		s2.035-0.809,3.301-0.809c1.348,0,2.525,0.246,3.533,0.738l-0.633,1.283C385.153,60.506,384.18,60.277,383.208,60.277z"/>
	<path d="M397.156,67.15c0,1.57-0.396,2.797-1.187,3.679s-1.884,1.322-3.278,1.322c-0.861,0-1.626-0.202-2.294-0.606
		s-1.184-0.984-1.547-1.74s-0.545-1.641-0.545-2.654c0-1.57,0.393-2.793,1.178-3.669s1.875-1.314,3.27-1.314
		c1.348,0,2.418,0.448,3.212,1.345S397.156,65.621,397.156,67.15z M389.817,67.15c0,1.23,0.246,2.168,0.738,2.812
		s1.216,0.967,2.171,0.967s1.68-0.321,2.175-0.962c0.495-0.643,0.743-1.581,0.743-2.817c0-1.225-0.248-2.154-0.743-2.79
		s-1.226-0.954-2.192-0.954c-0.955,0-1.676,0.313-2.162,0.94S389.817,65.908,389.817,67.15z"/>
	<path d="M406.305,71.976v-6.231c0-0.785-0.179-1.371-0.536-1.758s-0.917-0.58-1.679-0.58c-1.008,0-1.746,0.272-2.215,0.817
		s-0.703,1.444-0.703,2.698v5.054h-1.459v-9.633h1.187l0.237,1.318h0.07c0.299-0.475,0.718-0.842,1.257-1.104
		c0.539-0.26,1.14-0.391,1.802-0.391c1.16,0,2.033,0.28,2.619,0.84s0.879,1.454,0.879,2.685v6.284h-1.459V71.976z"/>
	<path d="M416.975,69.348c0,0.896-0.334,1.588-1.002,2.074s-1.605,0.729-2.812,0.729c-1.277,0-2.273-0.202-2.988-0.606v-1.354
		c0.463,0.234,0.959,0.419,1.489,0.554s1.042,0.202,1.534,0.202c0.762,0,1.348-0.121,1.758-0.364s0.615-0.614,0.615-1.112
		c0-0.375-0.163-0.695-0.488-0.962s-0.959-0.582-1.902-0.945c-0.896-0.334-1.534-0.625-1.912-0.875
		c-0.378-0.248-0.659-0.531-0.844-0.848s-0.276-0.694-0.276-1.134c0-0.785,0.319-1.404,0.958-1.858s1.515-0.682,2.628-0.682
		c1.037,0,2.051,0.211,3.041,0.633l-0.519,1.187c-0.967-0.398-1.843-0.598-2.628-0.598c-0.691,0-1.213,0.108-1.564,0.325
		s-0.527,0.516-0.527,0.896c0,0.258,0.065,0.478,0.197,0.659s0.345,0.354,0.638,0.519s0.855,0.401,1.688,0.712
		c1.143,0.416,1.914,0.835,2.315,1.257S416.975,68.709,416.975,69.348z"/>
	<path d="M420.719,62.343v6.249c0,0.785,0.179,1.371,0.536,1.758s0.917,0.58,1.679,0.58c1.008,0,1.744-0.275,2.21-0.826
		s0.699-1.45,0.699-2.698v-5.062h1.459v9.633h-1.204l-0.211-1.292h-0.079c-0.299,0.475-0.714,0.838-1.244,1.09
		s-1.135,0.378-1.814,0.378c-1.172,0-2.05-0.278-2.633-0.835s-0.874-1.447-0.874-2.672v-6.302h1.476V62.343z"/>
	<path d="M431.855,71.976h-1.459V58.3h1.459V71.976z"/>
	<path d="M438.06,70.947c0.258,0,0.507-0.019,0.747-0.058c0.24-0.037,0.431-0.077,0.571-0.118v1.116
		c-0.158,0.076-0.392,0.139-0.699,0.189c-0.308,0.049-0.584,0.074-0.83,0.074c-1.863,0-2.795-0.981-2.795-2.944v-5.73h-1.38v-0.703
		l1.38-0.606l0.615-2.057h0.844v2.232h2.795v1.134h-2.795v5.669c0,0.58,0.138,1.025,0.413,1.336S437.58,70.947,438.06,70.947z"/>
	<path d="M447.227,71.976l-0.29-1.371h-0.07c-0.48,0.604-0.96,1.013-1.438,1.227c-0.478,0.213-1.073,0.32-1.788,0.32
		c-0.955,0-1.704-0.246-2.246-0.738s-0.812-1.192-0.812-2.101c0-1.945,1.556-2.965,4.667-3.059l1.635-0.053v-0.598
		c0-0.756-0.163-1.313-0.488-1.675c-0.325-0.359-0.845-0.54-1.56-0.54c-0.803,0-1.711,0.246-2.725,0.738l-0.448-1.116
		c0.475-0.258,0.994-0.46,1.56-0.606s1.133-0.22,1.701-0.22c1.148,0,1.999,0.255,2.553,0.765s0.831,1.327,0.831,2.452v6.574h-1.082
		V71.976z M443.931,70.947c0.908,0,1.621-0.249,2.14-0.747s0.778-1.195,0.778-2.092v-0.87L445.39,67.3
		c-1.16,0.041-1.997,0.222-2.51,0.541s-0.769,0.815-0.769,1.489c0,0.527,0.159,0.929,0.479,1.204S443.357,70.947,443.931,70.947z"/>
	<path d="M455.709,62.167c0.428,0,0.812,0.035,1.151,0.105l-0.202,1.354c-0.398-0.088-0.75-0.132-1.055-0.132
		c-0.779,0-1.446,0.316-2,0.949s-0.83,1.421-0.83,2.364v5.168h-1.459v-9.633h1.204l0.167,1.784h0.07
		c0.357-0.627,0.788-1.11,1.292-1.45S455.105,62.167,455.709,62.167z"/>
</g>
<g enable-background="new    ">
	<path d="M547.904,71.976h-7.163v-12.85h7.163v1.327h-5.669v4.14h5.326v1.318h-5.326v4.729h5.669V71.976z"/>
	<path d="M551.991,71.976h-1.459V58.3h1.459V71.976z"/>
	<path d="M554.962,59.732c0-0.334,0.082-0.578,0.246-0.733s0.369-0.233,0.615-0.233c0.234,0,0.437,0.079,0.606,0.237
		s0.255,0.401,0.255,0.729s-0.085,0.573-0.255,0.733c-0.17,0.162-0.372,0.242-0.606,0.242c-0.246,0-0.451-0.08-0.615-0.242
		C555.044,60.306,554.962,60.061,554.962,59.732z M556.544,71.976h-1.459v-9.633h1.459V71.976z"/>
	<path d="M571.916,71.976v-6.267c0-0.768-0.164-1.343-0.492-1.728c-0.328-0.383-0.838-0.575-1.529-0.575
		c-0.908,0-1.579,0.261-2.013,0.782s-0.65,1.324-0.65,2.408v5.379h-1.459v-6.267c0-0.768-0.164-1.343-0.492-1.728
		c-0.328-0.383-0.841-0.575-1.538-0.575c-0.914,0-1.584,0.274-2.009,0.821c-0.425,0.549-0.637,1.446-0.637,2.694v5.054h-1.459
		v-9.633h1.187l0.237,1.318h0.07c0.275-0.469,0.663-0.835,1.164-1.099s1.062-0.396,1.684-0.396c1.506,0,2.49,0.545,2.953,1.635h0.07
		c0.287-0.504,0.703-0.902,1.248-1.195s1.166-0.439,1.863-0.439c1.09,0,1.905,0.28,2.447,0.84s0.813,1.454,0.813,2.685v6.284h-1.458
		V71.976z"/>
	<path d="M576.258,59.732c0-0.334,0.082-0.578,0.246-0.733s0.369-0.233,0.615-0.233c0.234,0,0.437,0.079,0.606,0.237
		s0.255,0.401,0.255,0.729s-0.085,0.573-0.255,0.733c-0.17,0.162-0.372,0.242-0.606,0.242c-0.246,0-0.451-0.08-0.615-0.242
		C576.34,60.306,576.258,60.061,576.258,59.732z M577.84,71.976h-1.459v-9.633h1.459V71.976z"/>
	<path d="M587.526,71.976v-6.231c0-0.785-0.179-1.371-0.536-1.758s-0.917-0.58-1.679-0.58c-1.008,0-1.746,0.272-2.215,0.817
		s-0.703,1.444-0.703,2.698v5.054h-1.459v-9.633h1.187l0.237,1.318h0.07c0.299-0.475,0.718-0.842,1.257-1.104
		c0.539-0.26,1.14-0.391,1.802-0.391c1.16,0,2.033,0.28,2.619,0.84s0.879,1.454,0.879,2.685v6.284h-1.459V71.976z"/>
	<path d="M597.905,71.976l-0.29-1.371h-0.07c-0.48,0.604-0.96,1.013-1.438,1.227c-0.478,0.213-1.073,0.32-1.788,0.32
		c-0.955,0-1.704-0.246-2.246-0.738s-0.812-1.192-0.812-2.101c0-1.945,1.556-2.965,4.667-3.059l1.635-0.053v-0.598
		c0-0.756-0.163-1.313-0.488-1.675c-0.325-0.359-0.845-0.54-1.56-0.54c-0.803,0-1.711,0.246-2.725,0.738l-0.448-1.116
		c0.475-0.258,0.994-0.46,1.56-0.606s1.133-0.22,1.701-0.22c1.148,0,1.999,0.255,2.553,0.765s0.831,1.327,0.831,2.452v6.574h-1.082
		V71.976z M594.61,70.947c0.908,0,1.621-0.249,2.14-0.747s0.778-1.195,0.778-2.092v-0.87l-1.459,0.062
		c-1.16,0.041-1.997,0.222-2.51,0.541s-0.769,0.815-0.769,1.489c0,0.527,0.159,0.929,0.479,1.204S594.035,70.947,594.61,70.947z"/>
	<path d="M606.387,62.167c0.428,0,0.812,0.035,1.151,0.105l-0.202,1.354c-0.398-0.088-0.75-0.132-1.055-0.132
		c-0.779,0-1.446,0.316-2,0.949s-0.83,1.421-0.83,2.364v5.168h-1.459v-9.633h1.204l0.167,1.784h0.07
		c0.357-0.627,0.788-1.11,1.292-1.45S605.783,62.167,606.387,62.167z"/>
</g>
<path fill="#E53935" d="M574.139,6.61c-6.483,0-11.724,5.241-11.724,11.724s5.241,11.724,11.724,11.724s11.724-5.241,11.724-11.724
	S580.622,6.61,574.139,6.61z M580.001,22.543l-1.653,1.653l-4.209-4.209l-4.209,4.209l-1.653-1.653l4.209-4.209l-4.209-4.209
	l1.653-1.653l4.209,4.209l4.209-4.209l1.653,1.653l-4.209,4.209L580.001,22.543z"/>
<path fill="#3F51B5" d="M236.095,25.336v5h5l14.747-14.747l-5-5L236.095,25.336z M259.708,11.723c0.52-0.52,0.52-1.36,0-1.88
	l-3.12-3.12c-0.52-0.52-1.36-0.52-1.88,0l-2.44,2.44l5,5L259.708,11.723z"/>
<path fill="#9C27B0" d="M421.955,21.341h-1.053l-0.373-0.36c1.307-1.52,2.093-3.493,2.093-5.64c0-4.787-3.88-8.667-8.667-8.667
	s-8.667,3.88-8.667,8.667s3.88,8.667,8.667,8.667c2.147,0,4.12-0.787,5.64-2.093l0.36,0.373v1.053l6.667,6.653l1.987-1.987
	L421.955,21.341L421.955,21.341z M413.955,21.341c-3.32,0-6-2.68-6-6s2.68-6,6-6s6,2.68,6,6S417.275,21.341,413.955,21.341z"/>
<path fill="#388E3C" d="M103.363,6.333h-24c-1.467,0-2.667,1.2-2.667,2.667v16c0,1.467,1.2,2.667,2.667,2.667h6.667v2.667h10.667
	v-2.667h6.667c1.467,0,2.653-1.2,2.653-2.667l0.013-16C106.03,7.534,104.83,6.333,103.363,6.333z M103.363,25h-24V9h24V25z
	 M100.696,13H86.029v2.667h14.667V13z M100.696,18.333H86.029V21h14.667V18.333z M84.696,13h-2.667v2.667h2.667V13z M84.696,18.333
	h-2.667V21h2.667V18.333z"/>
<g enable-background="new    ">
	<path d="M60.957,60.277c-1.412,0-2.527,0.47-3.344,1.411c-0.817,0.939-1.226,2.228-1.226,3.862c0,1.682,0.394,2.981,1.182,3.897
		c0.788,0.918,1.912,1.376,3.371,1.376c0.896,0,1.919-0.161,3.067-0.483v1.31c-0.891,0.334-1.989,0.501-3.296,0.501
		c-1.893,0-3.353-0.574-4.381-1.723s-1.542-2.78-1.542-4.896c0-1.324,0.248-2.484,0.743-3.48s1.21-1.764,2.145-2.303
		s2.035-0.809,3.3-0.809c1.348,0,2.525,0.246,3.533,0.738l-0.633,1.283C62.902,60.506,61.93,60.277,60.957,60.277z"/>
	<path d="M72.515,71.976l-0.29-1.371h-0.07c-0.48,0.604-0.959,1.013-1.437,1.227c-0.478,0.213-1.074,0.32-1.789,0.32
		c-0.955,0-1.704-0.246-2.246-0.738s-0.813-1.192-0.813-2.101c0-1.945,1.556-2.965,4.667-3.059l1.635-0.053v-0.598
		c0-0.756-0.163-1.313-0.488-1.675c-0.325-0.359-0.845-0.54-1.56-0.54c-0.803,0-1.711,0.246-2.725,0.738l-0.448-1.116
		c0.475-0.258,0.995-0.46,1.56-0.606s1.132-0.22,1.701-0.22c1.148,0,2,0.255,2.553,0.765s0.831,1.327,0.831,2.452v6.574h-1.081
		V71.976z M69.219,70.947c0.908,0,1.622-0.249,2.14-0.747s0.778-1.195,0.778-2.092v-0.87L70.678,67.3
		c-1.16,0.041-1.997,0.222-2.509,0.541C67.657,68.16,67.4,68.656,67.4,69.33c0,0.527,0.16,0.929,0.479,1.204
		S68.645,70.947,69.219,70.947z"/>
	<path d="M81.084,72.151c-0.627,0-1.2-0.116-1.718-0.348c-0.519-0.23-0.954-0.587-1.305-1.067h-0.105
		c0.07,0.562,0.105,1.096,0.105,1.6V76.3h-1.459V62.343h1.187l0.202,1.318h0.07c0.375-0.527,0.812-0.908,1.31-1.143
		s1.069-0.352,1.714-0.352c1.277,0,2.263,0.437,2.958,1.31s1.042,2.098,1.042,3.674c0,1.582-0.353,2.812-1.059,3.687
		C83.318,71.714,82.338,72.151,81.084,72.151z M80.873,63.406c-0.984,0-1.696,0.272-2.136,0.817s-0.665,1.412-0.677,2.602v0.325
		c0,1.354,0.226,2.322,0.677,2.905s1.175,0.874,2.171,0.874c0.832,0,1.484-0.337,1.956-1.011s0.708-1.603,0.708-2.786
		c0-1.201-0.236-2.122-0.708-2.765C82.392,63.728,81.729,63.406,80.873,63.406z"/>
	<path d="M90.743,70.947c0.258,0,0.507-0.019,0.747-0.058c0.24-0.037,0.431-0.077,0.571-0.118v1.116
		c-0.158,0.076-0.391,0.139-0.699,0.189c-0.308,0.049-0.584,0.074-0.831,0.074c-1.863,0-2.795-0.981-2.795-2.944v-5.73h-1.38v-0.703
		l1.38-0.606l0.615-2.057h0.844v2.232h2.795v1.134h-2.795v5.669c0,0.58,0.138,1.025,0.413,1.336S90.263,70.947,90.743,70.947z"/>
	<path d="M95.357,62.343v6.249c0,0.785,0.179,1.371,0.536,1.758s0.917,0.58,1.679,0.58c1.008,0,1.745-0.275,2.21-0.826
		s0.699-1.45,0.699-2.698v-5.062h1.459v9.633h-1.204l-0.211-1.292h-0.079c-0.299,0.475-0.713,0.838-1.244,1.09
		s-1.135,0.378-1.815,0.378c-1.172,0-2.049-0.278-2.632-0.835s-0.875-1.447-0.875-2.672v-6.302h1.477V62.343z"/>
	<path d="M109.429,62.167c0.428,0,0.812,0.035,1.151,0.105l-0.202,1.354c-0.398-0.088-0.75-0.132-1.055-0.132
		c-0.779,0-1.446,0.316-2,0.949s-0.831,1.421-0.831,2.364v5.168h-1.459v-9.633h1.204l0.167,1.784h0.07
		c0.357-0.627,0.788-1.11,1.292-1.45S108.825,62.167,109.429,62.167z"/>
	<path d="M118.306,71.976l-0.29-1.371h-0.07c-0.48,0.604-0.959,1.013-1.437,1.227c-0.478,0.213-1.074,0.32-1.789,0.32
		c-0.955,0-1.704-0.246-2.246-0.738s-0.813-1.192-0.813-2.101c0-1.945,1.556-2.965,4.667-3.059l1.635-0.053v-0.598
		c0-0.756-0.163-1.313-0.488-1.675c-0.325-0.359-0.845-0.54-1.56-0.54c-0.803,0-1.711,0.246-2.725,0.738l-0.448-1.116
		c0.475-0.258,0.995-0.46,1.56-0.606s1.132-0.22,1.701-0.22c1.148,0,2,0.255,2.553,0.765s0.831,1.327,0.831,2.452v6.574h-1.081
		V71.976z M115.01,70.947c0.908,0,1.622-0.249,2.14-0.747s0.778-1.195,0.778-2.092v-0.87l-1.459,0.062
		c-1.16,0.041-1.997,0.222-2.509,0.541s-0.769,0.815-0.769,1.489c0,0.527,0.16,0.929,0.479,1.204S114.436,70.947,115.01,70.947z"/>
	<path d="M126.787,62.167c0.428,0,0.812,0.035,1.151,0.105l-0.202,1.354c-0.398-0.088-0.75-0.132-1.055-0.132
		c-0.779,0-1.446,0.316-2,0.949s-0.831,1.421-0.831,2.364v5.168h-1.459v-9.633h1.204l0.167,1.784h0.07
		c0.357-0.627,0.788-1.11,1.292-1.45S126.184,62.167,126.787,62.167z"/>
</g>
<line fill="none" stroke="#388E3C" stroke-miterlimit="10" x1="66.726" y1="45.333" x2="116" y2="45.333"/>
<line fill="none" stroke="#3F51B5" stroke-miterlimit="10" x1="223.459" y1="45.333" x2="272.733" y2="45.333"/>
<line fill="none" stroke="#9C27B0" stroke-miterlimit="10" x1="392.312" y1="45.333" x2="441.585" y2="45.333"/>
<line fill="none" stroke="#E53935" stroke-miterlimit="10" x1="549.503" y1="45.333" x2="598.776" y2="45.333"/>
</svg>
