<?xml version="1.0" encoding="utf-8"?>
<!-- Generator: Adobe Illustrator 16.0.0, SVG Export Plug-In . SVG Version: 6.00 Build 0)  -->
<!DOCTYPE svg PUBLIC "-//W3C//DTD SVG 1.1//EN" "http://www.w3.org/Graphics/SVG/1.1/DTD/svg11.dtd">
<svg version="1.1" id="Capa_1" xmlns="http://www.w3.org/2000/svg" xmlns:xlink="http://www.w3.org/1999/xlink" x="0px" y="0px"
	 width="160px" height="66px" viewBox="0 0 160 66" enable-background="new 0 0 160 66" xml:space="preserve">
<g>
	<g>
		<path fill="#060E9F" d="M62.947,31.659c0-8.408-10.45-15.264-23.339-15.264S16.27,23.251,16.27,31.659
			c0,0.218-0.002,0.818-0.002,0.894c0,8.923,9.133,16.147,23.335,16.147c14.294,0,23.343-7.222,23.343-16.146
			C62.947,32.242,62.947,32.063,62.947,31.659z"/>
		<ellipse fill="#009EE2" cx="39.612" cy="31.653" rx="22.44" ry="14.354"/>
		<g>
			<path fill="#FFFFFF" d="M32.161,27.124c-0.012,0.022-0.235,0.253-0.09,0.44c0.355,0.451,1.447,0.712,2.555,0.463
				c0.658-0.147,1.501-0.82,2.319-1.467c0.886-0.706,1.765-1.41,2.648-1.691c0.937-0.296,1.536-0.169,1.933-0.049
				c0.434,0.129,0.944,0.415,1.761,1.027c1.536,1.155,7.71,6.543,8.775,7.476c0.861-0.388,4.679-2.032,9.867-3.176
				c-0.451-2.767-2.132-5.297-4.687-7.368c-3.556,1.494-7.902,2.273-12.152,0.196c-0.022-0.008-2.324-1.098-4.593-1.043
				c-3.373,0.078-4.831,1.537-6.378,3.083L32.161,27.124z"/>
			<path fill="#FFFFFF" d="M51.813,33.908c-0.073-0.063-7.26-6.354-8.89-7.578c-0.941-0.706-1.465-0.885-2.016-0.955
				c-0.285-0.038-0.682,0.015-0.958,0.092c-0.758,0.204-1.749,0.867-2.628,1.564c-0.91,0.725-1.769,1.408-2.564,1.585
				c-1.019,0.229-2.261-0.041-2.828-0.424c-0.229-0.155-0.391-0.333-0.47-0.514c-0.208-0.486,0.178-0.876,0.241-0.939l1.983-2.146
				c0.23-0.23,0.463-0.459,0.702-0.688c-0.641,0.084-1.233,0.25-1.811,0.408c-0.716,0.202-1.408,0.394-2.107,0.394
				c-0.292,0-1.856-0.255-2.153-0.336c-1.795-0.492-3.371-0.972-5.723-2.069c-2.819,2.1-4.705,4.724-5.25,7.614
				c0.404,0.106,1.057,0.302,1.332,0.364c6.38,1.418,8.368,2.878,8.729,3.185c0.39-0.435,0.953-0.708,1.581-0.708
				c0.706,0,1.343,0.354,1.73,0.902c0.365-0.287,0.867-0.535,1.52-0.535c0.296,0,0.602,0.056,0.912,0.162
				c0.72,0.247,1.092,0.727,1.285,1.159c0.241-0.108,0.537-0.189,0.888-0.188c0.343,0,0.7,0.077,1.061,0.234
				c1.175,0.504,1.359,1.659,1.252,2.529c0.084-0.007,0.167-0.014,0.253-0.014c1.396,0.003,2.53,1.135,2.53,2.532
				c0,0.431-0.11,0.839-0.304,1.194c0.379,0.214,1.349,0.695,2.197,0.588c0.68-0.084,0.937-0.317,1.028-0.447
				c0.063-0.091,0.131-0.196,0.068-0.27l-1.8-1.999c0,0-0.296-0.283-0.197-0.39c0.1-0.113,0.283,0.048,0.414,0.156
				c0.914,0.766,2.035,1.921,2.035,1.921c0.018,0.012,0.091,0.158,0.506,0.232c0.357,0.063,0.987,0.025,1.424-0.334
				c0.11-0.089,0.22-0.201,0.312-0.319c-0.006,0.006-0.014,0.015-0.021,0.016c0.461-0.588-0.05-1.183-0.05-1.183l-2.102-2.361
				c0,0-0.302-0.277-0.2-0.39c0.092-0.098,0.286,0.05,0.418,0.157c0.665,0.557,1.606,1.501,2.508,2.383
				c0.176,0.131,0.967,0.62,2.016-0.069c0.637-0.416,0.764-0.93,0.747-1.318c-0.045-0.511-0.445-0.875-0.445-0.875l-2.871-2.887
				c0,0-0.304-0.259-0.195-0.39c0.087-0.11,0.286,0.049,0.412,0.155c0.916,0.767,3.391,3.036,3.391,3.036
				c0.036,0.027,0.892,0.636,1.949-0.038c0.376-0.24,0.62-0.606,0.641-1.028C52.331,34.345,51.813,33.908,51.813,33.908z"/>
			<path fill="#FFFFFF" d="M37.885,37.566c-0.444-0.004-0.932,0.261-0.996,0.223c-0.035-0.024,0.027-0.202,0.07-0.307
				c0.042-0.103,0.628-1.867-0.8-2.479c-1.094-0.469-1.763,0.06-1.994,0.299c-0.059,0.061-0.085,0.057-0.094-0.022
				c-0.021-0.319-0.164-1.178-1.108-1.466c-1.348-0.414-2.216,0.528-2.436,0.87c-0.098-0.77-0.749-1.368-1.544-1.368
				c-0.865-0.002-1.567,0.7-1.569,1.565c0,0.865,0.702,1.565,1.567,1.565c0.42,0.001,0.802-0.168,1.083-0.438
				c0.008,0.009,0.012,0.022,0.008,0.054c-0.067,0.388-0.188,1.795,1.285,2.366c0.592,0.231,1.094,0.06,1.51-0.232
				c0.125-0.087,0.145-0.051,0.126,0.065c-0.053,0.363,0.015,1.139,1.102,1.577c0.826,0.338,1.316-0.006,1.636-0.301
				c0.141-0.13,0.178-0.109,0.184,0.089c0.04,1.047,0.91,1.877,1.967,1.88c1.089,0,1.971-0.879,1.971-1.968
				C39.856,38.449,38.975,37.58,37.885,37.566z"/>
		</g>
		<path fill="#060E9F" d="M52.09,33.154c-2.214-1.932-7.331-6.379-8.716-7.42c-0.792-0.596-1.332-0.91-1.806-1.052
			c-0.214-0.065-0.508-0.136-0.888-0.138c-0.353,0-0.73,0.063-1.126,0.189c-0.896,0.284-1.788,0.994-2.65,1.679l-0.045,0.035
			c-0.803,0.638-1.634,1.299-2.262,1.44c-0.275,0.062-0.559,0.094-0.839,0.094c-0.704-0.002-1.336-0.204-1.573-0.508
			c-0.041-0.048-0.016-0.13,0.076-0.247l0.012-0.015l1.949-2.1c1.526-1.526,2.967-2.966,6.284-3.042
			c0.053,0,0.108-0.002,0.165-0.002c2.063,0.002,4.127,0.927,4.358,1.033c1.937,0.943,3.934,1.424,5.944,1.426
			c2.091,0,4.252-0.519,6.523-1.563c-0.253-0.215-0.518-0.422-0.788-0.626c-1.998,0.865-3.897,1.302-5.731,1.302
			c-1.871,0-3.745-0.451-5.561-1.338c-0.096-0.045-2.375-1.12-4.746-1.12c-0.061,0-0.126,0-0.188,0.001
			c-2.785,0.065-4.354,1.056-5.409,1.92c-1.026,0.027-1.914,0.273-2.701,0.494c-0.702,0.193-1.31,0.365-1.901,0.365
			c-0.246,0-0.684-0.022-0.723-0.025c-0.682-0.02-4.111-0.863-6.841-1.895c-0.277,0.198-0.547,0.4-0.808,0.608
			c2.853,1.169,6.322,2.073,7.417,2.145c0.304,0.021,0.628,0.055,0.953,0.055c0.724,0,1.446-0.204,2.148-0.4
			c0.413-0.116,0.867-0.241,1.349-0.334c-0.129,0.126-0.257,0.255-0.386,0.382l-1.977,2.141c-0.157,0.159-0.494,0.579-0.271,1.095
			c0.087,0.208,0.267,0.408,0.52,0.578c0.471,0.316,1.314,0.533,2.1,0.533c0.298,0,0.58-0.031,0.838-0.088
			c0.831-0.185,1.7-0.879,2.62-1.611c0.735-0.584,1.779-1.324,2.577-1.542c0.225-0.062,0.499-0.098,0.719-0.098
			c0.065,0,0.128,0.002,0.185,0.01c0.529,0.067,1.039,0.247,1.951,0.93c1.625,1.22,8.81,7.508,8.882,7.57
			c0.006,0.005,0.463,0.4,0.431,1.058c-0.016,0.367-0.221,0.691-0.574,0.917c-0.306,0.194-0.622,0.294-0.942,0.294
			c-0.481-0.002-0.813-0.226-0.834-0.24c-0.024-0.022-2.487-2.281-3.393-3.039c-0.145-0.121-0.286-0.229-0.427-0.229
			c-0.075,0-0.145,0.033-0.19,0.09c-0.142,0.173,0.019,0.418,0.207,0.579l2.877,2.89c0.004,0.004,0.357,0.337,0.396,0.779
			c0.024,0.479-0.207,0.881-0.682,1.194c-0.338,0.222-0.684,0.336-1.02,0.336c-0.443,0-0.751-0.199-0.82-0.249l-0.413-0.406
			c-0.755-0.742-1.534-1.511-2.103-1.984c-0.139-0.115-0.288-0.224-0.429-0.224c-0.072,0-0.133,0.027-0.182,0.078
			c-0.065,0.071-0.11,0.202,0.051,0.416c0.067,0.09,0.145,0.164,0.145,0.164l2.1,2.358c0.018,0.021,0.433,0.514,0.049,1.005
			l-0.075,0.093c-0.063,0.068-0.131,0.135-0.194,0.19c-0.359,0.293-0.836,0.324-1.026,0.324c-0.102,0-0.2-0.009-0.283-0.025
			c-0.208-0.036-0.347-0.094-0.415-0.173l-0.024-0.026c-0.116-0.119-1.175-1.2-2.048-1.929c-0.116-0.098-0.261-0.221-0.408-0.221
			c-0.076,0-0.141,0.028-0.19,0.086c-0.174,0.19,0.086,0.474,0.196,0.577l1.792,1.974c-0.002,0.019-0.024,0.059-0.067,0.12
			c-0.065,0.09-0.283,0.306-0.932,0.388c-0.078,0.013-0.157,0.015-0.237,0.015c-0.668,0-1.385-0.324-1.752-0.521
			c0.167-0.353,0.255-0.742,0.255-1.135c0-1.474-1.196-2.673-2.671-2.673c-0.03,0-0.065,0-0.096,0.003
			c0.049-0.674-0.046-1.947-1.354-2.509c-0.377-0.163-0.75-0.246-1.116-0.246c-0.285,0-0.562,0.048-0.818,0.148
			c-0.271-0.526-0.723-0.91-1.308-1.11c-0.325-0.114-0.646-0.169-0.959-0.169c-0.545,0-1.047,0.161-1.491,0.477
			c-0.431-0.532-1.078-0.848-1.759-0.848c-0.595,0-1.169,0.241-1.593,0.661c-0.559-0.427-2.769-1.831-8.686-3.175
			c-0.288-0.063-0.945-0.253-1.348-0.371c-0.065,0.322-0.116,0.645-0.149,0.973c0,0,1.089,0.261,1.306,0.308
			c6.043,1.343,8.041,2.738,8.377,3.003c-0.114,0.273-0.174,0.569-0.174,0.869c-0.002,1.249,1.015,2.266,2.265,2.267
			c0.139,0,0.278-0.012,0.415-0.038c0.19,0.92,0.792,1.615,1.709,1.975c0.268,0.103,0.541,0.154,0.806,0.154
			c0.174,0,0.347-0.021,0.516-0.064c0.17,0.433,0.553,0.97,1.406,1.315c0.298,0.122,0.6,0.185,0.89,0.185
			c0.237,0,0.469-0.043,0.692-0.124c0.408,0.997,1.383,1.656,2.468,1.656c0.721,0.002,1.41-0.292,1.914-0.81
			c0.43,0.24,1.34,0.673,2.261,0.675c0.118,0,0.231-0.008,0.343-0.022c0.912-0.116,1.338-0.474,1.534-0.751
			c0.033-0.047,0.065-0.1,0.094-0.153c0.215,0.062,0.454,0.112,0.723,0.115c0.5,0,0.979-0.173,1.463-0.525
			c0.476-0.342,0.814-0.831,0.861-1.253c0.002-0.005,0.004-0.012,0.004-0.018c0.159,0.034,0.324,0.051,0.487,0.051
			c0.514,0,1.021-0.161,1.501-0.478c0.931-0.609,1.094-1.408,1.078-1.931c0.164,0.036,0.328,0.054,0.496,0.054
			c0.481,0,0.955-0.146,1.406-0.433c0.578-0.369,0.926-0.935,0.978-1.592c0.037-0.447-0.076-0.897-0.31-1.285
			c1.561-0.671,5.125-1.973,9.325-2.92c-0.027-0.324-0.074-0.645-0.131-0.967C56.831,31.092,53.039,32.732,52.09,33.154z
			 M37.885,41.366c-0.985,0-1.789-0.769-1.826-1.745c-0.002-0.083-0.01-0.306-0.198-0.306c-0.077,0-0.145,0.046-0.222,0.116
			c-0.217,0.202-0.494,0.405-0.897,0.405c-0.182,0-0.38-0.042-0.59-0.128c-1.041-0.423-1.057-1.139-1.014-1.427
			c0.012-0.076,0.016-0.155-0.039-0.219l-0.063-0.057H32.97c-0.053,0-0.106,0.022-0.181,0.073c-0.3,0.212-0.59,0.314-0.884,0.314
			c-0.161,0-0.328-0.032-0.494-0.096c-1.371-0.534-1.263-1.828-1.195-2.218c0.009-0.08-0.01-0.141-0.062-0.182l-0.096-0.08
			l-0.09,0.088c-0.27,0.257-0.618,0.397-0.985,0.397c-0.786-0.002-1.424-0.638-1.424-1.424c0-0.787,0.641-1.424,1.426-1.424
			c0.71,0,1.314,0.535,1.406,1.243l0.047,0.384l0.21-0.324c0.024-0.037,0.6-0.908,1.659-0.906c0.202,0,0.408,0.033,0.618,0.098
			c0.842,0.258,0.985,1.021,1.008,1.339c0.016,0.188,0.147,0.195,0.173,0.195c0.071,0,0.126-0.046,0.165-0.085
			c0.159-0.168,0.504-0.443,1.047-0.443c0.249,0,0.514,0.06,0.785,0.178c1.341,0.576,0.733,2.276,0.727,2.296
			c-0.116,0.281-0.121,0.407-0.013,0.479l0.053,0.023h0.039c0.062,0,0.135-0.026,0.261-0.066c0.182-0.063,0.458-0.156,0.714-0.156
			l0,0c1.01,0.01,1.83,0.831,1.83,1.829C39.715,40.547,38.894,41.366,37.885,41.366z"/>
	</g>
	<g>
		<path fill="#060E9F" d="M142.467,21.933c-0.842-1.055-2.117-1.583-3.836-1.583c-1.715,0-2.992,0.528-3.836,1.583
			c-0.84,1.055-1.266,2.304-1.266,3.742c0,1.465,0.426,2.716,1.266,3.756c0.844,1.039,2.121,1.561,3.836,1.561
			c1.719,0,2.994-0.522,3.836-1.561c0.846-1.041,1.266-2.292,1.266-3.756C143.732,24.236,143.313,22.988,142.467,21.933z
			 M140.381,27.988c-0.408,0.543-0.99,0.814-1.76,0.814c-0.762,0-1.35-0.271-1.762-0.814c-0.412-0.542-0.615-1.314-0.615-2.313
			s0.203-1.77,0.615-2.31c0.412-0.539,1-0.808,1.762-0.808c0.77,0,1.352,0.27,1.76,0.808c0.408,0.54,0.611,1.31,0.611,2.31
			S140.789,27.446,140.381,27.988z"/>
		<path fill="#060E9F" d="M120.941,21.051c-0.854-0.432-1.832-0.653-2.934-0.653c-1.691,0-2.887,0.443-3.58,1.324
			c-0.438,0.563-0.682,1.281-0.738,2.157h2.525c0.063-0.386,0.188-0.692,0.371-0.918c0.262-0.306,0.707-0.459,1.33-0.459
			c0.564,0,0.984,0.078,1.273,0.236c0.291,0.155,0.434,0.439,0.434,0.847c0,0.338-0.188,0.586-0.563,0.745
			c-0.209,0.092-0.561,0.169-1.049,0.231l-0.895,0.11c-1.016,0.128-1.791,0.343-2.314,0.643c-0.953,0.553-1.436,1.443-1.436,2.673
			c0,0.949,0.299,1.683,0.893,2.2c0.592,0.518,1.348,0.735,2.258,0.777c5.717,0.255,5.652-3.012,5.705-3.689v-3.76
			C122.223,22.306,121.793,21.486,120.941,21.051z M119.615,26.756c-0.021,0.875-0.27,1.479-0.752,1.81s-1.008,0.496-1.578,0.496
			c-0.363,0-0.67-0.1-0.924-0.298c-0.248-0.2-0.375-0.522-0.375-0.971c0-0.502,0.205-0.872,0.617-1.11
			c0.244-0.141,0.645-0.261,1.203-0.357l0.602-0.11c0.293-0.057,0.529-0.116,0.697-0.182c0.174-0.063,0.342-0.145,0.51-0.251V26.756
			z"/>
		<path fill="#060E9F" d="M107.912,22.639c0.652,0,1.131,0.202,1.443,0.604c0.207,0.3,0.344,0.637,0.396,1.008h2.814
			c-0.154-1.422-0.646-2.414-1.488-2.977c-0.846-0.56-1.922-0.841-3.244-0.841c-1.551,0-2.771,0.476-3.652,1.428
			s-1.322,2.283-1.322,3.997c0,1.517,0.396,2.753,1.195,3.704c0.801,0.953,2.045,1.43,3.738,1.43c1.697,0,2.975-0.571,3.84-1.714
			c0.539-0.708,0.84-1.459,0.906-2.252h-2.809c-0.057,0.523-0.219,0.952-0.492,1.281c-0.27,0.33-0.729,0.496-1.377,0.496
			c-0.908,0-1.525-0.415-1.855-1.247c-0.18-0.442-0.273-1.03-0.273-1.763c0-0.765,0.094-1.379,0.273-1.845
			C106.348,23.075,106.986,22.639,107.912,22.639z"/>
		<path fill="#060E9F" d="M102.104,20.433c-5.789,0-5.447,5.125-5.447,5.125v5.207h2.625v-4.883c0-0.802,0.102-1.394,0.301-1.779
			c0.363-0.684,1.066-1.026,2.119-1.026c0.076,0,0.182,0.004,0.309,0.01c0.127,0.006,0.275,0.019,0.441,0.037v-2.673
			c-0.113-0.008-0.191-0.01-0.225-0.014C102.189,20.435,102.154,20.433,102.104,20.433z"/>
		<path fill="#060E9F" d="M92.449,28.046c-0.109,0.157-0.229,0.291-0.359,0.395c-0.371,0.307-0.873,0.4-1.469,0.4
			c-0.563,0-1-0.085-1.395-0.336c-0.658-0.402-1.029-1.083-1.066-2.085h7.268c0.014-0.861-0.016-1.52-0.086-1.981
			c-0.121-0.781-0.387-1.471-0.795-2.063c-0.453-0.674-1.027-1.165-1.727-1.477c-0.693-0.313-1.477-0.468-2.342-0.468
			c-1.465,0-2.652,0.461-3.57,1.384c-0.918,0.924-1.375,2.248-1.375,3.979c0,1.845,0.506,3.177,1.521,3.995
			c1.016,0.818,2.191,1.229,3.518,1.229c1.607,0,2.861-0.486,3.754-1.457c0.482-0.51,0.783-1.016,0.91-1.514H92.449z M88.92,23.153
			c0.367-0.379,0.885-0.569,1.559-0.569c0.617,0,1.131,0.177,1.547,0.539c0.416,0.357,0.648,0.883,0.693,1.575h-4.492
			C88.316,24.048,88.553,23.534,88.92,23.153z"/>
		<g>
			<path fill="#060E9F" d="M84.477,30.766h-2.399v-6.044c0-0.553-0.183-1.867-1.767-1.867c-1.055,0-1.82,0.763-1.82,1.867v6.044
				h-2.402v-6.044c0-0.553-0.164-1.867-1.746-1.867c-1.074,0-1.818,0.763-1.818,1.867v6.044h-2.401v-5.986
				c0-2.496,1.652-4.381,4.22-4.381c1.275,0,2.312,0.535,2.985,1.39c0.71-0.855,1.765-1.39,2.983-1.39
				c2.619,0,4.166,1.808,4.166,4.381V30.766z"/>
		</g>
		<path fill="#060E9F" d="M132.75,17.277c0,0-2.646-0.284-2.646,1.842v2.816c-0.295-0.472-0.674-0.839-1.148-1.104
			c-0.465-0.266-1.004-0.398-1.611-0.398c-1.311,0-2.359,0.488-3.143,1.463c-0.783,0.979-1.174,2.387-1.174,4.088
			c0,1.478,0.395,2.69,1.195,3.632c0.795,0.943,2.357,1.357,3.746,1.357c4.834,0,4.777-4.15,4.777-4.15L132.75,17.277z
			 M129.6,28.011c-0.383,0.549-0.945,0.823-1.686,0.823c-0.738,0-1.289-0.276-1.652-0.827c-0.363-0.555-0.543-1.361-0.543-2.281
			c0-0.855,0.176-1.571,0.535-2.147c0.355-0.578,0.914-0.867,1.678-0.867c0.502,0,0.941,0.159,1.322,0.475
			c0.611,0.526,0.922,1.469,0.922,2.687C130.176,26.75,129.984,27.46,129.6,28.011z"/>
	</g>
	<g>
		<g>
			<path fill="#009EE2" d="M89.309,47.441c0,0.357-0.129,0.662-0.389,0.915c-0.258,0.253-0.566,0.379-0.928,0.379H86.68v-9.129
				c0-1.775,0.6-2.887,1.584-3.638c0.652-0.498,1.623-0.972,3.439-0.972c1.225,0,2.66,0.476,3.436,1.422
				c0.873,1.065,1.236,2.251,1.236,3.8c0,1.602-0.387,2.894-1.158,3.888c-0.771,0.967-1.764,1.448-2.975,1.448
				c-0.645,0-1.209-0.115-1.699-0.344c-0.518-0.253-0.926-0.646-1.234-1.181V47.441z M93.711,40.334c0-0.993-0.191-1.753-0.58-2.288
				c-0.387-0.53-0.939-0.8-1.66-0.8c-0.695,0-1.236,0.27-1.625,0.8c-0.359,0.483-0.537,1.246-0.537,2.288
				c0,0.968,0.191,1.688,0.578,2.171c0.389,0.536,0.939,0.802,1.66,0.802c0.67,0,1.197-0.266,1.584-0.802
				C93.52,41.972,93.711,41.25,93.711,40.334"/>
			<path fill="#009EE2" d="M113.783,44.712v-0.646c-0.453,0.713-1.068,1.153-1.84,1.332c-0.771,0.178-1.535,0.115-2.293-0.191
				c-0.76-0.302-1.414-0.868-1.955-1.692c-0.543-0.826-0.816-1.912-0.816-3.259c0-1.571,0.363-2.85,1.082-3.826
				c0.723-0.976,1.881-1.422,3.471-1.467c1.572-0.041,2.482,0.313,3.375,0.991c0.98,0.741,1.555,1.879,1.555,3.655v5.372
				c0.004,1.709-1.186,4.877-4.93,4.607c-2.316-0.167-3.605-1.118-4.324-3.275h2.77c0.201,0.355,0.512,0.629,0.932,0.816
				c0.412,0.192,0.832,0.242,1.248,0.154c0.416-0.089,0.797-0.338,1.145-0.742C113.539,46.136,113.734,45.525,113.783,44.712
				 M109.457,40.335c0,1.75,0.508,2.723,1.52,2.914c1.012,0.186,1.758-0.049,2.238-0.707c0.229-0.279,0.393-0.718,0.496-1.313
				c0.098-0.597,0.105-1.188,0.016-1.772c-0.086-0.582-0.297-1.104-0.625-1.561c-0.33-0.455-0.813-0.688-1.445-0.688
				c-0.855,0-1.436,0.32-1.742,0.951C109.609,38.797,109.457,39.521,109.457,40.335"/>
			<path fill="#009EE2" d="M104.635,35.689c-0.857-0.433-1.832-0.653-2.934-0.653c-1.693,0-2.887,0.443-3.58,1.322
				c-0.436,0.565-0.686,1.283-0.742,2.158h2.529c0.063-0.386,0.188-0.69,0.373-0.918c0.26-0.306,0.705-0.459,1.33-0.459
				c0.563,0,0.982,0.078,1.273,0.235c0.285,0.157,0.432,0.438,0.432,0.851c0,0.335-0.188,0.583-0.563,0.745
				c-0.213,0.089-0.561,0.167-1.049,0.227l-0.895,0.109c-1.016,0.13-1.791,0.345-2.313,0.646c-0.961,0.55-1.438,1.441-1.438,2.672
				c0,0.946,0.297,1.682,0.895,2.2c0.592,0.516,1.346,0.734,2.256,0.775c5.713,0.257,5.652-3.01,5.701-3.689v-3.76
				C105.912,36.944,105.486,36.123,104.635,35.689 M103.305,41.394c-0.018,0.875-0.27,1.478-0.746,1.808
				c-0.486,0.331-1.01,0.496-1.58,0.496c-0.363,0-0.67-0.1-0.922-0.298c-0.254-0.198-0.381-0.522-0.381-0.97
				c0-0.5,0.209-0.871,0.621-1.111c0.244-0.139,0.645-0.261,1.203-0.354l0.596-0.11c0.299-0.058,0.535-0.119,0.701-0.184
				c0.172-0.062,0.34-0.145,0.508-0.251V41.394z"/>
			<path fill="#009EE2" d="M126.303,36.518c-0.846-1.057-2.121-1.585-3.84-1.585c-1.715,0-2.992,0.528-3.836,1.585
				c-0.84,1.053-1.262,2.3-1.262,3.739c0,1.464,0.422,2.715,1.262,3.757c0.844,1.039,2.121,1.559,3.836,1.559
				c1.719,0,2.994-0.52,3.84-1.559c0.842-1.042,1.262-2.293,1.262-3.757C127.564,38.817,127.145,37.57,126.303,36.518
				 M124.213,42.569c-0.406,0.543-0.99,0.813-1.754,0.813c-0.768,0-1.355-0.271-1.768-0.813c-0.412-0.54-0.615-1.313-0.615-2.313
				c0-0.999,0.203-1.769,0.615-2.308c0.412-0.54,1-0.81,1.768-0.81c0.764,0,1.348,0.27,1.754,0.81
				c0.41,0.539,0.613,1.309,0.613,2.308C124.826,41.257,124.623,42.029,124.213,42.569"/>
		</g>
	</g>
</g>
</svg>
