<?xml version="1.0" encoding="utf-8"?>
<!-- Generator: Adobe Illustrator 16.0.0, SVG Export Plug-In . SVG Version: 6.00 Build 0)  -->
<!DOCTYPE svg PUBLIC "-//W3C//DTD SVG 1.1//EN" "http://www.w3.org/Graphics/SVG/1.1/DTD/svg11.dtd">
<svg version="1.1" id="Capa_1" xmlns="http://www.w3.org/2000/svg" xmlns:xlink="http://www.w3.org/1999/xlink" x="0px" y="0px"
	 width="160.667px" height="69.333px" viewBox="0 0 160.667 69.333" enable-background="new 0 0 160.667 69.333"
	 xml:space="preserve">
<g>
	<path fill="#253B80" d="M67.215,32.951c-0.332,2.176-1.995,2.176-3.603,2.176h-0.915l0.642-4.064
		c0.038-0.246,0.251-0.427,0.499-0.427h0.419c1.095,0,2.128,0,2.662,0.625C67.239,31.633,67.336,32.186,67.215,32.951
		 M66.515,27.271h-6.064c-0.416,0-0.768,0.301-0.833,0.711l-2.453,15.551c-0.049,0.307,0.189,0.584,0.5,0.584h2.896
		c0.416,0,0.768-0.301,0.833-0.712l0.662-4.195c0.063-0.411,0.417-0.712,0.832-0.712h1.919c3.996,0,6.301-1.933,6.903-5.764
		c0.271-1.676,0.011-2.993-0.773-3.915C70.074,27.806,68.545,27.271,66.515,27.271"/>
	<path fill="#253B80" d="M80.596,38.533c-0.281,1.659-1.597,2.772-3.277,2.772c-0.843,0-1.518-0.27-1.95-0.783
		c-0.429-0.509-0.593-1.233-0.456-2.04c0.261-1.645,1.601-2.795,3.254-2.795c0.825,0,1.495,0.273,1.937,0.791
		C80.547,37,80.723,37.729,80.596,38.533 M84.644,32.881H81.74c-0.248,0-0.461,0.18-0.499,0.426l-0.129,0.812l-0.203-0.294
		c-0.628-0.912-2.03-1.217-3.43-1.217c-3.209,0-5.951,2.43-6.484,5.84c-0.278,1.701,0.117,3.327,1.082,4.462
		c0.885,1.042,2.151,1.477,3.658,1.477c2.586,0,4.02-1.663,4.02-1.663l-0.13,0.807c-0.048,0.308,0.189,0.585,0.499,0.585h2.616
		c0.416,0,0.767-0.301,0.833-0.712l1.57-9.939C85.191,33.158,84.955,32.881,84.644,32.881"/>
	<path fill="#253B80" d="M100.111,32.881h-2.918c-0.278,0-0.54,0.138-0.698,0.37l-4.026,5.929l-1.706-5.697
		c-0.107-0.357-0.437-0.601-0.809-0.601h-2.868c-0.349,0-0.591,0.34-0.48,0.668l3.215,9.434l-3.023,4.266
		c-0.237,0.337,0.002,0.799,0.413,0.799h2.915c0.277,0,0.536-0.135,0.693-0.363l9.707-14.011
		C100.759,33.339,100.521,32.881,100.111,32.881"/>
	<path fill="#179BD7" d="M110.474,32.951c-0.331,2.176-1.994,2.176-3.603,2.176h-0.914l0.643-4.064
		c0.038-0.246,0.249-0.427,0.498-0.427h0.419c1.095,0,2.128,0,2.664,0.625C110.499,31.633,110.595,32.186,110.474,32.951
		 M109.774,27.271h-6.065c-0.414,0-0.768,0.301-0.832,0.711l-2.453,15.551c-0.049,0.307,0.188,0.584,0.498,0.584h3.112
		c0.29,0,0.538-0.212,0.583-0.499l0.696-4.408c0.064-0.411,0.418-0.712,0.832-0.712h1.92c3.995,0,6.3-1.933,6.902-5.764
		c0.273-1.676,0.012-2.993-0.773-3.915C113.332,27.806,111.804,27.271,109.774,27.271"/>
	<path fill="#179BD7" d="M123.854,38.533c-0.278,1.659-1.598,2.772-3.276,2.772c-0.842,0-1.518-0.27-1.951-0.783
		c-0.429-0.509-0.59-1.233-0.456-2.04c0.265-1.645,1.602-2.795,3.256-2.795c0.824,0,1.494,0.273,1.937,0.791
		C123.806,37,123.983,37.729,123.854,38.533 M127.902,32.881H125c-0.249,0-0.461,0.18-0.499,0.426l-0.128,0.812l-0.204-0.294
		c-0.628-0.912-2.03-1.217-3.429-1.217c-3.209,0-5.949,2.43-6.484,5.84c-0.276,1.701,0.117,3.327,1.082,4.462
		c0.887,1.042,2.15,1.477,3.657,1.477c2.587,0,4.02-1.663,4.02-1.663l-0.129,0.807c-0.049,0.308,0.188,0.585,0.5,0.585H126
		c0.414,0,0.768-0.301,0.832-0.712l1.571-9.939C128.451,33.158,128.214,32.881,127.902,32.881"/>
	<path fill="#179BD7" d="M131.328,27.697l-2.49,15.836c-0.049,0.307,0.188,0.584,0.498,0.584h2.502c0.416,0,0.77-0.301,0.834-0.712
		l2.453-15.551c0.051-0.307-0.188-0.584-0.498-0.584h-2.803C131.578,27.271,131.365,27.452,131.328,27.697"/>
	<path fill="#253B80" d="M31.979,47.139l0.464-2.946l-1.033-0.024h-4.934l3.428-21.737c0.011-0.066,0.045-0.127,0.096-0.17
		c0.051-0.043,0.115-0.067,0.183-0.067h8.318c2.761,0,4.667,0.574,5.662,1.708c0.467,0.533,0.764,1.088,0.907,1.7
		c0.151,0.643,0.154,1.41,0.006,2.344l-0.011,0.069v0.599l0.467,0.264c0.393,0.209,0.705,0.448,0.944,0.72
		c0.399,0.456,0.657,1.034,0.767,1.719c0.112,0.705,0.075,1.544-0.109,2.494c-0.213,1.092-0.557,2.044-1.021,2.822
		c-0.428,0.717-0.972,1.313-1.619,1.774c-0.617,0.438-1.351,0.771-2.179,0.983c-0.804,0.21-1.72,0.315-2.725,0.315h-0.647
		c-0.463,0-0.913,0.167-1.266,0.466c-0.354,0.305-0.588,0.722-0.66,1.177l-0.048,0.266l-0.82,5.191l-0.037,0.19
		c-0.01,0.061-0.027,0.091-0.051,0.111c-0.022,0.019-0.054,0.031-0.085,0.031H31.979z"/>
	<path fill="#179BD7" d="M45.975,28.085c-0.025,0.158-0.053,0.32-0.085,0.488c-1.097,5.632-4.85,7.578-9.643,7.578h-2.44
		c-0.586,0-1.08,0.426-1.171,1.003l-1.249,7.925l-0.354,2.246c-0.06,0.38,0.233,0.721,0.616,0.721h4.328
		c0.513,0,0.949-0.373,1.029-0.877l0.042-0.22l0.815-5.172l0.052-0.283c0.08-0.508,0.516-0.88,1.029-0.88h0.647
		c4.194,0,7.477-1.703,8.436-6.629c0.401-2.059,0.193-3.777-0.867-4.985C46.838,28.634,46.44,28.332,45.975,28.085"/>
	<path fill="#222D65" d="M44.827,27.627c-0.168-0.048-0.341-0.093-0.518-0.133c-0.178-0.039-0.361-0.073-0.549-0.104
		c-0.658-0.106-1.378-0.156-2.151-0.156h-6.52c-0.161,0-0.313,0.036-0.45,0.102c-0.301,0.145-0.524,0.429-0.578,0.778l-1.387,8.784
		l-0.04,0.256c0.092-0.578,0.585-1.003,1.172-1.003h2.44c4.793,0,8.546-1.947,9.644-7.578c0.033-0.167,0.06-0.33,0.085-0.488
		c-0.278-0.147-0.579-0.274-0.902-0.38C44.993,27.678,44.91,27.652,44.827,27.627"/>
	<path fill="#253B80" d="M34.062,28.113c0.054-0.348,0.277-0.633,0.578-0.777c0.137-0.065,0.289-0.102,0.45-0.102h6.52
		c0.772,0,1.493,0.051,2.151,0.157c0.188,0.03,0.371,0.065,0.549,0.104c0.177,0.04,0.35,0.085,0.518,0.133
		c0.083,0.025,0.166,0.051,0.246,0.076c0.324,0.108,0.625,0.235,0.902,0.381c0.327-2.081-0.002-3.499-1.128-4.782
		c-1.24-1.413-3.479-2.018-6.345-2.018h-8.318c-0.585,0-1.085,0.425-1.175,1.004l-3.465,21.961
		c-0.068,0.435,0.267,0.828,0.705,0.828h5.135l1.29-8.182L34.062,28.113z"/>
</g>
</svg>
