<?xml version="1.0" encoding="utf-8"?>
<!-- Generator: Adobe Illustrator 16.0.0, SVG Export Plug-In . SVG Version: 6.00 Build 0)  -->
<!DOCTYPE svg PUBLIC "-//W3C//DTD SVG 1.1//EN" "http://www.w3.org/Graphics/SVG/1.1/DTD/svg11.dtd">
<svg version="1.1" id="Capa_1" xmlns="http://www.w3.org/2000/svg" xmlns:xlink="http://www.w3.org/1999/xlink" x="0px" y="0px"
	 width="160px" height="66px" viewBox="0 0 160 66" enable-background="new 0 0 160 66" xml:space="preserve">
<g>
	<g>
		<path fill="#002F87" d="M72.796,41.123V29.999h3.228c0.547,0,1.069,0.047,1.537,0.177c0.464,0.118,0.883,0.319,1.224,0.612
			c0.228,0.189,0.416,0.428,0.555,0.717c0.184,0.372,0.284,0.832,0.284,1.358c0,0.574-0.128,1.035-0.353,1.409
			c-0.22,0.369-0.543,0.635-0.902,0.838c-0.076,0.045-0.155,0.086-0.238,0.123c0.183,0.059,0.36,0.125,0.531,0.209
			c0.337,0.156,0.643,0.377,0.88,0.662c0.162,0.189,0.295,0.406,0.399,0.67c0.132,0.338,0.207,0.734,0.207,1.207
			c0,0.609-0.13,1.127-0.372,1.564c-0.237,0.434-0.581,0.775-1.016,1.023c-0.279,0.166-0.602,0.291-0.957,0.377
			c-0.461,0.121-0.978,0.178-1.53,0.178H72.796 M76.249,40.057c0.452,0,0.858-0.051,1.215-0.16c0.354-0.104,0.653-0.264,0.885-0.48
			c0.147-0.143,0.275-0.313,0.365-0.508c0.127-0.262,0.196-0.58,0.196-0.959c0-0.443-0.084-0.791-0.238-1.068
			c-0.157-0.283-0.38-0.502-0.685-0.664c-0.199-0.107-0.43-0.197-0.695-0.258c-0.355-0.088-0.765-0.125-1.224-0.125h-2.074v4.223
			H76.249z M75.976,34.77c0.399,0,0.761-0.041,1.083-0.127c0.329-0.088,0.603-0.225,0.813-0.408
			c0.141-0.121,0.264-0.267,0.349-0.451c0.119-0.235,0.186-0.525,0.186-0.895c0-0.411-0.084-0.728-0.227-0.976
			c-0.15-0.243-0.354-0.418-0.616-0.552c-0.174-0.095-0.376-0.164-0.595-0.21c-0.29-0.06-0.612-0.091-0.959-0.091h-2.015v3.71
			H75.976z"/>
		<path fill="#002F87" d="M87.504,33.987c-0.104-0.239-0.245-0.444-0.426-0.614c-0.257-0.251-0.589-0.435-0.978-0.544
			c-0.378-0.108-0.812-0.155-1.279-0.155c-1.593,0.01-2.49,0.471-3.075,0.803c0.432,0.91,0.888,0.689,1.478,0.434
			c0.452-0.193,0.975-0.274,1.524-0.274c0.254,0,0.53,0.06,0.8,0.114c0.159,0.044,0.302,0.103,0.42,0.171
			c0.192,0.12,0.33,0.268,0.436,0.461c0.1,0.193,0.156,0.449,0.156,0.779v1.189c-0.603-0.135-1.21-0.195-1.901-0.195
			c-0.482,0-0.929,0.047-1.341,0.146c-0.3,0.072-0.573,0.174-0.833,0.309c-0.373,0.203-0.678,0.48-0.896,0.826
			c-0.216,0.354-0.324,0.771-0.324,1.256c0,0.395,0.071,0.766,0.201,1.076c0.208,0.467,0.562,0.836,1.003,1.07
			c0.446,0.244,0.97,0.365,1.562,0.365c0,0,0,0,0.002,0c0.681,0,1.223-0.129,1.685-0.344c0.316-0.154,0.591-0.342,0.843-0.566
			c0.006,0.109,0.014,0.199,0.026,0.281c0.013,0.092,0.035,0.172,0.076,0.246c0.027,0.055,0.063,0.109,0.109,0.152
			c0.076,0.059,0.157,0.1,0.244,0.119c0.087,0.023,0.187,0.029,0.293,0.029h0.401v-6.012C87.71,34.678,87.641,34.309,87.504,33.987
			 M86.56,39.045c-0.293,0.338-0.603,0.627-0.965,0.824c-0.383,0.213-0.841,0.34-1.459,0.34c-0.251,0-0.482-0.029-0.699-0.09
			c-0.153-0.043-0.289-0.107-0.413-0.188c-0.179-0.115-0.322-0.275-0.43-0.484c-0.104-0.215-0.164-0.48-0.164-0.814
			c0-0.285,0.055-0.508,0.164-0.693c0.085-0.141,0.185-0.26,0.316-0.375c0.191-0.158,0.445-0.27,0.757-0.352
			c0.3-0.08,0.647-0.117,1.039-0.117c0.685,0,1.291,0.09,1.854,0.213V39.045z"/>
		<path fill="#002F87" d="M95.184,41.123V35.08c0-0.34-0.046-0.59-0.136-0.777c-0.085-0.186-0.196-0.309-0.34-0.405
			c-0.097-0.059-0.213-0.107-0.334-0.14c-0.177-0.041-0.374-0.057-0.587-0.057c-0.554,0-1.1,0.151-1.627,0.394
			c-0.489,0.232-0.966,0.535-1.389,0.857v6.17h-1.153v-8.361h0.55c0.057,0.005,0.111,0.005,0.167,0.012s0.112,0.025,0.171,0.058
			c0.037,0.021,0.072,0.048,0.099,0.08c0.041,0.044,0.074,0.099,0.093,0.15c0.024,0.077,0.047,0.159,0.058,0.247
			c0.015,0.122,0.017,0.261,0.017,0.441v0.09c0.383-0.284,0.809-0.535,1.29-0.743c0.607-0.257,1.281-0.422,2.023-0.422
			c0.33,0,0.648,0.036,0.945,0.13c0.293,0.097,0.565,0.251,0.782,0.5c0.145,0.16,0.258,0.356,0.354,0.578
			c0.117,0.311,0.181,0.678,0.181,1.116v6.125H95.184"/>
		<path fill="#002F87" d="M106.78,40.539c-0.615-0.432-1.09-1.061-1.359-1.844c-0.185-0.525-0.281-1.111-0.281-1.762
			c0-0.963,0.219-1.809,0.616-2.488c0.399-0.679,0.984-1.187,1.698-1.486c0.481-0.188,1.009-0.285,1.588-0.285
			c0.866-0.003,1.639,0.224,2.26,0.662c0.623,0.426,1.09,1.053,1.369,1.84c0.178,0.52,0.271,1.113,0.271,1.758
			c0,0.971-0.209,1.816-0.618,2.492c-0.392,0.674-0.979,1.178-1.691,1.469c-0.483,0.191-1.016,0.297-1.591,0.297
			C108.176,41.191,107.408,40.961,106.78,40.539 M107.428,34.148c-0.421,0.314-0.746,0.779-0.936,1.381
			c-0.13,0.41-0.192,0.877-0.192,1.404c0,0.803,0.148,1.457,0.421,1.965c0.281,0.51,0.669,0.873,1.169,1.08
			c0.335,0.143,0.718,0.219,1.152,0.219c0.643,0,1.182-0.168,1.61-0.479c0.421-0.311,0.738-0.766,0.934-1.375
			c0.123-0.404,0.189-0.877,0.189-1.41c0-0.785-0.151-1.445-0.431-1.953c-0.27-0.516-0.659-0.885-1.162-1.103
			c-0.329-0.143-0.714-0.217-1.141-0.217C108.391,33.661,107.854,33.827,107.428,34.148z"/>
		<path fill="#002F87" d="M124.586,41.123v-6.094c0-0.32-0.043-0.557-0.112-0.74c-0.075-0.178-0.169-0.297-0.299-0.391
			c-0.092-0.056-0.192-0.104-0.313-0.137c-0.156-0.041-0.35-0.06-0.568-0.06c-0.529,0-1.011,0.145-1.468,0.373
			c-0.423,0.215-0.827,0.502-1.213,0.807v6.242h-1.157v-6.094c0-0.316-0.043-0.555-0.12-0.74c-0.074-0.176-0.176-0.295-0.306-0.391
			c-0.089-0.056-0.188-0.104-0.306-0.137c-0.158-0.041-0.339-0.06-0.539-0.06c-0.551,0-1.037,0.142-1.496,0.369
			c-0.431,0.217-0.83,0.506-1.22,0.82v6.232h-1.153v-8.361h0.544c0.058,0.005,0.113,0.005,0.174,0.012
			c0.06,0.007,0.112,0.025,0.175,0.058c0.036,0.017,0.072,0.048,0.1,0.08c0.045,0.044,0.071,0.099,0.094,0.15
			c0.023,0.077,0.041,0.159,0.048,0.247c0.017,0.122,0.02,0.262,0.02,0.441v0.017c0.319-0.232,0.692-0.462,1.104-0.659
			c0.553-0.258,1.188-0.433,1.884-0.433c0.344,0,0.684,0.048,0.988,0.175c0.313,0.126,0.59,0.334,0.797,0.611
			c0.082,0.117,0.151,0.248,0.212,0.393c0.368-0.291,0.784-0.552,1.251-0.767c0.561-0.249,1.191-0.412,1.862-0.412
			c0.327,0,0.641,0.042,0.924,0.141c0.279,0.099,0.539,0.263,0.744,0.493c0.137,0.148,0.25,0.328,0.334,0.535
			c0.104,0.282,0.161,0.6,0.161,0.971v6.309H124.586"/>
		<path fill="#002F87" d="M61.784,37.092l1.52-5.076l1.541,5.076H61.784 M65.713,31.133c-0.308-0.915-0.479-1.13-1.352-1.13h-2.126
			l-3.402,11.12h1.734l0.729-2.395h4.043l0.734,2.395h3.015L65.713,31.133z"/>
		<path fill="#002F87" d="M45.263,39.641v-8.191h1.429c0.688,0,1.281,0.568,1.281,1.255c0,0.241-0.044,0.467-0.28,0.805l-0.926,1.39
			c0.97,0.232,1.616,0.971,1.616,2.35c0,1.678-1.003,2.393-2.329,2.393H45.263 M48.861,34.361l0.545-0.806
			c1.146-1.705,0.357-3.555-1.914-3.555h-4.848v11.124h4.677C51.432,41.125,52.663,36.338,48.861,34.361"/>
		<path fill="#002F87" d="M36.639,39.641h-0.784v-8.191h1.422c0.689,0,1.288,0.568,1.288,1.255c0,0.241-0.044,0.467-0.283,0.805
			l-0.933,1.39c0.974,0.232,1.619,0.971,1.619,2.35C38.968,38.926,37.966,39.641,36.639,39.641 M39.444,34.361l0.544-0.806
			c1.151-1.705,0.362-3.555-1.914-3.555h-4.842v11.124h4.676C42.016,41.125,43.257,36.338,39.444,34.361"/>
		<path fill="#002F87" d="M53.753,31.449c-0.396-1.252-0.597-1.448-1.356-1.448h-1.964l3.639,11.122h2.674l3.389-11.122h-1.759
			l-2.511,8.448L53.753,31.449"/>
		<line fill="#002F87" x1="33.232" y1="30.001" x2="37.907" y2="30.001"/>
		<path fill="#002F87" d="M104.295,33.539c-0.428,0.91-0.842,0.611-1.432,0.359c-0.313-0.133-0.725-0.225-1.266-0.225
			c-0.635,0.002-1.177,0.166-1.612,0.481c-0.438,0.313-0.772,0.771-0.967,1.371c-0.137,0.402-0.213,0.863-0.213,1.393
			c0,0.598,0.09,1.123,0.246,1.559c0.161,0.441,0.393,0.791,0.688,1.061c0.199,0.182,0.421,0.324,0.676,0.432
			c0.345,0.141,0.729,0.213,1.182,0.213c0.592,0,1.044-0.131,1.389-0.299c0.57-0.295,0.96-0.631,1.453,0.246
			c-0.209,0.199-0.561,0.471-0.936,0.65c-0.056,0.025-0.113,0.051-0.176,0.076c-0.465,0.193-1.055,0.336-1.769,0.336l0,0
			c-0.91,0-1.688-0.234-2.315-0.664c-0.623-0.438-1.079-1.066-1.344-1.855c-0.176-0.523-0.263-1.115-0.263-1.754
			c-0.001-0.975,0.222-1.82,0.636-2.496c0.411-0.672,1.012-1.171,1.736-1.466c0.481-0.184,1.025-0.282,1.6-0.282
			C101.941,32.689,103.121,32.584,104.295,33.539"/>
		<path fill="#002F87" d="M133.984,34.855c-0.122-0.371-0.286-0.693-0.493-0.975c-0.308-0.41-0.702-0.714-1.164-0.925
			c-0.465-0.189-0.996-0.282-1.56-0.282c-0.539,0-1.039,0.1-1.496,0.301c-0.674,0.301-1.242,0.811-1.632,1.498
			c-0.388,0.682-0.604,1.523-0.604,2.496c0,0.627,0.081,1.209,0.255,1.73c0.255,0.775,0.7,1.402,1.325,1.834
			c0.619,0.428,1.415,0.658,2.347,0.658h0.002c0.744,0,1.348-0.123,1.844-0.297c0.791-0.299,1.195-0.662,1.391-0.875
			c-0.539-0.783-0.845-0.471-1.468-0.182c-0.366,0.182-1.063,0.332-1.691,0.332c-0.484,0-0.9-0.07-1.247-0.203
			c-0.265-0.1-0.49-0.236-0.69-0.41c-0.291-0.258-0.52-0.594-0.669-1.027c-0.137-0.383-0.214-0.84-0.229-1.371h6.018v-0.189
			c0,0,0-0.023,0-0.049c0-0.07,0.01-0.203,0.01-0.328C134.232,35.928,134.15,35.354,133.984,34.855 M128.236,36.188
			c0.053-0.383,0.143-0.719,0.265-1.018c0.214-0.518,0.524-0.896,0.902-1.146c0.388-0.257,0.838-0.381,1.364-0.381
			c0.349,0,0.669,0.049,0.941,0.144c0.204,0.077,0.392,0.18,0.553,0.32c0.243,0.205,0.436,0.479,0.578,0.857
			c0.12,0.33,0.207,0.729,0.23,1.225H128.236z"/>
		<path fill="#002F87" d="M139.15,32.708c-0.61-0.002-1.149,0.187-1.609,0.474c-0.301,0.186-0.572,0.409-0.815,0.647
			c0-0.199-0.003-0.354-0.024-0.482c-0.002-0.101-0.02-0.181-0.048-0.262c-0.017-0.053-0.043-0.107-0.087-0.159
			c-0.028-0.031-0.063-0.06-0.099-0.083c-0.058-0.036-0.115-0.059-0.181-0.066c-0.053-0.006-0.105-0.006-0.166-0.012h-0.548v8.361
			h1.152v-6c0.406-0.479,0.782-0.773,1.039-0.936c0.008-0.006,0.015-0.01,0.024-0.016c0.467-0.295,0.84-0.377,1.138-0.406
			c0.534-0.051,0.896-0.122,0.948-0.957C139.658,32.749,139.413,32.709,139.15,32.708"/>
	</g>
	<g>
		<rect x="20.125" y="16.81" fill="#002F87" width="5.397" height="5.397"/>
		<rect x="20.125" y="22.207" fill="#2071B7" width="5.397" height="5.396"/>
		<rect x="20.125" y="27.603" fill="#1C9AD7" width="5.397" height="5.397"/>
		<rect x="20.125" y="33" fill="#61B4E4" width="5.397" height="5.396"/>
		<rect x="20.125" y="38.396" fill="#9ACAEB" width="5.397" height="5.396"/>
		<rect x="20.125" y="43.793" fill="#BAD8EB" width="5.397" height="5.396"/>
	</g>
</g>
</svg>
