<?xml version="1.0" encoding="utf-8"?>
<!-- Generator: Adobe Illustrator 16.0.0, SVG Export Plug-In . SVG Version: 6.00 Build 0)  -->
<!DOCTYPE svg PUBLIC "-//W3C//DTD SVG 1.1//EN" "http://www.w3.org/Graphics/SVG/1.1/DTD/svg11.dtd">
<svg version="1.1" id="Capa_1" xmlns="http://www.w3.org/2000/svg" xmlns:xlink="http://www.w3.org/1999/xlink" x="0px" y="0px"
	 width="160px" height="66px" viewBox="0 0 160 66" enable-background="new 0 0 160 66" xml:space="preserve">
<g>
	<g>
		<g>
			<g>
				<path fill-rule="evenodd" clip-rule="evenodd" fill="#6C0204" d="M44.455,32.403h7.361c0,0,0.537,0.009,0.537,0.559
					s0,1.169,0,1.169s-0.034,0.524-0.537,0.524s-7.361,0-7.361,0V32.403z M44.455,30.123c0,0,6.858,0,7.361,0
					s0.537-0.525,0.537-0.525s0-0.62,0-1.169c0-0.549-0.537-0.558-0.537-0.558h-7.361V30.123z M54.909,33.522
					c0,1.867-1.514,3.38-3.381,3.38h-9.337v-0.025v-11.23h8.869l0.468,0.001c1.867,0,3.381,1.513,3.381,3.38
					c0,0,0.082,1.147-0.827,2.275C54.082,31.304,54.909,32.149,54.909,33.522z"/>
				<g>
					<path fill="#6C0204" d="M60.705,25.646h3.003l5.708,11.256h-2.627l-1.691-3.326H59.32l-1.685,3.326h-2.63L60.705,25.646z
						 M63.94,31.286l-1.731-3.396l-1.731,3.396H63.94z"/>
					<g>
						<path fill-rule="evenodd" clip-rule="evenodd" fill="#6C0204" d="M90.263,36.902c-3.108,0-5.63-2.521-5.63-5.629
							c0-3.107,2.521-5.628,5.63-5.628h3.603c3.108,0,5.629,2.521,5.629,5.628c0,3.109-2.521,5.629-5.629,5.629H90.263z
							 M93.74,34.398c1.728,0,3.126-1.399,3.126-3.125s-1.398-3.126-3.126-3.126h-3.352c-1.727,0-3.127,1.4-3.127,3.126
							s1.4,3.125,3.127,3.125H93.74z"/>
						<g>
							<path fill-rule="evenodd" clip-rule="evenodd" fill="#6C0204" d="M111.015,29.632c0,0.296-0.241,0.537-0.537,0.537h-7.37
								v-2.255h7.372c0.296,0,0.536,0.241,0.536,0.537L111.015,29.632z M103.117,36.906v-4.479h4.59l2.932,4.475h2.908l-2.945-4.494
								c3.028-0.449,3.01-3.352,3.01-3.352c0-1.867-1.514-3.38-3.379-3.38l-0.1,0.001h-9.278v11.229H103.117z"/>
						</g>
						<polygon fill="#6C0204" points="70.593,36.9 72.856,36.9 72.856,29.597 81.379,36.9 83.643,36.9 83.643,25.649 81.379,25.649 
							81.379,32.956 72.856,25.649 70.593,25.649 						"/>
						<polygon fill="#6C0204" points="115.027,27.954 119.438,27.954 119.438,36.902 122.065,36.902 122.065,27.954 126.418,27.954 
							126.418,25.691 115.027,25.691 						"/>
						<polygon fill="#6C0204" points="127.908,25.652 139.297,25.652 139.297,27.915 130.172,27.915 130.172,30.145 137.554,30.145 
							137.554,32.409 130.172,32.409 130.172,34.638 139.297,34.638 139.297,36.902 127.908,36.902 						"/>
					</g>
				</g>
			</g>
			<g>
				<path fill="#6C0204" d="M29.122,30.439l1.743-4.785l0.003,4.783c0.254,0.008,0.515,0.016,0.775,0.016
					c4.788,0,8.67-1.278,8.67-3.004c0-1.726-3.882-3.125-8.67-3.125s-8.67,1.399-8.67,3.125
					C22.974,28.856,25.57,30.049,29.122,30.439L29.122,30.439z"/>
				<path fill="#6C0204" d="M28.992,30.796c-4.607,0.074-8.289,1.446-8.289,3.123c0,1.397,2.554,2.583,6.065,2.981L28.992,30.796
					L28.992,30.796z"/>
				<path fill="#6C0204" d="M30.873,30.792V36.9c4.073-0.257,7.171-1.439,7.171-2.981C38.044,32.378,34.946,31.048,30.873,30.792
					L30.873,30.792z"/>
			</g>
		</g>
		<g>
			<path fill="#6C0204" d="M22.845,39.292H21.3v0.612h1.419v0.515H21.3v0.755h1.614v0.514h-2.21v-2.91h2.141V39.292z"/>
			<path fill="#6C0204" d="M26.315,41.161h1.447v0.526h-2.056v-2.91h0.608V41.161z"/>
			<path fill="#6C0204" d="M34.038,38.777h1.414c0.714,0,0.896,0.446,0.896,0.745c0,0.419-0.235,0.535-0.356,0.597
				c0.356,0.134,0.449,0.417,0.449,0.706c0,0.23-0.097,0.45-0.251,0.6c-0.166,0.161-0.324,0.263-0.92,0.263h-1.232V38.777z
				 M34.622,39.917h0.714c0.239,0,0.43-0.094,0.43-0.324c0-0.239-0.171-0.313-0.446-0.313h-0.697V39.917z M34.622,41.187h0.746
				c0.296,0,0.466-0.131,0.466-0.427c0-0.256-0.22-0.353-0.438-0.353h-0.774V41.187z"/>
			<path fill="#6C0204" d="M39.742,41.688h-0.641l1.038-2.91h0.7l1.026,2.91h-0.661l-0.187-0.6h-1.074L39.742,41.688z
				 M40.106,40.585h0.742l-0.361-1.15h-0.008L40.106,40.585z"/>
			<path fill="#6C0204" d="M46.394,38.777h0.568v2.91h-0.608l-1.188-2.076h-0.008v2.076H44.59v-2.91h0.641l1.155,2.026h0.008V38.777
				z"/>
			<path fill="#6C0204" d="M51.766,39.73c-0.049-0.175-0.143-0.504-0.645-0.504c-0.292,0-0.722,0.195-0.722,1.019
				c0,0.523,0.206,0.993,0.722,0.993c0.337,0,0.572-0.191,0.645-0.547h0.607c-0.121,0.632-0.535,1.073-1.265,1.073
				c-0.773,0-1.329-0.522-1.329-1.528c0-1.017,0.588-1.536,1.338-1.536c0.871,0,1.225,0.601,1.256,1.03H51.766z"/>
			<path fill="#6C0204" d="M56.468,38.7c0.385,0,1.398,0.166,1.398,1.532c0,1.367-1.014,1.532-1.398,1.532s-1.398-0.165-1.398-1.532
				C55.069,38.866,56.083,38.7,56.468,38.7z M56.468,41.25c0.329,0,0.791-0.203,0.791-1.018s-0.462-1.018-0.791-1.018
				c-0.328,0-0.791,0.203-0.791,1.018S56.14,41.25,56.468,41.25z"/>
			<path fill="#6C0204" d="M64.814,41.688h-0.608v-2.91h2.072v0.515h-1.464v0.657h1.281v0.515h-1.281V41.688z"/>
			<path fill="#6C0204" d="M71.378,40.67c0,0.767-0.462,1.095-1.196,1.095c-0.268,0-0.664-0.064-0.924-0.353
				c-0.158-0.179-0.219-0.413-0.227-0.705v-1.93h0.62v1.89c0,0.404,0.235,0.583,0.519,0.583c0.418,0,0.587-0.203,0.587-0.556v-1.917
				h0.621V40.67z"/>
			<path fill="#6C0204" d="M76.478,39.292h-1.544v0.612h1.419v0.515h-1.419v0.755h1.613v0.514h-2.21v-2.91h2.141V39.292z"/>
			<path fill="#6C0204" d="M79.405,38.777h1.472c0.773,0,0.915,0.571,0.915,0.822c0,0.32-0.161,0.597-0.45,0.693
				c0.239,0.106,0.369,0.195,0.369,0.738c0,0.426,0,0.531,0.13,0.579v0.077h-0.673c-0.04-0.137-0.064-0.287-0.064-0.588
				c0-0.396-0.024-0.551-0.476-0.551h-0.627v1.139h-0.596V38.777z M80.714,40.058c0.316,0,0.471-0.108,0.471-0.396
				c0-0.154-0.069-0.381-0.426-0.381h-0.758v0.777H80.714z"/>
			<path fill="#6C0204" d="M85.932,41.688h-0.608v-2.396h-0.881v-0.515h2.368v0.515h-0.879V41.688z"/>
			<path fill="#6C0204" d="M91.675,39.292h-1.544v0.612h1.419v0.515h-1.419v0.755h1.614v0.514h-2.21v-2.91h2.14V39.292z"/>
			<path fill="#6C0204" d="M98.093,38.777h1.285c0.98,0,1.185,0.834,1.185,1.388c0,0.623-0.249,1.522-1.209,1.522h-1.261V38.777z
				 M98.688,41.187h0.592c0.495,0,0.662-0.5,0.662-0.979c0-0.859-0.41-0.928-0.671-0.928h-0.583V41.187z"/>
			<path fill="#6C0204" d="M105.523,39.292h-1.545v0.612h1.42v0.515h-1.42v0.755h1.613v0.514h-2.209v-2.91h2.141V39.292z"/>
			<path fill="#6C0204" d="M114.733,41.688h-0.567v-2.431h-0.008l-0.544,2.431h-0.595l-0.532-2.431h-0.007v2.431h-0.568v-2.91h0.889
				l0.526,2.294h0.008l0.52-2.294h0.879V41.688z"/>
			<path fill="#6C0204" d="M119.821,39.292h-1.544v0.612h1.419v0.515h-1.419v0.755h1.613v0.514h-2.21v-2.91h2.141V39.292z"/>
			<path fill="#6C0204" d="M125.087,41.688h-0.74l-0.553-0.993l-0.588,0.993h-0.709l0.94-1.487l-0.889-1.423h0.727l0.519,0.94
				l0.531-0.94h0.701l-0.887,1.397L125.087,41.688z"/>
			<path fill="#6C0204" d="M128.375,41.688h-0.608v-2.91h0.608V41.688z"/>
			<path fill="#6C0204" d="M133.163,39.73c-0.05-0.175-0.143-0.504-0.645-0.504c-0.292,0-0.722,0.195-0.722,1.019
				c0,0.523,0.207,0.993,0.722,0.993c0.337,0,0.57-0.191,0.645-0.547h0.606c-0.12,0.632-0.533,1.073-1.265,1.073
				c-0.773,0-1.329-0.522-1.329-1.528c0-1.017,0.589-1.536,1.338-1.536c0.873,0,1.225,0.601,1.256,1.03H133.163z"/>
			<path fill="#6C0204" d="M137.899,38.7c0.386,0,1.397,0.166,1.397,1.532c0,1.367-1.012,1.532-1.397,1.532
				c-0.385,0-1.4-0.165-1.4-1.532C136.499,38.866,137.515,38.7,137.899,38.7z M137.899,41.25c0.329,0,0.79-0.203,0.79-1.018
				s-0.461-1.018-0.79-1.018c-0.328,0-0.791,0.203-0.791,1.018S137.571,41.25,137.899,41.25z"/>
		</g>
	</g>
</g>
</svg>
