<?xml version="1.0" encoding="utf-8"?>
<!-- Generator: Adobe Illustrator 16.0.0, SVG Export Plug-In . SVG Version: 6.00 Build 0)  -->
<!DOCTYPE svg PUBLIC "-//W3C//DTD SVG 1.1//EN" "http://www.w3.org/Graphics/SVG/1.1/DTD/svg11.dtd">
<svg version="1.1" id="Capa_1" xmlns="http://www.w3.org/2000/svg" xmlns:xlink="http://www.w3.org/1999/xlink" x="0px" y="0px"
	 width="160px" height="66px" viewBox="0 0 160 66" enable-background="new 0 0 160 66" xml:space="preserve">
<g>
	<g>
		<g>
			<g>
				<g>
					<g>
						<rect x="61.182" y="13.469" fill="#006546" width="37.637" height="39.063"/>
						<path fill="#FFFFFF" d="M84.68,48.687v1.465h-9.028v-1.467H68.82c-0.669,0-1.211-0.697-1.211-1.557l-2.856-28.909
							c0-0.86,0.665-1.558,1.487-1.558h27.604c0.82,0,1.486,0.697,1.486,1.558l-2.824,28.909c0,0.859-0.543,1.557-1.211,1.557
							L84.68,48.687z"/>
						<path fill="#FF6600" d="M69.775,20.894h18.482c-1.818,0.682-7.359,4.432-8.743,6.953h-9.719L69.775,20.894z"/>
						<path fill="#FE000C" d="M84.506,40.818c-0.264,2.518-0.273,5.585-0.273,8.805h-8.011c0-3.22,0.131-6.287,0.395-8.805H84.506z"
							/>
						<polygon fill="#006546" points="69.187,35.045 72.114,35.045 72.114,36.203 70.833,36.203 70.833,37.18 72.114,37.18 
							72.114,38.155 70.833,38.155 70.833,39.132 72.114,39.132 72.114,40.25 69.187,40.25 						"/>
						<polygon fill="#006546" points="75.998,35.045 78.926,35.045 78.926,36.203 77.645,36.203 77.645,37.18 78.926,37.18 
							78.926,38.155 77.645,38.155 77.645,39.132 78.926,39.132 78.926,40.25 75.998,40.25 						"/>
						<polygon fill="#006546" points="83.5,35.045 86.428,35.045 86.428,36.203 85.146,36.203 85.146,37.18 86.428,37.18 
							86.428,38.155 85.146,38.155 85.146,39.132 86.428,39.132 86.428,40.25 83.5,40.25 						"/>
						<polygon fill="#006546" points="74.31,39.132 75.591,39.132 75.591,40.25 72.663,40.25 72.663,35.045 74.31,35.045 						"/>
						<polygon fill="#006546" points="79.225,35.045 80.041,40.25 82.158,40.25 83.149,35.045 81.925,35.045 81.283,38.562 
							80.662,35.045 						"/>
						<rect x="87.119" y="35.045" fill="#006546" width="1.586" height="5.205"/>
						<path fill="#006546" d="M88.705,36.59c0.082-0.569,0.895-0.417,0.895-0.092v3.752h1.586v-4.412
							c0-0.936-1.32-1.312-2.471-0.488"/>
						<path fill="#FE000C" d="M85.25,34.313c0.162-1.993,2.887-5.246,5.529-6.1v-7.686c-7.268,3.253-11.997,8.174-13.019,13.765
							L85.25,34.313z"/>
						<path fill="#006546" d="M87.357,43.031c-0.205,0.206-0.453,0.31-0.744,0.31s-0.539-0.104-0.744-0.31
							c-0.203-0.204-0.305-0.453-0.305-0.745c0-0.288,0.104-0.535,0.309-0.74c0.205-0.204,0.451-0.307,0.74-0.307
							c0.291,0,0.539,0.103,0.744,0.307c0.205,0.203,0.309,0.45,0.309,0.74C87.666,42.577,87.563,42.825,87.357,43.031
							 M85.973,41.649c-0.176,0.177-0.264,0.39-0.264,0.639c0,0.251,0.088,0.466,0.264,0.643c0.176,0.178,0.389,0.266,0.641,0.266
							s0.465-0.088,0.641-0.266c0.176-0.177,0.264-0.392,0.264-0.643c0-0.249-0.088-0.462-0.264-0.639
							c-0.178-0.177-0.391-0.266-0.641-0.266S86.15,41.473,85.973,41.649 M86.594,41.706c0.145,0,0.25,0.015,0.314,0.042
							c0.121,0.05,0.182,0.146,0.182,0.293c0,0.102-0.039,0.179-0.113,0.228c-0.039,0.025-0.096,0.044-0.166,0.055
							c0.09,0.015,0.154,0.053,0.195,0.113c0.041,0.062,0.063,0.121,0.063,0.179v0.084c0,0.027,0,0.056,0.004,0.087
							c0,0.029,0.004,0.05,0.01,0.06l0.008,0.015h-0.191c0-0.004-0.002-0.008-0.002-0.012s-0.002-0.009-0.002-0.013l-0.004-0.037
							v-0.091c0-0.134-0.037-0.221-0.109-0.265c-0.045-0.024-0.119-0.037-0.229-0.037h-0.16v0.454h-0.203v-1.154H86.594z
							 M86.816,41.893c-0.053-0.028-0.135-0.042-0.25-0.042h-0.174v0.412h0.186c0.086,0,0.15-0.009,0.195-0.025
							c0.08-0.031,0.119-0.09,0.119-0.178C86.893,41.978,86.867,41.921,86.816,41.893"/>
					</g>
				</g>
			</g>
		</g>
	</g>
</g>
</svg>
