<?xml version="1.0" encoding="utf-8"?>
<!-- Generator: Adobe Illustrator 16.0.0, SVG Export Plug-In . SVG Version: 6.00 Build 0)  -->
<!DOCTYPE svg PUBLIC "-//W3C//DTD SVG 1.1//EN" "http://www.w3.org/Graphics/SVG/1.1/DTD/svg11.dtd">
<svg version="1.1" id="Capa_1" xmlns="http://www.w3.org/2000/svg" xmlns:xlink="http://www.w3.org/1999/xlink" x="0px" y="0px"
	 width="160px" height="66px" viewBox="0 0 160 66" enable-background="new 0 0 160 66" xml:space="preserve">
<g>
	<path fill="#1D1D1B" d="M32.508,32.196v-7.191c0-0.935-0.485-1.969-2.841-1.969v-0.612h8.965v0.612
		c-2.353,0-2.835,1.034-2.835,1.969v16.19c0,0.934,0.482,1.967,2.835,1.967v0.612h-8.965v-0.612c2.356,0,2.841-1.033,2.841-1.967
		v-7.677h-9.773v7.677c0,0.934,0.482,1.967,2.838,1.967v0.612h-8.966v-0.612c2.355,0,2.838-1.033,2.838-1.967v-16.19
		c0-0.935-0.483-1.969-2.838-1.969v-0.612h8.966v0.612c-2.355,0-2.838,1.034-2.838,1.969v7.191H32.508L32.508,32.196z"/>
	<path fill="#1D1D1B" d="M39.39,37.293h0.741c1.001,3,3.259,5.711,6.677,5.711c2.612,0,4.384-2.26,3.645-4.776
		c-1.324-4.515-10.126-4.709-10.126-10.868c0-3.193,2.546-5.388,5.708-5.388c3.418,0,4.965,2.388,5.74,0h0.676l0.709,6.872h-0.804
		c-0.743-3-2.873-5.548-5.871-5.548c-1.935,0-3.386,1.063-3.386,3.098c0,1.868,2.032,3.19,3.418,4.029
		c4.386,2.646,7.354,4.031,7.354,7.901c0,2.904-2.419,5.902-6.804,5.902c-3.354,0-5.677-2.352-6.001,0h-0.708L39.39,37.293
		L39.39,37.293z"/>
	<path fill="#1D1D1B" d="M64.532,31.972c3.257,0,5.16-1.388,5.16-3.999c0-2.453-1.547-3.775-3.805-4.193
		c-2.969-0.194-4.001-0.257-4.001,0.87v7.322H64.532L64.532,31.972z M61.886,40.873L61.886,40.873c0,1.13,0.292,1.709,2.646,1.709
		c3.354,0,5.838-0.999,5.838-4.772c0-3.839-3.839-4.55-6.871-4.55h-1.613V40.873L61.886,40.873z M58.597,25.005L58.597,25.005
		c0-0.935-0.484-1.969-3.095-1.969v-0.612h8.642c4.968,0,8.838,1.322,8.838,5.452c0,2.708-1.808,4.096-4.288,4.644v0.065
		c2.771,0.515,5.383,2.224,5.383,5.322c0,3.87-3.353,5.867-8.417,5.867H55.501v-0.612c2.611,0,3.095-1.033,3.095-1.967V25.005
		L58.597,25.005z"/>
	<path fill="#1D1D1B" d="M93.434,29.065H92.66c-0.934-3.548-3.288-5.967-6.966-5.967c-5.32,0-7.61,4.288-7.61,10.094
		c0,4.516,2.354,9.384,7.645,9.384c3.161,0,5.32-1.031,7.546-3.224l0.548,0.646c-1.967,2.419-5.289,4.032-8.386,4.032
		c-6.288,0-11.093-4.032-11.093-11.097c0-6.417,4.547-11.16,11.031-11.16c4.418,0,6.03,2.648,7.097,0.034h0.675L93.434,29.065
		L93.434,29.065z"/>
	<polygon fill="#FFFFFF" points="110.854,21.843 132.547,21.843 132.547,43.535 110.854,43.535 110.854,21.843 	"/>
	<polygon fill="#E42613" points="110.854,21.826 132.547,21.826 121.701,32.672 110.854,21.826 	"/>
	<polygon fill="#E42613" points="110.854,43.518 132.547,43.518 121.701,32.672 110.854,43.518 	"/>
	<polygon fill="#E42613" points="110.854,21.826 110.854,43.518 100.008,32.672 110.854,21.826 	"/>
	<polygon fill="#E42613" points="132.547,21.826 132.547,43.518 143.394,32.672 132.547,21.826 	"/>
</g>
</svg>
