<?xml version="1.0" encoding="utf-8"?>
<!-- Generator: Adobe Illustrator 16.0.0, SVG Export Plug-In . SVG Version: 6.00 Build 0)  -->
<!DOCTYPE svg PUBLIC "-//W3C//DTD SVG 1.1//EN" "http://www.w3.org/Graphics/SVG/1.1/DTD/svg11.dtd">
<svg version="1.1" id="Capa_1" xmlns="http://www.w3.org/2000/svg" xmlns:xlink="http://www.w3.org/1999/xlink" x="0px" y="0px"
	 width="160px" height="66px" viewBox="0 0 160 66" enable-background="new 0 0 160 66" xml:space="preserve">
<g>
	<path fill-rule="evenodd" clip-rule="evenodd" fill="#EFA616" d="M45.542,19.265c0-1.181,0.965-2.146,2.146-2.146h64.625
		c1.181,0,2.146,0.966,2.146,2.146v27.472c0,1.181-0.965,2.146-2.146,2.146H47.688c-1.181,0-2.146-0.965-2.146-2.146V19.265
		L45.542,19.265z"/>
	<polygon fill-rule="evenodd" clip-rule="evenodd" fill="#FFFFFF" points="45.542,20.237 114.458,20.237 114.458,45.764 
		45.542,45.764 45.542,20.237 	"/>
	<path fill-rule="evenodd" clip-rule="evenodd" fill="#E20613" d="M103.946,26.867c-3.152,0-5.723,2.569-5.723,5.724
		c0,3.151,2.57,5.723,5.723,5.723c3.153,0,5.724-2.571,5.724-5.723C109.67,29.437,107.1,26.867,103.946,26.867L103.946,26.867z"/>
	<path fill-rule="evenodd" clip-rule="evenodd" fill="#E20613" d="M56.772,26.867c-3.153,0-5.724,2.569-5.724,5.724
		c0,3.151,2.57,5.723,5.724,5.723c3.152,0,5.723-2.571,5.723-5.723C62.495,29.437,59.925,26.867,56.772,26.867L56.772,26.867z"/>
	<path fill-rule="evenodd" clip-rule="evenodd" fill="#E20613" d="M103.497,21.83c-5.298-0.122-7.789,3.275-11.404,7.465
		l-3.41,3.952l5.4,6.466c1.286,1.986-1.169,3.958-2.692,2.14l-4.993-5.955l-4.864,5.64c-1.55,1.795-3.978-0.21-2.663-2.178
		l5.281-6.142l-3.46-4.129l2.227-2.756l3.518,4.227l3.034-3.528c1.488-1.73,3.006-4.022,4.974-5.201H45.542v22.342h11.433
		c5.3,0,7.705-3.169,11.222-7.441l3.319-4.031l-5.55-6.338c-1.33-1.955,1.078-3.982,2.644-2.2l5.129,5.838l4.735-5.75
		c1.507-1.831,3.979,0.119,2.711,2.117l-5.139,6.263l3.555,4.046l-2.239,2.652l-3.539-3.99l-2.95,3.597
		c-1.448,1.765-2.914,4.014-4.854,5.238h48.44V21.83H103.497L103.497,21.83z M65.813,32.591c0,4.98-4.061,9.042-9.041,9.042
		c-4.981,0-9.043-4.062-9.043-9.042c0-4.982,4.062-9.043,9.043-9.043C61.753,23.548,65.813,27.608,65.813,32.591L65.813,32.591z
		 M103.946,41.633c-4.98,0-9.043-4.062-9.043-9.042c0-4.982,4.063-9.043,9.043-9.043c4.981,0,9.042,4.061,9.042,9.043
		C112.988,37.571,108.928,41.633,103.946,41.633L103.946,41.633z"/>
</g>
</svg>
