<?xml version="1.0" encoding="utf-8"?>
<!-- Generator: Adobe Illustrator 16.0.0, SVG Export Plug-In . SVG Version: 6.00 Build 0)  -->
<!DOCTYPE svg PUBLIC "-//W3C//DTD SVG 1.1//EN" "http://www.w3.org/Graphics/SVG/1.1/DTD/svg11.dtd">
<svg version="1.1" id="Capa_1" xmlns="http://www.w3.org/2000/svg" xmlns:xlink="http://www.w3.org/1999/xlink" x="0px" y="0px"
	 width="160px" height="66px" viewBox="0 0 160 66" enable-background="new 0 0 160 66" xml:space="preserve">
<g>
	<path fill="#E51E36" d="M29.8,21.313c0,2.822,4.732,5.956,4.732,9.178c0,0,0,0.312-0.131,0.644
		c4.425,0.935,7.558,3.135,7.558,5.713c0,3.468-5.587,6.335-12.511,6.335c-7.071,0-12.552-2.82-12.552-6.202
		c0-2.576,3.396-4.668,7.494-5.777c0,1.422,4.663,5.935,4.774,7.756c0.014,0.209,0.054,0.386,0,0.6c1.009-0.532,1.009-2.2,1.009-2.2
		c0-3.955-4.535-5.711-4.535-9.601c0-1.512,0.702-2.622,1.336-2.933v1.088c0,2.823,4.907,5.979,4.907,8.557v0.846
		c1.141-0.444,1.141-2.557,1.141-2.557c0-3.556-4.557-5.534-4.557-9.602c0-1.51,0.7-2.621,1.336-2.934V21.313z"/>
	<path fill="#E51E36" d="M51.904,42.09c-2.386,0-4.116-0.688-4.116-0.688v-4.199h0.591c0.306,2.221,1.97,3.908,3.875,3.908
		c1.905,0,3.241-1.065,3.241-2.753c0-1.8-1.774-2.621-2.956-3.22l-1.708-0.867c-1.62-0.821-2.933-2.155-2.933-4.02
		c0-2.332,1.708-4.331,4.968-4.331c2.233,0,4.072,0.756,4.072,0.756v3.752h-0.591c-0.35-1.999-1.445-3.575-3.678-3.575
		c-1.664,0-2.648,1.155-2.648,2.332c0,1.533,1.05,2.221,2.276,2.843l1.708,0.865c1.553,0.801,3.48,2.133,3.48,4.398
		C57.487,40.179,55.516,42.09,51.904,42.09"/>
	<path fill="#E51E36" d="M62.938,37.513c-0.46,0.202-1.271,0.579-1.271,1.645c0,0.577,0.329,1.511,1.468,1.511
		c0.547,0,1.313-0.312,1.861-0.755v-3.288L62.938,37.513z M62.041,42c-1.489,0-2.453-1-2.453-2.486c0-1.066,0.767-1.889,2.453-2.511
		l2.956-1.087V34.98c0-1.397-0.635-2.264-1.599-2.264c-0.658,0-1.314,0.333-1.643,0.866c-0.13,0.199-0.152,0.489-0.152,0.71
		c0,0.378,0.24,0.821,0.24,0.821l-1.444,0.667c-0.175-0.31-0.394-0.776-0.394-1.244c0-0.087,0.021-0.177,0.021-0.244
		c0.11-0.799,0.789-1.332,1.708-1.886c0.898-0.556,1.664-0.713,2.21-0.713c2.76,0,3.241,2.221,3.241,2.954v4.598
		c0,0.732,0.066,1.2,0.657,1.2c0.175,0,0.285,0,0.526-0.09l0.526-0.178v0.666L65.827,42c-0.459-0.332-0.679-0.933-0.765-1.442
		C64.339,41.18,63.092,42,62.041,42"/>
	<path fill="#E51E36" d="M69.571,41.777v-0.53l0.723-0.136c0.437-0.09,0.743-0.421,0.743-0.867v-5.929
		c0-0.51-0.239-0.777-0.679-0.777c-0.152,0-0.329,0.023-0.503,0.089l-0.285,0.111v-0.666l3.152-1.378h0.46v1.645
		c0.961-1.09,2.101-1.645,3.108-1.645c2.232,0,3.305,1.623,3.305,3.51v5.04c0,0.446,0.329,0.801,0.768,0.867l0.743,0.136v0.53h-5.21
		v-0.53l0.723-0.136c0.438-0.09,0.788-0.421,0.788-0.867v-5.017c0-0.668-0.176-2.155-1.927-2.155c-0.963,0-1.773,0.601-2.255,1.044
		v6.128c0,0.446,0.35,0.777,0.788,0.867l0.722,0.136v0.53H69.571z"/>
	<path fill="#E51E36" d="M88.662,33.05h-3.066v5.51c0,1.221,0.636,1.887,1.555,1.887c0.373,0,0.963-0.111,1.512-0.423l0.24,0.534
		l-1.972,1.265c0,0-0.394,0.066-0.589,0.066c-1.905,0-2.936-1.131-2.936-3.53V33.05H81.81v-0.554c0,0,2.407-0.934,3.349-3.223h0.438
		v2.82h3.46L88.662,33.05z"/>
	<path fill="#E51E36" d="M93.254,37.513c-0.46,0.202-1.27,0.579-1.27,1.645c0,0.577,0.326,1.511,1.467,1.511
		c0.547,0,1.313-0.312,1.859-0.755v-3.288L93.254,37.513z M92.355,42c-1.49,0-2.451-1-2.451-2.486c0-1.066,0.766-1.889,2.451-2.511
		l2.955-1.087V34.98c0-1.397-0.634-2.264-1.598-2.264c-0.656,0-1.314,0.333-1.642,0.866c-0.132,0.199-0.154,0.489-0.154,0.71
		c0,0.378,0.243,0.821,0.243,0.821l-1.446,0.667c-0.176-0.31-0.394-0.776-0.394-1.244c0-0.087,0.022-0.177,0.022-0.244
		c0.108-0.799,0.786-1.332,1.706-1.886c0.898-0.556,1.664-0.713,2.21-0.713c2.761,0,3.243,2.221,3.243,2.954v4.598
		c0,0.732,0.064,1.2,0.655,1.2c0.175,0,0.286,0,0.525-0.09l0.526-0.178v0.666L96.145,42c-0.461-0.332-0.679-0.933-0.768-1.442
		C94.655,41.18,93.407,42,92.355,42"/>
	<path fill="#E51E36" d="M99.886,41.777v-0.53l0.724-0.136c0.438-0.09,0.744-0.421,0.744-0.867v-5.929
		c0-0.51-0.242-0.777-0.68-0.777c-0.152,0-0.327,0.023-0.503,0.089l-0.285,0.111v-0.666l3.153-1.378h0.461v1.645
		c0.963-1.09,2.101-1.645,3.107-1.645c2.232,0,3.307,1.623,3.307,3.51v5.04c0,0.446,0.328,0.801,0.766,0.867l0.743,0.136v0.53
		h-5.209v-0.53l0.723-0.136c0.438-0.09,0.787-0.421,0.787-0.867v-5.017c0-0.668-0.175-2.155-1.927-2.155
		c-0.964,0-1.773,0.601-2.255,1.044v6.128c0,0.446,0.353,0.777,0.788,0.867l0.723,0.136v0.53H99.886z"/>
	<path fill="#E51E36" d="M117.969,32.629c-1.574,0-3.195,1.021-3.195,3.996c0,2.488,1.227,3.998,3.152,3.998
		c1.16,0,1.884-0.688,2.059-1.044v-5.773C119.7,33.072,118.891,32.629,117.969,32.629 M116.984,42c-2.058,0-4.533-1.554-4.533-4.93
		c0-2.954,2.256-5.376,5.278-5.376c1.007,0,1.73,0.201,2.255,0.424v-5.087c0-0.533-0.284-0.688-0.635-0.688
		c-0.197,0-0.416,0.045-0.613,0.11l-0.438,0.156v-0.668l3.417-1.464h0.459v14.636c0,0.845,0.131,1.333,0.723,1.333
		c0.175,0,0.283,0,0.523-0.09l0.526-0.178v0.666L120.882,42c-0.481-0.332-0.723-0.955-0.831-1.465
		C119.48,41.156,118.451,42,116.984,42"/>
	<path fill="#E51E36" d="M131.631,35.139v-0.044c0-1.666-0.918-2.468-2.015-2.468c-1.226,0-2.146,0.823-2.408,2.512H131.631z
		 M127.143,36.049v0.111c-0.021,2.953,1.643,4.44,3.722,4.44c1.05,0,2.015-0.4,2.78-0.997v0.887c-0.875,0.822-2.211,1.51-3.853,1.51
		c-3.415,0-4.926-2.598-4.926-5.063c0-2.89,2.168-5.243,4.968-5.243c2.301,0,4.096,1.645,4.096,4.065v0.289H127.143z"/>
	<path fill="#E51E36" d="M135.221,41.777v-0.53l0.722-0.136c0.418-0.09,0.745-0.421,0.745-0.867v-5.929
		c0-0.51-0.24-0.777-0.678-0.777c-0.153,0-0.329,0.023-0.504,0.089l-0.285,0.111v-0.666l3.108-1.378h0.461v2.155
		c0.788-1.555,1.729-2.198,2.802-2.198c0.877,0,1.095,0.222,1.095,0.222v2.354h-0.437c-0.11-0.622-0.527-0.932-1.183-0.932
		c-0.7,0-1.576,0.198-2.189,1.486v5.462c0,0.446,0.438,0.801,0.854,0.867l1.051,0.136v0.53H135.221z"/>
</g>
</svg>
