<?xml version="1.0" encoding="utf-8"?>
<!-- Generator: Adobe Illustrator 16.0.0, SVG Export Plug-In . SVG Version: 6.00 Build 0)  -->
<!DOCTYPE svg PUBLIC "-//W3C//DTD SVG 1.1//EN" "http://www.w3.org/Graphics/SVG/1.1/DTD/svg11.dtd">
<svg version="1.1" id="Capa_1" xmlns="http://www.w3.org/2000/svg" xmlns:xlink="http://www.w3.org/1999/xlink" x="0px" y="0px"
	 width="160px" height="66px" viewBox="0 0 160 66" enable-background="new 0 0 160 66" xml:space="preserve">
<g>
	<path fill-rule="evenodd" clip-rule="evenodd" fill="#E20613" d="M20.373,32.935c-0.684-1.086-0.833-2.529-0.833-3.637
		c0-3.77,3.368-6.953,6.878-6.953h10.997l-4.268,4.306h-6.804C23.607,26.65,20.298,29.424,20.373,32.935L20.373,32.935z
		 M24.566,29.848c0.283-0.907,1.168-2.066,2.001-2.677c-1.592,0-3.383,0.759-4.751,2.677H24.566L24.566,29.848z M26.768,27.707
		c-0.625,0.551-1.309,1.383-1.659,2.141h3.302C28.062,29.09,27.377,28.258,26.768,27.707L26.768,27.707z M21.541,30.405
		c-0.409,0.736-0.61,1.569-0.685,2.401h3.085c0-0.832,0.15-1.665,0.424-2.401H21.541L21.541,30.405z M24.901,30.405
		c-0.274,0.736-0.401,1.569-0.476,2.401h4.669c-0.074-0.832-0.201-1.665-0.476-2.401H24.901L24.901,30.405z M31.646,29.848
		c-1.309-1.918-3.102-2.677-4.669-2.677c0.811,0.61,1.643,1.77,1.993,2.677H31.646L31.646,29.848z M29.17,30.405
		c0.282,0.736,0.408,1.569,0.408,2.401h3.086c-0.052-0.832-0.26-1.665-0.684-2.401H29.17L29.17,30.405z M21.816,36.168
		c1.368,2,3.16,2.685,4.751,2.685c-0.833-0.633-1.718-1.793-2.001-2.685H21.816L21.816,36.168z M26.768,38.369
		c0.609-0.549,1.293-1.442,1.643-2.201h-3.302C25.459,36.927,26.143,37.82,26.768,38.369L26.768,38.369z M24.366,35.692
		c-0.274-0.832-0.424-1.65-0.424-2.401h-3.085c0.075,0.811,0.275,1.643,0.685,2.401H24.366L24.366,35.692z M28.619,35.692
		c0.275-0.759,0.402-1.591,0.476-2.401h-4.669c0.074,0.811,0.201,1.643,0.476,2.401H28.619L28.619,35.692z M28.969,36.168
		c-0.35,0.892-1.183,2.052-1.993,2.685c1.568,0,3.36-0.685,4.669-2.685H28.969L28.969,36.168z M31.98,35.692
		c0.424-0.759,0.632-1.591,0.684-2.401h-3.086c0,0.751-0.126,1.569-0.408,2.401H31.98L31.98,35.692z M33.147,33.009
		c0.075,3.643-3.219,6.394-5.971,6.394h-6.803l-4.268,4.253h10.998c3.509,0,6.877-3.158,6.877-6.929
		c0-1.108-0.133-2.551-0.833-3.645V33.009L33.147,33.009z"/>
	<polygon fill-rule="evenodd" clip-rule="evenodd" fill="#E20613" points="137.51,26.864 140.252,26.864 140.252,27.269 
		139.107,27.269 139.107,30.242 138.652,30.242 138.652,27.269 137.51,27.269 137.51,26.864 	"/>
	<path fill-rule="evenodd" clip-rule="evenodd" fill="#E20613" d="M143.451,30.242v-1.995c0-0.099,0.01-0.527,0.01-0.842h-0.01
		l-0.949,2.837h-0.451L141.1,27.41h-0.008c0,0.31,0.008,0.738,0.008,0.837v1.995h-0.441v-3.378h0.654l0.963,2.855h0.012l0.959-2.855
		h0.648v3.378H143.451L143.451,30.242z"/>
	<path fill-rule="evenodd" clip-rule="evenodd" fill="#E20613" d="M65.297,38.838c-2.858,0-4.904-1.716-4.904-4.401
		c0-2.652,2.12-4.417,4.904-4.417c2.783,0,4.902,1.753,4.902,4.417C70.199,37.122,68.136,38.838,65.297,38.838L65.297,38.838z
		 M114.152,30.225v8.437h-2.852l-0.041-0.852h-0.063c-0.314,0.286-0.973,1.037-2.813,1.037c-2.039,0-3.824-1.771-3.824-4.412
		c0-2.45,1.584-4.406,4.014-4.406c1.65,0,2.324,0.727,2.578,0.96h0.074l0.029-0.764H114.152L114.152,30.225z M92.15,30.229v8.437
		h-2.852l-0.041-0.852h-0.063c-0.316,0.284-0.975,1.038-2.813,1.038c-2.037,0-3.824-1.771-3.824-4.412
		c0-2.451,1.584-4.406,4.012-4.406c1.652,0,2.326,0.728,2.58,0.959h0.076l0.027-0.764H92.15L92.15,30.229z M78.304,30.234h2.94
		v8.443h-2.94V30.234L78.304,30.234z M94.043,38.658V26.761h2.93v4.077h0.031c0.207-0.129,1.156-0.809,2.549-0.809
		c2.281,0,3.959,1.832,3.959,4.26c0,3.031-1.859,4.558-3.977,4.558c-1.602,0-2.414-0.745-2.615-0.963h-0.047l-0.043,0.774H94.043
		L94.043,38.658z M65.297,36.727c1.192,0,1.893-1.045,1.893-2.29c0-1.262-0.668-2.308-1.893-2.308c-1.281,0-1.894,1.046-1.894,2.308
		C63.403,35.682,64.105,36.727,65.297,36.727L65.297,36.727z M76.879,36.365c-0.144,0.04-0.539,0.142-0.813,0.142
		c-0.595,0-1.245-0.278-1.245-1.309v-2.852h1.845v-2.121h-1.845v-2.718h-2.934v2.718h-1.283v2.121h1.283v3.337
		c0,1.833,0.852,3.15,3.022,3.15c0.63,0,1.209-0.084,1.607-0.159L76.879,36.365L76.879,36.365z M43.505,38.353
		c0.821,0.248,2.068,0.478,3.391,0.478c2.504,0,5.004-0.888,5.004-3.638c0-3.774-5.204-3.252-5.204-4.756
		c0-0.77,0.8-0.936,1.584-0.936c1.087,0,2.463,0.521,2.769,0.646l0.237-2.599c-0.76-0.259-1.913-0.405-2.995-0.405
		c-2.473,0-4.913,0.965-4.913,3.414c0,3.708,5.189,2.935,5.189,4.88c0,0.749-0.747,1.033-1.701,1.033
		c-1.311,0-2.541-0.657-3.075-0.893L43.505,38.353L43.505,38.353z M107.668,34.357c0,1.395,0.779,2.267,1.787,2.267
		c0.912,0,1.803-0.855,1.803-2.151c0-1.309-0.789-2.202-1.803-2.202C108.404,32.271,107.668,33.207,107.668,34.357L107.668,34.357z
		 M85.666,34.361c0,1.395,0.777,2.267,1.785,2.267c0.914,0,1.805-0.854,1.805-2.151c0-1.308-0.789-2.201-1.805-2.201
		C86.402,32.275,85.666,33.211,85.666,34.361L85.666,34.361z M59.645,30.358c-0.219-0.062-1.025-0.339-2.093-0.339
		c-2.644,0-4.625,1.655-4.625,4.411c0,2.504,1.779,4.41,4.508,4.41c1.162,0,2.016-0.311,2.211-0.367l-0.143-2.46
		c-0.226,0.102-0.812,0.436-1.486,0.436c-1.184,0-2.049-0.839-2.049-2.019c0-1.239,0.926-2.037,2.083-2.037
		c0.653,0,1.234,0.304,1.452,0.411L59.645,30.358L59.645,30.358z M126.658,38.666h2.926v-3.905h0.031l2.6,3.905h3.258l-3.137-4.473
		l3.059-3.953h-3.254l-2.525,3.478h-0.031v-6.946h-2.926V38.666L126.658,38.666z M116.051,38.665h2.857v-4.359
		c0-1.021,0.676-1.719,1.541-1.719c0.99,0,1.551,0.643,1.551,1.719v4.359h2.855v-5.08c0-1.912-1.232-3.548-3.49-3.548
		c-1.508,0-2.293,0.819-2.65,1.143h-0.061l-0.029-0.935h-2.574V38.665L116.051,38.665z M79.773,25.961
		c-0.904,0-1.648,0.743-1.648,1.649c0,0.903,0.745,1.646,1.648,1.646c0.906,0,1.649-0.743,1.649-1.646
		C81.422,26.704,80.679,25.961,79.773,25.961L79.773,25.961z M100.473,34.439c0-1.129-0.645-2.131-1.766-2.131
		c-0.986,0-1.779,0.843-1.779,2.131c0,1.249,0.648,2.138,1.779,2.138C99.727,36.577,100.473,35.729,100.473,34.439L100.473,34.439z"
		/>
</g>
</svg>
