<?xml version="1.0" encoding="utf-8"?>
<!-- Generator: Adobe Illustrator 17.0.0, SVG Export Plug-In . SVG Version: 6.00 Build 0)  -->
<!DOCTYPE svg PUBLIC "-//W3C//DTD SVG 1.1//EN" "http://www.w3.org/Graphics/SVG/1.1/DTD/svg11.dtd">
<svg version="1.1" id="Capa_1" xmlns="http://www.w3.org/2000/svg" xmlns:xlink="http://www.w3.org/1999/xlink" x="0px" y="0px"
	 width="251.21px" height="116.79px" viewBox="0 0 251.21 116.79" enable-background="new 0 0 251.21 116.79" xml:space="preserve">
<g id="Capa_2">
</g>
<g>
	<g>
		<g>
			<polygon fill="#E04A4F" points="78.661,58.642 87.131,43.969 70.191,43.969 			"/>
			<path fill="#FFFFFF" d="M78.985,58.831c2.823-4.891,5.647-9.782,8.47-14.673c0.142-0.246-0.038-0.564-0.324-0.564
				c-5.646,0-11.293,0-16.939,0c-0.285,0-0.466,0.318-0.324,0.564c2.823,4.891,5.646,9.782,8.47,14.673
				c0.242,0.419,0.89,0.041,0.648-0.379c-2.34-4.053-4.679-8.106-7.019-12.159c-0.434-0.751-0.867-1.502-1.301-2.254
				c-0.091-0.158-0.778,0.304,0.329,0.304c2.556,0,5.111,0,7.667,0s5.111,0,7.667,0c1.107,0,0.42-0.462,0.329-0.304
				c-0.434,0.751-0.867,1.502-1.301,2.254c-2.34,4.053-4.679,8.106-7.019,12.159C78.095,58.872,78.743,59.249,78.985,58.831z"/>
		</g>
		<g>
			<polygon fill="#95292D" points="61.705,58.642 70.173,43.969 53.235,43.969 			"/>
			<path fill="#FFFFFF" d="M62.029,58.831c2.823-4.891,5.645-9.782,8.468-14.673c0.142-0.246-0.038-0.564-0.324-0.564
				c-5.646,0-11.292,0-16.937,0c-0.285,0-0.466,0.318-0.324,0.564c2.823,4.891,5.646,9.782,8.47,14.673
				c0.242,0.419,0.89,0.041,0.648-0.379c-2.34-4.053-4.679-8.106-7.019-12.159c-0.434-0.751-0.867-1.502-1.301-2.254
				c-0.091-0.158-0.778,0.304,0.329,0.304c2.555,0,5.111,0,7.666,0s5.111,0,7.666,0c1.107,0,0.42-0.462,0.329-0.304
				c-0.434,0.751-0.867,1.502-1.301,2.254c-2.339,4.053-4.678,8.106-7.017,12.159C61.139,58.872,61.787,59.249,62.029,58.831z"/>
		</g>
		<g>
			<polygon fill="#D0363A" points="70.191,43.969 78.661,58.642 61.724,58.642 			"/>
			<path fill="#FFFFFF" d="M69.868,44.158c2.34,4.053,4.679,8.106,7.019,12.159c0.434,0.751,0.867,1.502,1.301,2.254
				c0.091,0.158,0.778-0.304-0.329-0.304c-2.555,0-5.111,0-7.666,0c-2.555,0-5.111,0-7.666,0c-1.107,0-0.42,0.462-0.329,0.304
				c0.434-0.751,0.867-1.502,1.301-2.254c2.339-4.053,4.678-8.106,7.017-12.159c0.242-0.42-0.406-0.797-0.648-0.379
				c-2.823,4.891-5.645,9.782-8.468,14.673c-0.142,0.246,0.038,0.564,0.324,0.564c5.646,0,11.292,0,16.938,0
				c0.285,0,0.466-0.318,0.324-0.564c-2.823-4.891-5.646-9.782-8.47-14.673C70.274,43.361,69.625,43.738,69.868,44.158z"/>
		</g>
		<g>
			<polygon fill="#DF5032" points="78.643,29.301 87.111,43.969 70.173,43.969 			"/>
			<path fill="#FFFFFF" d="M78.319,29.49c2.339,4.052,4.679,8.104,7.018,12.155c0.434,0.751,0.867,1.502,1.301,2.253
				c0.091,0.157,0.778-0.304-0.329-0.304c-2.556,0-5.111,0-7.667,0c-2.556,0-5.111,0-7.667,0c-1.107,0-0.42,0.462-0.329,0.304
				c0.434-0.751,0.867-1.502,1.301-2.253c2.34-4.052,4.679-8.104,7.019-12.155c0.242-0.42-0.406-0.797-0.648-0.379
				c-2.823,4.889-5.646,9.779-8.47,14.668c-0.142,0.246,0.038,0.564,0.324,0.564c5.646,0,11.292,0,16.938,0
				c0.285,0,0.466-0.318,0.324-0.564c-2.823-4.889-5.646-9.779-8.469-14.668C78.725,28.693,78.077,29.07,78.319,29.49z"/>
		</g>
		<g>
			<polygon fill="#289972" points="36.279,43.969 44.747,29.302 27.809,29.302 			"/>
			<path fill="#FFFFFF" d="M36.603,44.158c2.823-4.889,5.645-9.778,8.468-14.667c0.142-0.246-0.038-0.564-0.324-0.564
				c-5.646,0-11.292,0-16.939,0c-0.285,0-0.466,0.318-0.324,0.564c2.824,4.889,5.647,9.778,8.471,14.667
				c0.242,0.419,0.89,0.041,0.648-0.379c-2.34-4.051-4.68-8.103-7.02-12.154c-0.434-0.751-0.867-1.502-1.301-2.253
				c-0.091-0.157-0.778,0.304,0.329,0.304c2.556,0,5.111,0,7.667,0c2.556,0,5.111,0,7.667,0c1.107,0,0.42-0.462,0.329-0.304
				c-0.434,0.751-0.867,1.502-1.301,2.253c-2.339,4.051-4.678,8.103-7.017,12.154C35.713,44.199,36.361,44.577,36.603,44.158z"/>
		</g>
		<g>
			<polygon fill="#1B7D75" points="27.809,29.301 36.279,43.969 19.341,43.969 			"/>
			<path fill="#FFFFFF" d="M27.485,29.49c2.34,4.052,4.68,8.104,7.02,12.155c0.434,0.751,0.867,1.502,1.301,2.253
				c0.091,0.158,0.778-0.304-0.329-0.304c-2.556,0-5.111,0-7.667,0s-5.111,0-7.667,0c-1.107,0-0.42,0.462-0.329,0.304
				c0.434-0.751,0.867-1.502,1.301-2.253c2.339-4.052,4.678-8.104,7.017-12.155c0.242-0.42-0.406-0.797-0.648-0.379
				c-2.823,4.889-5.645,9.779-8.468,14.668c-0.142,0.246,0.038,0.564,0.324,0.564c5.646,0,11.292,0,16.939,0
				c0.285,0,0.466-0.318,0.324-0.564c-2.824-4.889-5.647-9.779-8.471-14.668C27.891,28.693,27.242,29.07,27.485,29.49z"/>
		</g>
		<g>
			<polygon fill="#329547" points="36.257,14.634 44.726,29.301 27.788,29.301 			"/>
			<path fill="#FFFFFF" d="M35.933,14.823c2.339,4.051,4.679,8.103,7.018,12.154c0.434,0.751,0.867,1.502,1.301,2.253
				c0.091,0.157,0.778-0.304-0.329-0.304c-2.555,0-5.111,0-7.666,0s-5.111,0-7.666,0c-1.107,0-0.42,0.462-0.329,0.304
				c0.434-0.751,0.867-1.502,1.301-2.253c2.339-4.051,4.679-8.103,7.018-12.154c0.242-0.42-0.406-0.797-0.648-0.379
				c-2.823,4.889-5.646,9.778-8.469,14.667c-0.142,0.246,0.038,0.564,0.324,0.564c5.646,0,11.292,0,16.938,0
				c0.285,0,0.466-0.318,0.324-0.564c-2.823-4.889-5.646-9.778-8.469-14.667C36.339,14.026,35.691,14.403,35.933,14.823z"/>
		</g>
		<g>
			<polygon fill="#A7B947" points="44.757,29.301 53.226,14.634 36.287,14.634 			"/>
			<path fill="#FFFFFF" d="M45.081,29.49c2.823-4.889,5.646-9.778,8.469-14.667c0.142-0.246-0.038-0.564-0.324-0.564
				c-5.646,0-11.292,0-16.938,0c-0.285,0-0.466,0.318-0.324,0.564c2.823,4.889,5.646,9.778,8.47,14.667
				c0.242,0.419,0.89,0.041,0.648-0.379c-2.34-4.051-4.679-8.103-7.019-12.154c-0.434-0.751-0.867-1.502-1.301-2.253
				c-0.091-0.157-0.778,0.304,0.329,0.304c2.556,0,5.111,0,7.667,0c2.556,0,5.111,0,7.667,0c1.107,0,0.42-0.462,0.329-0.304
				c-0.434,0.751-0.867,1.502-1.301,2.253c-2.339,4.051-4.679,8.103-7.018,12.154C44.191,29.531,44.839,29.909,45.081,29.49z"/>
		</g>
		<g>
			<polygon fill="#EC922D" points="53.203,43.971 61.672,29.302 44.737,29.302 			"/>
			<path fill="#FFFFFF" d="M53.527,44.16c2.823-4.89,5.646-9.779,8.469-14.669c0.142-0.246-0.038-0.564-0.324-0.564
				c-5.645,0-11.29,0-16.935,0c-0.285,0-0.466,0.318-0.324,0.564c2.822,4.89,5.644,9.779,8.466,14.669
				c0.242,0.419,0.89,0.041,0.648-0.379c-2.339-4.052-4.677-8.104-7.016-12.156c-0.433-0.751-0.867-1.502-1.3-2.253
				c-0.091-0.158-0.778,0.304,0.329,0.304c2.555,0,5.11,0,7.665,0s5.11,0,7.665,0c1.107,0,0.42-0.462,0.329-0.304
				c-0.434,0.751-0.867,1.502-1.301,2.253c-2.339,4.052-4.679,8.104-7.018,12.156C52.637,44.201,53.285,44.579,53.527,44.16z"/>
		</g>
		<g>
			<polygon fill="#F3BA5D" points="53.183,14.634 61.657,29.302 44.718,29.302 			"/>
			<path fill="#FFFFFF" d="M52.859,14.823c2.341,4.052,4.682,8.104,7.023,12.155c0.434,0.751,0.868,1.502,1.302,2.253
				c0.091,0.158,0.778-0.304-0.329-0.304c-2.556,0-5.111,0-7.667,0s-5.111,0-7.667,0c-1.107,0-0.42,0.462-0.329,0.304
				c0.433-0.751,0.867-1.502,1.3-2.253c2.338-4.052,4.676-8.104,7.015-12.155c0.242-0.42-0.406-0.797-0.648-0.379
				c-2.822,4.889-5.643,9.779-8.465,14.668c-0.142,0.246,0.038,0.564,0.324,0.564c5.646,0,11.293,0,16.939,0
				c0.285,0,0.466-0.318,0.324-0.564c-2.825-4.889-5.65-9.779-8.475-14.668C53.265,14.026,52.616,14.403,52.859,14.823z"/>
		</g>
		<g>
			<polygon fill="#A7B947" points="61.657,29.302 70.123,14.634 53.183,14.634 			"/>
			<path fill="#FFFFFF" d="M61.981,29.491c2.822-4.889,5.644-9.779,8.466-14.668c0.142-0.246-0.038-0.564-0.324-0.564
				c-5.647,0-11.294,0-16.94,0c-0.285,0-0.466,0.318-0.324,0.564c2.825,4.889,5.65,9.779,8.475,14.668
				c0.242,0.419,0.89,0.041,0.648-0.379c-2.341-4.052-4.682-8.104-7.023-12.155c-0.434-0.751-0.868-1.502-1.302-2.253
				c-0.091-0.158-0.778,0.304,0.329,0.304c2.556,0,5.112,0,7.668,0s5.112,0,7.668,0c1.107,0,0.42-0.462,0.329-0.304
				c-0.433,0.751-0.867,1.502-1.3,2.253c-2.339,4.052-4.677,8.104-7.016,12.155C61.091,29.532,61.739,29.91,61.981,29.491z"/>
		</g>
		<g>
			<polygon fill="#EC922D" points="70.105,43.971 78.571,29.302 61.636,29.302 			"/>
			<path fill="#FFFFFF" d="M70.429,44.16c2.822-4.89,5.644-9.779,8.466-14.669c0.142-0.246-0.038-0.564-0.324-0.564
				c-5.645,0-11.29,0-16.936,0c-0.285,0-0.466,0.318-0.324,0.564c2.823,4.89,5.647,9.779,8.47,14.669
				c0.242,0.419,0.89,0.041,0.648-0.379c-2.34-4.052-4.679-8.104-7.019-12.156c-0.434-0.751-0.867-1.502-1.301-2.253
				c-0.091-0.158-0.778,0.304,0.329,0.304c2.555,0,5.11,0,7.665,0s5.11,0,7.665,0c1.107,0,0.42-0.462,0.329-0.304
				c-0.433,0.751-0.867,1.502-1.3,2.253c-2.339,4.052-4.677,8.104-7.016,12.156C69.539,44.201,70.188,44.579,70.429,44.16z"/>
		</g>
		<g>
			<polygon fill="#F3BA5D" points="70.083,14.634 78.554,29.302 61.618,29.302 			"/>
			<path fill="#FFFFFF" d="M69.759,14.823c2.34,4.052,4.68,8.104,7.02,12.155c0.434,0.751,0.867,1.502,1.301,2.253
				c0.091,0.158,0.778-0.304-0.329-0.304c-2.555,0-5.11,0-7.665,0c-2.555,0-5.11,0-7.665,0c-1.107,0-0.42,0.462-0.329,0.304
				c0.433-0.751,0.867-1.502,1.3-2.253c2.338-4.052,4.676-8.104,7.015-12.155c0.242-0.42-0.406-0.797-0.648-0.379
				c-2.822,4.889-5.643,9.779-8.465,14.668c-0.142,0.246,0.038,0.564,0.324,0.564c5.645,0,11.29,0,16.936,0
				c0.285,0,0.466-0.318,0.324-0.564c-2.824-4.889-5.647-9.779-8.471-14.668C70.165,14.026,69.517,14.403,69.759,14.823z"/>
		</g>
		<g>
			<polygon fill="#F3BA5D" points="87.148,43.858 95.618,58.526 78.681,58.526 			"/>
			<path fill="#FFFFFF" d="M86.825,44.048c2.34,4.052,4.679,8.104,7.019,12.155c0.434,0.751,0.867,1.502,1.301,2.253
				c0.091,0.158,0.778-0.304-0.329-0.304c-2.555,0-5.111,0-7.666,0c-2.555,0-5.111,0-7.666,0c-1.107,0-0.42,0.462-0.329,0.304
				c0.434-0.751,0.867-1.502,1.301-2.253c2.339-4.052,4.678-8.104,7.017-12.155c0.242-0.42-0.406-0.797-0.648-0.379
				c-2.823,4.889-5.645,9.779-8.468,14.668c-0.142,0.246,0.038,0.564,0.324,0.564c5.646,0,11.292,0,16.938,0
				c0.285,0,0.466-0.318,0.324-0.564c-2.823-4.889-5.647-9.779-8.47-14.668C87.23,43.251,86.582,43.628,86.825,44.048z"/>
		</g>
		<g>
			<polygon fill="#771919" points="61.694,29.301 70.163,43.969 53.226,43.969 			"/>
			<path fill="#FFFFFF" d="M61.37,29.49c2.339,4.052,4.679,8.104,7.018,12.155c0.434,0.751,0.867,1.502,1.301,2.253
				c0.091,0.157,0.778-0.304-0.329-0.304c-2.555,0-5.111,0-7.666,0c-2.555,0-5.111,0-7.666,0c-1.107,0-0.42,0.462-0.329,0.304
				c0.434-0.751,0.867-1.502,1.301-2.253c2.339-4.052,4.679-8.104,7.018-12.155c0.242-0.42-0.406-0.797-0.648-0.379
				c-2.823,4.889-5.646,9.779-8.469,14.668c-0.142,0.246,0.038,0.564,0.324,0.564c5.646,0,11.292,0,16.938,0
				c0.285,0,0.466-0.318,0.324-0.564c-2.823-4.889-5.646-9.779-8.469-14.668C61.776,28.693,61.128,29.07,61.37,29.49z"/>
		</g>
		<g>
			<polygon fill="#DF5032" points="95.469,58.523 103.933,73.192 86.995,73.192 			"/>
			<path fill="#FFFFFF" d="M95.145,58.713c2.338,4.052,4.676,8.104,7.014,12.156c0.433,0.751,0.867,1.502,1.3,2.253
				c0.091,0.157,0.778-0.304-0.329-0.304c-2.555,0-5.111,0-7.666,0c-2.555,0-5.111,0-7.666,0c-1.107,0-0.42,0.462-0.329,0.304
				c0.434-0.751,0.868-1.502,1.302-2.253c2.341-4.052,4.681-8.104,7.022-12.156c0.242-0.42-0.406-0.797-0.648-0.379
				c-2.825,4.89-5.649,9.779-8.474,14.669c-0.142,0.246,0.038,0.564,0.324,0.564c5.646,0,11.292,0,16.937,0
				c0.285,0,0.466-0.318,0.324-0.564c-2.821-4.89-5.643-9.779-8.464-14.669C95.551,57.915,94.903,58.293,95.145,58.713z"/>
		</g>
		<g>
			<polygon fill="#EC922D" points="70.032,73.194 78.498,58.523 61.563,58.523 			"/>
			<path fill="#FFFFFF" d="M70.356,73.384c2.822-4.89,5.644-9.781,8.466-14.671c0.142-0.246-0.038-0.564-0.324-0.564
				c-5.645,0-11.29,0-16.935,0c-0.285,0-0.466,0.318-0.324,0.564c2.823,4.89,5.646,9.781,8.469,14.671
				c0.242,0.419,0.89,0.041,0.648-0.379c-2.339-4.053-4.679-8.105-7.018-12.158c-0.434-0.751-0.867-1.502-1.301-2.253
				c-0.091-0.158-0.778,0.304,0.329,0.304c2.555,0,5.11,0,7.665,0c2.555,0,5.11,0,7.665,0c1.107,0,0.42-0.462,0.329-0.304
				c-0.433,0.751-0.867,1.502-1.3,2.253c-2.339,4.053-4.677,8.105-7.016,12.158C69.466,73.425,70.114,73.802,70.356,73.384z"/>
		</g>
		<g>
			<polygon fill="#E04A4F" points="112.733,58.526 121.206,43.857 104.268,43.857 			"/>
			<path fill="#FFFFFF" d="M113.057,58.716c2.824-4.89,5.648-9.779,8.473-14.669c0.142-0.246-0.038-0.564-0.324-0.564
				c-5.646,0-11.292,0-16.938,0c-0.285,0-0.466,0.318-0.324,0.564c2.822,4.89,5.644,9.779,8.466,14.669
				c0.242,0.419,0.89,0.041,0.648-0.379c-2.339-4.052-4.677-8.104-7.016-12.156c-0.433-0.751-0.867-1.502-1.3-2.253
				c-0.091-0.157-0.778,0.304,0.329,0.304c2.556,0,5.111,0,7.667,0s5.111,0,7.667,0c1.107,0,0.42-0.462,0.329-0.304
				c-0.434,0.751-0.868,1.502-1.301,2.253c-2.34,4.052-4.681,8.104-7.021,12.156C112.167,58.757,112.815,59.134,113.057,58.716z"/>
		</g>
		<g>
			<polygon fill="#D0363A" points="104.268,43.857 112.733,58.526 95.799,58.526 			"/>
			<path fill="#FFFFFF" d="M103.944,44.047c2.339,4.052,4.677,8.104,7.016,12.156c0.433,0.751,0.867,1.502,1.3,2.253
				c0.091,0.158,0.778-0.304-0.329-0.304c-2.555,0-5.11,0-7.665,0s-5.11,0-7.665,0c-1.107,0-0.42,0.462-0.329,0.304
				c0.434-0.751,0.867-1.502,1.301-2.253c2.339-4.052,4.679-8.104,7.018-12.156c0.242-0.42-0.406-0.797-0.648-0.379
				c-2.823,4.89-5.646,9.779-8.469,14.669c-0.142,0.246,0.038,0.564,0.324,0.564c5.645,0,11.29,0,16.935,0
				c0.285,0,0.466-0.318,0.324-0.564c-2.822-4.89-5.644-9.779-8.466-14.669C104.35,43.249,103.702,43.627,103.944,44.047z"/>
		</g>
		<g>
			<polygon fill="#EC922D" points="104.271,73.251 112.736,58.579 95.799,58.579 			"/>
			<path fill="#FFFFFF" d="M104.594,73.44c2.822-4.891,5.644-9.781,8.466-14.672c0.142-0.246-0.038-0.564-0.324-0.564
				c-5.646,0-11.292,0-16.938,0c-0.285,0-0.466,0.318-0.324,0.564c2.824,4.891,5.648,9.781,8.472,14.672
				c0.242,0.419,0.89,0.041,0.648-0.379c-2.34-4.053-4.68-8.106-7.02-12.158c-0.434-0.751-0.867-1.502-1.301-2.254
				c-0.091-0.158-0.778,0.304,0.329,0.304c2.555,0,5.111,0,7.666,0s5.111,0,7.666,0c1.107,0,0.42-0.462,0.329-0.304
				c-0.433,0.751-0.867,1.502-1.3,2.254c-2.339,4.053-4.677,8.106-7.016,12.158C103.705,73.481,104.353,73.859,104.594,73.44z"/>
		</g>
		<g>
			<polygon fill="#EC922D" points="86.929,73.194 95.397,58.523 78.457,58.523 			"/>
			<path fill="#FFFFFF" d="M87.253,73.384c2.823-4.89,5.646-9.781,8.469-14.671c0.142-0.246-0.038-0.564-0.324-0.564
				c-5.647,0-11.294,0-16.94,0c-0.285,0-0.466,0.318-0.324,0.564c2.824,4.89,5.648,9.781,8.472,14.671
				c0.242,0.419,0.89,0.041,0.648-0.379c-2.34-4.053-4.68-8.105-7.02-12.158c-0.434-0.751-0.867-1.502-1.301-2.253
				c-0.091-0.158-0.778,0.304,0.329,0.304c2.556,0,5.112,0,7.668,0c2.556,0,5.112,0,7.668,0c1.107,0,0.42-0.462,0.329-0.304
				c-0.434,0.751-0.867,1.502-1.301,2.253c-2.339,4.053-4.679,8.105-7.018,12.158C86.363,73.425,87.011,73.802,87.253,73.384z"/>
		</g>
		<g>
			<polygon fill="#771919" points="78.519,58.523 86.987,73.194 70.054,73.194 			"/>
			<path fill="#FFFFFF" d="M78.195,58.713c2.339,4.053,4.679,8.105,7.018,12.158c0.434,0.751,0.867,1.502,1.301,2.253
				c0.091,0.158,0.778-0.304-0.329-0.304c-2.555,0-5.11,0-7.664,0s-5.11,0-7.664,0c-1.106,0-0.42,0.462-0.329,0.304
				c0.433-0.751,0.867-1.502,1.3-2.253c2.338-4.053,4.677-8.105,7.015-12.158c0.242-0.42-0.406-0.797-0.648-0.379
				c-2.822,4.89-5.643,9.781-8.465,14.671c-0.142,0.246,0.038,0.564,0.324,0.564c5.645,0,11.289,0,16.934,0
				c0.285,0,0.466-0.318,0.324-0.564c-2.823-4.89-5.646-9.781-8.469-14.671C78.601,57.915,77.953,58.293,78.195,58.713z"/>
		</g>
		<g>
			<path fill="#727276" d="M133.733,52.173c3.051,2.598,6.948,4.414,10.458,4.414c3.966,0,5.914-1.555,5.914-4.091
				c0-2.663-2.405-3.507-6.11-5.069l-5.521-2.34c-4.354-1.754-8.512-5.393-8.512-11.565c0-7.017,6.238-12.605,15.072-12.605
				c4.875,0,10.009,1.947,13.652,5.589l-4.88,6.043c-2.79-2.144-5.392-3.379-8.772-3.379c-3.311,0-5.39,1.43-5.39,3.835
				c0,2.599,2.792,3.507,6.43,5.001l5.46,2.214c5.133,2.077,8.383,5.522,8.383,11.5c0,7.019-5.852,13.122-15.988,13.122
				c-5.518,0-11.368-2.077-15.657-6.103L133.733,52.173z"/>
			<path fill="#727276" d="M167.128,21.698h9.555v42.363h-9.555V21.698z"/>
			<path fill="#727276" d="M189.418,52.173c3.054,2.598,6.948,4.414,10.462,4.414c3.965,0,5.916-1.555,5.916-4.091
				c0-2.663-2.407-3.507-6.111-5.069l-5.523-2.34c-4.352-1.754-8.512-5.393-8.512-11.565c0-7.017,6.238-12.605,15.076-12.605
				c4.871,0,10.005,1.947,13.646,5.589l-4.875,6.043c-2.795-2.144-5.396-3.379-8.771-3.379c-3.316,0-5.396,1.43-5.396,3.835
				c0,2.599,2.797,3.507,6.434,5.001l5.458,2.214c5.137,2.077,8.383,5.522,8.383,11.5c0,7.019-5.847,13.122-15.983,13.122
				c-5.524,0-11.373-2.077-15.662-6.103L189.418,52.173z"/>
			<path fill="#727276" d="M222.815,21.698h9.556v42.363h-9.556V21.698z"/>
		</g>
	</g>
	<g>
		<path fill="#727276" d="M22.433,92.68c0-4.241,2.689-6.274,6.051-6.274c1.12,0,2.641,0.305,3.537,0.864l-0.368,1.665
			c-0.816-0.464-1.969-0.801-2.913-0.801c-2.369,0-4.049,1.505-4.049,4.515c0,2.977,1.92,4.289,4.177,4.289
			c1.024,0,2.129-0.256,3.042-0.704l0.24,1.648c-1.073,0.545-2.337,0.816-3.585,0.816C25.442,98.699,22.433,96.938,22.433,92.68z"/>
		<path fill="#727276" d="M42.068,98.347c-0.592,0.224-1.201,0.352-1.665,0.352c-0.88,0-1.281-0.384-1.409-1.152l-0.08-0.032
			c-0.944,0.785-1.681,1.185-2.737,1.185c-1.424,0-2.641-1.024-2.641-2.528c0-1.201,0.688-1.697,2.001-2.033
			c1.104-0.272,2.529-0.561,3.394-0.784v-0.528c0-1.024-0.4-1.585-1.697-1.585c-0.928,0-1.937,0.32-2.865,0.769l-0.416-1.297
			c1.056-0.592,2.401-0.96,3.441-0.96c1.776,0,3.585,0.48,3.585,3.153v3.713c0,0.337,0.048,0.593,0.464,0.593
			c0.24,0,0.432-0.016,0.528-0.032L42.068,98.347z M36.946,97.323c0.624,0,1.36-0.353,1.985-1.009v-1.921
			c-0.785,0.16-1.761,0.4-2.353,0.576c-0.544,0.145-0.96,0.353-0.96,1.024C35.617,96.762,36.21,97.323,36.946,97.323z"/>
		<path fill="#727276" d="M51.54,94.073c0,3.09-1.584,4.626-4.065,4.626c-0.833,0-1.425-0.144-1.953-0.336v3.874h-2.001V89.895
			h1.617l0.272,1.073l0.08,0.016c0.592-0.608,1.36-1.232,2.609-1.232C50.339,89.751,51.54,91.736,51.54,94.073z M45.522,92.409
			v4.434c0.512,0.24,1.12,0.4,1.616,0.4c1.745,0,2.321-1.425,2.321-3.09c0-1.744-0.769-2.881-1.857-2.881
			C46.786,91.272,46.018,91.752,45.522,92.409z"/>
		<path fill="#727276" d="M61.46,98.347c-0.592,0.224-1.201,0.352-1.665,0.352c-0.88,0-1.281-0.384-1.409-1.152l-0.08-0.032
			c-0.944,0.785-1.681,1.185-2.737,1.185c-1.424,0-2.641-1.024-2.641-2.528c0-1.201,0.688-1.697,2.001-2.033
			c1.104-0.272,2.529-0.561,3.394-0.784v-0.528c0-1.024-0.4-1.585-1.697-1.585c-0.928,0-1.937,0.32-2.865,0.769l-0.416-1.297
			c1.056-0.592,2.401-0.96,3.441-0.96c1.776,0,3.585,0.48,3.585,3.153v3.713c0,0.337,0.048,0.593,0.464,0.593
			c0.24,0,0.432-0.016,0.528-0.032L61.46,98.347z M56.338,97.323c0.624,0,1.36-0.353,1.985-1.009v-1.921
			c-0.785,0.16-1.761,0.4-2.353,0.576c-0.544,0.145-0.96,0.353-0.96,1.024C55.009,96.762,55.602,97.323,56.338,97.323z"/>
		<path fill="#727276" d="M62.496,94.361c0-2.497,0.833-4.609,4.05-4.609c0.896,0,2.033,0.224,2.753,0.544l-0.304,1.568
			c-0.576-0.271-1.488-0.496-2.161-0.496c-1.584,0-2.257,1.024-2.257,2.945c0,1.697,0.688,2.77,2.401,2.77
			c0.769,0,1.681-0.225,2.257-0.433l0.256,1.473c-0.705,0.336-1.825,0.576-2.897,0.576C64.097,98.699,62.496,97.275,62.496,94.361z"
			/>
		<path fill="#727276" d="M72.097,85.749c0.704,0,1.216,0.48,1.216,1.169s-0.512,1.168-1.216,1.168
			c-0.752,0-1.217-0.479-1.217-1.168C70.88,86.246,71.345,85.749,72.097,85.749z M71.073,89.895h2.049v8.66h-2.049V89.895z"/>
		<path fill="#727276" d="M74.48,89.895h1.408l0.4-2.129h1.584v2.129h2.673l-0.144,1.425H77.89v4.466
			c0,0.736,0.208,1.249,1.041,1.249c0.448,0,1.056-0.128,1.697-0.385l0.256,1.521c-0.944,0.385-1.809,0.528-2.561,0.528
			c-1.792,0-2.465-0.928-2.465-2.705V91.32H74.48V89.895z"/>
		<path fill="#727276" d="M90.596,98.347c-0.592,0.224-1.201,0.352-1.665,0.352c-0.88,0-1.281-0.384-1.409-1.152l-0.08-0.032
			c-0.944,0.785-1.681,1.185-2.737,1.185c-1.424,0-2.641-1.024-2.641-2.528c0-1.201,0.688-1.697,2.001-2.033
			c1.104-0.272,2.529-0.561,3.394-0.784v-0.528c0-1.024-0.4-1.585-1.697-1.585c-0.928,0-1.937,0.32-2.865,0.769l-0.416-1.297
			c1.056-0.592,2.401-0.96,3.441-0.96c1.776,0,3.585,0.48,3.585,3.153v3.713c0,0.337,0.048,0.593,0.464,0.593
			c0.24,0,0.432-0.016,0.528-0.032L90.596,98.347z M85.474,97.323c0.624,0,1.36-0.353,1.985-1.009v-1.921
			c-0.785,0.16-1.761,0.4-2.353,0.576c-0.544,0.145-0.96,0.353-0.96,1.024C84.145,96.762,84.737,97.323,85.474,97.323z"/>
		<path fill="#727276" d="M91.632,94.361c0-2.497,0.833-4.609,4.05-4.609c0.896,0,2.033,0.224,2.753,0.544l-0.304,1.568
			c-0.576-0.271-1.488-0.496-2.161-0.496c-1.584,0-2.257,1.024-2.257,2.945c0,1.697,0.688,2.77,2.401,2.77
			c0.769,0,1.681-0.225,2.257-0.433l0.256,1.473c-0.705,0.336-1.825,0.576-2.897,0.576C93.232,98.699,91.632,97.275,91.632,94.361z"
			/>
		<path fill="#727276" d="M101.233,85.749c0.704,0,1.216,0.48,1.216,1.169s-0.512,1.168-1.216,1.168
			c-0.752,0-1.217-0.479-1.217-1.168C100.016,86.246,100.48,85.749,101.233,85.749z M100.209,89.895h2.049v8.66h-2.049V89.895z"/>
		<path fill="#727276" d="M104.08,94.249c0-2.897,1.489-4.498,4.242-4.498c2.769,0,4.226,1.568,4.226,4.498
			c0,3.185-1.729,4.449-4.242,4.449C105.809,98.699,104.08,97.386,104.08,94.249z M110.467,94.249c0-2.209-0.88-2.993-2.145-2.993
			c-1.28,0-2.161,0.768-2.161,3.009c0,2.001,0.832,2.945,2.161,2.945C109.667,97.21,110.467,96.282,110.467,94.249z M106.834,88.247
			l2.097-3.633l1.601,0.896l-2.849,3.153L106.834,88.247z"/>
		<path fill="#727276" d="M114.416,89.895h1.713l0.224,1.121l0.112,0.016c0.88-0.849,1.792-1.28,2.865-1.28
			c1.792,0,2.785,1.185,2.785,3.266v5.538h-2.049v-5.219c0-1.376-0.528-1.952-1.473-1.952c-0.833,0-1.633,0.512-2.129,1.152v6.019
			h-2.049V89.895z"/>
		<path fill="#727276" d="M129.552,102.237c0.432-0.896,1.024-2.098,1.696-3.682h-0.432c-0.688-2.065-1.985-5.57-2.481-6.739
			c-0.176-0.384-0.272-0.576-0.752-0.592v-1.329c0.128,0,0.416-0.048,0.848-0.048c0.961,0,1.377,0.24,1.793,1.312
			c0.176,0.448,1.185,3.538,1.793,5.347h0.063c0.688-1.873,1.905-5.314,2.321-6.611h2.129c-0.88,2.657-3.426,9.269-4.706,12.342
			H129.552z"/>
		<path fill="#727276" d="M149.283,95.114h-4.37c-0.416,1.152-1.009,2.896-1.185,3.441h-2.209c0.944-2.545,3.697-9.652,4.706-12.005
			h1.809c0.832,2.049,3.794,9.508,4.754,12.005h-2.225C150.275,97.739,149.794,96.49,149.283,95.114z M147.057,89.288
			c-0.496,1.264-1.057,2.801-1.601,4.257h3.281l-1.601-4.257H147.057z"/>
		<path fill="#727276" d="M162.371,94.073c0,3.09-1.585,4.626-4.065,4.626c-0.833,0-1.425-0.144-1.953-0.336v3.874h-2.001V89.895
			h1.617l0.271,1.073l0.08,0.016c0.593-0.608,1.36-1.232,2.609-1.232C161.17,89.751,162.371,91.736,162.371,94.073z M156.352,92.409
			v4.434c0.513,0.24,1.12,0.4,1.616,0.4c1.745,0,2.321-1.425,2.321-3.09c0-1.744-0.769-2.881-1.856-2.881
			C157.617,91.272,156.848,91.752,156.352,92.409z"/>
		<path fill="#727276" d="M164.159,98.555v-8.66h1.633l0.272,1.329h0.111c0.753-0.816,1.617-1.473,2.417-1.473
			c0.4,0,0.769,0.176,1.009,0.528l-0.464,1.648c-0.24-0.112-0.496-0.192-0.784-0.192c-0.721,0-1.633,0.816-2.146,1.329v5.49H164.159
			z"/>
		<path fill="#727276" d="M178.018,98.09c-0.833,0.368-1.969,0.608-3.153,0.608c-2.305,0-4.482-1.152-4.482-4.338
			c0-3.425,1.969-4.609,4.178-4.609c2.481,0,3.666,1.425,3.666,3.762c0,0.208,0,0.448-0.017,0.656h-5.746v0.336
			c0,1.937,1.152,2.673,2.689,2.673c0.848,0,1.872-0.224,2.657-0.496L178.018,98.09z M176.337,93.145
			c0-1.505-0.704-2.065-1.729-2.065c-1.041,0-1.905,0.608-2.081,2.065H176.337z"/>
		<path fill="#727276" d="M180.015,89.895h1.712l0.225,1.121l0.112,0.016c0.88-0.849,1.792-1.28,2.865-1.28
			c1.792,0,2.785,1.185,2.785,3.266v5.538h-2.049v-5.219c0-1.376-0.528-1.952-1.473-1.952c-0.833,0-1.633,0.512-2.129,1.152v6.019
			h-2.049V89.895z"/>
		<path fill="#727276" d="M189.358,94.393c0-3.121,1.633-4.642,4.066-4.642c0.864,0,1.521,0.192,1.937,0.336V86.23h2.001v12.325
			h-1.601l-0.288-1.072l-0.097-0.017c-0.608,0.624-1.36,1.232-2.593,1.232C190.543,98.699,189.358,96.73,189.358,94.393z
			 M195.361,96.041v-4.417c-0.528-0.257-1.12-0.4-1.617-0.4c-1.744,0-2.305,1.425-2.305,3.089c0,1.745,0.769,2.882,1.841,2.882
			C194.112,97.195,194.865,96.698,195.361,96.041z"/>
		<path fill="#727276" d="M200.527,85.749c0.704,0,1.217,0.48,1.217,1.169s-0.513,1.168-1.217,1.168
			c-0.752,0-1.217-0.479-1.217-1.168C199.31,86.246,199.775,85.749,200.527,85.749z M199.502,89.895h2.049v8.66h-2.049V89.895z"/>
		<path fill="#727276" d="M210.609,98.555h-7.314v-0.784c1.088-1.569,3.233-4.706,4.418-6.339l-0.017-0.08h-4.209v-1.457h6.834
			l0.24,0.769c-1.664,2.289-3.521,4.882-4.497,6.339l0.031,0.08h4.514V98.555z"/>
		<path fill="#727276" d="M220.53,98.347c-0.593,0.224-1.201,0.352-1.665,0.352c-0.88,0-1.28-0.384-1.408-1.152l-0.08-0.032
			c-0.944,0.785-1.681,1.185-2.737,1.185c-1.425,0-2.642-1.024-2.642-2.528c0-1.201,0.688-1.697,2.001-2.033
			c1.104-0.272,2.529-0.561,3.394-0.784v-0.528c0-1.024-0.4-1.585-1.696-1.585c-0.929,0-1.938,0.32-2.865,0.769l-0.416-1.297
			c1.056-0.592,2.4-0.96,3.441-0.96c1.776,0,3.585,0.48,3.585,3.153v3.713c0,0.337,0.048,0.593,0.464,0.593
			c0.24,0,0.433-0.016,0.528-0.032L220.53,98.347z M215.408,97.323c0.624,0,1.36-0.353,1.984-1.009v-1.921
			c-0.784,0.16-1.761,0.4-2.353,0.576c-0.545,0.145-0.961,0.353-0.961,1.024C214.079,96.762,214.671,97.323,215.408,97.323z"/>
		<path fill="#727276" d="M221.518,89.895h3.217v9.364c0,1.889-0.56,2.978-2.769,2.978c-0.288,0-0.656-0.049-0.912-0.097
			l-0.129-1.601c0.192,0.048,0.48,0.097,0.736,0.097c0.864,0,1.024-0.545,1.024-1.681v-7.588h-1.168V89.895z M223.535,85.749
			c0.721,0,1.217,0.48,1.217,1.169s-0.496,1.168-1.217,1.168c-0.752,0-1.217-0.479-1.217-1.168
			C222.318,86.246,222.783,85.749,223.535,85.749z"/>
		<path fill="#727276" d="M234.273,98.09c-0.832,0.368-1.969,0.608-3.153,0.608c-2.305,0-4.481-1.152-4.481-4.338
			c0-3.425,1.969-4.609,4.178-4.609c2.48,0,3.665,1.425,3.665,3.762c0,0.208,0,0.448-0.016,0.656h-5.746v0.336
			c0,1.937,1.152,2.673,2.688,2.673c0.849,0,1.873-0.224,2.657-0.496L234.273,98.09z M232.592,93.145
			c0-1.505-0.704-2.065-1.729-2.065c-1.04,0-1.904,0.608-2.081,2.065H232.592z"/>
	</g>
</g>
</svg>
