<?xml version="1.0" encoding="utf-8"?>
<!-- Generator: Adobe Illustrator 16.0.0, SVG Export Plug-In . SVG Version: 6.00 Build 0)  -->
<!DOCTYPE svg PUBLIC "-//W3C//DTD SVG 1.1//EN" "http://www.w3.org/Graphics/SVG/1.1/DTD/svg11.dtd">
<svg version="1.1" id="Capa_1" xmlns="http://www.w3.org/2000/svg" xmlns:xlink="http://www.w3.org/1999/xlink" x="0px" y="0px"
	 width="380px" height="62px" viewBox="0 0 380 62" enable-background="new 0 0 380 62" xml:space="preserve">
<g>
	<rect x="24.508" y="-38.875" fill="none" stroke="#1D71B8" stroke-miterlimit="10" width="76.626" height="32.738"/>
	<g>
		<path fill="#1D71B8" d="M40.648-26.455h3.067c1.195,0,2.083,0.177,2.662,0.532c0.58,0.354,0.869,0.907,0.869,1.657
			c0,0.493-0.126,0.914-0.379,1.263s-0.586,0.574-0.998,0.674v0.061c0.545,0.144,0.94,0.385,1.185,0.722s0.367,0.773,0.367,1.312
			c0,0.797-0.3,1.427-0.899,1.885c-0.6,0.46-1.417,0.689-2.451,0.689h-3.423V-26.455z M43.024-23.081h0.716
			c0.341,0,0.604-0.07,0.791-0.211c0.187-0.14,0.279-0.349,0.279-0.625c0-0.493-0.372-0.74-1.118-0.74h-0.668V-23.081z
			 M43.024-21.343v1.847h0.836c0.742,0,1.113-0.313,1.113-0.938c0-0.293-0.1-0.517-0.298-0.673
			c-0.198-0.157-0.486-0.235-0.863-0.235H43.024z"/>
		<path fill="#1D71B8" d="M54.346-17.661l-0.433-1.648h-2.857l-0.445,1.648h-2.611l2.87-8.83h3.17l2.905,8.83H54.346z
			 M53.419-21.258l-0.379-1.444c-0.088-0.321-0.195-0.736-0.321-1.245c-0.127-0.509-0.21-0.874-0.25-1.095
			c-0.036,0.205-0.107,0.542-0.214,1.011c-0.105,0.469-0.342,1.394-0.706,2.773H53.419z"/>
		<path fill="#1D71B8" d="M66.269-17.661h-3.116l-3.212-6.196h-0.055C59.962-22.883,60-22.139,60-21.625v3.964h-2.105v-8.794h3.104
			l3.2,6.111h0.036c-0.057-0.887-0.084-1.599-0.084-2.136v-3.976h2.117V-17.661z"/>
		<path fill="#1D71B8" d="M72.086-24.633c-0.565,0-1.007,0.231-1.323,0.694c-0.317,0.464-0.476,1.102-0.476,1.916
			c0,1.692,0.644,2.539,1.931,2.539c0.39,0,0.767-0.055,1.132-0.163c0.364-0.107,0.731-0.238,1.101-0.391v2.009
			c-0.734,0.325-1.564,0.487-2.49,0.487c-1.328,0-2.346-0.385-3.054-1.154c-0.707-0.771-1.062-1.883-1.062-3.339
			c0-0.91,0.172-1.711,0.515-2.4s0.836-1.22,1.479-1.591s1.401-0.557,2.271-0.557c0.95,0,1.858,0.207,2.725,0.62l-0.728,1.87
			c-0.325-0.152-0.65-0.28-0.975-0.385C72.808-24.581,72.459-24.633,72.086-24.633z"/>
		<path fill="#1D71B8" d="M84.394-22.07c0,1.479-0.363,2.604-1.089,3.375c-0.726,0.77-1.788,1.154-3.188,1.154
			c-1.38,0-2.438-0.387-3.174-1.16c-0.736-0.774-1.104-1.901-1.104-3.381c0-1.464,0.366-2.582,1.098-3.354
			c0.731-0.772,1.796-1.158,3.191-1.158c1.399,0,2.46,0.383,3.182,1.148C84.033-24.679,84.394-23.554,84.394-22.07z M78.342-22.07
			c0,1.7,0.592,2.551,1.775,2.551c0.602,0,1.047-0.207,1.338-0.62c0.291-0.412,0.437-1.057,0.437-1.931
			c0-0.878-0.147-1.527-0.442-1.946s-0.734-0.628-1.32-0.628C78.938-24.645,78.342-23.787,78.342-22.07z"/>
	</g>
	<rect x="109.626" y="-38.875" fill="none" stroke="#DD1D1D" stroke-miterlimit="10" width="76.626" height="32.738"/>
	<g>
		<path fill="#DC1D1D" d="M125.767-26.455h3.068c1.194,0,2.082,0.177,2.662,0.532c0.579,0.354,0.869,0.907,0.869,1.657
			c0,0.493-0.127,0.914-0.379,1.263c-0.253,0.349-0.586,0.574-0.999,0.674v0.061c0.545,0.144,0.94,0.385,1.186,0.722
			c0.244,0.337,0.366,0.773,0.366,1.312c0,0.797-0.3,1.427-0.899,1.885c-0.599,0.46-1.416,0.689-2.451,0.689h-3.423V-26.455z
			 M128.143-23.081h0.716c0.341,0,0.604-0.07,0.791-0.211c0.187-0.14,0.28-0.349,0.28-0.625c0-0.493-0.373-0.74-1.119-0.74h-0.668
			V-23.081z M128.143-21.343v1.847h0.837c0.741,0,1.112-0.313,1.112-0.938c0-0.293-0.099-0.517-0.298-0.673
			c-0.198-0.157-0.486-0.235-0.863-0.235H128.143z"/>
		<path fill="#DC1D1D" d="M139.464-17.661l-0.433-1.648h-2.857l-0.445,1.648h-2.61l2.869-8.83h3.17l2.906,8.83H139.464z
			 M138.538-21.258l-0.379-1.444c-0.088-0.321-0.195-0.736-0.322-1.245c-0.126-0.509-0.21-0.874-0.249-1.095
			c-0.036,0.205-0.107,0.542-0.214,1.011s-0.342,1.394-0.707,2.773H138.538z"/>
		<path fill="#DC1D1D" d="M151.388-17.661h-3.116l-3.213-6.196h-0.054c0.076,0.975,0.114,1.719,0.114,2.232v3.964h-2.105v-8.794
			h3.104l3.201,6.111h0.036c-0.057-0.887-0.085-1.599-0.085-2.136v-3.976h2.118V-17.661z"/>
		<path fill="#DC1D1D" d="M157.204-24.633c-0.565,0-1.007,0.231-1.323,0.694c-0.316,0.464-0.476,1.102-0.476,1.916
			c0,1.692,0.645,2.539,1.932,2.539c0.389,0,0.766-0.055,1.131-0.163c0.364-0.107,0.731-0.238,1.101-0.391v2.009
			c-0.733,0.325-1.563,0.487-2.49,0.487c-1.327,0-2.346-0.385-3.053-1.154c-0.708-0.771-1.062-1.883-1.062-3.339
			c0-0.91,0.171-1.711,0.514-2.4s0.836-1.22,1.48-1.591c0.644-0.371,1.4-0.557,2.271-0.557c0.95,0,1.858,0.207,2.725,0.62
			l-0.728,1.87c-0.325-0.152-0.649-0.28-0.975-0.385C157.927-24.581,157.577-24.633,157.204-24.633z"/>
		<path fill="#DC1D1D" d="M169.512-22.07c0,1.479-0.362,2.604-1.088,3.375c-0.726,0.77-1.789,1.154-3.188,1.154
			c-1.38,0-2.438-0.387-3.173-1.16c-0.736-0.774-1.104-1.901-1.104-3.381c0-1.464,0.366-2.582,1.098-3.354
			c0.732-0.772,1.796-1.158,3.191-1.158c1.399,0,2.461,0.383,3.183,1.148C169.151-24.679,169.512-23.554,169.512-22.07z
			 M163.461-22.07c0,1.7,0.592,2.551,1.774,2.551c0.602,0,1.048-0.207,1.339-0.62c0.29-0.412,0.436-1.057,0.436-1.931
			c0-0.878-0.147-1.527-0.442-1.946c-0.294-0.419-0.734-0.628-1.32-0.628C164.057-24.645,163.461-23.787,163.461-22.07z"/>
	</g>
	<rect x="193.959" y="-38.875" fill="none" stroke="#36A9E1" stroke-miterlimit="10" width="76.627" height="32.738"/>
	<g>
		<path fill="#36A9E1" d="M210.1-26.455h3.068c1.195,0,2.083,0.177,2.662,0.532c0.579,0.354,0.869,0.907,0.869,1.657
			c0,0.493-0.127,0.914-0.38,1.263c-0.252,0.349-0.585,0.574-0.998,0.674v0.061c0.546,0.144,0.94,0.385,1.186,0.722
			c0.244,0.337,0.366,0.773,0.366,1.312c0,0.797-0.299,1.427-0.898,1.885c-0.601,0.46-1.417,0.689-2.451,0.689H210.1V-26.455z
			 M212.477-23.081h0.715c0.342,0,0.605-0.07,0.792-0.211c0.187-0.14,0.279-0.349,0.279-0.625c0-0.493-0.373-0.74-1.119-0.74h-0.667
			V-23.081z M212.477-21.343v1.847h0.835c0.743,0,1.114-0.313,1.114-0.938c0-0.293-0.1-0.517-0.298-0.673
			c-0.199-0.157-0.487-0.235-0.864-0.235H212.477z"/>
		<path fill="#36A9E1" d="M223.798-17.661l-0.433-1.648h-2.858l-0.445,1.648h-2.61l2.87-8.83h3.169l2.906,8.83H223.798z
			 M222.872-21.258l-0.38-1.444c-0.088-0.321-0.195-0.736-0.322-1.245c-0.126-0.509-0.209-0.874-0.249-1.095
			c-0.036,0.205-0.108,0.542-0.214,1.011s-0.342,1.394-0.707,2.773H222.872z"/>
		<path fill="#36A9E1" d="M235.721-17.661h-3.116l-3.212-6.196h-0.055c0.076,0.975,0.115,1.719,0.115,2.232v3.964h-2.105v-8.794
			h3.104l3.2,6.111h0.036c-0.057-0.887-0.084-1.599-0.084-2.136v-3.976h2.117V-17.661z"/>
		<path fill="#36A9E1" d="M241.537-24.633c-0.565,0-1.006,0.231-1.323,0.694c-0.316,0.464-0.475,1.102-0.475,1.916
			c0,1.692,0.643,2.539,1.931,2.539c0.389,0,0.767-0.055,1.131-0.163c0.365-0.107,0.732-0.238,1.102-0.391v2.009
			c-0.734,0.325-1.564,0.487-2.49,0.487c-1.328,0-2.347-0.385-3.054-1.154c-0.707-0.771-1.062-1.883-1.062-3.339
			c0-0.91,0.171-1.711,0.514-2.4c0.344-0.689,0.837-1.22,1.48-1.591s1.4-0.557,2.271-0.557c0.95,0,1.859,0.207,2.726,0.62
			l-0.729,1.87c-0.325-0.152-0.649-0.28-0.975-0.385S241.91-24.633,241.537-24.633z"/>
		<path fill="#36A9E1" d="M253.846-22.07c0,1.479-0.363,2.604-1.089,3.375c-0.726,0.77-1.789,1.154-3.188,1.154
			c-1.381,0-2.438-0.387-3.174-1.16c-0.736-0.774-1.104-1.901-1.104-3.381c0-1.464,0.366-2.582,1.099-3.354
			c0.731-0.772,1.796-1.158,3.191-1.158c1.399,0,2.46,0.383,3.182,1.148C253.484-24.679,253.846-23.554,253.846-22.07z
			 M247.794-22.07c0,1.7,0.592,2.551,1.775,2.551c0.602,0,1.046-0.207,1.338-0.62c0.291-0.412,0.436-1.057,0.436-1.931
			c0-0.878-0.147-1.527-0.441-1.946c-0.295-0.419-0.735-0.628-1.32-0.628C248.39-24.645,247.794-23.787,247.794-22.07z"/>
	</g>
	<rect x="278.865" y="-38.875" fill="none" stroke="#510B0B" stroke-miterlimit="10" width="76.627" height="32.738"/>
	<g>
		<path fill="#500B0B" d="M295.006-26.455h3.068c1.195,0,2.083,0.177,2.662,0.532c0.579,0.354,0.869,0.907,0.869,1.657
			c0,0.493-0.127,0.914-0.379,1.263c-0.253,0.349-0.586,0.574-0.999,0.674v0.061c0.546,0.144,0.941,0.385,1.186,0.722
			s0.366,0.773,0.366,1.312c0,0.797-0.299,1.427-0.898,1.885c-0.6,0.46-1.416,0.689-2.451,0.689h-3.424V-26.455z M297.383-23.081
			h0.715c0.342,0,0.605-0.07,0.792-0.211c0.187-0.14,0.279-0.349,0.279-0.625c0-0.493-0.373-0.74-1.119-0.74h-0.667V-23.081z
			 M297.383-21.343v1.847h0.836c0.742,0,1.113-0.313,1.113-0.938c0-0.293-0.1-0.517-0.298-0.673
			c-0.199-0.157-0.486-0.235-0.864-0.235H297.383z"/>
		<path fill="#500B0B" d="M308.704-17.661l-0.433-1.648h-2.858l-0.445,1.648h-2.61l2.87-8.83h3.169l2.906,8.83H308.704z
			 M307.778-21.258l-0.38-1.444c-0.088-0.321-0.195-0.736-0.321-1.245c-0.127-0.509-0.21-0.874-0.25-1.095
			c-0.036,0.205-0.108,0.542-0.214,1.011s-0.342,1.394-0.707,2.773H307.778z"/>
		<path fill="#500B0B" d="M320.627-17.661h-3.115l-3.213-6.196h-0.055c0.076,0.975,0.115,1.719,0.115,2.232v3.964h-2.105v-8.794
			h3.104l3.2,6.111h0.036c-0.057-0.887-0.084-1.599-0.084-2.136v-3.976h2.117V-17.661z"/>
		<path fill="#500B0B" d="M326.443-24.633c-0.565,0-1.006,0.231-1.323,0.694c-0.316,0.464-0.475,1.102-0.475,1.916
			c0,1.692,0.644,2.539,1.931,2.539c0.389,0,0.767-0.055,1.131-0.163c0.365-0.107,0.732-0.238,1.102-0.391v2.009
			c-0.734,0.325-1.564,0.487-2.49,0.487c-1.328,0-2.347-0.385-3.054-1.154c-0.707-0.771-1.062-1.883-1.062-3.339
			c0-0.91,0.171-1.711,0.515-2.4c0.343-0.689,0.836-1.22,1.479-1.591s1.4-0.557,2.271-0.557c0.95,0,1.859,0.207,2.726,0.62
			l-0.729,1.87c-0.325-0.152-0.649-0.28-0.975-0.385S326.816-24.633,326.443-24.633z"/>
		<path fill="#500B0B" d="M338.752-22.07c0,1.479-0.363,2.604-1.088,3.375c-0.727,0.77-1.79,1.154-3.188,1.154
			c-1.381,0-2.438-0.387-3.174-1.16c-0.736-0.774-1.104-1.901-1.104-3.381c0-1.464,0.366-2.582,1.099-3.354
			c0.731-0.772,1.796-1.158,3.191-1.158c1.399,0,2.46,0.383,3.182,1.148C338.391-24.679,338.752-23.554,338.752-22.07z M332.7-22.07
			c0,1.7,0.592,2.551,1.775,2.551c0.602,0,1.047-0.207,1.338-0.62c0.291-0.412,0.436-1.057,0.436-1.931
			c0-0.878-0.146-1.527-0.441-1.946s-0.735-0.628-1.32-0.628C333.296-24.645,332.7-23.787,332.7-22.07z"/>
	</g>
</g>
<g>
	<path fill-rule="evenodd" clip-rule="evenodd" fill="#E20613" d="M9.887,17.481c-0.446-0.709-0.543-1.65-0.543-2.375
		c0-2.459,2.198-4.538,4.489-4.538h7.176l-2.786,2.81h-4.44C11.999,13.379,9.839,15.189,9.887,17.481L9.887,17.481z M12.624,15.466
		c0.185-0.592,0.762-1.349,1.306-1.748c-1.039,0-2.207,0.496-3.101,1.748H12.624L12.624,15.466z M14.061,14.068
		c-0.408,0.359-0.854,0.904-1.083,1.398h2.155C14.905,14.972,14.458,14.427,14.061,14.068L14.061,14.068z M10.649,15.831
		c-0.267,0.479-0.397,1.024-0.446,1.565h2.013c0-0.542,0.099-1.086,0.277-1.565H10.649L10.649,15.831z M12.842,15.831
		c-0.179,0.479-0.261,1.024-0.31,1.565h3.046c-0.048-0.542-0.13-1.086-0.31-1.565H12.842L12.842,15.831z M17.245,15.466
		c-0.855-1.252-2.024-1.748-3.048-1.748c0.529,0.399,1.073,1.156,1.301,1.748H17.245L17.245,15.466z M15.628,15.831
		c0.184,0.479,0.267,1.024,0.267,1.565h2.014c-0.034-0.542-0.17-1.086-0.446-1.565H15.628L15.628,15.831z M10.829,19.591
		c0.894,1.305,2.062,1.752,3.101,1.752c-0.543-0.414-1.121-1.17-1.306-1.752H10.829L10.829,19.591z M14.061,21.027
		c0.397-0.358,0.844-0.941,1.072-1.436h-2.155C13.207,20.085,13.653,20.668,14.061,21.027L14.061,21.027z M12.494,19.28
		c-0.179-0.543-0.277-1.078-0.277-1.567h-2.013c0.049,0.528,0.179,1.071,0.446,1.567H12.494L12.494,19.28z M15.27,19.28
		c0.179-0.496,0.261-1.039,0.31-1.567h-3.046c0.048,0.528,0.13,1.071,0.31,1.567H15.27L15.27,19.28z M15.497,19.591
		c-0.228,0.582-0.771,1.338-1.301,1.752c1.024,0,2.193-0.447,3.048-1.752H15.497L15.497,19.591z M17.462,19.28
		c0.276-0.496,0.413-1.039,0.446-1.567h-2.014c0,0.489-0.083,1.023-0.267,1.567H17.462L17.462,19.28z M18.224,17.528
		c0.049,2.377-2.1,4.174-3.896,4.174h-4.44l-2.785,2.774h7.177c2.291,0,4.488-2.06,4.488-4.522c0-0.723-0.087-1.664-0.544-2.378
		V17.528L18.224,17.528z"/>
	<polygon fill-rule="evenodd" clip-rule="evenodd" fill="#E20613" points="86.333,13.519 88.123,13.519 88.123,13.783 
		87.376,13.783 87.376,15.723 87.079,15.723 87.079,13.783 86.333,13.783 86.333,13.519 	"/>
	<path fill-rule="evenodd" clip-rule="evenodd" fill="#E20613" d="M90.21,15.723v-1.302c0-0.065,0.007-0.345,0.007-0.549H90.21
		l-0.619,1.851h-0.294l-0.621-1.849h-0.005c0,0.202,0.005,0.482,0.005,0.547v1.302h-0.289v-2.205h0.428l0.628,1.863h0.007
		l0.626-1.863H90.5v2.205H90.21L90.21,15.723z"/>
	<path fill-rule="evenodd" clip-rule="evenodd" fill="#E20613" d="M39.206,21.334c-1.865,0-3.201-1.121-3.201-2.874
		c0-1.73,1.384-2.881,3.201-2.881c1.816,0,3.199,1.144,3.199,2.881C42.405,20.213,41.059,21.334,39.206,21.334L39.206,21.334z
		 M71.09,15.711v5.505h-1.861l-0.027-0.554h-0.041c-0.205,0.186-0.635,0.677-1.835,0.677c-1.331,0-2.496-1.156-2.496-2.88
		c0-1.599,1.033-2.875,2.619-2.875c1.077,0,1.517,0.474,1.683,0.626h0.048l0.02-0.499H71.09L71.09,15.711z M56.731,15.713v5.507
		H54.87l-0.027-0.556h-0.04c-0.207,0.186-0.637,0.677-1.836,0.677c-1.329,0-2.496-1.156-2.496-2.879
		c0-1.601,1.033-2.876,2.618-2.876c1.079,0,1.518,0.476,1.683,0.627h0.05l0.018-0.5H56.731L56.731,15.713z M47.694,15.718h1.919
		v5.511h-1.919V15.718L47.694,15.718z M57.966,21.215v-7.764h1.913v2.662h0.02c0.136-0.085,0.755-0.529,1.664-0.529
		c1.489,0,2.584,1.196,2.584,2.781c0,1.978-1.213,2.974-2.596,2.974c-1.045,0-1.576-0.487-1.706-0.628h-0.031l-0.028,0.504H57.966
		L57.966,21.215z M39.206,19.954c0.777,0,1.235-0.682,1.235-1.494c0-0.823-0.436-1.506-1.235-1.506
		c-0.836,0-1.236,0.683-1.236,1.506C37.97,19.272,38.428,19.954,39.206,19.954L39.206,19.954z M46.765,19.72
		c-0.094,0.026-0.352,0.091-0.531,0.091c-0.388,0-0.812-0.181-0.812-0.853v-1.861h1.204v-1.385h-1.204v-1.774h-1.915v1.774h-0.838
		v1.385h0.838v2.178c0,1.195,0.556,2.055,1.973,2.055c0.411,0,0.789-0.054,1.049-0.104L46.765,19.72L46.765,19.72z M24.984,21.017
		c0.535,0.161,1.349,0.311,2.213,0.311c1.634,0,3.266-0.58,3.266-2.374c0-2.464-3.396-2.122-3.396-3.104
		c0-0.502,0.522-0.612,1.034-0.612c0.709,0,1.607,0.341,1.807,0.422l0.155-1.695c-0.496-0.169-1.249-0.265-1.955-0.265
		c-1.613,0-3.206,0.629-3.206,2.228c0,2.419,3.387,1.915,3.387,3.186c0,0.488-0.487,0.673-1.11,0.673
		c-0.855,0-1.658-0.428-2.006-0.582L24.984,21.017L24.984,21.017z M66.857,18.41c0,0.909,0.509,1.479,1.167,1.479
		c0.595,0,1.177-0.559,1.177-1.404c0-0.855-0.516-1.438-1.177-1.438C67.338,17.046,66.857,17.658,66.857,18.41L66.857,18.41z
		 M52.5,18.411c0,0.91,0.507,1.479,1.164,1.479c0.597,0,1.178-0.558,1.178-1.403c0-0.854-0.515-1.437-1.178-1.437
		C52.979,17.05,52.5,17.661,52.5,18.411L52.5,18.411z M35.517,15.798c-0.143-0.04-0.668-0.22-1.366-0.22
		c-1.726,0-3.019,1.079-3.019,2.879c0,1.634,1.161,2.877,2.942,2.877c0.758,0,1.315-0.202,1.442-0.24l-0.093-1.605
		c-0.147,0.066-0.529,0.285-0.97,0.285c-0.773,0-1.337-0.548-1.337-1.317c0-0.809,0.604-1.331,1.36-1.331
		c0.426,0,0.805,0.2,0.947,0.27L35.517,15.798L35.517,15.798z M79.251,21.221h1.91v-2.549h0.02l1.697,2.549h2.126L82.957,18.3
		l1.997-2.578h-2.124l-1.648,2.27h-0.02v-4.533h-1.91V21.221L79.251,21.221z M72.329,21.22h1.864v-2.845
		c0-0.667,0.441-1.121,1.006-1.121c0.646,0,1.012,0.419,1.012,1.121v2.845h1.864v-3.316c0-1.247-0.804-2.316-2.277-2.316
		c-0.985,0-1.497,0.536-1.73,0.747h-0.04l-0.019-0.609h-1.68V21.22L72.329,21.22z M48.653,12.929c-0.59,0-1.076,0.484-1.076,1.076
		c0,0.589,0.486,1.074,1.076,1.074c0.591,0,1.076-0.484,1.076-1.074C49.729,13.414,49.244,12.929,48.653,12.929L48.653,12.929z
		 M62.162,18.462c0-0.737-0.42-1.391-1.152-1.391c-0.644,0-1.161,0.549-1.161,1.391c0,0.814,0.423,1.396,1.161,1.396
		C61.675,19.858,62.162,19.304,62.162,18.462L62.162,18.462z"/>
</g>
<g>
	<g>
		<path fill="#002F87" d="M144.229,18.85v-7.756h2.251c0.382,0,0.746,0.032,1.073,0.122c0.324,0.082,0.615,0.225,0.853,0.427
			c0.16,0.133,0.291,0.3,0.387,0.501c0.128,0.259,0.198,0.58,0.198,0.947c0,0.399-0.089,0.722-0.246,0.981
			c-0.153,0.257-0.378,0.444-0.629,0.584c-0.053,0.033-0.108,0.062-0.166,0.088c0.128,0.04,0.251,0.086,0.371,0.145
			c0.234,0.11,0.448,0.264,0.614,0.462c0.112,0.133,0.205,0.282,0.278,0.467c0.092,0.235,0.145,0.512,0.145,0.842
			c0,0.425-0.091,0.785-0.26,1.091c-0.165,0.303-0.404,0.541-0.708,0.714c-0.195,0.115-0.42,0.203-0.667,0.263
			c-0.321,0.085-0.682,0.123-1.067,0.123H144.229 M146.638,18.108c0.315,0,0.599-0.036,0.847-0.112
			c0.247-0.072,0.455-0.185,0.618-0.335c0.102-0.1,0.191-0.217,0.254-0.354c0.089-0.184,0.137-0.405,0.137-0.668
			c0-0.31-0.059-0.552-0.167-0.746c-0.108-0.197-0.265-0.35-0.478-0.462c-0.139-0.075-0.3-0.138-0.484-0.18
			c-0.248-0.063-0.534-0.088-0.854-0.088h-1.446v2.944H146.638L146.638,18.108z M146.447,14.421c0.278,0,0.53-0.029,0.755-0.089
			c0.229-0.063,0.42-0.157,0.566-0.286c0.099-0.083,0.185-0.186,0.243-0.313c0.083-0.164,0.13-0.367,0.13-0.624
			c0-0.286-0.058-0.507-0.159-0.681c-0.105-0.17-0.246-0.291-0.43-0.386c-0.121-0.064-0.261-0.113-0.415-0.145
			c-0.202-0.042-0.427-0.063-0.669-0.063h-1.404v2.587H146.447z"/>
		<path fill="#002F87" d="M154.486,13.875c-0.072-0.167-0.171-0.31-0.297-0.428c-0.18-0.177-0.411-0.304-0.682-0.381
			c-0.263-0.075-0.565-0.107-0.892-0.107c-1.11,0.007-1.736,0.328-2.144,0.559c0.301,0.636,0.619,0.482,1.032,0.305
			c0.314-0.136,0.679-0.192,1.062-0.192c0.177,0,0.369,0.043,0.558,0.08c0.111,0.03,0.21,0.071,0.292,0.119
			c0.134,0.083,0.23,0.186,0.305,0.32c0.069,0.135,0.109,0.314,0.109,0.545v0.829c-0.421-0.096-0.844-0.136-1.326-0.136
			c-0.336,0-0.647,0.033-0.935,0.101c-0.209,0.051-0.399,0.122-0.582,0.217c-0.26,0.142-0.473,0.334-0.625,0.576
			c-0.15,0.245-0.225,0.538-0.225,0.875c0,0.274,0.048,0.534,0.139,0.751c0.146,0.325,0.391,0.582,0.7,0.746
			c0.311,0.169,0.677,0.254,1.089,0.254c0,0,0,0,0.002,0c0.474,0,0.853-0.09,1.174-0.24c0.221-0.106,0.412-0.237,0.588-0.395
			c0.003,0.076,0.01,0.14,0.019,0.197c0.009,0.062,0.024,0.118,0.053,0.169c0.018,0.04,0.043,0.076,0.075,0.106
			c0.053,0.041,0.11,0.071,0.17,0.084c0.062,0.016,0.13,0.02,0.205,0.02h0.28v-4.192C154.629,14.356,154.582,14.1,154.486,13.875
			 M153.828,17.401c-0.204,0.236-0.421,0.438-0.673,0.576c-0.267,0.148-0.586,0.235-1.017,0.235c-0.176,0-0.336-0.02-0.488-0.063
			c-0.106-0.029-0.201-0.074-0.289-0.13c-0.124-0.079-0.224-0.192-0.299-0.337c-0.072-0.151-0.115-0.334-0.115-0.569
			c0-0.198,0.038-0.354,0.115-0.483c0.059-0.099,0.129-0.181,0.22-0.261c0.134-0.109,0.311-0.187,0.527-0.246
			c0.21-0.056,0.452-0.081,0.725-0.081c0.478,0,0.9,0.063,1.293,0.147V17.401z"/>
		<path fill="#002F87" d="M159.841,18.85v-4.213c0-0.237-0.031-0.412-0.094-0.542c-0.06-0.13-0.137-0.216-0.237-0.282
			c-0.068-0.042-0.149-0.075-0.233-0.098c-0.124-0.029-0.261-0.04-0.41-0.04c-0.387,0-0.767,0.105-1.135,0.275
			c-0.341,0.161-0.673,0.372-0.968,0.598v4.301h-0.804v-5.83h0.383c0.039,0.004,0.077,0.004,0.117,0.01
			c0.038,0.004,0.078,0.017,0.119,0.04c0.026,0.016,0.05,0.032,0.07,0.055c0.029,0.033,0.051,0.07,0.064,0.105
			c0.018,0.055,0.033,0.111,0.04,0.172c0.011,0.085,0.013,0.183,0.013,0.308v0.063c0.267-0.197,0.563-0.372,0.899-0.519
			c0.424-0.179,0.893-0.293,1.411-0.293c0.23,0,0.452,0.024,0.659,0.092c0.204,0.065,0.394,0.174,0.544,0.348
			c0.102,0.11,0.18,0.248,0.247,0.401c0.083,0.219,0.127,0.475,0.127,0.779v4.271H159.841"/>
		<path fill="#002F87" d="M167.927,18.444c-0.428-0.301-0.76-0.74-0.948-1.285c-0.128-0.367-0.195-0.776-0.195-1.229
			c0-0.671,0.152-1.263,0.43-1.735c0.278-0.474,0.686-0.829,1.184-1.037c0.336-0.131,0.703-0.198,1.108-0.198
			c0.604-0.003,1.143,0.155,1.575,0.462c0.435,0.297,0.761,0.733,0.955,1.282c0.125,0.363,0.188,0.776,0.188,1.227
			c0,0.677-0.146,1.267-0.429,1.737c-0.275,0.471-0.683,0.822-1.18,1.024c-0.337,0.134-0.708,0.207-1.109,0.207
			C168.901,18.899,168.365,18.738,167.927,18.444 M168.38,13.988c-0.294,0.219-0.521,0.542-0.653,0.963
			c-0.091,0.286-0.134,0.611-0.134,0.979c0,0.56,0.104,1.017,0.294,1.37c0.196,0.355,0.467,0.607,0.816,0.753
			c0.233,0.1,0.499,0.152,0.803,0.152c0.448,0,0.824-0.118,1.123-0.334c0.293-0.216,0.515-0.535,0.651-0.96
			c0.085-0.281,0.132-0.611,0.132-0.981c0-0.548-0.105-1.009-0.301-1.363c-0.188-0.359-0.459-0.616-0.811-0.769
			c-0.229-0.101-0.498-0.151-0.796-0.151C169.051,13.648,168.676,13.763,168.38,13.988z"/>
		<path fill="#002F87" d="M180.345,18.85v-4.248c0-0.224-0.03-0.39-0.078-0.517c-0.054-0.124-0.119-0.207-0.209-0.272
			c-0.064-0.04-0.133-0.073-0.218-0.095c-0.109-0.028-0.244-0.043-0.396-0.043c-0.368,0-0.705,0.101-1.023,0.26
			c-0.295,0.15-0.576,0.35-0.845,0.563v4.353h-0.808v-4.248c0-0.222-0.03-0.387-0.084-0.517c-0.051-0.122-0.123-0.206-0.213-0.272
			c-0.061-0.04-0.13-0.073-0.213-0.095c-0.11-0.028-0.237-0.043-0.376-0.043c-0.385,0-0.723,0.099-1.042,0.258
			c-0.302,0.149-0.58,0.352-0.853,0.571v4.345h-0.803v-5.83h0.379c0.041,0.004,0.079,0.004,0.122,0.01
			c0.042,0.004,0.078,0.017,0.122,0.04c0.025,0.013,0.05,0.032,0.069,0.055c0.031,0.033,0.05,0.07,0.065,0.105
			c0.017,0.055,0.029,0.111,0.034,0.172c0.012,0.085,0.014,0.184,0.014,0.308v0.013c0.222-0.163,0.483-0.322,0.77-0.46
			c0.385-0.18,0.828-0.302,1.314-0.302c0.239,0,0.476,0.033,0.689,0.122c0.218,0.087,0.411,0.232,0.555,0.426
			c0.058,0.081,0.105,0.174,0.149,0.274c0.257-0.203,0.546-0.386,0.872-0.535c0.391-0.174,0.832-0.287,1.298-0.287
			c0.229,0,0.448,0.028,0.645,0.097c0.194,0.07,0.375,0.186,0.518,0.345c0.096,0.103,0.175,0.229,0.233,0.373
			c0.073,0.196,0.112,0.419,0.112,0.679v4.397H180.345"/>
		<path fill="#002F87" d="M136.55,16.041l1.061-3.541l1.074,3.541H136.55 M139.291,11.885c-0.215-0.639-0.334-0.789-0.943-0.789
			h-1.482l-2.372,7.754h1.209l0.508-1.669h2.819l0.512,1.669h2.102L139.291,11.885z"/>
		<path fill="#002F87" d="M125.03,17.817v-5.712h0.997c0.479,0,0.893,0.396,0.893,0.877c0,0.167-0.03,0.324-0.195,0.561l-0.646,0.97
			c0.676,0.161,1.127,0.677,1.127,1.638c0,1.17-0.7,1.67-1.625,1.67h-0.551 M127.539,14.136l0.38-0.563
			c0.798-1.188,0.249-2.479-1.335-2.479h-3.38v7.758h3.261C129.332,18.852,130.19,15.513,127.539,14.136"/>
		<path fill="#002F87" d="M119.016,17.817h-0.546v-5.712h0.992c0.48,0,0.898,0.396,0.898,0.877c0,0.167-0.031,0.324-0.197,0.561
			l-0.65,0.97c0.679,0.161,1.128,0.677,1.128,1.638C120.639,17.319,119.941,17.817,119.016,17.817 M120.972,14.136l0.379-0.563
			c0.803-1.188,0.252-2.479-1.335-2.479h-3.376v7.758h3.261C122.765,18.852,123.63,15.513,120.972,14.136"/>
		<path fill="#002F87" d="M130.95,12.105c-0.275-0.874-0.416-1.01-0.945-1.01h-1.37l2.538,7.755h1.865l2.363-7.755h-1.227
			l-1.751,5.892L130.95,12.105"/>
		<line fill="none" x1="116.64" y1="11.095" x2="119.9" y2="11.095"/>
		<path fill="#002F87" d="M166.195,13.562c-0.298,0.636-0.587,0.426-0.999,0.251c-0.219-0.092-0.505-0.157-0.883-0.157
			c-0.442,0.001-0.821,0.115-1.125,0.335c-0.306,0.22-0.538,0.539-0.674,0.957c-0.096,0.278-0.148,0.602-0.148,0.971
			c0,0.416,0.063,0.783,0.171,1.087c0.112,0.309,0.274,0.551,0.479,0.74c0.139,0.127,0.294,0.225,0.473,0.302
			c0.24,0.098,0.509,0.147,0.824,0.147c0.414,0,0.728-0.091,0.969-0.208c0.398-0.206,0.669-0.44,1.013,0.172
			c-0.146,0.139-0.391,0.328-0.653,0.452c-0.04,0.019-0.078,0.036-0.123,0.054c-0.325,0.135-0.736,0.234-1.233,0.234l0,0
			c-0.635,0-1.177-0.163-1.615-0.464c-0.435-0.305-0.753-0.742-0.938-1.292c-0.123-0.365-0.182-0.778-0.182-1.223
			c-0.002-0.682,0.153-1.27,0.442-1.741c0.288-0.469,0.707-0.816,1.211-1.022c0.336-0.128,0.715-0.196,1.116-0.196
			C164.554,12.97,165.376,12.897,166.195,13.562"/>
		<path fill="#002F87" d="M186.898,14.48c-0.086-0.258-0.198-0.483-0.344-0.68c-0.215-0.284-0.49-0.499-0.813-0.644
			c-0.323-0.134-0.694-0.199-1.086-0.199c-0.376,0-0.725,0.071-1.044,0.211c-0.469,0.21-0.866,0.566-1.138,1.044
			c-0.271,0.478-0.421,1.063-0.421,1.74c0,0.438,0.057,0.845,0.178,1.208c0.177,0.539,0.488,0.978,0.924,1.279
			c0.432,0.297,0.986,0.457,1.636,0.457h0.001c0.519,0,0.94-0.085,1.287-0.207c0.552-0.208,0.833-0.461,0.969-0.609
			c-0.375-0.546-0.59-0.329-1.024-0.128c-0.255,0.128-0.74,0.232-1.178,0.232c-0.337,0-0.628-0.049-0.87-0.143
			c-0.186-0.068-0.342-0.164-0.481-0.284c-0.202-0.18-0.363-0.415-0.467-0.717c-0.095-0.268-0.149-0.587-0.16-0.956h4.197v-0.133
			c0,0,0-0.015,0-0.032c0-0.049,0.006-0.143,0.006-0.229C187.071,15.229,187.014,14.827,186.898,14.48 M182.89,15.409
			c0.037-0.268,0.1-0.501,0.185-0.709c0.149-0.362,0.366-0.624,0.629-0.799c0.271-0.179,0.585-0.267,0.953-0.267
			c0.242,0,0.466,0.034,0.655,0.102c0.142,0.053,0.272,0.125,0.385,0.222c0.17,0.144,0.305,0.335,0.403,0.599
			c0.083,0.23,0.144,0.509,0.16,0.854h-3.37V15.409z"/>
		<path fill="#002F87" d="M190.5,12.983c-0.425-0.001-0.802,0.131-1.123,0.331c-0.209,0.13-0.398,0.284-0.567,0.45
			c0-0.139-0.003-0.247-0.018-0.336c-0.001-0.069-0.013-0.127-0.034-0.182c-0.012-0.038-0.029-0.075-0.06-0.112
			c-0.02-0.021-0.044-0.04-0.069-0.058c-0.041-0.025-0.08-0.04-0.126-0.045c-0.037-0.005-0.073-0.005-0.115-0.009h-0.383v5.83h0.803
			v-4.184c0.284-0.335,0.546-0.539,0.725-0.654c0.005-0.002,0.011-0.006,0.017-0.01c0.326-0.207,0.586-0.264,0.794-0.283
			c0.372-0.036,0.625-0.085,0.662-0.668C190.854,13.011,190.684,12.984,190.5,12.983"/>
	</g>
	<g>
		<rect x="107.5" y="1.896" fill="#002F87" width="3.763" height="3.764"/>
		<rect x="107.5" y="5.661" fill="#2071B7" width="3.763" height="3.763"/>
		<rect x="107.5" y="9.423" fill="#1C9AD7" width="3.763" height="3.763"/>
		<rect x="107.5" y="13.186" fill="#61B4E4" width="3.763" height="3.763"/>
		<rect x="107.5" y="16.949" fill="#9ACAEB" width="3.763" height="3.765"/>
		<rect x="107.5" y="20.713" fill="#BAD8EB" width="3.763" height="3.763"/>
	</g>
</g>
<g>
	<path fill="#EC2024" d="M286.233,13.388c1.022-0.84,2.27-1.465,3.596-1.591c0.998-0.005,2.031-0.114,2.992,0.223
		c1.408,0.45,2.715,1.32,3.564,2.539l0.077,0.265c-0.484-0.013-0.974,0.019-1.461-0.019c-0.446-0.254-0.772-0.678-1.226-0.927
		c-1.756-1.154-4.16-1.175-5.936-0.05c-0.482,0.26-0.84,0.695-1.303,0.984c-0.5,0.034-1.002,0.008-1.502,0.003
		C285.283,14.229,285.771,13.8,286.233,13.388"/>
	<path fill="#EC2024" d="M352.765,13.428c0.619-0.294,1.352-0.597,2.034-0.354c0.636,0.349,0.962,1.042,1.353,1.623
		c0.451-0.463,0.674-1.262,1.398-1.359c0.969,0.03,1.752,0.73,2.352,1.425c0.375,0.487,0.832,1.101,0.605,1.748
		c-0.254,0.599-0.742,1.049-1.096,1.584c0.561,0.186,1.24,0.211,1.66,0.672c0.402,0.697,0.063,1.534-0.225,2.212
		c-0.303,0.627-0.686,1.274-1.305,1.637c-0.797,0.277-1.584-0.228-2.328-0.464c-0.051,0.68,0.281,1.633-0.445,2.06
		c-0.822,0.393-1.787,0.283-2.648,0.095c-0.6-0.159-1.316-0.439-1.467-1.11c-0.123-0.615-0.058-1.248-0.026-1.867
		c-0.665,0.177-1.466,0.771-2.104,0.223c-0.528-0.532-0.714-1.305-0.856-2.02c-0.07-0.681-0.171-1.511,0.349-2.051
		c0.558-0.442,1.299-0.525,1.961-0.723c-0.333-0.573-1.081-1.065-0.889-1.806C351.374,14.219,352.104,13.785,352.765,13.428
		 M353.411,15.533c-0.238,0.136-0.19,0.58,0.113,0.589c0.644-0.087,1.394-0.633,1.961-0.05c0.15-0.416,0.35-0.809,0.572-1.19
		C355.136,14.795,354.164,14.969,353.411,15.533 M357.403,16.248c0.313,0.467,0.834,0.985,0.512,1.584
		c0.436,0.031,0.869,0.097,1.295,0.2c-0.188-0.977-0.721-1.965-1.637-2.426C357.222,15.606,357.233,16.052,357.403,16.248
		 M353.473,17.967c0.532,0.632,0.833,1.476,0.76,2.303c0.788-0.286,1.745-0.368,2.501,0.058c-0.072-0.841,0.156-1.739,0.762-2.352
		c-0.814-0.191-1.59-0.704-1.988-1.45C355.013,17.207,354.318,17.795,353.473,17.967 M352.096,16.929
		c-0.204,0.563-0.396,1.149-0.351,1.758c0.031,0.449,0.069,0.983,0.485,1.25c0.714-0.5-0.093-1.735,0.846-2.107
		C352.723,17.56,352.415,17.237,352.096,16.929 M356.999,20.652c0.09,0.43,0.15,0.864,0.211,1.298
		c0.738-0.445,1.393-1.073,1.701-1.895c0.086-0.195,0.031-0.407,0.018-0.609C358.036,19.397,357.972,20.863,356.999,20.652
		 M352.815,21.267c0.764,0.679,1.816,1.192,2.855,0.958c-0.01-0.204,0.029-0.484-0.232-0.542c-0.538-0.244-1.398-0.304-1.465-1.05
		C353.607,20.882,353.215,21.081,352.815,21.267"/>
	<path fill="#104B84" d="M289.86,14.513c0.474-0.258,0.947-0.516,1.426-0.766c0.006,0.738,0,1.479,0.008,2.217
		c0.486,0.012,0.973,0.012,1.461,0.017c-0.004,0.438-0.004,0.876-0.006,1.313h-1.461c0.002,1.231-0.002,2.464,0,3.696
		c-0.002,0.286,0.031,0.627,0.305,0.79c0.525,0.158,1.063-0.05,1.51-0.322c-0.109,0.459-0.219,0.919-0.335,1.376
		c-0.622,0.324-1.403,0.478-2.046,0.127c-0.603-0.313-0.873-1.027-0.859-1.677c0-1.325-0.01-2.651,0.008-3.977
		c-0.41-0.017-0.819-0.017-1.228-0.017c0.003-0.458-0.052-0.923,0.07-1.376c0.382,0.063,0.771,0.08,1.155,0.016
		C289.86,15.46,289.86,14.985,289.86,14.513"/>
	<path fill="#104B84" d="M297.981,14.52c0.473-0.258,0.939-0.526,1.428-0.754c0.008,0.949,0.002,1.896,0.004,2.844
		c0.576-0.479,1.29-0.849,2.064-0.787c1-0.015,1.925,0.646,2.324,1.549c0.479,1.072,0.533,2.307,0.297,3.442
		c-0.24,1.091-1.069,2.078-2.188,2.313c-0.889,0.245-1.814-0.126-2.495-0.696c-0.002,0.207-0.002,0.411-0.002,0.616
		c-0.479,0-0.955,0-1.432-0.004C297.98,20.204,297.979,17.36,297.981,14.52 M299.405,17.972c-0.005,1.01,0,2.019-0.002,3.029
		c0.377,0.374,0.811,0.727,1.342,0.847c0.656,0.19,1.436-0.09,1.756-0.704c0.43-0.778,0.389-1.723,0.228-2.568
		c-0.14-0.681-0.626-1.41-1.384-1.448C300.588,17.01,299.903,17.447,299.405,17.972"/>
	<path fill="#104B84" d="M279.351,17.599c1.063-1.995,4.283-2.444,5.697-0.597c-0.111,0.42-0.516,0.704-0.768,1.051
		c-0.328-0.309-0.691-0.604-1.133-0.73c-0.963-0.339-2.12,0.165-2.549,1.088c-0.578,1.125-0.14,2.747,1.098,3.213
		c0.915,0.415,1.924-0.007,2.61-0.65c0.269,0.329,0.54,0.654,0.792,0.998c-0.559,0.656-1.344,1.136-2.218,1.205
		c-1.277,0.094-2.657-0.422-3.382-1.519C278.721,20.473,278.684,18.845,279.351,17.599"/>
	<path fill="#104B84" d="M305.54,16.449c0.924-0.584,2.08-0.749,3.148-0.586c0.758,0.108,1.516,0.518,1.855,1.23
		c0.215,0.397,0.238,0.858,0.242,1.301c0,1.549-0.004,3.099,0,4.647c-0.476,0.005-0.951,0.005-1.426,0.004
		c-0.004-0.229-0.007-0.457-0.011-0.686c-0.968,0.981-2.661,1.139-3.729,0.232c-0.736-0.614-0.928-1.712-0.625-2.595
		c0.223-0.675,0.852-1.146,1.518-1.328c0.928-0.252,1.936-0.218,2.845,0.094c0.036-0.553,0.003-1.226-0.56-1.512
		c-0.873-0.399-1.897-0.154-2.728,0.234C305.903,17.137,305.724,16.792,305.54,16.449 M306.484,20.109
		c-0.495,0.446-0.311,1.345,0.267,1.633c0.873,0.441,1.98,0.07,2.567-0.669c0.083-0.351,0.027-0.716,0.031-1.072
		c-0.403-0.152-0.823-0.265-1.258-0.269C307.544,19.712,306.905,19.69,306.484,20.109"/>
	<path fill="#104B84" d="M313.491,16.546c0.857-0.832,2.271-0.966,3.293-0.378c0.777,0.509,1.03,1.495,1.05,2.371
		c0.019,1.498-0.007,3,0.013,4.499c-0.465,0.009-0.93,0.009-1.393,0.007c-0.001-1.309,0.007-2.62-0.001-3.928
		c-0.042-0.61-0.063-1.33-0.569-1.757c-0.452-0.332-1.09-0.338-1.588-0.112c-0.566,0.298-0.814,0.971-0.801,1.578
		c-0.01,1.409,0.008,2.817-0.008,4.224c-0.473-0.003-0.949-0.003-1.42-0.003c-0.006-2.356,0.008-4.711-0.006-7.064
		c0.477-0.041,0.959-0.029,1.438,0.001C313.499,16.125,313.495,16.405,313.491,16.546"/>
	<path fill="#104B84" d="M319.415,16.395c1.162-0.603,2.584-0.807,3.823-0.338c0.831,0.309,1.411,1.157,1.384,2.046
		c0.013,1.648,0,3.297,0.004,4.943h-1.424c-0.002-0.223-0.005-0.442-0.006-0.666c-0.565,0.473-1.265,0.838-2.019,0.819
		c-0.817-0.016-1.685-0.369-2.132-1.085c-0.441-0.764-0.484-1.781-0.001-2.537c0.374-0.563,1.028-0.886,1.68-0.991
		c0.827-0.157,1.684-0.079,2.485,0.163c0.023-0.554-0.017-1.239-0.592-1.509c-0.878-0.388-1.878-0.122-2.717,0.238
		C319.728,17.122,319.558,16.766,319.415,16.395 M320.95,19.781c-0.334,0.077-0.656,0.273-0.821,0.584
		c-0.224,0.508,0.007,1.182,0.527,1.404c0.765,0.36,1.684,0.096,2.286-0.453c0.41-0.297,0.254-0.878,0.223-1.307
		C322.483,19.68,321.685,19.685,320.95,19.781"/>
	<path fill="#104B84" d="M327.325,16.557c0.955-1.05,2.926-1.025,3.676,0.249c0.428-0.498,0.998-0.923,1.677-0.964
		c0.751-0.058,1.618-0.055,2.198,0.506c0.609,0.609,0.701,1.523,0.729,2.343c0.014,1.453,0.004,2.903,0.006,4.356
		c-0.473,0-0.947,0-1.422,0.002c-0.014-1.407,0.007-2.818-0.008-4.23c-0.021-0.574-0.116-1.272-0.672-1.586
		c-0.494-0.212-1.127-0.202-1.543,0.165c-0.416,0.411-0.463,1.032-0.466,1.584c0,1.354,0.001,2.711,0.001,4.063
		c-0.477,0.002-0.951,0.002-1.427,0.002c-0.003-1.357,0.003-2.716-0.001-4.075c-0.012-0.54-0.051-1.146-0.428-1.568
		c-0.568-0.501-1.619-0.404-2.018,0.269c-0.262,0.427-0.299,0.948-0.309,1.438c0.006,1.312,0,2.622,0.006,3.933
		c-0.479,0.005-0.955,0.005-1.432-0.003c0-2.35-0.002-4.702,0-7.053c0.477-0.015,0.952-0.015,1.429-0.014
		C327.322,16.169,327.325,16.363,327.325,16.557"/>
	<path fill="#104B84" d="M337.165,17.142c0.96-1.529,3.369-1.808,4.654-0.542c0.884,0.881,1.114,2.211,0.98,3.408
		c-1.623-0.003-3.248,0.009-4.871-0.006c0.08,0.657,0.367,1.333,0.967,1.675c0.824,0.463,1.857,0.186,2.596-0.323
		c0.262,0.304,0.524,0.611,0.778,0.924c-1.007,0.889-2.538,1.203-3.78,0.65c-0.961-0.413-1.623-1.354-1.829-2.365
		C336.398,19.421,336.538,18.145,337.165,17.142 M338.479,17.576c-0.313,0.325-0.413,0.776-0.56,1.188
		c0.395,0.131,0.813,0.093,1.227,0.096c0.766-0.012,1.531,0.016,2.297-0.022c-0.068-0.369-0.129-0.759-0.359-1.07
		C340.528,16.926,339.147,16.817,338.479,17.576"/>
	<path fill="#104B84" d="M285.903,15.973c0.476-0.05,0.955-0.05,1.433-0.042c0.056,0.388,0.067,0.779,0.06,1.172
		c-0.079,1.533,0.06,3.071-0.033,4.604c-0.026,0.444-0.004,0.893,0.029,1.338c-0.497,0.004-0.993,0.002-1.488-0.003V15.973z"/>
	<path fill="#104B84" d="M294.224,15.934c0.484-0.004,0.966-0.005,1.449,0.016c-0.012,2.368,0.013,4.736-0.014,7.107
		c-0.48-0.012-0.959-0.012-1.438-0.01C294.222,20.675,294.214,18.303,294.224,15.934"/>
	<path fill="#104B84" d="M344.989,19.39c-0.621-1.169-1.422-2.249-1.955-3.459c0.527,0.042,1.055,0.05,1.584,0.056
		c0.395,0.774,0.845,1.519,1.213,2.305c0.574-0.693,0.795-1.635,1.374-2.313c0.488-0.034,0.978,0.016,1.466-0.037
		c-0.505,1.215-1.314,2.28-1.938,3.438c0.73,1.219,1.453,2.441,2.172,3.663c-0.557,0.008-1.115,0.008-1.674-0.003
		c-0.459-0.88-0.932-1.753-1.4-2.627c-0.441,0.904-0.941,1.772-1.445,2.641c-0.52-0.008-1.036-0.007-1.555-0.011
		C343.545,21.823,344.253,20.598,344.989,19.39"/>
</g>
<g>
	<path fill="#1D1D1B" d="M214.764,19.364v-3.056c0-0.398-0.207-0.837-1.207-0.837v-0.259h3.809v0.259c-1,0-1.205,0.439-1.205,0.837
		v6.879c0,0.397,0.205,0.836,1.205,0.836v0.259h-3.809v-0.259c1,0,1.207-0.439,1.207-0.836v-3.262h-4.154v3.262
		c0,0.397,0.205,0.836,1.207,0.836v0.259h-3.811v-0.259c1.001,0,1.205-0.439,1.205-0.836v-6.879c0-0.398-0.204-0.837-1.205-0.837
		v-0.259h3.811v0.259c-1.002,0-1.207,0.439-1.207,0.837v3.056H214.764L214.764,19.364z"/>
	<path fill="#1D1D1B" d="M217.686,21.529h0.316c0.426,1.276,1.385,2.427,2.836,2.427c1.111,0,1.863-0.959,1.549-2.029
		c-0.563-1.917-4.301-2.001-4.301-4.618c0-1.356,1.081-2.29,2.424-2.29c1.453,0,2.11,1.014,2.44,0h0.286l0.302,2.92h-0.342
		c-0.315-1.275-1.222-2.358-2.495-2.358c-0.822,0-1.439,0.452-1.439,1.316c0,0.794,0.865,1.356,1.453,1.712
		c1.863,1.125,3.125,1.713,3.125,3.358c0,1.234-1.027,2.508-2.891,2.508c-1.426,0-2.412-1-2.551,0h-0.301L217.686,21.529
		L217.686,21.529z"/>
	<path fill="#1D1D1B" d="M228.369,19.269c1.386,0,2.193-0.59,2.193-1.699c0-1.042-0.657-1.604-1.617-1.782
		c-1.262-0.083-1.699-0.11-1.699,0.369v3.112H228.369L228.369,19.269z M227.246,23.052L227.246,23.052
		c0,0.48,0.123,0.726,1.123,0.726c1.426,0,2.481-0.424,2.481-2.028c0-1.631-1.632-1.934-2.919-1.934h-0.686V23.052L227.246,23.052z
		 M225.849,16.309L225.849,16.309c0-0.398-0.206-0.837-1.314-0.837v-0.259h3.672c2.11,0,3.755,0.562,3.755,2.317
		c0,1.149-0.769,1.74-1.822,1.973v0.029c1.177,0.218,2.287,0.944,2.287,2.261c0,1.644-1.425,2.492-3.576,2.492h-4.316v-0.259
		c1.109,0,1.315-0.439,1.315-0.836V16.309L225.849,16.309z"/>
	<path fill="#1D1D1B" d="M240.652,18.034h-0.33c-0.396-1.508-1.396-2.537-2.959-2.537c-2.261,0-3.234,1.824-3.234,4.29
		c0,1.919,1,3.987,3.248,3.987c1.344,0,2.262-0.438,3.207-1.369l0.232,0.273c-0.836,1.029-2.246,1.714-3.563,1.714
		c-2.672,0-4.715-1.714-4.715-4.715c0-2.727,1.933-4.742,4.688-4.742c1.878,0,2.563,1.125,3.017,0.014h0.286L240.652,18.034
		L240.652,18.034z"/>
	<polygon fill="#FFFFFF" points="248.053,14.966 257.271,14.966 257.271,24.182 248.053,24.182 	"/>
	<polygon fill="#E42613" points="248.053,14.958 257.271,14.958 252.662,19.567 	"/>
	<polygon fill="#E42613" points="248.053,24.175 257.271,24.175 252.662,19.567 	"/>
	<polygon fill="#E42613" points="248.053,14.958 248.053,24.175 243.445,19.567 	"/>
	<polygon fill="#E42613" points="257.271,14.958 257.271,24.175 261.881,19.567 	"/>
</g>
</svg>
