<?xml version="1.0" encoding="utf-8"?>
<!-- Generator: Adobe Illustrator 16.0.0, SVG Export Plug-In . SVG Version: 6.00 Build 0)  -->
<!DOCTYPE svg PUBLIC "-//W3C//DTD SVG 1.1//EN" "http://www.w3.org/Graphics/SVG/1.1/DTD/svg11.dtd">
<svg version="1.1" id="Capa_1" xmlns="http://www.w3.org/2000/svg" xmlns:xlink="http://www.w3.org/1999/xlink" x="0px" y="0px"
	 width="200px" height="164px" viewBox="0 0 200 164" enable-background="new 0 0 200 164" xml:space="preserve">
<g>
	<g>
		<path fill="#009CDE" d="M162.875,82.862l-110.68,63.903c-3.933,2.27-8.963,0.922-11.233-3.012L3.136,78.238
			c-2.271-3.933-0.923-8.963,3.01-11.233l110.68-63.901c3.934-2.271,8.963-0.923,11.233,3.01l37.825,65.517
			C168.156,75.562,166.809,80.591,162.875,82.862z"/>
		
			<rect x="2.954" y="47.501" transform="matrix(0.866 -0.5 0.5 0.866 -19.2398 45.3897)" fill="#555555" width="144.25" height="22.192"/>
		
			<rect x="26.448" y="87.404" transform="matrix(0.866 -0.5 0.5 0.866 -37.3135 44.9839)" opacity="0.7" fill="#FFFFFF" width="77.673" height="9.432"/>
		
			<rect x="111.342" y="51.202" transform="matrix(-0.866 0.5 -0.5 -0.866 266.7856 40.3575)" opacity="0.7" fill="#FFFFFF" width="33.289" height="9.433"/>
		
			<rect x="93.85" y="88.624" transform="matrix(-0.866 0.5 -0.5 -0.866 284.2172 105.5303)" opacity="0.2" width="68.241" height="4.438"/>
	</g>
	<g opacity="0.1">
		<defs>
			<path id="SVGID_1_" opacity="0.1" d="M162.875,82.862l-110.68,63.903c-3.933,2.27-8.963,0.922-11.233-3.012L3.136,78.238
				c-2.271-3.933-0.923-8.963,3.01-11.233l110.68-63.901c3.934-2.271,8.963-0.923,11.233,3.01l37.825,65.517
				C168.156,75.562,166.809,80.591,162.875,82.862z"/>
		</defs>
		<clipPath id="SVGID_2_">
			<use xlink:href="#SVGID_1_"  overflow="visible"/>
		</clipPath>
		<path clip-path="url(#SVGID_2_)" fill="#1D1D1B" d="M183.831,152.583H56.028c-4.542,0-8.224-3.682-8.224-8.225v-75.65
			c0-4.542,3.682-8.224,8.224-8.224h127.803c4.541,0,8.224,3.682,8.224,8.224v75.65
			C192.055,148.901,188.372,152.583,183.831,152.583z"/>
	</g>
	<g>
		<path fill="#0075A9" d="M187.438,156.188H59.634c-4.541,0-8.223-3.682-8.223-8.223V72.314c0-4.542,3.682-8.224,8.223-8.224
			h127.804c4.541,0,8.223,3.682,8.223,8.224v75.652C195.66,152.507,191.979,156.188,187.438,156.188z"/>
		<g>
			<g>
				<defs>
					<path id="SVGID_3_" d="M84.144,109.585H66.39c-2.145,0-3.883-1.738-3.883-3.883V92.109c0-2.146,1.738-3.884,3.883-3.884h17.754
						c2.145,0,3.884,1.738,3.884,3.884v13.593C88.028,107.847,86.289,109.585,84.144,109.585z"/>
				</defs>
				<use xlink:href="#SVGID_3_"  overflow="visible" fill="#F9DE61"/>
				<clipPath id="SVGID_4_">
					<use xlink:href="#SVGID_3_"  overflow="visible"/>
				</clipPath>
				<g clip-path="url(#SVGID_4_)">
					<g>
						<rect x="62.507" y="106.534" fill="#B4AA00" width="25.521" height="0.555"/>
					</g>
					<g>
						<rect x="62.507" y="90.721" fill="#B4AA00" width="12.76" height="0.556"/>
					</g>
					<g>
						<rect x="75.267" y="90.721" fill="#B4AA00" width="12.761" height="0.556"/>
					</g>
					<g>
						<rect x="80.261" y="101.54" fill="#B4AA00" width="7.767" height="0.555"/>
					</g>
					<g>
						<rect x="62.507" y="101.54" fill="#B4AA00" width="7.767" height="0.555"/>
					</g>
					<g>
						<path fill="#B4AA00" d="M75.267,107.089c-2.906,0-5.271-2.365-5.271-5.271c0-1.045,0.303-2.047,0.879-2.912
							c-0.576-0.866-0.879-1.869-0.879-2.913c0-2.906,2.364-5.271,5.271-5.271v0.556c-2.601,0-4.716,2.115-4.716,4.716
							c0,0.993,0.307,1.944,0.887,2.75l0.117,0.162l-0.117,0.162c-0.58,0.805-0.887,1.756-0.887,2.75c0,2.6,2.115,4.717,4.716,4.717
							c2.6,0,4.716-2.117,4.716-4.717c0-0.994-0.307-1.945-0.886-2.75l-0.117-0.162l0.117-0.162c0.58-0.806,0.886-1.757,0.886-2.75
							v-0.277h8.045v0.555h-7.497c-0.049,0.944-0.347,1.847-0.872,2.635c0.575,0.865,0.879,1.867,0.879,2.912
							C80.538,104.724,78.173,107.089,75.267,107.089z"/>
					</g>
					<g>
						<rect x="62.507" y="95.715" fill="#B4AA00" width="7.767" height="0.555"/>
					</g>
					<g>
						<rect x="74.99" y="88.225" fill="#B4AA00" width="0.555" height="2.773"/>
					</g>
					<g>
						<rect x="74.99" y="106.812" fill="#B4AA00" width="0.555" height="2.773"/>
					</g>
				</g>
			</g>
		</g>
		<g>
			<g>
				<path fill="#009CDE" d="M66.025,125.687h-1.321v-5.307c0-0.633,0.015-1.135,0.045-1.506c-0.086,0.09-0.192,0.189-0.317,0.299
					c-0.126,0.107-0.546,0.453-1.262,1.033l-0.663-0.838l2.417-1.898h1.102V125.687z"/>
				<path fill="#009CDE" d="M74.287,125.687h-5.57v-1l2.119-2.131c0.625-0.641,1.041-1.096,1.245-1.363
					c0.204-0.268,0.353-0.52,0.447-0.756c0.093-0.236,0.14-0.488,0.14-0.758c0-0.371-0.111-0.664-0.334-0.877
					c-0.223-0.215-0.531-0.32-0.924-0.32c-0.315,0-0.62,0.057-0.913,0.174c-0.295,0.115-0.634,0.326-1.021,0.629l-0.713-0.871
					c0.457-0.385,0.9-0.66,1.332-0.82c0.431-0.162,0.89-0.242,1.376-0.242c0.765,0,1.377,0.199,1.838,0.6
					C73.77,118.349,74,118.886,74,119.56c0,0.371-0.067,0.723-0.199,1.057c-0.133,0.334-0.337,0.678-0.613,1.031
					c-0.275,0.355-0.734,0.834-1.374,1.436l-1.428,1.383v0.057h3.9V125.687z"/>
				<path fill="#009CDE" d="M80.548,119.358c0,0.52-0.152,0.953-0.455,1.301c-0.304,0.346-0.731,0.578-1.282,0.699v0.045
					c0.66,0.082,1.154,0.287,1.484,0.615c0.33,0.328,0.495,0.764,0.495,1.307c0,0.791-0.28,1.4-0.838,1.83s-1.353,0.643-2.383,0.643
					c-0.91,0-1.679-0.146-2.304-0.443v-1.174c0.348,0.172,0.718,0.305,1.107,0.398c0.39,0.094,0.764,0.141,1.124,0.141
					c0.637,0,1.113-0.119,1.428-0.354c0.315-0.236,0.473-0.602,0.473-1.098c0-0.438-0.175-0.76-0.523-0.967
					c-0.348-0.205-0.895-0.309-1.641-0.309h-0.714v-1.072h0.725c1.312,0,1.967-0.455,1.967-1.361c0-0.352-0.114-0.623-0.343-0.814
					c-0.229-0.191-0.566-0.287-1.012-0.287c-0.311,0-0.611,0.045-0.899,0.133c-0.289,0.088-0.629,0.26-1.023,0.514l-0.647-0.922
					c0.753-0.555,1.629-0.832,2.625-0.832c0.828,0,1.475,0.178,1.939,0.535C80.315,118.241,80.548,118.731,80.548,119.358z"/>
				<path fill="#009CDE" d="M87.719,123.894h-1.107v1.793h-1.287v-1.793h-3.754v-1.018l3.754-5.43h1.287v5.352h1.107V123.894z
					 M85.325,122.798v-2.064c0-0.732,0.019-1.334,0.056-1.803h-0.044c-0.105,0.248-0.27,0.547-0.495,0.898l-2.04,2.969H85.325z"/>
				<path fill="#009CDE" d="M97.195,120.554c0.828,0,1.484,0.221,1.967,0.658c0.483,0.439,0.725,1.037,0.725,1.793
					c0,0.877-0.274,1.563-0.823,2.055c-0.549,0.492-1.33,0.738-2.341,0.738c-0.918,0-1.64-0.146-2.164-0.443v-1.197
					c0.304,0.172,0.652,0.305,1.046,0.398c0.393,0.094,0.758,0.141,1.096,0.141c0.596,0,1.049-0.133,1.36-0.398
					s0.467-0.656,0.467-1.168c0-0.982-0.626-1.473-1.877-1.473c-0.176,0-0.394,0.018-0.652,0.053
					c-0.259,0.035-0.485,0.076-0.68,0.121l-0.59-0.35l0.315-4.012h4.271v1.174h-3.107l-0.186,2.035
					c0.131-0.021,0.291-0.049,0.48-0.08C96.689,120.569,96.921,120.554,97.195,120.554z"/>
				<path fill="#009CDE" d="M101,122.185c0-3.215,1.309-4.822,3.928-4.822c0.412,0,0.761,0.033,1.046,0.096v1.102
					c-0.285-0.082-0.614-0.123-0.989-0.123c-0.881,0-1.542,0.236-1.984,0.707c-0.441,0.473-0.682,1.229-0.719,2.271h0.066
					c0.177-0.303,0.424-0.539,0.742-0.705c0.318-0.168,0.693-0.25,1.125-0.25c0.746,0,1.326,0.229,1.742,0.686
					c0.415,0.457,0.623,1.076,0.623,1.859c0,0.861-0.24,1.543-0.721,2.043c-0.482,0.5-1.14,0.75-1.971,0.75
					c-0.588,0-1.1-0.141-1.534-0.424s-0.77-0.695-1.003-1.236C101.117,123.597,101,122.944,101,122.185z M103.865,124.708
					c0.453,0,0.803-0.146,1.049-0.438c0.245-0.293,0.368-0.711,0.368-1.254c0-0.473-0.115-0.844-0.346-1.113
					c-0.231-0.27-0.576-0.404-1.037-0.404c-0.285,0-0.548,0.061-0.786,0.182c-0.24,0.123-0.43,0.289-0.568,0.502
					c-0.139,0.211-0.208,0.428-0.208,0.648c0,0.529,0.144,0.973,0.431,1.334C103.053,124.528,103.42,124.708,103.865,124.708z"/>
				<path fill="#009CDE" d="M108.48,125.687l3.248-7.043h-4.271v-1.164h5.683v0.924l-3.231,7.283H108.48z"/>
				<path fill="#009CDE" d="M116.894,117.362c0.78,0,1.396,0.18,1.849,0.537s0.681,0.836,0.681,1.436
					c0,0.844-0.507,1.514-1.518,2.012c0.645,0.322,1.103,0.662,1.374,1.018s0.407,0.754,0.407,1.191
					c0,0.678-0.249,1.221-0.747,1.631c-0.498,0.408-1.173,0.611-2.023,0.611c-0.893,0-1.584-0.191-2.074-0.572
					c-0.49-0.383-0.736-0.924-0.736-1.625c0-0.457,0.129-0.867,0.385-1.232c0.258-0.365,0.678-0.691,1.262-0.977
					c-0.502-0.299-0.859-0.615-1.072-0.949c-0.214-0.334-0.321-0.709-0.321-1.125c0-0.596,0.235-1.07,0.702-1.424
					C115.529,117.54,116.141,117.362,116.894,117.362z M115.371,123.556c0,0.391,0.137,0.693,0.41,0.908s0.644,0.322,1.112,0.322
					c0.483,0,0.858-0.111,1.127-0.334c0.268-0.223,0.401-0.525,0.401-0.908c0-0.303-0.123-0.58-0.371-0.83
					c-0.246-0.252-0.621-0.484-1.123-0.697l-0.164-0.074c-0.494,0.219-0.85,0.457-1.066,0.717
					C115.479,122.921,115.371,123.22,115.371,123.556z M116.883,118.38c-0.375,0-0.677,0.094-0.905,0.277
					c-0.229,0.186-0.343,0.438-0.343,0.756c0,0.195,0.041,0.369,0.123,0.523c0.083,0.154,0.203,0.293,0.36,0.418
					c0.157,0.127,0.423,0.277,0.798,0.453c0.449-0.199,0.768-0.408,0.952-0.627c0.187-0.219,0.278-0.475,0.278-0.768
					c0-0.318-0.115-0.57-0.346-0.756C117.57,118.474,117.265,118.38,116.883,118.38z"/>
				<path fill="#009CDE" d="M132.226,120.976c0,1.619-0.326,2.828-0.978,3.625c-0.652,0.799-1.635,1.197-2.945,1.197
					c-0.499,0-0.856-0.029-1.074-0.09v-1.107c0.334,0.094,0.67,0.141,1.007,0.141c0.892,0,1.557-0.238,1.995-0.719
					c0.438-0.479,0.678-1.232,0.719-2.26h-0.066c-0.221,0.338-0.489,0.58-0.802,0.73s-0.679,0.225-1.099,0.225
					c-0.727,0-1.298-0.227-1.714-0.68s-0.624-1.074-0.624-1.865c0-0.857,0.24-1.541,0.723-2.049c0.48-0.508,1.138-0.762,1.97-0.762
					c0.585,0,1.094,0.143,1.528,0.428c0.435,0.283,0.771,0.697,1.006,1.238C132.107,119.571,132.226,120.22,132.226,120.976z
					 M129.359,118.458c-0.457,0-0.808,0.148-1.051,0.447c-0.244,0.299-0.366,0.717-0.366,1.256c0,0.469,0.114,0.836,0.341,1.104
					c0.227,0.27,0.57,0.402,1.031,0.402c0.445,0,0.82-0.133,1.123-0.398c0.305-0.266,0.455-0.576,0.455-0.934
					c0-0.334-0.063-0.645-0.193-0.936c-0.129-0.289-0.31-0.52-0.541-0.688C129.926,118.542,129.659,118.458,129.359,118.458z"/>
				<path fill="#009CDE" d="M138.807,121.577c0,1.428-0.229,2.488-0.688,3.182c-0.46,0.693-1.162,1.039-2.105,1.039
					c-0.914,0-1.607-0.357-2.08-1.072c-0.472-0.717-0.707-1.766-0.707-3.148c0-1.449,0.229-2.518,0.688-3.205s1.158-1.031,2.1-1.031
					c0.918,0,1.613,0.359,2.085,1.078S138.807,120.192,138.807,121.577z M134.563,121.577c0,1.121,0.115,1.922,0.346,2.4
					c0.231,0.48,0.599,0.719,1.104,0.719s0.875-0.242,1.109-0.73c0.234-0.486,0.352-1.283,0.352-2.389
					c0-1.102-0.117-1.898-0.352-2.391s-0.604-0.738-1.109-0.738s-0.873,0.24-1.104,0.725
					C134.679,119.655,134.563,120.458,134.563,121.577z"/>
				<path fill="#009CDE" d="M145.377,121.577c0,1.428-0.23,2.488-0.688,3.182c-0.46,0.693-1.162,1.039-2.105,1.039
					c-0.914,0-1.607-0.357-2.08-1.072c-0.473-0.717-0.708-1.766-0.708-3.148c0-1.449,0.229-2.518,0.688-3.205s1.158-1.031,2.1-1.031
					c0.918,0,1.613,0.359,2.084,1.078C145.141,119.138,145.377,120.192,145.377,121.577z M141.133,121.577
					c0,1.121,0.116,1.922,0.346,2.4c0.231,0.48,0.6,0.719,1.105,0.719s0.875-0.242,1.109-0.73c0.234-0.486,0.352-1.283,0.352-2.389
					c0-1.102-0.117-1.898-0.352-2.391s-0.604-0.738-1.109-0.738s-0.874,0.24-1.105,0.725
					C141.249,119.655,141.133,120.458,141.133,121.577z"/>
				<path fill="#009CDE" d="M151.947,121.577c0,1.428-0.23,2.488-0.688,3.182c-0.46,0.693-1.161,1.039-2.105,1.039
					c-0.913,0-1.606-0.357-2.079-1.072c-0.472-0.717-0.708-1.766-0.708-3.148c0-1.449,0.229-2.518,0.688-3.205
					s1.158-1.031,2.099-1.031c0.919,0,1.613,0.359,2.085,1.078C151.711,119.138,151.947,120.192,151.947,121.577z M147.703,121.577
					c0,1.121,0.115,1.922,0.346,2.4c0.23,0.48,0.599,0.719,1.104,0.719s0.876-0.242,1.11-0.73c0.234-0.486,0.352-1.283,0.352-2.389
					c0-1.102-0.117-1.898-0.352-2.391s-0.604-0.738-1.11-0.738s-0.874,0.24-1.104,0.725
					C147.818,119.655,147.703,120.458,147.703,121.577z"/>
				<path fill="#009CDE" d="M164.497,121.577c0,1.428-0.229,2.488-0.688,3.182s-1.161,1.039-2.105,1.039
					c-0.914,0-1.607-0.357-2.079-1.072c-0.472-0.717-0.708-1.766-0.708-3.148c0-1.449,0.229-2.518,0.688-3.205
					c0.458-0.688,1.159-1.031,2.099-1.031c0.918,0,1.613,0.359,2.086,1.078C164.261,119.138,164.497,120.192,164.497,121.577z
					 M160.254,121.577c0,1.121,0.115,1.922,0.345,2.4c0.231,0.48,0.599,0.719,1.104,0.719s0.876-0.242,1.109-0.73
					c0.234-0.486,0.353-1.283,0.353-2.389c0-1.102-0.118-1.898-0.353-2.391c-0.233-0.492-0.604-0.738-1.109-0.738
					s-0.873,0.24-1.104,0.725C160.369,119.655,160.254,120.458,160.254,121.577z"/>
				<path fill="#009CDE" d="M171.066,121.577c0,1.428-0.229,2.488-0.688,3.182s-1.161,1.039-2.105,1.039
					c-0.914,0-1.607-0.357-2.08-1.072c-0.472-0.717-0.707-1.766-0.707-3.148c0-1.449,0.229-2.518,0.688-3.205s1.159-1.031,2.1-1.031
					c0.918,0,1.613,0.359,2.085,1.078S171.066,120.192,171.066,121.577z M166.824,121.577c0,1.121,0.115,1.922,0.345,2.4
					c0.23,0.48,0.599,0.719,1.104,0.719s0.875-0.242,1.109-0.73c0.234-0.486,0.352-1.283,0.352-2.389
					c0-1.102-0.117-1.898-0.352-2.391s-0.604-0.738-1.109-0.738s-0.874,0.24-1.104,0.725
					C166.939,119.655,166.824,120.458,166.824,121.577z"/>
				<path fill="#009CDE" d="M177.637,121.577c0,1.428-0.229,2.488-0.688,3.182c-0.46,0.693-1.162,1.039-2.105,1.039
					c-0.915,0-1.607-0.357-2.08-1.072c-0.472-0.717-0.707-1.766-0.707-3.148c0-1.449,0.229-2.518,0.688-3.205s1.158-1.031,2.1-1.031
					c0.918,0,1.613,0.359,2.085,1.078S177.637,120.192,177.637,121.577z M173.394,121.577c0,1.121,0.115,1.922,0.346,2.4
					c0.231,0.48,0.599,0.719,1.104,0.719s0.875-0.242,1.109-0.73c0.234-0.486,0.352-1.283,0.352-2.389
					c0-1.102-0.117-1.898-0.352-2.391s-0.604-0.738-1.109-0.738s-0.873,0.24-1.104,0.725
					C173.509,119.655,173.394,120.458,173.394,121.577z"/>
				<path fill="#009CDE" d="M184.207,121.577c0,1.428-0.23,2.488-0.688,3.182c-0.46,0.693-1.162,1.039-2.105,1.039
					c-0.914,0-1.607-0.357-2.08-1.072c-0.473-0.717-0.707-1.766-0.707-3.148c0-1.449,0.229-2.518,0.688-3.205s1.158-1.031,2.1-1.031
					c0.918,0,1.613,0.359,2.084,1.078C183.971,119.138,184.207,120.192,184.207,121.577z M179.963,121.577
					c0,1.121,0.117,1.922,0.346,2.4c0.231,0.48,0.6,0.719,1.105,0.719s0.875-0.242,1.109-0.73c0.234-0.486,0.352-1.283,0.352-2.389
					c0-1.102-0.117-1.898-0.352-2.391s-0.604-0.738-1.109-0.738s-0.874,0.24-1.105,0.725
					C180.08,119.655,179.963,120.458,179.963,121.577z"/>
			</g>
			<g>
				<path fill="#009CDE" d="M64.53,141.421c-0.344,0-0.61,0.129-0.8,0.389c-0.188,0.258-0.283,0.617-0.283,1.08
					c0,0.961,0.361,1.443,1.083,1.443c0.303,0,0.669-0.076,1.1-0.229v0.768c-0.354,0.146-0.749,0.221-1.185,0.221
					c-0.627,0-1.107-0.191-1.439-0.57c-0.333-0.381-0.499-0.926-0.499-1.639c0-0.447,0.081-0.84,0.245-1.178
					c0.163-0.338,0.398-0.596,0.703-0.775c0.306-0.18,0.665-0.27,1.075-0.27c0.419,0,0.84,0.1,1.262,0.303l-0.294,0.744
					c-0.162-0.078-0.324-0.145-0.487-0.201S64.687,141.421,64.53,141.421z"/>
				<path fill="#009CDE" d="M69.187,145.034l-0.313-1.027h-1.572l-0.312,1.027h-0.985l1.521-4.33h1.118l1.527,4.33H69.187z
					 M68.656,143.241c-0.289-0.93-0.452-1.457-0.488-1.578s-0.063-0.219-0.078-0.289c-0.065,0.252-0.25,0.873-0.558,1.867H68.656z"
					/>
				<path fill="#009CDE" d="M71.628,143.38v1.654h-0.915v-4.313h1.256c0.586,0,1.02,0.107,1.301,0.32
					c0.28,0.213,0.421,0.537,0.421,0.973c0,0.254-0.07,0.479-0.209,0.676c-0.14,0.199-0.338,0.354-0.593,0.465
					c0.648,0.969,1.071,1.596,1.268,1.879h-1.014l-1.029-1.654H71.628z M71.628,142.636h0.295c0.289,0,0.503-0.047,0.64-0.145
					c0.138-0.096,0.207-0.248,0.207-0.453s-0.07-0.35-0.211-0.438c-0.14-0.086-0.358-0.129-0.653-0.129h-0.277V142.636z"/>
				<path fill="#009CDE" d="M78.279,142.837c0,0.709-0.202,1.254-0.606,1.631s-0.988,0.566-1.75,0.566h-1.221v-4.313h1.354
					c0.704,0,1.25,0.186,1.639,0.559C78.084,141.651,78.279,142.171,78.279,142.837z M77.33,142.86c0-0.926-0.41-1.389-1.228-1.389
					h-0.486v2.807h0.392C76.888,144.278,77.33,143.806,77.33,142.86z"/>
				<path fill="#009CDE" d="M82.705,145.034h-0.911v-1.861h-1.708v1.861h-0.914v-4.313h0.914v1.689h1.708v-1.689h0.911V145.034z"/>
				<path fill="#009CDE" d="M87.707,142.872c0,0.713-0.177,1.262-0.531,1.646c-0.354,0.383-0.862,0.574-1.521,0.574
					c-0.661,0-1.168-0.191-1.522-0.574c-0.354-0.385-0.531-0.936-0.531-1.652s0.177-1.266,0.532-1.645
					c0.354-0.377,0.864-0.566,1.526-0.566c0.663,0,1.169,0.189,1.521,0.57C87.532,141.608,87.707,142.155,87.707,142.872z
					 M84.56,142.872c0,0.482,0.091,0.844,0.274,1.088s0.456,0.367,0.82,0.367c0.729,0,1.094-0.486,1.094-1.455
					c0-0.971-0.362-1.457-1.088-1.457c-0.364,0-0.638,0.123-0.822,0.367C84.652,142.026,84.56,142.39,84.56,142.872z"/>
				<path fill="#009CDE" d="M88.601,145.034v-4.313h0.914v3.557h1.749v0.756H88.601z"/>
				<path fill="#009CDE" d="M95.59,142.837c0,0.709-0.202,1.254-0.607,1.631c-0.403,0.377-0.987,0.566-1.75,0.566h-1.221v-4.313
					h1.354c0.703,0,1.25,0.186,1.64,0.559C95.396,141.651,95.59,142.171,95.59,142.837z M94.641,142.86
					c0-0.926-0.409-1.389-1.227-1.389h-0.487v2.807h0.393C94.2,144.278,94.641,143.806,94.641,142.86z"/>
				<path fill="#009CDE" d="M98.967,145.034h-2.483v-4.313h2.483v0.75h-1.569v0.945h1.46v0.75h-1.46v1.111h1.569V145.034z"/>
				<path fill="#009CDE" d="M100.781,143.38v1.654h-0.915v-4.313h1.257c0.586,0,1.02,0.107,1.301,0.32
					c0.28,0.213,0.422,0.537,0.422,0.973c0,0.254-0.07,0.479-0.209,0.676c-0.141,0.199-0.338,0.354-0.594,0.465
					c0.648,0.969,1.071,1.596,1.268,1.879h-1.014l-1.029-1.654H100.781z M100.781,142.636h0.295c0.289,0,0.502-0.047,0.639-0.145
					c0.139-0.096,0.207-0.248,0.207-0.453s-0.07-0.35-0.211-0.438c-0.141-0.086-0.357-0.129-0.652-0.129h-0.278V142.636z"/>
			</g>
			<g>
				<path fill="#009CDE" d="M143.133,132.753c0,0.801-0.131,1.393-0.393,1.777c-0.263,0.385-0.666,0.576-1.211,0.576
					c-0.529,0-0.928-0.199-1.195-0.596c-0.27-0.396-0.403-0.982-0.403-1.758c0-0.809,0.13-1.404,0.392-1.787
					s0.663-0.576,1.207-0.576c0.527,0,0.928,0.201,1.198,0.602C142.998,131.394,143.133,131.979,143.133,132.753z M140.893,132.753
					c0,0.563,0.049,0.965,0.146,1.209c0.098,0.242,0.261,0.363,0.491,0.363c0.225,0,0.389-0.123,0.488-0.369s0.15-0.646,0.15-1.203
					c0-0.563-0.051-0.965-0.152-1.211s-0.264-0.367-0.486-0.367c-0.229,0-0.392,0.121-0.489,0.367
					C140.941,131.788,140.893,132.19,140.893,132.753z"/>
				<path fill="#009CDE" d="M146.797,132.753c0,0.801-0.132,1.393-0.395,1.777c-0.262,0.385-0.665,0.576-1.211,0.576
					c-0.527,0-0.926-0.199-1.195-0.596c-0.269-0.396-0.402-0.982-0.402-1.758c0-0.809,0.131-1.404,0.392-1.787
					s0.663-0.576,1.206-0.576c0.529,0,0.929,0.201,1.199,0.602C146.661,131.394,146.797,131.979,146.797,132.753z M144.557,132.753
					c0,0.563,0.047,0.965,0.145,1.209c0.098,0.242,0.262,0.363,0.49,0.363c0.227,0,0.389-0.123,0.489-0.369s0.151-0.646,0.151-1.203
					c0-0.563-0.052-0.965-0.152-1.211c-0.102-0.246-0.264-0.367-0.488-0.367c-0.228,0-0.391,0.121-0.488,0.367
					S144.557,132.19,144.557,132.753z"/>
				<path fill="#009CDE" d="M149.645,130.462l-1.707,4.582h-0.868l1.708-4.582H149.645z"/>
				<path fill="#009CDE" d="M153.11,132.753c0,0.801-0.131,1.393-0.394,1.777c-0.262,0.385-0.665,0.576-1.211,0.576
					c-0.527,0-0.927-0.199-1.195-0.596c-0.268-0.396-0.402-0.982-0.402-1.758c0-0.809,0.131-1.404,0.392-1.787
					s0.663-0.576,1.206-0.576c0.529,0,0.929,0.201,1.199,0.602C152.975,131.394,153.11,131.979,153.11,132.753z M150.87,132.753
					c0,0.563,0.049,0.965,0.146,1.209c0.098,0.242,0.261,0.363,0.49,0.363c0.227,0,0.389-0.123,0.49-0.369
					c0.1-0.246,0.149-0.646,0.149-1.203c0-0.563-0.051-0.965-0.152-1.211c-0.101-0.246-0.263-0.367-0.487-0.367
					c-0.227,0-0.391,0.121-0.488,0.367S150.87,132.19,150.87,132.753z"/>
				<path fill="#009CDE" d="M156.774,132.753c0,0.801-0.132,1.393-0.394,1.777s-0.666,0.576-1.211,0.576
					c-0.529,0-0.928-0.199-1.195-0.596c-0.27-0.396-0.403-0.982-0.403-1.758c0-0.809,0.131-1.404,0.392-1.787
					c0.262-0.383,0.664-0.576,1.207-0.576c0.528,0,0.928,0.201,1.197,0.602C156.639,131.394,156.774,131.979,156.774,132.753z
					 M154.533,132.753c0,0.563,0.049,0.965,0.146,1.209c0.096,0.242,0.26,0.363,0.49,0.363c0.225,0,0.389-0.123,0.488-0.369
					c0.101-0.246,0.15-0.646,0.15-1.203c0-0.563-0.051-0.965-0.151-1.211c-0.103-0.246-0.265-0.367-0.487-0.367
					c-0.229,0-0.391,0.121-0.489,0.367S154.533,132.19,154.533,132.753z"/>
			</g>
			<g>
				<path fill="#009CDE" d="M131.983,130.362h0.38l-0.604,1.773h-0.41l-0.602-1.773h0.38l0.333,1.055
					c0.02,0.063,0.038,0.135,0.059,0.219c0.02,0.082,0.031,0.141,0.037,0.174c0.008-0.076,0.039-0.207,0.091-0.393L131.983,130.362z
					"/>
				<path fill="#009CDE" d="M133.672,132.136l-0.128-0.422h-0.647l-0.129,0.422h-0.404l0.625-1.781h0.461l0.629,1.781H133.672z
					 M133.453,131.397c-0.119-0.381-0.186-0.598-0.2-0.648c-0.015-0.049-0.025-0.09-0.032-0.119
					c-0.027,0.104-0.104,0.359-0.229,0.768H133.453z"/>
				<path fill="#009CDE" d="M134.301,132.136v-1.773h0.377v1.463h0.719v0.311H134.301z"/>
				<path fill="#009CDE" d="M135.705,132.136v-1.773h0.375v1.773H135.705z"/>
				<path fill="#009CDE" d="M137.998,131.231c0,0.293-0.082,0.516-0.248,0.672c-0.166,0.154-0.407,0.232-0.721,0.232h-0.502v-1.773
					h0.557c0.289,0,0.515,0.076,0.674,0.229C137.918,130.745,137.998,130.958,137.998,131.231z M137.608,131.241
					c0-0.381-0.169-0.57-0.505-0.57h-0.201v1.154h0.162C137.427,131.825,137.608,131.63,137.608,131.241z"/>
				<path fill="#009CDE" d="M131.656,135.118h-0.377v-1.461h-0.481v-0.313h1.339v0.313h-0.48V135.118z"/>
				<path fill="#009CDE" d="M133.863,135.118h-0.374v-0.766h-0.703v0.766h-0.376v-1.773h0.376v0.693h0.703v-0.693h0.374V135.118z"/>
				<path fill="#009CDE" d="M134.688,134.437v0.682h-0.376v-1.773h0.517c0.241,0,0.42,0.043,0.535,0.131s0.174,0.221,0.174,0.4
					c0,0.104-0.029,0.197-0.086,0.277c-0.058,0.082-0.139,0.146-0.244,0.191c0.267,0.398,0.441,0.656,0.521,0.773h-0.418
					l-0.422-0.682H134.688z M134.688,134.132h0.121c0.119,0,0.207-0.02,0.264-0.061c0.057-0.039,0.085-0.102,0.085-0.186
					s-0.029-0.145-0.087-0.18s-0.146-0.055-0.269-0.055h-0.114V134.132z"/>
				<path fill="#009CDE" d="M137.396,133.345v1.146c0,0.131-0.029,0.246-0.089,0.346c-0.059,0.098-0.144,0.174-0.254,0.227
					s-0.241,0.078-0.394,0.078c-0.228,0-0.405-0.059-0.531-0.176c-0.127-0.115-0.189-0.275-0.189-0.479v-1.143h0.375v1.086
					c0,0.137,0.027,0.236,0.082,0.299c0.056,0.064,0.146,0.098,0.273,0.098c0.123,0,0.213-0.033,0.268-0.098
					c0.056-0.063,0.084-0.164,0.084-0.303v-1.082H137.396z"/>
			</g>
		</g>
		<g>
			<circle fill="#009CDE" cx="178.739" cy="139.267" r="5.825"/>
			<circle fill="#008ACB" cx="171.219" cy="139.267" r="5.826"/>
		</g>
	</g>
</g>
</svg>
