<?xml version="1.0" encoding="utf-8"?>
<!-- Generator: Adobe Illustrator 22.1.0, SVG Export Plug-In . SVG Version: 6.00 Build 0)  -->
<svg version="1.1" id="Capa_1" xmlns="http://www.w3.org/2000/svg" xmlns:xlink="http://www.w3.org/1999/xlink" x="0px" y="0px"
	 viewBox="0 0 380 62" style="enable-background:new 0 0 380 62;" xml:space="preserve">
<style type="text/css">
	.st0{fill:#0023A0;}
	.st1{fill:#FFAB00;}
	.st2{fill:#E20D17;}
	.st3{fill:#EA610A;}
	.st4{fill:#1D1D1B;}
	.st5{fill:#F59E00;}
	.st6{fill:#119633;}
	.st7{fill:#FFFFFF;}
</style>
<g>
	<path class="st0" d="M322.9,23.2c-4,0-6.8,2.1-6.9,5.2c0,2.3,2,3.5,3.6,4.3s2.1,1.3,2.1,2c0,1.1-1.3,1.5-2.4,1.5
		c-1.6,0-2.5-0.2-3.8-0.8l-0.5-0.3l-0.6,3.5c0.9,0.4,2.7,0.8,4.5,0.8c4.3,0,7-2.1,7.1-5.4c0-1.8-1.1-3.2-3.4-4.3
		c-1.4-0.7-2.3-1.2-2.3-2c0-0.7,0.7-1.4,2.3-1.4c1.3,0,2.3,0.3,3,0.6l0.4,0.2l0.6-3.4C325.8,23.5,324.5,23.2,322.9,23.2L322.9,23.2z
		 M310.3,23.4l-2.5,15.7h4.1l2.5-15.7L310.3,23.4L310.3,23.4z M304.4,23.4l-4,10.7L300,32c-1-2.7-3.1-5.5-5.6-6.6l3.6,13.8h4.3
		l6.4-15.7L304.4,23.4L304.4,23.4z M333.8,23.4c-1,0-1.7,0.3-2.1,1.3l-6,14.4h4.3c0,0,0.7-1.9,0.9-2.4c0.5,0,4.6,0,5.2,0
		c0.1,0.5,0.5,2.4,0.5,2.4h3.8L337,23.4H333.8L333.8,23.4z M334.1,27.7l0.3,1.4c0,0,0.8,3.8,0.9,4.5H332c0.3-0.9,1.6-4.4,1.6-4.4
		C333.6,29.2,333.9,28.3,334.1,27.7L334.1,27.7z"/>
	<path class="st1" d="M296.7,23.4h-6.6v0.3c5.1,1.3,8.5,4.5,9.9,8.3l-1.4-7.2C298.3,23.8,297.6,23.5,296.7,23.4"/>
</g>
<g>
	<path class="st2" d="M156.9,31.3c0-3.1,1.5-5.9,3.7-7.7c-1.7-1.3-3.8-2.1-6.1-2.1c-5.4,0-9.8,4.4-9.8,9.8s4.4,9.8,9.8,9.8
		c2.3,0,4.4-0.8,6.1-2.1C158.4,37.2,156.9,34.4,156.9,31.3z"/>
	<ellipse class="st3" cx="160.6" cy="31.3" rx="3.7" ry="7.7"/>
	<g>
		<path class="st4" d="M192.7,28.6c-0.2-0.2-0.5-0.4-0.8-0.5s-0.7-0.2-1-0.2c-0.2,0-0.4,0-0.6,0.1c-0.2,0-0.4,0.1-0.6,0.2
			c-0.2,0.1-0.4,0.2-0.6,0.4c-0.2,0.2-0.3,0.3-0.5,0.6c-0.2-0.4-0.5-0.6-0.9-0.9c-0.4-0.2-0.8-0.3-1.3-0.3c-0.2,0-0.3,0-0.5,0
			s-0.3,0.1-0.5,0.2s-0.3,0.2-0.5,0.3c-0.2,0.1-0.3,0.3-0.4,0.5v-0.8h-1.4v6.5h1.4V31c0-0.3,0-0.5,0.1-0.7s0.2-0.4,0.4-0.5
			c0.1-0.1,0.3-0.3,0.5-0.3c0.2-0.1,0.4-0.1,0.6-0.1c0.5,0,0.8,0.1,1.1,0.4s0.4,0.7,0.4,1.3v3.6h1.4V31c0-0.3,0-0.5,0.1-0.7
			s0.2-0.4,0.4-0.5c0.1-0.1,0.3-0.3,0.5-0.3c0.2-0.1,0.4-0.1,0.6-0.1c0.5,0,0.8,0.1,1.1,0.4s0.4,0.7,0.4,1.3v3.6h1.4v-4.1
			c0-0.4-0.1-0.7-0.2-1C193.1,29.1,192.9,28.9,192.7,28.6z"/>
		<path class="st4" d="M200,28.9c-0.2-0.3-0.5-0.5-0.8-0.7s-0.7-0.3-1.2-0.3s-0.9,0.1-1.3,0.3c-0.4,0.2-0.7,0.4-1,0.7
			c-0.3,0.3-0.5,0.7-0.7,1.1s-0.3,0.9-0.3,1.4s0.1,1,0.3,1.4c0.2,0.4,0.4,0.8,0.7,1.1s0.6,0.5,1,0.7s0.8,0.3,1.3,0.3
			s0.9-0.1,1.2-0.3s0.6-0.4,0.8-0.7v0.8h1.4v-6.5H200V28.9z M199.9,32.2c-0.1,0.3-0.2,0.5-0.4,0.7s-0.4,0.3-0.6,0.4
			c-0.2,0.1-0.5,0.2-0.8,0.2s-0.6-0.1-0.8-0.2c-0.2-0.1-0.4-0.3-0.6-0.4c-0.2-0.2-0.3-0.4-0.4-0.7c-0.1-0.3-0.1-0.5-0.1-0.8
			s0-0.6,0.1-0.8c0.1-0.3,0.2-0.5,0.4-0.7s0.4-0.3,0.6-0.4c0.2-0.1,0.5-0.2,0.8-0.2s0.6,0.1,0.8,0.2s0.4,0.3,0.6,0.4
			c0.2,0.2,0.3,0.4,0.4,0.7c0.1,0.3,0.1,0.5,0.1,0.8S200,31.9,199.9,32.2z"/>
		<path class="st4" d="M207.9,31.3c-0.4-0.3-1-0.5-1.7-0.6l-0.7-0.1c-0.1,0-0.3,0-0.4-0.1c-0.1,0-0.2-0.1-0.3-0.1s-0.2-0.1-0.2-0.2
			c-0.1-0.1-0.1-0.2-0.1-0.3c0-0.2,0.1-0.4,0.3-0.6c0.2-0.1,0.5-0.2,0.9-0.2c0.2,0,0.4,0,0.6,0.1c0.2,0,0.4,0.1,0.6,0.1
			c0.2,0.1,0.3,0.1,0.5,0.2c0.1,0.1,0.3,0.1,0.4,0.2l0.6-1.1c-0.3-0.2-0.7-0.4-1.2-0.5s-0.9-0.2-1.4-0.2c-0.4,0-0.8,0-1.1,0.1
			s-0.6,0.2-0.8,0.4c-0.2,0.2-0.4,0.4-0.5,0.7c-0.1,0.3-0.2,0.5-0.2,0.9c0,0.5,0.2,1,0.6,1.3c0.4,0.3,0.9,0.5,1.6,0.6l0.7,0.1
			c0.4,0.1,0.7,0.1,0.9,0.3c0.2,0.1,0.3,0.3,0.3,0.5s-0.1,0.4-0.4,0.6c-0.2,0.1-0.6,0.2-1.1,0.2c-0.3,0-0.5,0-0.7-0.1
			c-0.2,0-0.4-0.1-0.6-0.1c-0.2-0.1-0.3-0.1-0.5-0.2c-0.1-0.1-0.3-0.2-0.4-0.3l-0.7,1.1c0.2,0.2,0.5,0.3,0.7,0.4
			c0.3,0.1,0.5,0.2,0.8,0.3c0.2,0.1,0.5,0.1,0.7,0.1s0.4,0,0.6,0c0.5,0,0.9-0.1,1.3-0.2c0.4-0.1,0.7-0.3,0.9-0.4
			c0.3-0.2,0.4-0.4,0.6-0.7c0.1-0.3,0.2-0.5,0.2-0.9C208.5,32.1,208.3,31.6,207.9,31.3z"/>
		<path class="st4" d="M221.2,28.9c-0.3-0.3-0.6-0.5-1-0.7S219.4,28,219,28c-0.5,0-0.9,0.1-1.3,0.2c-0.4,0.2-0.7,0.4-1,0.7
			c-0.3,0.3-0.5,0.7-0.7,1.1s-0.2,0.9-0.2,1.4s0.1,1,0.2,1.4c0.2,0.4,0.4,0.8,0.7,1.1s0.6,0.5,1.1,0.7c0.4,0.2,0.9,0.2,1.3,0.2
			c0.5,0,1-0.1,1.4-0.2c0.4-0.1,0.9-0.4,1.3-0.7l-0.7-1c-0.3,0.2-0.6,0.4-0.9,0.5c-0.3,0.1-0.7,0.2-1,0.2c-0.2,0-0.5,0-0.7-0.1
			s-0.4-0.2-0.6-0.3c-0.2-0.1-0.3-0.3-0.4-0.5c-0.1-0.2-0.2-0.5-0.3-0.8h4.8c0-0.1,0-0.2,0-0.3c0-0.1,0-0.2,0-0.3
			c0-0.5-0.1-1-0.2-1.4C221.7,29.5,221.5,29.2,221.2,28.9z M217.2,30.8c0-0.2,0.1-0.5,0.2-0.6c0.1-0.2,0.2-0.4,0.3-0.5
			s0.3-0.3,0.5-0.3c0.2-0.1,0.4-0.1,0.7-0.1c0.5,0,0.8,0.1,1.1,0.4s0.5,0.7,0.5,1.2h-3.3V30.8z"/>
		<path class="st4" d="M240.1,28.9c-0.2-0.3-0.5-0.5-0.8-0.7s-0.7-0.3-1.2-0.3s-0.9,0.1-1.3,0.3c-0.4,0.2-0.7,0.4-1,0.7
			c-0.3,0.3-0.5,0.7-0.7,1.1s-0.3,0.9-0.3,1.4s0.1,1,0.3,1.4c0.2,0.4,0.4,0.8,0.7,1.1s0.6,0.5,1,0.7s0.8,0.3,1.3,0.3
			s0.9-0.1,1.2-0.3s0.6-0.4,0.8-0.7v0.8h1.4v-6.5h-1.4V28.9z M240,32.2c-0.1,0.3-0.2,0.5-0.4,0.7s-0.4,0.3-0.6,0.4
			c-0.2,0.1-0.5,0.2-0.8,0.2s-0.6-0.1-0.8-0.2c-0.2-0.1-0.4-0.3-0.6-0.4s-0.3-0.4-0.4-0.7c-0.1-0.3-0.1-0.5-0.1-0.8s0-0.6,0.1-0.8
			c0.1-0.3,0.2-0.5,0.4-0.7s0.4-0.3,0.6-0.4c0.2-0.1,0.5-0.2,0.8-0.2s0.6,0.1,0.8,0.2s0.4,0.3,0.6,0.4c0.2,0.2,0.3,0.4,0.4,0.7
			c0.1,0.3,0.1,0.5,0.1,0.8S240.1,31.9,240,32.2z"/>
		<path class="st4" d="M214,33.3c-0.2,0.1-0.5,0.1-0.7,0.1c-0.1,0-0.3,0-0.4-0.1c-0.1,0-0.2-0.1-0.3-0.2c-0.1-0.1-0.2-0.2-0.2-0.4
			c-0.1-0.2-0.1-0.3-0.1-0.6v-2.8h2.3V28h-2.3v-2h-1.4v2h-1.3v1.3h1.3v2.9c0,0.9,0.2,1.5,0.6,1.9c0.4,0.4,1,0.6,1.7,0.6
			c0.4,0,0.8-0.1,1.1-0.2c0.2-0.1,0.4-0.2,0.6-0.3l-0.5-1.2C214.3,33.2,214.2,33.2,214,33.3z"/>
		<path class="st4" d="M226.8,27.9c-0.4,0-0.8,0.1-1.1,0.2s-0.6,0.5-0.8,0.8V28h-1.3v6.5h1.3V31c0-0.3,0-0.5,0.1-0.7
			s0.2-0.4,0.3-0.6c0.1-0.1,0.3-0.3,0.5-0.3c0.2-0.1,0.4-0.1,0.6-0.1c0.2,0,0.4,0,0.6,0.1c0.1,0,0.2,0,0.3,0.1l0.4-1.4
			c-0.1,0-0.2-0.1-0.3-0.1C227.2,27.9,227,27.9,226.8,27.9z"/>
		<path class="st4" d="M246.6,27.9c-0.4,0-0.8,0.1-1.1,0.2s-0.6,0.5-0.8,0.8V28h-1.3v6.5h1.3V31c0-0.3,0-0.5,0.1-0.7
			s0.2-0.4,0.3-0.6c0.1-0.1,0.3-0.3,0.5-0.3c0.2-0.1,0.4-0.1,0.6-0.1c0.2,0,0.4,0,0.6,0.1c0.1,0,0.2,0,0.3,0.1l0.4-1.4
			c-0.1,0-0.2-0.1-0.3-0.1C247,27.9,246.8,27.9,246.6,27.9z"/>
		<path class="st4" d="M253.2,25.4v3.4c-0.2-0.3-0.5-0.5-0.8-0.7s-0.7-0.3-1.2-0.3s-0.9,0.1-1.3,0.3c-0.4,0.2-0.7,0.4-1,0.7
			c-0.3,0.3-0.5,0.7-0.7,1.1s-0.3,0.9-0.3,1.4s0.1,1,0.3,1.4s0.4,0.8,0.7,1.1s0.6,0.5,1,0.7s0.8,0.3,1.3,0.3s0.9-0.1,1.2-0.3
			s0.6-0.4,0.8-0.7v0.8h1.4v-9.2C254.6,25.4,253.2,25.4,253.2,25.4z M253.1,32.2c-0.1,0.3-0.2,0.5-0.4,0.7s-0.4,0.3-0.6,0.4
			c-0.2,0.1-0.5,0.2-0.8,0.2s-0.6-0.1-0.8-0.2c-0.2-0.1-0.4-0.3-0.6-0.4c-0.2-0.2-0.3-0.4-0.4-0.7c-0.1-0.3-0.1-0.5-0.1-0.8
			s0-0.6,0.1-0.8c0.1-0.3,0.2-0.5,0.4-0.7s0.4-0.3,0.6-0.4c0.2-0.1,0.5-0.2,0.8-0.2s0.6,0.1,0.8,0.2s0.4,0.3,0.6,0.4
			c0.2,0.2,0.3,0.4,0.4,0.7c0.1,0.3,0.1,0.5,0.1,0.8S253.2,31.9,253.1,32.2z"/>
		<path class="st4" d="M230.2,29.8c0.2-0.2,0.4-0.3,0.6-0.4c0.2-0.1,0.5-0.2,0.8-0.2l0,0c0.3,0,0.6,0.1,0.9,0.2
			c0.3,0.1,0.5,0.2,0.7,0.4l0.7-1.1c-0.3-0.2-0.5-0.4-0.9-0.5c-0.4-0.2-0.9-0.3-1.4-0.3s-1,0.1-1.4,0.3c-0.4,0.2-0.8,0.4-1.1,0.7
			c-0.3,0.3-0.6,0.7-0.7,1.1c-0.2,0.4-0.3,0.9-0.3,1.4s0.1,0.9,0.3,1.4c0.2,0.4,0.4,0.8,0.7,1.1s0.7,0.5,1.1,0.7
			c0.4,0.2,0.9,0.3,1.4,0.3s1-0.1,1.4-0.3c0.3-0.1,0.6-0.3,0.9-0.5l-0.7-1.1c-0.2,0.2-0.4,0.3-0.7,0.4c-0.3,0.1-0.6,0.2-0.9,0.2l0,0
			c-0.3,0-0.6-0.1-0.8-0.2c-0.2-0.1-0.5-0.2-0.6-0.4c-0.2-0.2-0.3-0.4-0.4-0.7c-0.1-0.3-0.2-0.5-0.2-0.8s0.1-0.6,0.2-0.8
			C229.9,30.2,230,30,230.2,29.8z"/>
	</g>
	<path class="st5" d="M175.8,36.6v-0.3h-0.1v-0.1h0.4v0.1H176v0.3H175.8z M176.5,36.6v-0.3V36.6h-0.2l-0.1-0.3v0.3h-0.1v-0.4h0.1
		l0.1,0.3l0.1-0.3h0.1L176.5,36.6L176.5,36.6z"/>
	<g>
		<path class="st4" d="M256.4,34c0.1,0,0.1,0,0.2,0s0.1,0.1,0.2,0.1c0,0,0.1,0.1,0.1,0.2c0,0.1,0,0.1,0,0.2c0,0.1,0,0.1,0,0.2
			c0,0.1-0.1,0.1-0.1,0.2c0,0-0.1,0.1-0.2,0.1s-0.1,0-0.2,0s-0.1,0-0.2,0s-0.1-0.1-0.2-0.1c0,0-0.1-0.1-0.1-0.2c0-0.1,0-0.1,0-0.2
			c0-0.1,0-0.1,0-0.2c0-0.1,0.1-0.1,0.1-0.2c0,0,0.1-0.1,0.2-0.1S256.3,34,256.4,34z M256.4,34.8h0.1c0,0,0.1,0,0.1-0.1l0.1-0.1
			v-0.1v-0.1c0,0,0-0.1-0.1-0.1l-0.1-0.1h-0.1c-0.1,0-0.1,0-0.1,0s-0.1,0-0.1,0.1l-0.1,0.1v0.1c0,0.1,0,0.1,0,0.1s0,0.1,0.1,0.1
			l0.1,0.1C256.3,34.8,256.3,34.8,256.4,34.8z M256.4,34.2c0.1,0,0.1,0,0.1,0v0.1v0.1h-0.1l0.1,0.2h-0.1l-0.1-0.2l0,0v0.2h-0.1v-0.4
			C256.2,34.2,256.4,34.2,256.4,34.2z M256.3,34.4L256.3,34.4L256.3,34.4c0.1,0.1,0.1,0.1,0.1,0.1l0,0l0,0
			C256.5,34.4,256.4,34.4,256.3,34.4L256.3,34.4z"/>
	</g>
	<path class="st5" d="M166.7,21.5c-2.3,0-4.4,0.8-6.1,2.1c2.3,1.8,3.7,4.6,3.7,7.7s-1.5,5.9-3.7,7.7c1.7,1.3,3.8,2.1,6.1,2.1
		c5.4,0,9.8-4.4,9.8-9.8S172.2,21.5,166.7,21.5z"/>
</g>
<g>
	<rect x="246.3" y="37.6" class="st6" width="26.3" height="14"/>
	<g>
		<path class="st7" d="M256.5,39.4v7c0,0.5,0,1.1,0,1.5h-0.9v-1l0,0c-0.3,0.6-1,1.1-2,1.1c-1.4,0-2.5-1.2-2.5-3
			c0-1.9,1.2-3.1,2.6-3.1c0.9,0,1.5,0.4,1.8,0.9l0,0v-3.5L256.5,39.4L256.5,39.4z M255.5,44.5c0-0.1,0-0.3,0-0.4
			c-0.2-0.7-0.7-1.2-1.5-1.2c-1.1,0-1.7,1-1.7,2.2s0.6,2.1,1.7,2.1c0.7,0,1.4-0.5,1.5-1.3c0-0.1,0-0.3,0-0.5V44.5z"/>
		<path class="st7" d="M259.6,40.4v1.7h1.5v0.8h-1.5V46c0,0.7,0.2,1.1,0.8,1.1c0.3,0,0.5,0,0.6-0.1v0.8c-0.2,0.1-0.5,0.1-0.9,0.1
			c-0.5,0-0.9-0.2-1.1-0.4c-0.3-0.3-0.4-0.8-0.4-1.5v-3.2h-0.9V42h0.9v-1.4L259.6,40.4z"/>
		<path class="st7" d="M267.5,45c0,2.1-1.5,3.1-2.9,3.1c-1.6,0-2.8-1.2-2.8-3c0-1.9,1.3-3.1,2.9-3.1C266.3,42,267.5,43.2,267.5,45z
			 M262.8,45c0,1.3,0.7,2.2,1.8,2.2c1,0,1.8-0.9,1.8-2.3c0-1-0.5-2.2-1.7-2.2S262.8,43.9,262.8,45z"/>
		<path class="st7" d="M268.3,47.3c0-0.4,0.3-0.8,0.7-0.8s0.7,0.3,0.7,0.8c0,0.4-0.3,0.8-0.7,0.8C268.5,48,268.3,47.7,268.3,47.3z"
			/>
	</g>
</g>
<g>
	<rect x="330.5" y="37.6" class="st6" width="26.3" height="14"/>
	<g>
		<path class="st7" d="M340.8,39.4v7c0,0.5,0,1.1,0,1.5h-0.9v-1l0,0c-0.3,0.6-1,1.1-2,1.1c-1.4,0-2.5-1.2-2.5-3
			c0-1.9,1.2-3.1,2.6-3.1c0.9,0,1.5,0.4,1.8,0.9l0,0v-3.5L340.8,39.4L340.8,39.4z M339.7,44.5c0-0.1,0-0.3,0-0.4
			c-0.2-0.7-0.7-1.2-1.5-1.2c-1.1,0-1.7,1-1.7,2.2s0.6,2.1,1.7,2.1c0.7,0,1.4-0.5,1.5-1.3c0-0.1,0-0.3,0-0.5V44.5z"/>
		<path class="st7" d="M343.8,40.4v1.7h1.5v0.8h-1.5V46c0,0.7,0.2,1.1,0.8,1.1c0.3,0,0.5,0,0.6-0.1v0.8c-0.2,0.1-0.5,0.1-0.9,0.1
			c-0.5,0-0.9-0.2-1.1-0.4c-0.3-0.3-0.4-0.8-0.4-1.5v-3.2h-0.9V42h0.9v-1.4L343.8,40.4z"/>
		<path class="st7" d="M351.7,45c0,2.1-1.5,3.1-2.9,3.1c-1.6,0-2.8-1.2-2.8-3c0-1.9,1.3-3.1,2.9-3.1C350.6,42,351.7,43.2,351.7,45z
			 M347.1,45c0,1.3,0.7,2.2,1.8,2.2c1,0,1.8-0.9,1.8-2.3c0-1-0.5-2.2-1.7-2.2S347.1,43.9,347.1,45z"/>
		<path class="st7" d="M352.5,47.3c0-0.4,0.3-0.8,0.7-0.8s0.7,0.3,0.7,0.8c0,0.4-0.3,0.8-0.7,0.8C352.8,48,352.5,47.7,352.5,47.3z"
			/>
	</g>
</g>
</svg>
