<?xml version="1.0" encoding="utf-8"?>
<!-- Generator: Adobe Illustrator 22.1.0, SVG Export Plug-In . SVG Version: 6.00 Build 0)  -->
<svg version="1.1" id="Layer_1" xmlns="http://www.w3.org/2000/svg" xmlns:xlink="http://www.w3.org/1999/xlink" x="0px" y="0px"
	 viewBox="0 0 321 346" style="enable-background:new 0 0 321 346;" xml:space="preserve">
<style type="text/css">
	.st0{fill:#F44747;}
	.st1{fill:#E8E8E8;}
	.st2{fill:#5B5B5B;}
	.st3{fill:#CE3232;}
	.st4{fill:#FFBC9F;}
	.st5{fill:#3F3F3F;}
</style>
<g>
	<rect x="22.3" y="37.7" class="st0" width="277.4" height="60.2"/>
	<rect x="22.3" y="98" class="st1" width="277.4" height="219.7"/>
	<g>
		<g>
			<rect x="118.4" y="131.8" class="st2" width="19.6" height="19.6"/>
			<rect x="151.2" y="131.8" class="st2" width="19.6" height="19.6"/>
			<rect x="184.1" y="131.8" class="st2" width="19.6" height="19.6"/>
			<rect x="216.9" y="131.8" class="st2" width="19.6" height="19.6"/>
			<rect x="249.8" y="131.8" class="st2" width="19.6" height="19.6"/>
		</g>
		<g>
			<rect x="52.7" y="165.8" class="st2" width="19.6" height="19.6"/>
			<rect x="85.5" y="165.8" class="st2" width="19.6" height="19.6"/>
			<rect x="118.4" y="165.8" class="st2" width="19.6" height="19.6"/>
			<rect x="151.2" y="165.8" class="st2" width="19.6" height="19.6"/>
			<rect x="184.1" y="165.8" class="st2" width="19.6" height="19.6"/>
			<rect x="216.9" y="165.8" class="st2" width="19.6" height="19.6"/>
			<rect x="249.8" y="165.8" class="st2" width="19.6" height="19.6"/>
		</g>
		<g>
			<rect x="52.7" y="199.8" class="st2" width="19.6" height="19.6"/>
			<rect x="85.5" y="199.8" class="st2" width="19.6" height="19.6"/>
			<rect x="118.4" y="199.8" class="st2" width="19.6" height="19.6"/>
			<rect x="151.2" y="199.8" class="st2" width="19.6" height="19.6"/>
			<rect x="184.1" y="199.8" class="st2" width="19.6" height="19.6"/>
			<rect x="216.9" y="199.8" class="st2" width="19.6" height="19.6"/>
			<rect x="249.8" y="199.8" class="st2" width="19.6" height="19.6"/>
		</g>
		<g>
			<rect x="52.7" y="233.8" class="st2" width="19.6" height="19.6"/>
			<rect x="85.5" y="233.8" class="st2" width="19.6" height="19.6"/>
			<rect x="118.4" y="233.8" class="st2" width="19.6" height="19.6"/>
			<rect x="151.2" y="233.8" class="st2" width="19.6" height="19.6"/>
			<rect x="184.1" y="233.8" class="st2" width="19.6" height="19.6"/>
			<rect x="216.9" y="233.8" class="st2" width="19.6" height="19.6"/>
			<rect x="249.8" y="233.8" class="st2" width="19.6" height="19.6"/>
		</g>
		<g>
			<rect x="52.7" y="267.8" class="st2" width="19.6" height="19.6"/>
			<rect x="85.5" y="267.8" class="st2" width="19.6" height="19.6"/>
			<rect x="118.4" y="267.8" class="st2" width="19.6" height="19.6"/>
			<rect x="151.2" y="267.8" class="st2" width="19.6" height="19.6"/>
			<rect x="184.1" y="267.8" class="st2" width="19.6" height="19.6"/>
		</g>
	</g>
	<rect x="52.7" y="69.6" class="st3" width="216.6" height="11.3"/>
	<g>
		<path class="st4" d="M42.4,53.3h-1.9c-1.4,0-2.5-1.1-2.5-2.5V31.4c0-1.4,1.1-2.5,2.5-2.5h1.9c1.4,0,2.5,1.1,2.5,2.5v19.5
			C44.8,52.2,43.7,53.3,42.4,53.3z"/>
		<path class="st4" d="M55.1,53.3h-1.9c-1.4,0-2.5-1.1-2.5-2.5V31.4c0-1.4,1.1-2.5,2.5-2.5h1.9c1.4,0,2.5,1.1,2.5,2.5v19.5
			C57.6,52.2,56.5,53.3,55.1,53.3z"/>
		<path class="st4" d="M80.1,53.3h-1.9c-1.4,0-2.5-1.1-2.5-2.5V31.4c0-1.4,1.1-2.5,2.5-2.5h1.9c1.4,0,2.5,1.1,2.5,2.5v19.5
			C82.6,52.2,81.5,53.3,80.1,53.3z"/>
		<path class="st4" d="M92.8,53.3h-1.9c-1.4,0-2.5-1.1-2.5-2.5V31.4c0-1.4,1.1-2.5,2.5-2.5h1.9c1.4,0,2.5,1.1,2.5,2.5v19.5
			C95.3,52.2,94.2,53.3,92.8,53.3z"/>
		<path class="st4" d="M117.8,53.3h-1.9c-1.4,0-2.5-1.1-2.5-2.5V31.4c0-1.4,1.1-2.5,2.5-2.5h1.9c1.4,0,2.5,1.1,2.5,2.5v19.5
			C120.3,52.2,119.2,53.3,117.8,53.3z"/>
		<path class="st4" d="M130.6,53.3h-1.9c-1.4,0-2.5-1.1-2.5-2.5V31.4c0-1.4,1.1-2.5,2.5-2.5h1.9c1.4,0,2.5,1.1,2.5,2.5v19.5
			C133,52.2,131.9,53.3,130.6,53.3z"/>
		<path class="st4" d="M155.6,53.3h-1.9c-1.4,0-2.5-1.1-2.5-2.5V31.4c0-1.4,1.1-2.5,2.5-2.5h1.9c1.4,0,2.5,1.1,2.5,2.5v19.5
			C158,52.2,156.9,53.3,155.6,53.3z"/>
		<path class="st4" d="M168.3,53.3h-1.9c-1.4,0-2.5-1.1-2.5-2.5V31.4c0-1.4,1.1-2.5,2.5-2.5h1.9c1.4,0,2.5,1.1,2.5,2.5v19.5
			C170.8,52.2,169.7,53.3,168.3,53.3z"/>
		<path class="st4" d="M193.3,53.3h-1.9c-1.4,0-2.5-1.1-2.5-2.5V31.4c0-1.4,1.1-2.5,2.5-2.5h1.9c1.4,0,2.5,1.1,2.5,2.5v19.5
			C195.8,52.2,194.7,53.3,193.3,53.3z"/>
		<path class="st4" d="M206.1,53.3h-1.9c-1.4,0-2.5-1.1-2.5-2.5V31.4c0-1.4,1.1-2.5,2.5-2.5h1.9c1.4,0,2.5,1.1,2.5,2.5v19.5
			C208.5,52.2,207.4,53.3,206.1,53.3z"/>
		<path class="st4" d="M231.1,53.3h-1.9c-1.4,0-2.5-1.1-2.5-2.5V31.4c0-1.4,1.1-2.5,2.5-2.5h1.9c1.4,0,2.5,1.1,2.5,2.5v19.5
			C233.5,52.2,232.4,53.3,231.1,53.3z"/>
		<path class="st4" d="M243.8,53.3h-1.9c-1.4,0-2.5-1.1-2.5-2.5V31.4c0-1.4,1.1-2.5,2.5-2.5h1.9c1.4,0,2.5,1.1,2.5,2.5v19.5
			C246.3,52.2,245.1,53.3,243.8,53.3z"/>
		<path class="st4" d="M268.8,53.3h-1.9c-1.4,0-2.5-1.1-2.5-2.5V31.4c0-1.4,1.1-2.5,2.5-2.5h1.9c1.4,0,2.5,1.1,2.5,2.5v19.5
			C271.3,52.2,270.2,53.3,268.8,53.3z"/>
		<path class="st4" d="M281.5,53.3h-1.9c-1.4,0-2.5-1.1-2.5-2.5V31.4c0-1.4,1.1-2.5,2.5-2.5h1.9c1.4,0,2.5,1.1,2.5,2.5v19.5
			C284,52.2,282.9,53.3,281.5,53.3z"/>
	</g>
	<g>
		<path class="st5" d="M42.4,48.8h-1.9c-1.4,0-2.5-1.1-2.5-2.5V26.8c0-1.4,1.1-2.5,2.5-2.5h1.9c1.4,0,2.5,1.1,2.5,2.5v19.5
			C44.8,47.7,43.7,48.8,42.4,48.8z"/>
		<path class="st5" d="M55.1,48.8h-1.9c-1.4,0-2.5-1.1-2.5-2.5V26.8c0-1.4,1.1-2.5,2.5-2.5h1.9c1.4,0,2.5,1.1,2.5,2.5v19.5
			C57.6,47.7,56.5,48.8,55.1,48.8z"/>
		<path class="st5" d="M80.1,48.8h-1.9c-1.4,0-2.5-1.1-2.5-2.5V26.8c0-1.4,1.1-2.5,2.5-2.5h1.9c1.4,0,2.5,1.1,2.5,2.5v19.5
			C82.6,47.7,81.5,48.8,80.1,48.8z"/>
		<path class="st5" d="M92.8,48.8h-1.9c-1.4,0-2.5-1.1-2.5-2.5V26.8c0-1.4,1.1-2.5,2.5-2.5h1.9c1.4,0,2.5,1.1,2.5,2.5v19.5
			C95.3,47.7,94.2,48.8,92.8,48.8z"/>
		<path class="st5" d="M117.8,48.8h-1.9c-1.4,0-2.5-1.1-2.5-2.5V26.8c0-1.4,1.1-2.5,2.5-2.5h1.9c1.4,0,2.5,1.1,2.5,2.5v19.5
			C120.3,47.7,119.2,48.8,117.8,48.8z"/>
		<path class="st5" d="M130.6,48.8h-1.9c-1.4,0-2.5-1.1-2.5-2.5V26.8c0-1.4,1.1-2.5,2.5-2.5h1.9c1.4,0,2.5,1.1,2.5,2.5v19.5
			C133,47.7,131.9,48.8,130.6,48.8z"/>
		<path class="st5" d="M155.6,48.8h-1.9c-1.4,0-2.5-1.1-2.5-2.5V26.8c0-1.4,1.1-2.5,2.5-2.5h1.9c1.4,0,2.5,1.1,2.5,2.5v19.5
			C158,47.7,156.9,48.8,155.6,48.8z"/>
		<path class="st5" d="M168.3,48.8h-1.9c-1.4,0-2.5-1.1-2.5-2.5V26.8c0-1.4,1.1-2.5,2.5-2.5h1.9c1.4,0,2.5,1.1,2.5,2.5v19.5
			C170.8,47.7,169.7,48.8,168.3,48.8z"/>
		<path class="st5" d="M193.3,48.8h-1.9c-1.4,0-2.5-1.1-2.5-2.5V26.8c0-1.4,1.1-2.5,2.5-2.5h1.9c1.4,0,2.5,1.1,2.5,2.5v19.5
			C195.8,47.7,194.7,48.8,193.3,48.8z"/>
		<path class="st5" d="M206.1,48.8h-1.9c-1.4,0-2.5-1.1-2.5-2.5V26.8c0-1.4,1.1-2.5,2.5-2.5h1.9c1.4,0,2.5,1.1,2.5,2.5v19.5
			C208.5,47.7,207.4,48.8,206.1,48.8z"/>
		<path class="st5" d="M231.1,48.8h-1.9c-1.4,0-2.5-1.1-2.5-2.5V26.8c0-1.4,1.1-2.5,2.5-2.5h1.9c1.4,0,2.5,1.1,2.5,2.5v19.5
			C233.5,47.7,232.4,48.8,231.1,48.8z"/>
		<path class="st5" d="M243.8,48.8h-1.9c-1.4,0-2.5-1.1-2.5-2.5V26.8c0-1.4,1.1-2.5,2.5-2.5h1.9c1.4,0,2.5,1.1,2.5,2.5v19.5
			C246.3,47.7,245.1,48.8,243.8,48.8z"/>
		<path class="st5" d="M268.8,48.8h-1.9c-1.4,0-2.5-1.1-2.5-2.5V26.8c0-1.4,1.1-2.5,2.5-2.5h1.9c1.4,0,2.5,1.1,2.5,2.5v19.5
			C271.3,47.7,270.2,48.8,268.8,48.8z"/>
		<path class="st5" d="M281.5,48.8h-1.9c-1.4,0-2.5-1.1-2.5-2.5V26.8c0-1.4,1.1-2.5,2.5-2.5h1.9c1.4,0,2.5,1.1,2.5,2.5v19.5
			C284,47.7,282.9,48.8,281.5,48.8z"/>
	</g>
</g>
</svg>
