<?xml version="1.0" encoding="utf-8"?>
<!-- Generator: Adobe Illustrator 22.1.0, SVG Export Plug-In . SVG Version: 6.00 Build 0)  -->
<svg version="1.1" id="Capa_1" xmlns="http://www.w3.org/2000/svg" xmlns:xlink="http://www.w3.org/1999/xlink" x="0px" y="0px"
	 viewBox="0 0 380 62" style="enable-background:new 0 0 380 62;" xml:space="preserve">
<style type="text/css">
	.st0{fill:#E20613;}
	.st1{fill:#1D1D1B;}
	.st2{fill:#FFFFFF;}
	.st3{fill:#E42613;}
	.st4{fill:#E51E36;}
	.st5{fill:url(#SVGID_1_);}
	.st6{fill-rule:evenodd;clip-rule:evenodd;fill:#FFFFFF;}
	.st7{fill-rule:evenodd;clip-rule:evenodd;fill:#1D1D1B;}
	.st8{fill:#019C39;}
	.st9{fill-rule:evenodd;clip-rule:evenodd;fill:#019C39;}
	.st10{fill:#0A60DD;}
</style>
<g>
	<path class="st0" d="M147.1,29c-0.4-0.7-0.5-1.6-0.5-2.3c0-2.4,2.1-4.4,4.4-4.4h7l-2.7,2.7h-4.3C149.1,25,147,26.8,147.1,29
		L147.1,29z M149.7,27c0.2-0.6,0.7-1.3,1.3-1.7c-1,0-2.1,0.5-3,1.7H149.7L149.7,27z M151.1,25.7c-0.4,0.3-0.8,0.9-1.1,1.4h2.1
		C151.9,26.6,151.5,26,151.1,25.7L151.1,25.7z M147.8,27.4c-0.3,0.5-0.4,1-0.4,1.5h2c0-0.5,0.1-1.1,0.3-1.5H147.8L147.8,27.4z
		 M149.9,27.4c-0.2,0.5-0.3,1-0.3,1.5h3c0-0.5-0.1-1.1-0.3-1.5H149.9L149.9,27.4z M154.2,27c-0.8-1.2-2-1.7-3-1.7
		c0.5,0.4,1,1.1,1.3,1.7H154.2L154.2,27z M152.6,27.4c0.2,0.5,0.3,1,0.3,1.5h2c0-0.5-0.2-1.1-0.4-1.5H152.6L152.6,27.4z M148,31
		c0.9,1.3,2,1.7,3,1.7c-0.5-0.4-1.1-1.1-1.3-1.7H148L148,31z M151.1,32.4c0.4-0.3,0.8-0.9,1-1.4h-2.1
		C150.3,31.5,150.7,32.1,151.1,32.4L151.1,32.4z M149.6,30.7c-0.2-0.5-0.3-1-0.3-1.5h-2c0,0.5,0.2,1,0.4,1.5H149.6L149.6,30.7z
		 M152.3,30.7c0.2-0.5,0.3-1,0.3-1.5h-3c0,0.5,0.1,1,0.3,1.5H152.3L152.3,30.7z M152.5,31c-0.2,0.6-0.7,1.3-1.3,1.7
		c1,0,2.1-0.4,3-1.7H152.5L152.5,31z M154.4,30.7c0.3-0.5,0.4-1,0.4-1.5h-2c0,0.5-0.1,1-0.3,1.5H154.4L154.4,30.7z M155.2,29
		c0,2.3-2,4-3.8,4h-4.3l-2.7,2.7h7c2.2,0,4.4-2,4.4-4.4C155.7,30.7,155.6,29.8,155.2,29L155.2,29L155.2,29z"/>
	<polygon class="st0" points="221.2,25.2 222.9,25.2 222.9,25.4 222.2,25.4 222.2,27.3 221.9,27.3 221.9,25.4 221.2,25.4 	"/>
	<path class="st0" d="M225,27.3V26c0-0.1,0-0.3,0-0.5h0l-0.6,1.8h-0.3l-0.6-1.8h0c0,0.2,0,0.5,0,0.5v1.3h-0.3v-2.1h0.4l0.6,1.8h0
		l0.6-1.8h0.4v2.1H225L225,27.3z"/>
	<path class="st0" d="M175.5,32.7c-1.8,0-3.1-1.1-3.1-2.8c0-1.7,1.3-2.8,3.1-2.8c1.8,0,3.1,1.1,3.1,2.8
		C178.6,31.6,177.3,32.7,175.5,32.7L175.5,32.7z M206.4,27.3v5.3h-1.8l0-0.5h0c-0.2,0.2-0.6,0.7-1.8,0.7c-1.3,0-2.4-1.1-2.4-2.8
		c0-1.6,1-2.8,2.5-2.8c1,0,1.5,0.5,1.6,0.6h0l0-0.5L206.4,27.3L206.4,27.3z M192.5,27.3v5.3h-1.8l0-0.5h0c-0.2,0.2-0.6,0.7-1.8,0.7
		c-1.3,0-2.4-1.1-2.4-2.8c0-1.6,1-2.8,2.5-2.8c1,0,1.5,0.5,1.6,0.6h0l0-0.5L192.5,27.3L192.5,27.3z M183.7,27.3h1.9v5.3h-1.9V27.3
		L183.7,27.3z M193.7,32.6v-7.5h1.9v2.6h0c0.1-0.1,0.7-0.5,1.6-0.5c1.4,0,2.5,1.2,2.5,2.7c0,1.9-1.2,2.9-2.5,2.9
		c-1,0-1.5-0.5-1.7-0.6h0l0,0.5H193.7L193.7,32.6z M175.5,31.4c0.8,0,1.2-0.7,1.2-1.4c0-0.8-0.4-1.5-1.2-1.5c-0.8,0-1.2,0.7-1.2,1.5
		C174.3,30.7,174.7,31.4,175.5,31.4L175.5,31.4z M182.8,31.2c-0.1,0-0.3,0.1-0.5,0.1c-0.4,0-0.8-0.2-0.8-0.8v-1.8h1.2v-1.3h-1.2
		v-1.7h-1.9v1.7h-0.8v1.3h0.8v2.1c0,1.2,0.5,2,1.9,2c0.4,0,0.8-0.1,1-0.1L182.8,31.2L182.8,31.2z M161.7,32.4
		c0.5,0.2,1.3,0.3,2.1,0.3c1.6,0,3.2-0.6,3.2-2.3c0-2.4-3.3-2.1-3.3-3c0-0.5,0.5-0.6,1-0.6c0.7,0,1.6,0.3,1.8,0.4l0.2-1.6
		c-0.5-0.2-1.2-0.3-1.9-0.3c-1.6,0-3.1,0.6-3.1,2.2c0,2.3,3.3,1.9,3.3,3.1c0,0.5-0.5,0.7-1.1,0.7c-0.8,0-1.6-0.4-1.9-0.6L161.7,32.4
		L161.7,32.4z M202.3,29.9c0,0.9,0.5,1.4,1.1,1.4c0.6,0,1.1-0.5,1.1-1.4c0-0.8-0.5-1.4-1.1-1.4C202.8,28.6,202.3,29.2,202.3,29.9
		L202.3,29.9z M188.4,29.9c0,0.9,0.5,1.4,1.1,1.4c0.6,0,1.1-0.5,1.1-1.4c0-0.8-0.5-1.4-1.1-1.4C188.9,28.6,188.4,29.2,188.4,29.9
		L188.4,29.9z M171.9,27.4c-0.1,0-0.6-0.2-1.3-0.2c-1.7,0-2.9,1-2.9,2.8c0,1.6,1.1,2.8,2.9,2.8c0.7,0,1.3-0.2,1.4-0.2l-0.1-1.6
		c-0.1,0.1-0.5,0.3-0.9,0.3c-0.7,0-1.3-0.5-1.3-1.3c0-0.8,0.6-1.3,1.3-1.3c0.4,0,0.8,0.2,0.9,0.3L171.9,27.4L171.9,27.4z
		 M214.3,32.6h1.9v-2.5h0l1.6,2.5h2.1l-2-2.8l1.9-2.5h-2.1l-1.6,2.2h0v-4.4h-1.9L214.3,32.6L214.3,32.6z M207.6,32.6h1.8v-2.8
		c0-0.6,0.4-1.1,1-1.1c0.6,0,1,0.4,1,1.1v2.8h1.8v-3.2c0-1.2-0.8-2.2-2.2-2.2c-1,0-1.5,0.5-1.7,0.7h0l0-0.6h-1.6V32.6L207.6,32.6z
		 M184.7,24.6c-0.6,0-1,0.5-1,1c0,0.6,0.5,1,1,1c0.6,0,1-0.5,1-1C185.7,25.1,185.2,24.6,184.7,24.6L184.7,24.6z M197.8,29.9
		c0-0.7-0.4-1.3-1.1-1.3c-0.6,0-1.1,0.5-1.1,1.3c0,0.8,0.4,1.4,1.1,1.4C197.3,31.3,197.8,30.8,197.8,29.9L197.8,29.9z"/>
</g>
<g>
	<path class="st1" d="M88,28.7v-3c0-0.4-0.2-0.8-1.2-0.8v-0.3h3.7v0.3c-1,0-1.2,0.4-1.2,0.8v6.7c0,0.4,0.2,0.8,1.2,0.8v0.3h-3.7
		v-0.3c1,0,1.2-0.4,1.2-0.8v-3.2h-4v3.2c0,0.4,0.2,0.8,1.2,0.8v0.3h-3.7v-0.3c1,0,1.2-0.4,1.2-0.8v-6.7c0-0.4-0.2-0.8-1.2-0.8v-0.3
		h3.7v0.3c-1,0-1.2,0.4-1.2,0.8v3H88L88,28.7z"/>
	<path class="st1" d="M90.8,30.8h0.3c0.4,1.2,1.3,2.4,2.7,2.4c1.1,0,1.8-0.9,1.5-2c-0.5-1.9-4.2-1.9-4.2-4.5c0-1.3,1-2.2,2.4-2.2
		c1.4,0,2,1,2.4,0h0.3l0.3,2.8h-0.3C95.8,26.1,95,25,93.7,25c-0.8,0-1.4,0.4-1.4,1.3c0,0.8,0.8,1.3,1.4,1.7c1.8,1.1,3,1.7,3,3.3
		c0,1.2-1,2.4-2.8,2.4c-1.4,0-2.3-1-2.5,0h-0.3L90.8,30.8L90.8,30.8z"/>
	<path class="st1" d="M101.2,28.6c1.3,0,2.1-0.6,2.1-1.6c0-1-0.6-1.6-1.6-1.7c-1.2-0.1-1.6-0.1-1.6,0.4v3H101.2L101.2,28.6z
		 M100.1,32.3L100.1,32.3c0,0.5,0.1,0.7,1.1,0.7c1.4,0,2.4-0.4,2.4-2c0-1.6-1.6-1.9-2.8-1.9h-0.7L100.1,32.3L100.1,32.3z M98.7,25.7
		L98.7,25.7c0-0.4-0.2-0.8-1.3-0.8v-0.3h3.6c2,0,3.6,0.5,3.6,2.2c0,1.1-0.7,1.7-1.8,1.9v0c1.1,0.2,2.2,0.9,2.2,2.2
		c0,1.6-1.4,2.4-3.5,2.4h-4.2v-0.3c1.1,0,1.3-0.4,1.3-0.8L98.7,25.7L98.7,25.7z"/>
	<path class="st1" d="M113.1,27.4h-0.3c-0.4-1.5-1.4-2.5-2.9-2.5c-2.2,0-3.1,1.8-3.1,4.2c0,1.9,1,3.9,3.1,3.9c1.3,0,2.2-0.4,3.1-1.3
		l0.2,0.3c-0.8,1-2.2,1.7-3.5,1.7c-2.6,0-4.6-1.7-4.6-4.6c0-2.6,1.9-4.6,4.5-4.6c1.8,0,2.5,1.1,2.9,0h0.3L113.1,27.4L113.1,27.4z"/>
	<polygon class="st2" points="120.2,24.4 129.2,24.4 129.2,33.4 120.2,33.4 	"/>
	<polygon class="st3" points="120.2,24.4 129.2,24.4 124.7,28.9 	"/>
	<polygon class="st3" points="120.2,33.4 129.2,33.4 124.7,28.9 	"/>
	<polygon class="st3" points="120.2,24.4 120.2,33.4 115.8,28.9 	"/>
	<polygon class="st3" points="129.2,24.4 129.2,33.4 133.6,28.9 	"/>
</g>
<g>
	<rect x="7.6" y="20.4" class="st4" width="62.8" height="17.4"/>
	<g>
		<path class="st2" d="M17.4,23.6c0,1.2,2,2.6,2,4c0,0,0,0.1-0.1,0.3c1.9,0.4,3.3,1.4,3.3,2.5c0,1.5-2.4,2.7-5.4,2.7
			c-3.1,0-5.4-1.2-5.4-2.7c0-1.1,1.5-2,3.2-2.5c0,0.6,2,2.6,2.1,3.4c0,0.1,0,0.2,0,0.3c0.4-0.2,0.4-1,0.4-1c0-1.7-2-2.5-2-4.2
			c0-0.7,0.3-1.1,0.6-1.3v0.5c0,1.2,2.1,2.6,2.1,3.7v0.4c0.5-0.2,0.5-1.1,0.5-1.1c0-1.5-2-2.4-2-4.2c0-0.7,0.3-1.1,0.6-1.3V23.6z"/>
		<path class="st2" d="M26.9,32.5c-1,0-1.8-0.3-1.8-0.3v-1.8h0.3c0.1,1,0.9,1.7,1.7,1.7c0.8,0,1.4-0.5,1.4-1.2
			c0-0.8-0.8-1.1-1.3-1.4l-0.7-0.4c-0.7-0.4-1.3-0.9-1.3-1.7c0-1,0.7-1.9,2.1-1.9c1,0,1.8,0.3,1.8,0.3v1.6h-0.3
			c-0.2-0.9-0.6-1.5-1.6-1.5c-0.7,0-1.1,0.5-1.1,1c0,0.7,0.5,1,1,1.2l0.7,0.4c0.7,0.3,1.5,0.9,1.5,1.9
			C29.4,31.7,28.5,32.5,26.9,32.5"/>
		<path class="st2" d="M31.7,30.6c-0.2,0.1-0.5,0.3-0.5,0.7c0,0.2,0.1,0.7,0.6,0.7c0.2,0,0.6-0.1,0.8-0.3v-1.4L31.7,30.6z
			 M31.3,32.5c-0.6,0-1.1-0.4-1.1-1.1c0-0.5,0.3-0.8,1.1-1.1l1.3-0.5v-0.4c0-0.6-0.3-1-0.7-1c-0.3,0-0.6,0.1-0.7,0.4
			c-0.1,0.1-0.1,0.2-0.1,0.3c0,0.2,0.1,0.4,0.1,0.4l-0.6,0.3c-0.1-0.1-0.2-0.3-0.2-0.5c0,0,0-0.1,0-0.1c0-0.3,0.3-0.6,0.7-0.8
			c0.4-0.2,0.7-0.3,1-0.3c1.2,0,1.4,1,1.4,1.3v2c0,0.3,0,0.5,0.3,0.5c0.1,0,0.1,0,0.2,0l0.2-0.1V32L33,32.5
			c-0.2-0.1-0.3-0.4-0.3-0.6C32.3,32.1,31.8,32.5,31.3,32.5"/>
		<path class="st2" d="M34.6,32.4v-0.2l0.3-0.1c0.2,0,0.3-0.2,0.3-0.4v-2.6c0-0.2-0.1-0.3-0.3-0.3c-0.1,0-0.1,0-0.2,0l-0.1,0v-0.3
			l1.4-0.6h0.2v0.7c0.4-0.5,0.9-0.7,1.3-0.7c1,0,1.4,0.7,1.4,1.5v2.2c0,0.2,0.1,0.3,0.3,0.4l0.3,0.1v0.2h-2.3v-0.2l0.3-0.1
			c0.2,0,0.3-0.2,0.3-0.4v-2.2c0-0.3-0.1-0.9-0.8-0.9c-0.4,0-0.8,0.3-1,0.5v2.7c0,0.2,0.2,0.3,0.3,0.4l0.3,0.1v0.2H34.6z"/>
		<path class="st2" d="M42.8,28.6h-1.3V31c0,0.5,0.3,0.8,0.7,0.8c0.2,0,0.4,0,0.7-0.2l0.1,0.2l-0.9,0.5c0,0-0.2,0-0.3,0
			c-0.8,0-1.3-0.5-1.3-1.5v-2.3h-0.7v-0.2c0,0,1-0.4,1.4-1.4h0.2v1.2H43L42.8,28.6z"/>
		<path class="st2" d="M44.8,30.6c-0.2,0.1-0.5,0.3-0.5,0.7c0,0.2,0.1,0.7,0.6,0.7c0.2,0,0.6-0.1,0.8-0.3v-1.4L44.8,30.6z
			 M44.4,32.5c-0.6,0-1.1-0.4-1.1-1.1c0-0.5,0.3-0.8,1.1-1.1l1.3-0.5v-0.4c0-0.6-0.3-1-0.7-1c-0.3,0-0.6,0.1-0.7,0.4
			c-0.1,0.1-0.1,0.2-0.1,0.3c0,0.2,0.1,0.4,0.1,0.4l-0.6,0.3c-0.1-0.1-0.2-0.3-0.2-0.5c0,0,0-0.1,0-0.1c0-0.3,0.3-0.6,0.7-0.8
			c0.4-0.2,0.7-0.3,1-0.3c1.2,0,1.4,1,1.4,1.3v2c0,0.3,0,0.5,0.3,0.5c0.1,0,0.1,0,0.2,0l0.2-0.1V32l-1.3,0.5
			c-0.2-0.1-0.3-0.4-0.3-0.6C45.4,32.1,44.9,32.5,44.4,32.5"/>
		<path class="st2" d="M47.7,32.4v-0.2l0.3-0.1c0.2,0,0.3-0.2,0.3-0.4v-2.6c0-0.2-0.1-0.3-0.3-0.3c-0.1,0-0.1,0-0.2,0l-0.1,0v-0.3
			l1.4-0.6h0.2v0.7c0.4-0.5,0.9-0.7,1.3-0.7c1,0,1.4,0.7,1.4,1.5v2.2c0,0.2,0.1,0.3,0.3,0.4l0.3,0.1v0.2h-2.3v-0.2l0.3-0.1
			c0.2,0,0.3-0.2,0.3-0.4v-2.2c0-0.3-0.1-0.9-0.8-0.9c-0.4,0-0.8,0.3-1,0.5v2.7c0,0.2,0.2,0.3,0.3,0.4l0.3,0.1v0.2H47.7z"/>
		<path class="st2" d="M55.5,28.4c-0.7,0-1.4,0.4-1.4,1.7c0,1.1,0.5,1.7,1.4,1.7c0.5,0,0.8-0.3,0.9-0.5V29
			C56.3,28.6,55.9,28.4,55.5,28.4 M55.1,32.5c-0.9,0-2-0.7-2-2.1c0-1.3,1-2.3,2.3-2.3c0.4,0,0.7,0.1,1,0.2V26c0-0.2-0.1-0.3-0.3-0.3
			c-0.1,0-0.2,0-0.3,0l-0.2,0.1v-0.3l1.5-0.6h0.2v6.3c0,0.4,0.1,0.6,0.3,0.6c0.1,0,0.1,0,0.2,0l0.2-0.1V32l-1.3,0.5
			c-0.2-0.1-0.3-0.4-0.4-0.6C56.2,32.1,55.7,32.5,55.1,32.5"/>
		<path class="st2" d="M61.4,29.5L61.4,29.5c0-0.7-0.4-1.1-0.9-1.1c-0.5,0-0.9,0.4-1,1.1H61.4z M59.5,29.9L59.5,29.9
			c0,1.3,0.7,2,1.6,2c0.5,0,0.9-0.2,1.2-0.4v0.4c-0.4,0.4-1,0.7-1.7,0.7c-1.5,0-2.1-1.1-2.1-2.2c0-1.2,0.9-2.3,2.1-2.3
			c1,0,1.8,0.7,1.8,1.8v0.1H59.5z"/>
		<path class="st2" d="M63,32.4v-0.2l0.3-0.1c0.2,0,0.3-0.2,0.3-0.4v-2.6c0-0.2-0.1-0.3-0.3-0.3c-0.1,0-0.1,0-0.2,0l-0.1,0v-0.3
			l1.3-0.6h0.2V29c0.3-0.7,0.7-1,1.2-1c0.4,0,0.5,0.1,0.5,0.1v1H66c0-0.3-0.2-0.4-0.5-0.4c-0.3,0-0.7,0.1-0.9,0.6v2.4
			c0,0.2,0.2,0.3,0.4,0.4l0.5,0.1v0.2H63z"/>
	</g>
</g>
<g>
	<linearGradient id="SVGID_1_" gradientUnits="userSpaceOnUse" x1="338.343" y1="22.336" x2="338.343" y2="35.7368">
		<stop  offset="0" style="stop-color:#5A0A00"/>
		<stop  offset="1" style="stop-color:#DB0812"/>
	</linearGradient>
	<rect x="304.7" y="22.3" class="st5" width="67.3" height="13.4"/>
	<g>
		<g>
			<g>
				<path class="st6" d="M319.5,28.7h3.9c0,0,0.3,0,0.3,0.3c0,0.3,0,0.6,0,0.6s0,0.3-0.3,0.3c-0.3,0-3.9,0-3.9,0V28.7z M319.5,27.5
					c0,0,3.6,0,3.9,0c0.3,0,0.3-0.3,0.3-0.3s0-0.3,0-0.6c0-0.3-0.3-0.3-0.3-0.3h-3.9V27.5z M325,29.3c0,1-0.8,1.8-1.8,1.8h-5v0v-6
					h4.7l0.2,0c1,0,1.8,0.8,1.8,1.8c0,0,0,0.6-0.4,1.2C324.6,28.1,325,28.6,325,29.3z"/>
				<g>
					<path class="st2" d="M328.1,25.1h1.6l3,6h-1.4l-0.9-1.8h-3.1l-0.9,1.8h-1.4L328.1,25.1z M329.8,28.1l-0.9-1.8l-0.9,1.8H329.8z"
						/>
					<g>
						<path class="st6" d="M343.8,31.1c-1.6,0-3-1.3-3-3c0-1.6,1.3-3,3-3h1.9c1.6,0,3,1.3,3,3c0,1.6-1.3,3-3,3H343.8z M345.6,29.8
							c0.9,0,1.7-0.7,1.7-1.7c0-0.9-0.7-1.7-1.7-1.7h-1.8c-0.9,0-1.7,0.7-1.7,1.7c0,0.9,0.7,1.7,1.7,1.7H345.6z"/>
						<g>
							<path class="st6" d="M354.8,27.2c0,0.2-0.1,0.3-0.3,0.3h-3.9v-1.2h3.9c0.2,0,0.3,0.1,0.3,0.3L354.8,27.2z M350.6,31.1v-2.4
								h2.4l1.6,2.4h1.5l-1.6-2.4c1.6-0.2,1.6-1.8,1.6-1.8c0-1-0.8-1.8-1.8-1.8l-0.1,0h-4.9v6H350.6z"/>
						</g>
						<polygon class="st2" points="333.4,31.1 334.6,31.1 334.6,27.2 339.1,31.1 340.3,31.1 340.3,25.1 339.1,25.1 339.1,29 
							334.6,25.1 333.4,25.1 						"/>
						<polygon class="st2" points="356.9,26.4 359.3,26.4 359.3,31.1 360.7,31.1 360.7,26.4 363,26.4 363,25.2 356.9,25.2 						"/>
						<polygon class="st2" points="363.8,25.1 369.8,25.1 369.8,26.3 365,26.3 365,27.5 368.9,27.5 368.9,28.7 365,28.7 365,29.9 
							369.8,29.9 369.8,31.1 363.8,31.1 						"/>
					</g>
				</g>
			</g>
			<g>
				<path class="st2" d="M311.4,27.7l0.9-2.5l0,2.5c0.1,0,0.3,0,0.4,0c2.5,0,4.6-0.7,4.6-1.6c0-0.9-2.1-1.7-4.6-1.7
					c-2.5,0-4.6,0.7-4.6,1.7C308.1,26.8,309.5,27.5,311.4,27.7L311.4,27.7z"/>
				<path class="st2" d="M311.3,27.9c-2.4,0-4.4,0.8-4.4,1.7c0,0.7,1.4,1.4,3.2,1.6L311.3,27.9L311.3,27.9z"/>
				<path class="st2" d="M312.3,27.9v3.2c2.2-0.1,3.8-0.8,3.8-1.6C316.1,28.7,314.4,28,312.3,27.9L312.3,27.9z"/>
			</g>
		</g>
		<g>
			<path class="st2" d="M308,32.4h-0.8v0.3h0.8V33h-0.8v0.4h0.9v0.3h-1.2v-1.5h1.1V32.4z"/>
			<path class="st2" d="M309.9,33.4h0.8v0.3h-1.1v-1.5h0.3V33.4z"/>
			<path class="st2" d="M314,32.1h0.8c0.4,0,0.5,0.2,0.5,0.4c0,0.2-0.1,0.3-0.2,0.3c0.2,0.1,0.2,0.2,0.2,0.4c0,0.1-0.1,0.2-0.1,0.3
				c-0.1,0.1-0.2,0.1-0.5,0.1H314V32.1z M314.3,32.7h0.4c0.1,0,0.2,0,0.2-0.2c0-0.1-0.1-0.2-0.2-0.2h-0.4V32.7z M314.3,33.4h0.4
				c0.2,0,0.2-0.1,0.2-0.2c0-0.1-0.1-0.2-0.2-0.2h-0.4V33.4z"/>
			<path class="st2" d="M317,33.6h-0.3l0.6-1.5h0.4l0.5,1.5h-0.4l-0.1-0.3h-0.6L317,33.6z M317.2,33.1h0.4l-0.2-0.6h0L317.2,33.1z"
				/>
			<path class="st2" d="M320.5,32.1h0.3v1.5h-0.3l-0.6-1.1h0v1.1h-0.3v-1.5h0.3l0.6,1.1h0V32.1z"/>
			<path class="st2" d="M323.4,32.6c0-0.1-0.1-0.3-0.3-0.3c-0.2,0-0.4,0.1-0.4,0.5c0,0.3,0.1,0.5,0.4,0.5c0.2,0,0.3-0.1,0.3-0.3h0.3
				c-0.1,0.3-0.3,0.6-0.7,0.6c-0.4,0-0.7-0.3-0.7-0.8c0-0.5,0.3-0.8,0.7-0.8c0.5,0,0.6,0.3,0.7,0.5H323.4z"/>
			<path class="st2" d="M325.9,32.1c0.2,0,0.7,0.1,0.7,0.8c0,0.7-0.5,0.8-0.7,0.8c-0.2,0-0.7-0.1-0.7-0.8
				C325.1,32.1,325.7,32.1,325.9,32.1z M325.9,33.4c0.2,0,0.4-0.1,0.4-0.5c0-0.4-0.2-0.5-0.4-0.5c-0.2,0-0.4,0.1-0.4,0.5
				C325.4,33.3,325.7,33.4,325.9,33.4z"/>
			<path class="st2" d="M330.3,33.6H330v-1.5h1.1v0.3h-0.8v0.3h0.7V33h-0.7V33.6z"/>
			<path class="st2" d="M333.8,33.1c0,0.4-0.2,0.6-0.6,0.6c-0.1,0-0.4,0-0.5-0.2c-0.1-0.1-0.1-0.2-0.1-0.4v-1h0.3v1
				c0,0.2,0.1,0.3,0.3,0.3c0.2,0,0.3-0.1,0.3-0.3v-1h0.3V33.1z"/>
			<path class="st2" d="M336.5,32.4h-0.8v0.3h0.8V33h-0.8v0.4h0.9v0.3h-1.2v-1.5h1.1V32.4z"/>
			<path class="st2" d="M338,32.1h0.8c0.4,0,0.5,0.3,0.5,0.4c0,0.2-0.1,0.3-0.2,0.4c0.1,0.1,0.2,0.1,0.2,0.4c0,0.2,0,0.3,0.1,0.3v0
				H339c0-0.1,0-0.2,0-0.3c0-0.2,0-0.3-0.3-0.3h-0.3v0.6H338V32.1z M338.7,32.8c0.2,0,0.2-0.1,0.2-0.2c0-0.1,0-0.2-0.2-0.2h-0.4v0.4
				H338.7z"/>
			<path class="st2" d="M341.5,33.6h-0.3v-1.3h-0.5v-0.3h1.3v0.3h-0.5V33.6z"/>
			<path class="st2" d="M344.5,32.4h-0.8v0.3h0.8V33h-0.8v0.4h0.9v0.3h-1.2v-1.5h1.1V32.4z"/>
			<path class="st2" d="M347.9,32.1h0.7c0.5,0,0.6,0.4,0.6,0.7c0,0.3-0.1,0.8-0.6,0.8h-0.7V32.1z M348.3,33.4h0.3
				c0.3,0,0.4-0.3,0.4-0.5c0-0.5-0.2-0.5-0.4-0.5h-0.3V33.4z"/>
			<path class="st2" d="M351.9,32.4h-0.8v0.3h0.8V33h-0.8v0.4h0.9v0.3h-1.2v-1.5h1.1V32.4z"/>
			<path class="st2" d="M356.8,33.6h-0.3v-1.3h0l-0.3,1.3h-0.3l-0.3-1.3h0v1.3h-0.3v-1.5h0.5l0.3,1.2h0l0.3-1.2h0.5V33.6z"/>
			<path class="st2" d="M359.5,32.4h-0.8v0.3h0.8V33h-0.8v0.4h0.9v0.3h-1.2v-1.5h1.1V32.4z"/>
			<path class="st2" d="M362.3,33.6h-0.4l-0.3-0.5l-0.3,0.5h-0.4l0.5-0.8l-0.5-0.8h0.4l0.3,0.5l0.3-0.5h0.4l-0.5,0.7L362.3,33.6z"/>
			<path class="st2" d="M364,33.6h-0.3v-1.5h0.3V33.6z"/>
			<path class="st2" d="M366.5,32.6c0-0.1-0.1-0.3-0.3-0.3c-0.2,0-0.4,0.1-0.4,0.5c0,0.3,0.1,0.5,0.4,0.5c0.2,0,0.3-0.1,0.3-0.3h0.3
				c-0.1,0.3-0.3,0.6-0.7,0.6c-0.4,0-0.7-0.3-0.7-0.8c0-0.5,0.3-0.8,0.7-0.8c0.5,0,0.6,0.3,0.7,0.5H366.5z"/>
			<path class="st2" d="M369.1,32.1c0.2,0,0.7,0.1,0.7,0.8c0,0.7-0.5,0.8-0.7,0.8c-0.2,0-0.7-0.1-0.7-0.8
				C368.3,32.1,368.9,32.1,369.1,32.1z M369.1,33.4c0.2,0,0.4-0.1,0.4-0.5c0-0.4-0.2-0.5-0.4-0.5s-0.4,0.1-0.4,0.5
				C368.6,33.3,368.9,33.4,369.1,33.4z"/>
		</g>
	</g>
</g>
<g>
	<path class="st7" d="M292.4,28.4L292.4,28.4c-0.1,0.1-0.1,0.2-0.1,0.2c0,0.1,0,0.1-0.1,0.2c0.1,0.1,0.2,0.1,0.3,0.2
		c0.1,0.1,0.3,0.1,0.4,0.1c0.2,0,0.3,0,0.5-0.1c0.1-0.1,0.3-0.1,0.3-0.2c0.1-0.1,0.2-0.2,0.2-0.4c0.1-0.1,0.1-0.3,0.1-0.4
		c0-0.2,0-0.3-0.1-0.4c-0.1-0.1-0.2-0.2-0.3-0.3c-0.1-0.1-0.2-0.1-0.3-0.2c-0.1-0.1-0.2-0.1-0.3-0.2c-0.1-0.1-0.2-0.1-0.3-0.2
		c-0.1-0.1-0.1-0.2-0.1-0.4c0-0.1,0-0.2,0-0.3c0-0.1,0.1-0.1,0.1-0.2c0.1-0.1,0.1-0.1,0.2-0.1c0.1,0,0.1,0,0.2,0
		c0.1,0,0.2,0,0.2,0.1c0.1,0,0.1,0.1,0.2,0.1c0,0,0.1,0.1,0.1,0.2c0,0.1,0,0.1,0.1,0.2h0.1c0-0.1,0-0.2,0.1-0.2c0-0.1,0-0.1,0.1-0.2
		c-0.1-0.1-0.2-0.1-0.3-0.2c-0.1,0-0.2-0.1-0.4-0.1c-0.1,0-0.3,0-0.4,0.1c-0.1,0-0.2,0.1-0.3,0.2c-0.1,0.1-0.1,0.2-0.2,0.3
		c0,0.1-0.1,0.2-0.1,0.4c0,0.2,0,0.4,0.1,0.5c0.1,0.1,0.2,0.2,0.3,0.3c0.1,0.1,0.2,0.1,0.3,0.2c0.1,0.1,0.2,0.1,0.3,0.2
		c0.1,0.1,0.2,0.1,0.3,0.2c0.1,0.1,0.1,0.2,0.1,0.4c0,0.1,0,0.2,0,0.3c0,0.1-0.1,0.2-0.1,0.2c-0.1,0.1-0.1,0.1-0.2,0.2
		c-0.1,0-0.2,0.1-0.3,0.1c-0.1,0-0.2,0-0.3,0c-0.1,0-0.1-0.1-0.2-0.1c-0.1-0.1-0.1-0.1-0.1-0.2C292.4,28.6,292.4,28.5,292.4,28.4
		L292.4,28.4z M288.6,27.4c0,0.3,0,0.5-0.1,0.7c-0.1,0.2-0.1,0.4-0.3,0.5c-0.1,0.1-0.2,0.2-0.4,0.3c-0.1,0.1-0.3,0.1-0.5,0.1
		c-0.2,0-0.3,0-0.5-0.1c-0.1-0.1-0.3-0.2-0.4-0.3c-0.1-0.1-0.2-0.3-0.3-0.5c-0.1-0.2-0.1-0.4-0.1-0.7c0-0.3,0-0.5,0.1-0.7
		c0.1-0.2,0.1-0.4,0.3-0.5c0.1-0.1,0.2-0.2,0.4-0.3c0.2-0.1,0.3-0.1,0.5-0.1c0.2,0,0.3,0,0.5,0.1c0.2,0.1,0.3,0.2,0.4,0.3
		c0.1,0.1,0.2,0.3,0.3,0.5C288.5,26.9,288.6,27.1,288.6,27.4L288.6,27.4z M285.7,27.4c0,0.3,0,0.5,0.1,0.8c0.1,0.2,0.2,0.4,0.3,0.6
		c0.1,0.2,0.3,0.3,0.5,0.3c0.2,0.1,0.4,0.1,0.7,0.1c0.2,0,0.5,0,0.7-0.1c0.2-0.1,0.4-0.2,0.5-0.3c0.1-0.2,0.3-0.3,0.3-0.6
		c0.1-0.2,0.1-0.5,0.1-0.8c0-0.3,0-0.5-0.1-0.8c-0.1-0.2-0.2-0.4-0.3-0.6c-0.1-0.2-0.3-0.3-0.5-0.4c-0.2-0.1-0.4-0.1-0.7-0.1
		c-0.2,0-0.5,0-0.7,0.1c-0.2,0.1-0.4,0.2-0.5,0.4c-0.1,0.2-0.3,0.3-0.3,0.6C285.7,26.8,285.7,27.1,285.7,27.4L285.7,27.4z
		 M280.8,27.2v-0.3l0-0.5l0-0.5l0.2,0c0.1,0,0.2,0,0.3,0c0.1,0,0.2,0,0.2,0c0.1,0,0.2,0.1,0.2,0.1c0.1,0.1,0.1,0.1,0.2,0.2
		c0,0.1,0.1,0.2,0.1,0.3c0,0.2,0,0.3-0.1,0.4c-0.1,0.1-0.1,0.2-0.2,0.2c-0.1,0.1-0.2,0.1-0.3,0.1c-0.1,0-0.2,0-0.3,0l-0.2,0
		C280.8,27.2,280.8,27.2,280.8,27.2L280.8,27.2z M280.4,26.9v0.9c0,0.2,0,0.4,0,0.7l0,0.6c0.1,0,0.1,0,0.2,0c0.1,0,0.1,0,0.2,0
		l0-0.6l0-0.7v-0.4h0.2c0.1,0.1,0.2,0.2,0.3,0.4c0.1,0.2,0.2,0.3,0.3,0.5l0.3,0.5l0.2,0.3c0,0,0.1,0,0.1,0h0.1h0.1c0,0,0.1,0,0.1,0
		l-0.2-0.2l-0.2-0.3l-0.2-0.3l-0.2-0.3l-0.2-0.3l-0.1-0.2c0.1,0,0.2,0,0.3-0.1c0.1,0,0.2-0.1,0.3-0.2c0.1-0.1,0.2-0.2,0.2-0.3
		c0.1-0.1,0.1-0.3,0.1-0.4c0-0.2,0-0.3-0.1-0.4c0-0.1-0.1-0.2-0.2-0.2c-0.1-0.1-0.2-0.1-0.3-0.1c-0.1,0-0.2,0-0.4,0
		c-0.1,0-0.2,0-0.3,0c-0.1,0-0.2,0-0.3,0l-0.3,0l-0.3,0l0,0.7C280.4,26.5,280.4,26.7,280.4,26.9L280.4,26.9z M276.4,27.3l0,0.3
		c0,0.1,0,0.2,0,0.4s0,0.2-0.1,0.4c0,0.1-0.1,0.2-0.2,0.3c-0.1,0.1-0.2,0.2-0.3,0.2c-0.1,0.1-0.2,0.1-0.4,0.1c-0.2,0-0.3,0-0.4-0.1
		c-0.1,0-0.2-0.1-0.3-0.2c-0.1-0.1-0.1-0.2-0.2-0.3c0-0.1-0.1-0.2-0.1-0.3c0-0.1,0-0.2,0-0.4l0-0.4l0-0.5l0-0.5l0-0.4l0-0.3l-0.1,0
		l-0.1,0l-0.1,0l-0.1,0l0,0.6c0,0.2,0,0.5,0,0.7c0,0.1,0,0.3,0,0.4c0,0.1,0,0.3,0,0.4c0,0.5,0.1,0.9,0.3,1.1c0.2,0.2,0.5,0.3,1,0.3
		c0.2,0,0.4,0,0.5-0.1c0.2-0.1,0.3-0.2,0.4-0.3c0.1-0.1,0.2-0.3,0.2-0.5c0.1-0.2,0.1-0.4,0.1-0.6l0-0.6l0-0.6l0-0.5l0-0.4
		c-0.1,0-0.1,0-0.1,0l-0.1,0l-0.1,0c0,0.1,0,0.3,0,0.5L276.4,27.3L276.4,27.3z M270.3,26.3L270.3,26.3c0.1-0.1,0.1-0.1,0.1-0.2
		c0-0.1,0-0.1,0.1-0.2l-0.2-0.1c-0.1,0-0.1-0.1-0.2-0.1c-0.1,0-0.2-0.1-0.3-0.1c-0.1,0-0.2,0-0.4,0c-0.3,0-0.5,0-0.7,0.1
		c-0.2,0.1-0.4,0.2-0.5,0.4c-0.2,0.2-0.3,0.3-0.4,0.6c-0.1,0.2-0.1,0.5-0.1,0.8c0,0.3,0,0.6,0.1,0.8c0.1,0.2,0.2,0.4,0.3,0.6
		c0.1,0.2,0.3,0.3,0.5,0.3c0.2,0.1,0.5,0.1,0.7,0.1c0.1,0,0.2,0,0.3,0c0.1,0,0.2,0,0.3-0.1c0.1,0,0.2,0,0.3-0.1
		c0.1,0,0.2-0.1,0.2-0.1l0-0.2v-0.2l0-0.7l0-0.4c0,0-0.1,0-0.1,0l-0.1,0c-0.1,0-0.1,0-0.2,0l0,0.3l0,0.4l0,0.3l0,0.3
		c0,0-0.1,0.1-0.1,0.1c-0.1,0-0.1,0-0.2,0.1c-0.1,0-0.1,0-0.2,0l-0.2,0c-0.2,0-0.4,0-0.6-0.1c-0.2-0.1-0.3-0.2-0.4-0.3
		c-0.1-0.1-0.2-0.3-0.3-0.5c-0.1-0.2-0.1-0.4-0.1-0.7c0-0.3,0-0.5,0.1-0.7c0.1-0.2,0.2-0.4,0.3-0.5c0.1-0.1,0.3-0.2,0.4-0.3
		c0.2-0.1,0.3-0.1,0.5-0.1c0.1,0,0.2,0,0.3,0c0.1,0,0.2,0.1,0.3,0.1c0.1,0,0.2,0.1,0.2,0.2C270.2,26.1,270.3,26.2,270.3,26.3
		L270.3,26.3z M262.7,26.9v0.9c0,0.2,0,0.4,0,0.7l0,0.6c0.1,0,0.3,0,0.4,0h0.4h0.4c0.1,0,0.3,0,0.4,0c0,0,0-0.1,0-0.1v-0.1l0-0.1
		c-0.1,0-0.2,0-0.3,0l-0.3,0l-0.3,0h-0.3l0-0.3v-0.5v-0.3v-0.2v-0.1l0-0.1l0.2,0l0.3,0c0.1,0,0.2,0,0.3,0l0.3,0c0-0.1,0-0.1,0-0.2
		c0-0.1,0-0.1,0-0.2l-0.2,0l-0.2,0l-0.3,0l-0.4,0l0-0.3v-0.4l0-0.3l0-0.3c0.1,0,0.3,0,0.4,0l0.3,0l0.2,0l0.3,0c0-0.1,0-0.1,0-0.2
		c0-0.1,0-0.1,0-0.2l-0.4,0l-0.4,0l-0.4,0l-0.4,0l0,0.6C262.7,26.5,262.7,26.7,262.7,26.9L262.7,26.9z M257.6,28.4L257.6,28.4
		c-0.1,0.1-0.1,0.2-0.1,0.2c0,0.1,0,0.1-0.1,0.2c0.1,0.1,0.2,0.1,0.3,0.2c0.1,0.1,0.3,0.1,0.4,0.1c0.2,0,0.3,0,0.5-0.1
		c0.1-0.1,0.3-0.1,0.3-0.2c0.1-0.1,0.2-0.2,0.2-0.4c0.1-0.1,0.1-0.3,0.1-0.4c0-0.2,0-0.3-0.1-0.4c-0.1-0.1-0.2-0.2-0.3-0.3
		c-0.1-0.1-0.2-0.1-0.3-0.2c-0.1-0.1-0.2-0.1-0.3-0.2c-0.1-0.1-0.2-0.1-0.3-0.2c-0.1-0.1-0.1-0.2-0.1-0.4c0-0.1,0-0.2,0-0.3
		c0-0.1,0.1-0.1,0.1-0.2c0.1-0.1,0.1-0.1,0.2-0.1c0.1,0,0.1,0,0.2,0c0.1,0,0.2,0,0.2,0.1c0.1,0,0.1,0.1,0.2,0.1c0,0,0.1,0.1,0.1,0.2
		c0,0.1,0,0.1,0.1,0.2h0.1c0-0.1,0-0.2,0.1-0.2c0-0.1,0-0.1,0.1-0.2c-0.1-0.1-0.2-0.1-0.3-0.2c-0.1,0-0.2-0.1-0.4-0.1
		c-0.1,0-0.3,0-0.4,0.1c-0.1,0-0.2,0.1-0.3,0.2c-0.1,0.1-0.1,0.2-0.2,0.3c0,0.1-0.1,0.2-0.1,0.4c0,0.2,0,0.4,0.1,0.5
		c0.1,0.1,0.2,0.2,0.3,0.3c0.1,0.1,0.2,0.1,0.3,0.2c0.1,0.1,0.2,0.1,0.3,0.2c0.1,0.1,0.2,0.1,0.3,0.2c0.1,0.1,0.1,0.2,0.1,0.4
		c0,0.1,0,0.2,0,0.3c0,0.1-0.1,0.2-0.1,0.2c-0.1,0.1-0.1,0.1-0.2,0.2c-0.1,0-0.2,0.1-0.3,0.1c-0.1,0-0.2,0-0.3,0
		c-0.1,0-0.1-0.1-0.2-0.1c-0.1-0.1-0.1-0.1-0.1-0.2C257.6,28.6,257.6,28.5,257.6,28.4L257.6,28.4z"/>
	<path class="st7" d="M261.5,32.5l0.2,0.4c0.2,0.6,0.5,1.2,0.7,1.8c0.2,0.6,0.5,1.1,0.7,1.7c0.2,0.5,0.4,1,0.6,1.3
		c-0.2,0-0.3,0-0.4,0h-0.4h-0.4c-0.1,0-0.3,0-0.4,0l-0.3-0.9c-0.1-0.3-0.2-0.6-0.3-1l-0.6,0l-0.6,0l-0.5,0l-0.5,0
		c-0.1,0.3-0.2,0.6-0.4,1c-0.1,0.3-0.2,0.6-0.3,0.9c-0.1,0-0.2,0-0.2,0H258h-0.2c-0.1,0-0.2,0-0.3,0l0.3-0.7l0.4-1l0.5-1.2
		c0.2-0.4,0.4-0.8,0.5-1.3c0.2-0.4,0.3-0.8,0.5-1.1L261.5,32.5L261.5,32.5z M265.1,32.5c0,0.4,0,0.8,0,1.4v1.3c0,0.5,0,1,0,1.4
		c0,0.4,0,0.8-0.1,1.2c0.1,0,0.2,0,0.4,0h0.4h0.4c0.1,0,0.2,0,0.4,0c0-0.4,0-0.8-0.1-1.2c0-0.4,0-0.9,0-1.4v-0.5
		c0.7,0,1.5,0,2.2,0.1c0-0.1,0-0.2,0-0.2l0-0.2c0-0.1,0-0.1,0-0.2l0-0.2l-1.1,0c-0.3,0-0.7,0-1.1,0v-1c0-0.2,0-0.3,0-0.5L265.1,32.5
		L265.1,32.5z M270.4,32.5c0,0.4,0,0.8,0,1.4v1.3c0,0.5,0,1,0,1.4c0,0.4,0,0.8-0.1,1.2c0.1,0,0.2,0,0.4,0h0.4h0.4c0.1,0,0.2,0,0.4,0
		c0-0.4,0-0.8-0.1-1.2c0-0.4,0-0.9,0-1.4v-1.3c0-0.5,0-1,0-1.4L270.4,32.5L270.4,32.5z M273.9,32.5c0,0.4,0,0.8,0,1.4v1.3
		c0,0.5,0,1,0,1.4c0,0.4,0,0.8-0.1,1.2c0.1,0,0.2,0,0.4,0h0.4h0.4c0.1,0,0.2,0,0.4,0c0-0.4,0-0.8-0.1-1.2c0-0.4,0-0.9,0-1.4v-0.4
		h0.1l1.7,2.9c0.1,0,0.3,0,0.4,0h0.4h0.4c0.1,0,0.3,0,0.4,0l-1.1-1.6c-0.4-0.5-0.7-1.1-1-1.6c0.5-0.1,0.9-0.3,1.1-0.6
		c0.3-0.3,0.4-0.7,0.4-1.1c0-0.1,0-0.2,0-0.3l-1.5,0c0,0.1,0,0.3,0,0.5c0,0.4-0.1,0.8-0.3,1c-0.2,0.2-0.6,0.3-1,0.3h-0.1l-0.1,0
		c0-0.6,0-1.2,0-1.8L273.9,32.5L273.9,32.5z M281.2,32.5c-0.1,0.7-0.2,1.3-0.3,2c-0.2,1.1-0.3,2.1-0.6,3.2c0.1,0,0.2,0,0.2,0h0.2
		h0.2c0.1,0,0.2,0,0.2,0l0.2-2.1c0.1-0.7,0.1-1.4,0.2-2.1c0.4,0.7,1.8,3.5,2.1,4.2l0.1,0h0.1h0.1l0.1,0c0.3-0.7,0.7-1.4,1.1-2.1
		l1.1-2.2c0.1,0.7,0.2,1.5,0.2,2.2c0.1,0.7,0.1,1.4,0.2,2.1c0.1,0,0.3,0,0.4,0h0.4h0.4c0.1,0,0.3,0,0.4,0c-0.1-0.3-0.1-0.7-0.2-1.2
		c-0.1-0.5-0.1-1.1-0.2-1.6l-0.2-1.8l-0.1-0.5H286c-0.2,0.3-0.3,0.7-0.5,1c-0.4,0.8-0.8,1.5-1.2,2.2l-0.6-1l-0.6-1.1l-0.5-1.1H281.2
		L281.2,32.5z M290,32.5c0,0.4,0,0.8,0,1.4v1.3c0,0.5,0,1,0,1.4c0,0.4,0,0.8-0.1,1.2l0.2,0h0.3h0.6h1h1l0.7,0c0,0,0-0.1,0-0.1
		c0-0.1,0-0.1,0-0.2c0-0.1,0-0.2,0-0.2l0-0.2c-0.4,0-0.7,0.1-1.1,0.1c-0.4,0-0.7,0-1.1,0c0-0.4,0-0.8,0-1.2v-0.6c0-0.2,0-0.4,0-0.6
		c0.7,0,1.5,0,2.2,0.1c0-0.1,0-0.2,0-0.2l0-0.2c0-0.1,0-0.1,0-0.2l0-0.2l-1.1,0c-0.3,0-0.7,0-1.1,0v-1c0-0.2,0-0.3,0-0.5L290,32.5
		L290,32.5z M260.2,33c-0.2,0.4-0.3,0.7-0.5,1.1c-0.1,0.4-0.3,0.7-0.4,1.1h1.8c-0.1-0.4-0.3-0.8-0.4-1.1
		C260.5,33.7,260.4,33.4,260.2,33L260.2,33z"/>
	<path class="st7" d="M259.7,32.5c0,0,0-0.1,0.1-0.1c0.2-0.4,0.3-0.8,0.5-1.1l0.2,0c0.1,0,0.1,0,0.2,0c0.1,0,0.1,0,0.2,0l0.2,0
		l0.5,1.3H259.7L259.7,32.5z M266.5,32.5c0-0.2,0-0.4,0-0.5l0.4,0l0.6,0l0.7,0l0.6,0l0-0.2c0-0.1,0-0.1,0-0.2c0-0.2,0-0.3,0-0.4
		c-0.1,0-0.4,0-0.8,0c-0.4,0-0.8,0-1.3,0c-0.3,0-0.6,0-0.9,0l-0.9,0c0,0.4,0,0.8,0.1,1.2c0,0,0,0,0,0L266.5,32.5L266.5,32.5z
		 M271.8,32.5C271.8,32.5,271.8,32.5,271.8,32.5c0-0.4,0-0.8,0.1-1.2l-0.4,0c-0.1,0-0.3,0-0.4,0c-0.2,0-0.3,0-0.4,0l-0.4,0
		c0,0.4,0,0.8,0.1,1.2c0,0,0,0,0,0L271.8,32.5L271.8,32.5z M275.4,32.5c0-0.2,0-0.5,0-0.7c0.3,0,0.5,0,0.7,0c0.2,0,0.3,0.1,0.5,0.2
		c0.1,0.1,0.2,0.2,0.3,0.4c0,0,0,0.1,0,0.1l1.5,0c0-0.1-0.1-0.3-0.1-0.4c-0.1-0.2-0.3-0.4-0.5-0.5c-0.1-0.1-0.2-0.1-0.3-0.1
		c-0.1,0-0.2-0.1-0.3-0.1c-0.1,0-0.3,0-0.4-0.1c-0.2,0-0.4,0-0.6,0c-0.3,0-0.6,0-0.8,0c-0.2,0-0.4,0-0.6,0c-0.2,0-0.3,0-0.4,0
		l-0.4,0c0,0.4,0,0.8,0.1,1.2c0,0,0,0,0,0L275.4,32.5L275.4,32.5z M282.7,32.5L282.7,32.5l-0.6-1.2l-0.2,0l-0.2,0
		c-0.1,0-0.1,0-0.2,0l-0.2,0c-0.1,0.4-0.1,0.8-0.2,1.2L282.7,32.5L282.7,32.5z M287.6,32.5l-0.1-1.2c-0.2,0-0.3,0-0.4,0
		c-0.1,0-0.3,0-0.4,0c-0.2,0.4-0.4,0.8-0.6,1.2L287.6,32.5L287.6,32.5z M291.4,32.5c0-0.2,0-0.4,0-0.5l0.4,0l0.6,0l0.7,0l0.6,0
		l0-0.2c0-0.1,0-0.1,0-0.2c0-0.2,0-0.3,0-0.4c-0.1,0-0.4,0-0.8,0c-0.4,0-0.8,0-1.3,0c-0.3,0-0.6,0-0.9,0l-0.9,0c0,0.4,0,0.8,0.1,1.2
		c0,0,0,0,0,0L291.4,32.5L291.4,32.5z"/>
	<polygon class="st8" points="257.1,30.2 294.2,30.2 294.2,30.8 257.1,30.8 257.1,30.2 	"/>
	<path class="st9" d="M246.6,24.3l-2.7-4.1l-12,17.6h5.2l4.8-7c0,0-1,0.6-2-0.2c-1-0.8-0.1-2.3-0.1-2.3l4.3-6.5l2,2.9L246.6,24.3
		L246.6,24.3z M249.8,28.8l-2.8-3.9l-8.8,13h5.3l2.5-3.5c0,0-1.3,0.5-2.1-0.5c-0.8-1-0.2-1.9,0.1-2.4c0.3-0.5,3.4-5,3.4-5l2,2.8
		L249.8,28.8L249.8,28.8z M255.9,37.8l-5.8-8.4l-5.8,8.4h10.2l-0.7-0.9h-3.9c0,0-3.2-0.3-1.6-2.7l2.1-3.1l4.7,6.7H255.9L255.9,37.8z
		"/>
</g>
<g>
	<path class="st10" d="M344.4,53.3h-1.8v-3.8c0-0.5-0.1-0.8-0.2-1.1s-0.4-0.4-0.7-0.4c-0.5,0-0.8,0.2-1,0.5s-0.3,0.9-0.3,1.7v3.1
		h-1.8v-6.6h1.4l0.2,0.8h0.1c0.2-0.3,0.4-0.5,0.8-0.7s0.7-0.3,1.1-0.3c1,0,1.6,0.3,2,1h0.2c0.2-0.3,0.4-0.5,0.8-0.7s0.7-0.3,1.2-0.3
		c0.7,0,1.3,0.2,1.7,0.6s0.6,1,0.6,1.8v4.3h-1.8v-3.8c0-0.5-0.1-0.8-0.2-1.1s-0.4-0.4-0.7-0.4c-0.4,0-0.8,0.2-1,0.5
		s-0.3,0.8-0.3,1.5V53.3z"/>
	<path class="st10" d="M354.5,53.3l-0.3-0.9h0c-0.3,0.4-0.6,0.6-0.9,0.8s-0.7,0.2-1.2,0.2c-0.6,0-1.1-0.2-1.5-0.5s-0.5-0.9-0.5-1.5
		c0-0.7,0.2-1.2,0.7-1.5s1.2-0.5,2.2-0.5l1.1,0v-0.3c0-0.7-0.3-1-1-1c-0.5,0-1.1,0.2-1.8,0.5l-0.6-1.2c0.8-0.4,1.6-0.6,2.5-0.6
		c0.9,0,1.6,0.2,2,0.6s0.7,1,0.7,1.7v4.4H354.5z M353.9,50.3l-0.7,0c-0.5,0-0.9,0.1-1.2,0.3s-0.4,0.4-0.4,0.8c0,0.5,0.3,0.8,0.9,0.8
		c0.4,0,0.7-0.1,1-0.4s0.4-0.6,0.4-0.9V50.3z M352,46v-0.2c0.7-0.8,1.1-1.4,1.4-1.8h2v0.1c-0.2,0.2-0.5,0.5-1,0.9s-0.9,0.7-1.2,0.9
		H352z"/>
	<path class="st10" d="M362.1,51.4c0,0.7-0.2,1.2-0.7,1.5s-1.2,0.5-2.1,0.5c-0.5,0-0.9,0-1.2-0.1s-0.7-0.2-0.9-0.3v-1.5
		c0.3,0.2,0.7,0.3,1.1,0.4s0.8,0.2,1.1,0.2c0.6,0,1-0.2,1-0.6c0-0.1,0-0.3-0.1-0.3s-0.2-0.2-0.4-0.3s-0.5-0.2-0.8-0.4
		c-0.5-0.2-0.9-0.4-1.1-0.6s-0.4-0.4-0.5-0.6s-0.2-0.5-0.2-0.9c0-0.6,0.2-1,0.7-1.4s1.1-0.5,1.9-0.5c0.8,0,1.6,0.2,2.3,0.5l-0.5,1.3
		c-0.3-0.1-0.6-0.3-0.9-0.3S360,48,359.7,48c-0.5,0-0.8,0.1-0.8,0.4c0,0.2,0.1,0.3,0.3,0.4s0.5,0.3,1.1,0.5c0.5,0.2,0.9,0.4,1.1,0.6
		s0.4,0.4,0.5,0.6S362.1,51,362.1,51.4z"/>
	<path class="st10" d="M363.3,52.5c0-0.3,0.1-0.6,0.3-0.7s0.4-0.3,0.8-0.3c0.3,0,0.6,0.1,0.8,0.3s0.3,0.4,0.3,0.7
		c0,0.3-0.1,0.6-0.3,0.7s-0.4,0.3-0.8,0.3c-0.3,0-0.6-0.1-0.8-0.3S363.3,52.8,363.3,52.5z"/>
	<path class="st10" d="M366.7,52.5c0-0.3,0.1-0.6,0.3-0.7s0.4-0.3,0.8-0.3c0.3,0,0.6,0.1,0.8,0.3s0.3,0.4,0.3,0.7
		c0,0.3-0.1,0.6-0.3,0.7s-0.4,0.3-0.8,0.3c-0.3,0-0.6-0.1-0.8-0.3S366.7,52.8,366.7,52.5z"/>
	<path class="st10" d="M370.1,52.5c0-0.3,0.1-0.6,0.3-0.7s0.4-0.3,0.8-0.3c0.3,0,0.6,0.1,0.8,0.3s0.3,0.4,0.3,0.7
		c0,0.3-0.1,0.6-0.3,0.7s-0.4,0.3-0.8,0.3c-0.3,0-0.6-0.1-0.8-0.3S370.1,52.8,370.1,52.5z"/>
</g>
</svg>
