<?xml version="1.0" encoding="utf-8"?>
<!-- Generator: Adobe Illustrator 22.1.0, SVG Export Plug-In . SVG Version: 6.00 Build 0)  -->
<svg version="1.1" id="Capa_1" xmlns="http://www.w3.org/2000/svg" xmlns:xlink="http://www.w3.org/1999/xlink" x="0px" y="0px"
	 viewBox="0 0 380 62" style="enable-background:new 0 0 380 62;" xml:space="preserve">
<style type="text/css">
	.st0{fill:#000F9F;}
	.st1{fill:#009EE2;}
	.st2{fill:#FFFFFF;}
	.st3{clip-path:url(#XMLID_11_);}
	.st4{clip-path:url(#XMLID_17_);}
	.st5{clip-path:url(#XMLID_18_);}
	.st6{fill:#253B80;}
	.st7{fill:#179BD7;}
	.st8{fill:#222D65;}
	.st9{clip-path:url(#XMLID_22_);}
	.st10{clip-path:url(#XMLID_23_);}
</style>
<image style="overflow:visible;" width="107" height="51" xlink:href="../../../../Users/dcruzgue/Documents/SIU/recursos/PayU_107x51.png"  transform="matrix(0.5169 0 0 0.5169 214.1754 18.5763)">
</image>
<g>
	<g>
		<path class="st0" d="M327.1,30.4c0-4-5-7.3-11.2-7.3c-6.2,0-11.2,3.3-11.2,7.3c0,0.1,0,0.4,0,0.4c0,4.3,4.4,7.8,11.2,7.8
			c6.9,0,11.2-3.5,11.2-7.8C327.1,30.6,327.1,30.5,327.1,30.4z"/>
		<path class="st1" d="M326.7,30.4c0,3.8-4.8,6.9-10.8,6.9c-6,0-10.8-3.1-10.8-6.9c0-3.8,4.8-6.9,10.8-6.9
			C321.8,23.4,326.7,26.5,326.7,30.4z"/>
		<g>
			<path class="st2" d="M312.3,28.2c0,0-0.1,0.1,0,0.2c0.2,0.2,0.7,0.3,1.2,0.2c0.3-0.1,0.7-0.4,1.1-0.7c0.4-0.3,0.8-0.7,1.3-0.8
				c0.5-0.1,0.7-0.1,0.9,0c0.2,0.1,0.5,0.2,0.8,0.5c0.7,0.6,3.7,3.1,4.2,3.6c0.4-0.2,2.3-1,4.7-1.5c-0.2-1.3-1-2.5-2.3-3.5
				c-1.7,0.7-3.8,1.1-5.8,0.1c0,0-1.1-0.5-2.2-0.5c-1.6,0-2.3,0.7-3.1,1.5L312.3,28.2z"/>
			<path class="st2" d="M321.7,31.4c0,0-3.5-3.1-4.3-3.6c-0.5-0.3-0.7-0.4-1-0.5c-0.1,0-0.3,0-0.5,0c-0.4,0.1-0.8,0.4-1.3,0.8
				c-0.4,0.3-0.9,0.7-1.2,0.8c-0.5,0.1-1.1,0-1.4-0.2c-0.1-0.1-0.2-0.2-0.2-0.2c-0.1-0.2,0.1-0.4,0.1-0.5l1-1
				c0.1-0.1,0.2-0.2,0.3-0.3c-0.3,0-0.6,0.1-0.9,0.2c-0.3,0.1-0.7,0.2-1,0.2c-0.1,0-0.9-0.1-1-0.2c-0.9-0.2-1.6-0.5-2.8-1
				c-1.4,1-2.3,2.3-2.5,3.7c0.2,0.1,0.5,0.1,0.6,0.2c3.1,0.7,4,1.4,4.2,1.5c0.2-0.2,0.5-0.3,0.8-0.3c0.3,0,0.6,0.2,0.8,0.4
				c0.2-0.1,0.4-0.3,0.7-0.3c0.1,0,0.3,0,0.4,0.1c0.3,0.1,0.5,0.3,0.6,0.6c0.1-0.1,0.3-0.1,0.4-0.1c0.2,0,0.3,0,0.5,0.1
				c0.6,0.2,0.7,0.8,0.6,1.2c0,0,0.1,0,0.1,0c0.7,0,1.2,0.5,1.2,1.2c0,0.2-0.1,0.4-0.1,0.6c0.2,0.1,0.6,0.3,1.1,0.3
				c0.3,0,0.5-0.2,0.5-0.2c0,0,0.1-0.1,0-0.1l-0.9-1c0,0-0.1-0.1-0.1-0.2c0-0.1,0.1,0,0.2,0.1c0.4,0.4,1,0.9,1,0.9
				c0,0,0,0.1,0.2,0.1c0.2,0,0.5,0,0.7-0.2c0.1,0,0.1-0.1,0.2-0.2c0,0,0,0,0,0c0.2-0.3,0-0.6,0-0.6l-1-1.1c0,0-0.1-0.1-0.1-0.2
				c0,0,0.1,0,0.2,0.1c0.3,0.3,0.8,0.7,1.2,1.1c0.1,0.1,0.5,0.3,1,0c0.3-0.2,0.4-0.4,0.4-0.6c0-0.2-0.2-0.4-0.2-0.4l-1.4-1.4
				c0,0-0.1-0.1-0.1-0.2c0-0.1,0.1,0,0.2,0.1c0.4,0.4,1.6,1.5,1.6,1.5c0,0,0.4,0.3,0.9,0c0.2-0.1,0.3-0.3,0.3-0.5
				C322,31.6,321.7,31.4,321.7,31.4z"/>
			<path class="st2" d="M315,33.2c-0.2,0-0.4,0.1-0.5,0.1c0,0,0-0.1,0-0.1c0,0,0.3-0.9-0.4-1.2c-0.5-0.2-0.8,0-1,0.1c0,0,0,0,0,0
				c0-0.2-0.1-0.6-0.5-0.7c-0.6-0.2-1.1,0.3-1.2,0.4c0-0.4-0.4-0.7-0.7-0.7c-0.4,0-0.8,0.3-0.8,0.8c0,0.4,0.3,0.8,0.8,0.8
				c0.2,0,0.4-0.1,0.5-0.2c0,0,0,0,0,0c0,0.2-0.1,0.9,0.6,1.1c0.3,0.1,0.5,0,0.7-0.1c0.1,0,0.1,0,0.1,0c0,0.2,0,0.5,0.5,0.8
				c0.4,0.2,0.6,0,0.8-0.1c0.1-0.1,0.1-0.1,0.1,0c0,0.5,0.4,0.9,0.9,0.9c0.5,0,0.9-0.4,0.9-0.9C316,33.6,315.5,33.2,315,33.2z"/>
		</g>
		<path class="st0" d="M321.9,31.1c-1.1-0.9-3.5-3.1-4.2-3.6c-0.4-0.3-0.6-0.4-0.9-0.5c-0.1,0-0.2-0.1-0.4-0.1c-0.2,0-0.4,0-0.5,0.1
			c-0.4,0.1-0.9,0.5-1.3,0.8l0,0c-0.4,0.3-0.8,0.6-1.1,0.7c-0.1,0-0.3,0-0.4,0c-0.3,0-0.6-0.1-0.8-0.2c0,0,0-0.1,0-0.1l0,0l0.9-1
			c0.7-0.7,1.4-1.4,3-1.5c0,0,0.1,0,0.1,0c1,0,2,0.4,2.1,0.5c0.9,0.5,1.9,0.7,2.9,0.7c1,0,2-0.2,3.1-0.8c-0.1-0.1-0.2-0.2-0.4-0.3
			c-1,0.4-1.9,0.6-2.8,0.6c-0.9,0-1.8-0.2-2.7-0.6c0,0-1.1-0.5-2.3-0.5c0,0-0.1,0-0.1,0c-1.3,0-2.1,0.5-2.6,0.9
			c-0.5,0-0.9,0.1-1.3,0.2c-0.3,0.1-0.6,0.2-0.9,0.2c-0.1,0-0.3,0-0.3,0c-0.3,0-2-0.4-3.3-0.9c-0.1,0.1-0.3,0.2-0.4,0.3
			c1.4,0.6,3,1,3.6,1c0.1,0,0.3,0,0.5,0c0.3,0,0.7-0.1,1-0.2c0.2-0.1,0.4-0.1,0.6-0.2c-0.1,0.1-0.1,0.1-0.2,0.2l-1,1
			c-0.1,0.1-0.2,0.3-0.1,0.5c0,0.1,0.1,0.2,0.3,0.3c0.2,0.2,0.6,0.3,1,0.3c0.1,0,0.3,0,0.4,0c0.4-0.1,0.8-0.4,1.3-0.8
			c0.4-0.3,0.9-0.6,1.2-0.7c0.1,0,0.2,0,0.3,0c0,0,0.1,0,0.1,0c0.3,0,0.5,0.1,0.9,0.4c0.8,0.6,4.2,3.6,4.3,3.6c0,0,0.2,0.2,0.2,0.5
			c0,0.2-0.1,0.3-0.3,0.4c-0.1,0.1-0.3,0.1-0.5,0.1c-0.2,0-0.4-0.1-0.4-0.1c0,0-1.2-1.1-1.6-1.5c-0.1-0.1-0.1-0.1-0.2-0.1
			c0,0-0.1,0-0.1,0c-0.1,0.1,0,0.2,0.1,0.3l1.4,1.4c0,0,0.2,0.2,0.2,0.4c0,0.2-0.1,0.4-0.3,0.6c-0.2,0.1-0.3,0.2-0.5,0.2
			c-0.2,0-0.4-0.1-0.4-0.1l-0.2-0.2c-0.4-0.4-0.7-0.7-1-1c-0.1-0.1-0.1-0.1-0.2-0.1c0,0-0.1,0-0.1,0c0,0-0.1,0.1,0,0.2
			c0,0,0.1,0.1,0.1,0.1l1,1.1c0,0,0.2,0.2,0,0.5l0,0c0,0-0.1,0.1-0.1,0.1c-0.2,0.1-0.4,0.2-0.5,0.2c0,0-0.1,0-0.1,0
			c-0.1,0-0.2,0-0.2-0.1l0,0c-0.1-0.1-0.6-0.6-1-0.9c-0.1,0-0.1-0.1-0.2-0.1c0,0-0.1,0-0.1,0c-0.1,0.1,0,0.2,0.1,0.3l0.9,1
			c0,0,0,0,0,0.1c0,0-0.1,0.1-0.4,0.2c0,0-0.1,0-0.1,0c-0.3,0-0.7-0.2-0.8-0.3c0.1-0.2,0.1-0.4,0.1-0.5c0-0.7-0.6-1.3-1.3-1.3
			c0,0,0,0,0,0c0-0.3,0-0.9-0.7-1.2c-0.2-0.1-0.4-0.1-0.5-0.1c-0.1,0-0.3,0-0.4,0.1c-0.1-0.3-0.3-0.4-0.6-0.5
			c-0.2-0.1-0.3-0.1-0.5-0.1c-0.3,0-0.5,0.1-0.7,0.2c-0.2-0.3-0.5-0.4-0.8-0.4c-0.3,0-0.6,0.1-0.8,0.3c-0.3-0.2-1.3-0.9-4.2-1.5
			c-0.1,0-0.5-0.1-0.6-0.2c0,0.2-0.1,0.3-0.1,0.5c0,0,0.5,0.1,0.6,0.1c2.9,0.6,3.9,1.3,4,1.4c-0.1,0.1-0.1,0.3-0.1,0.4
			c0,0.6,0.5,1.1,1.1,1.1c0.1,0,0.1,0,0.2,0c0.1,0.4,0.4,0.8,0.8,0.9c0.1,0,0.3,0.1,0.4,0.1c0.1,0,0.2,0,0.2,0
			c0.1,0.2,0.3,0.5,0.7,0.6c0.1,0.1,0.3,0.1,0.4,0.1c0.1,0,0.2,0,0.3-0.1c0.2,0.5,0.7,0.8,1.2,0.8c0.3,0,0.7-0.1,0.9-0.4
			c0.2,0.1,0.6,0.3,1.1,0.3c0.1,0,0.1,0,0.2,0c0.4-0.1,0.6-0.2,0.7-0.4c0,0,0,0,0-0.1c0.1,0,0.2,0.1,0.3,0.1c0.2,0,0.5-0.1,0.7-0.3
			c0.2-0.2,0.4-0.4,0.4-0.6c0,0,0,0,0,0c0.1,0,0.2,0,0.2,0c0.2,0,0.5-0.1,0.7-0.2c0.4-0.3,0.5-0.7,0.5-0.9c0.1,0,0.2,0,0.2,0
			c0.2,0,0.5-0.1,0.7-0.2c0.3-0.2,0.4-0.4,0.5-0.8c0-0.2,0-0.4-0.1-0.6c0.8-0.3,2.5-0.9,4.5-1.4c0-0.2,0-0.3-0.1-0.5
			C324.1,30.1,322.3,30.9,321.9,31.1z M315,35c-0.5,0-0.9-0.4-0.9-0.8c0,0,0-0.1-0.1-0.1c0,0-0.1,0-0.1,0.1
			c-0.1,0.1-0.2,0.2-0.4,0.2c-0.1,0-0.2,0-0.3-0.1c-0.5-0.2-0.5-0.5-0.5-0.7c0,0,0-0.1,0-0.1l0,0h0c0,0-0.1,0-0.1,0
			c-0.1,0.1-0.3,0.2-0.4,0.2c-0.1,0-0.2,0-0.2,0c-0.7-0.3-0.6-0.9-0.6-1.1c0,0,0-0.1,0-0.1l0,0l0,0c-0.1,0.1-0.3,0.2-0.5,0.2
			c-0.4,0-0.7-0.3-0.7-0.7c0-0.4,0.3-0.7,0.7-0.7c0.3,0,0.6,0.3,0.7,0.6l0,0.2l0.1-0.2c0,0,0.3-0.4,0.8-0.4c0.1,0,0.2,0,0.3,0
			c0.4,0.1,0.5,0.5,0.5,0.6c0,0.1,0.1,0.1,0.1,0.1c0,0,0.1,0,0.1,0c0.1-0.1,0.2-0.2,0.5-0.2c0.1,0,0.2,0,0.4,0.1
			c0.6,0.3,0.4,1.1,0.3,1.1c-0.1,0.1-0.1,0.2,0,0.2l0,0h0c0,0,0.1,0,0.1,0c0.1,0,0.2-0.1,0.3-0.1h0c0.5,0,0.9,0.4,0.9,0.9
			C315.9,34.6,315.5,35,315,35z"/>
	</g>
	<g>
		<path class="st0" d="M365.4,25.7c-0.4-0.5-1-0.8-1.8-0.8c-0.8,0-1.4,0.3-1.8,0.8c-0.4,0.5-0.6,1.1-0.6,1.8c0,0.7,0.2,1.3,0.6,1.8
			c0.4,0.5,1,0.8,1.8,0.8c0.8,0,1.4-0.3,1.8-0.8c0.4-0.5,0.6-1.1,0.6-1.8C366,26.8,365.8,26.2,365.4,25.7z M364.4,28.6
			c-0.2,0.3-0.5,0.4-0.8,0.4c-0.4,0-0.6-0.1-0.8-0.4c-0.2-0.3-0.3-0.6-0.3-1.1c0-0.5,0.1-0.9,0.3-1.1c0.2-0.3,0.5-0.4,0.8-0.4
			c0.4,0,0.6,0.1,0.8,0.4c0.2,0.3,0.3,0.6,0.3,1.1C364.7,28,364.6,28.3,364.4,28.6z"/>
		<path class="st0" d="M355,25.2c-0.4-0.2-0.9-0.3-1.4-0.3c-0.8,0-1.4,0.2-1.7,0.6c-0.2,0.3-0.3,0.6-0.4,1h1.2
			c0-0.2,0.1-0.3,0.2-0.4c0.1-0.1,0.3-0.2,0.6-0.2c0.3,0,0.5,0,0.6,0.1c0.1,0.1,0.2,0.2,0.2,0.4c0,0.2-0.1,0.3-0.3,0.4
			c-0.1,0-0.3,0.1-0.5,0.1l-0.4,0.1c-0.5,0.1-0.9,0.2-1.1,0.3c-0.5,0.3-0.7,0.7-0.7,1.3c0,0.5,0.1,0.8,0.4,1.1
			c0.3,0.2,0.6,0.4,1.1,0.4c2.8,0.1,2.7-1.4,2.7-1.8v-1.8C355.6,25.9,355.4,25.5,355,25.2z M354.4,28c0,0.4-0.1,0.7-0.4,0.9
			c-0.2,0.2-0.5,0.2-0.8,0.2c-0.2,0-0.3,0-0.4-0.1c-0.1-0.1-0.2-0.3-0.2-0.5c0-0.2,0.1-0.4,0.3-0.5c0.1-0.1,0.3-0.1,0.6-0.2l0.3-0.1
			c0.1,0,0.3-0.1,0.3-0.1c0.1,0,0.2-0.1,0.2-0.1V28z"/>
		<path class="st0" d="M348.7,26c0.3,0,0.5,0.1,0.7,0.3c0.1,0.1,0.2,0.3,0.2,0.5h1.4c-0.1-0.7-0.3-1.2-0.7-1.4
			c-0.4-0.3-0.9-0.4-1.6-0.4c-0.7,0-1.3,0.2-1.8,0.7c-0.4,0.5-0.6,1.1-0.6,1.9c0,0.7,0.2,1.3,0.6,1.8c0.4,0.5,1,0.7,1.8,0.7
			c0.8,0,1.4-0.3,1.8-0.8c0.3-0.3,0.4-0.7,0.4-1.1h-1.4c0,0.3-0.1,0.5-0.2,0.6c-0.1,0.2-0.4,0.2-0.7,0.2c-0.4,0-0.7-0.2-0.9-0.6
			c-0.1-0.2-0.1-0.5-0.1-0.8c0-0.4,0-0.7,0.1-0.9C348,26.2,348.3,26,348.7,26z"/>
		<path class="st0" d="M345.9,25c-2.8,0-2.6,2.5-2.6,2.5v2.5h1.3v-2.4c0-0.4,0-0.7,0.1-0.9c0.2-0.3,0.5-0.5,1-0.5c0,0,0.1,0,0.1,0
			c0.1,0,0.1,0,0.2,0V25C346,25,346,25,345.9,25C346,25,346,25,345.9,25z"/>
		<path class="st0" d="M341.3,28.6c-0.1,0.1-0.1,0.1-0.2,0.2c-0.2,0.1-0.4,0.2-0.7,0.2c-0.3,0-0.5,0-0.7-0.2c-0.3-0.2-0.5-0.5-0.5-1
			h3.5c0-0.4,0-0.7,0-1c-0.1-0.4-0.2-0.7-0.4-1c-0.2-0.3-0.5-0.6-0.8-0.7c-0.3-0.1-0.7-0.2-1.1-0.2c-0.7,0-1.3,0.2-1.7,0.7
			c-0.4,0.4-0.7,1.1-0.7,1.9c0,0.9,0.2,1.5,0.7,1.9c0.5,0.4,1.1,0.6,1.7,0.6c0.8,0,1.4-0.2,1.8-0.7c0.2-0.2,0.4-0.5,0.4-0.7H341.3z
			 M339.6,26.3c0.2-0.2,0.4-0.3,0.8-0.3c0.3,0,0.5,0.1,0.7,0.3c0.2,0.2,0.3,0.4,0.3,0.8h-2.2C339.3,26.7,339.4,26.4,339.6,26.3z"/>
		<g>
			<path class="st0" d="M337.5,29.9h-1.2V27c0-0.3-0.1-0.9-0.8-0.9c-0.5,0-0.9,0.4-0.9,0.9v2.9h-1.2V27c0-0.3-0.1-0.9-0.8-0.9
				c-0.5,0-0.9,0.4-0.9,0.9v2.9h-1.2V27c0-1.2,0.8-2.1,2-2.1c0.6,0,1.1,0.3,1.4,0.7c0.3-0.4,0.8-0.7,1.4-0.7c1.3,0,2,0.9,2,2.1V29.9
				z"/>
		</g>
		<path class="st0" d="M360.7,23.4c0,0-1.3-0.1-1.3,0.9l0,1.4c-0.1-0.2-0.3-0.4-0.6-0.5c-0.2-0.1-0.5-0.2-0.8-0.2
			c-0.6,0-1.1,0.2-1.5,0.7c-0.4,0.5-0.6,1.1-0.6,2c0,0.7,0.2,1.3,0.6,1.7c0.4,0.5,1.1,0.7,1.8,0.7c2.3,0,2.3-2,2.3-2L360.7,23.4z
			 M359.2,28.6c-0.2,0.3-0.5,0.4-0.8,0.4c-0.4,0-0.6-0.1-0.8-0.4c-0.2-0.3-0.3-0.7-0.3-1.1c0-0.4,0.1-0.8,0.3-1
			c0.2-0.3,0.4-0.4,0.8-0.4c0.2,0,0.5,0.1,0.6,0.2c0.3,0.3,0.4,0.7,0.4,1.3C359.4,28,359.4,28.3,359.2,28.6z"/>
	</g>
	<g>
		<g>
			<path class="st1" d="M339.8,38c0,0.2-0.1,0.3-0.2,0.4c-0.1,0.1-0.3,0.2-0.4,0.2h-0.6v-4.4c0-0.9,0.3-1.4,0.8-1.8
				c0.3-0.2,0.8-0.5,1.7-0.5c0.6,0,1.3,0.2,1.7,0.7c0.4,0.5,0.6,1.1,0.6,1.8c0,0.8-0.2,1.4-0.6,1.9c-0.4,0.5-0.8,0.7-1.4,0.7
				c-0.3,0-0.6-0.1-0.8-0.2c-0.2-0.1-0.4-0.3-0.6-0.6V38z M341.9,34.5c0-0.5-0.1-0.8-0.3-1.1c-0.2-0.3-0.5-0.4-0.8-0.4
				c-0.3,0-0.6,0.1-0.8,0.4c-0.2,0.2-0.3,0.6-0.3,1.1c0,0.5,0.1,0.8,0.3,1c0.2,0.3,0.5,0.4,0.8,0.4c0.3,0,0.6-0.1,0.8-0.4
				C341.8,35.3,341.9,35,341.9,34.5"/>
			<path class="st1" d="M351.6,36.6v-0.3c-0.2,0.3-0.5,0.6-0.9,0.6c-0.4,0.1-0.7,0.1-1.1-0.1c-0.4-0.1-0.7-0.4-0.9-0.8
				c-0.3-0.4-0.4-0.9-0.4-1.6c0-0.8,0.2-1.4,0.5-1.8c0.3-0.5,0.9-0.7,1.7-0.7c0.8,0,1.2,0.2,1.6,0.5c0.5,0.4,0.7,0.9,0.7,1.8v2.6
				c0,0.8-0.6,2.3-2.4,2.2c-1.1-0.1-1.7-0.5-2.1-1.6h1.3c0.1,0.2,0.2,0.3,0.4,0.4c0.2,0.1,0.4,0.1,0.6,0.1c0.2,0,0.4-0.2,0.5-0.4
				C351.4,37.3,351.5,37,351.6,36.6 M349.5,34.5c0,0.8,0.2,1.3,0.7,1.4c0.5,0.1,0.8,0,1.1-0.3c0.1-0.1,0.2-0.3,0.2-0.6
				c0-0.3,0.1-0.6,0-0.9c0-0.3-0.1-0.5-0.3-0.8c-0.2-0.2-0.4-0.3-0.7-0.3c-0.4,0-0.7,0.2-0.8,0.5C349.5,33.8,349.5,34.1,349.5,34.5"
				/>
			<path class="st1" d="M347.2,32.3c-0.4-0.2-0.9-0.3-1.4-0.3c-0.8,0-1.4,0.2-1.7,0.6c-0.2,0.3-0.3,0.6-0.4,1h1.2
				c0-0.2,0.1-0.3,0.2-0.4c0.1-0.1,0.3-0.2,0.6-0.2c0.3,0,0.5,0,0.6,0.1c0.1,0.1,0.2,0.2,0.2,0.4c0,0.2-0.1,0.3-0.3,0.4
				c-0.1,0-0.3,0.1-0.5,0.1l-0.4,0.1c-0.5,0.1-0.9,0.2-1.1,0.3c-0.5,0.3-0.7,0.7-0.7,1.3c0,0.5,0.1,0.8,0.4,1.1
				c0.3,0.2,0.6,0.4,1.1,0.4c2.7,0.1,2.7-1.4,2.7-1.8v-1.8C347.8,32.9,347.6,32.5,347.2,32.3 M346.5,35c0,0.4-0.1,0.7-0.4,0.9
				c-0.2,0.2-0.5,0.2-0.8,0.2c-0.2,0-0.3,0-0.4-0.1c-0.1-0.1-0.2-0.3-0.2-0.5c0-0.2,0.1-0.4,0.3-0.5c0.1-0.1,0.3-0.1,0.6-0.2
				l0.3-0.1c0.1,0,0.3-0.1,0.3-0.1c0.1,0,0.2-0.1,0.2-0.1V35z"/>
			<path class="st1" d="M357.6,32.7c-0.4-0.5-1-0.8-1.8-0.8c-0.8,0-1.4,0.3-1.8,0.8c-0.4,0.5-0.6,1.1-0.6,1.8c0,0.7,0.2,1.3,0.6,1.8
				c0.4,0.5,1,0.8,1.8,0.8c0.8,0,1.4-0.3,1.8-0.8c0.4-0.5,0.6-1.1,0.6-1.8C358.2,33.8,358,33.2,357.6,32.7 M356.6,35.6
				c-0.2,0.3-0.5,0.4-0.8,0.4s-0.7-0.1-0.8-0.4c-0.2-0.3-0.3-0.6-0.3-1.1c0-0.5,0.1-0.9,0.3-1.1c0.2-0.3,0.5-0.4,0.8-0.4
				s0.6,0.1,0.8,0.4c0.2,0.3,0.3,0.6,0.3,1.1C356.9,35,356.8,35.3,356.6,35.6"/>
		</g>
	</g>
</g>
<g id="XMLID_4_">
	<g id="XMLID_87_">
		<g id="XMLID_88_">
			<defs>
				<rect id="XMLID_52_" x="114.4" y="23.8" width="64.6" height="17.2"/>
			</defs>
			<clipPath id="XMLID_9_">
				<use xlink:href="#XMLID_52_"  style="overflow:visible;"/>
			</clipPath>
		</g>
	</g>
	<g id="XMLID_82_">
		<g id="XMLID_83_">
			<defs>
				<rect id="XMLID_50_" x="114.4" y="23.8" width="64.6" height="17.2"/>
			</defs>
			<clipPath id="XMLID_11_">
				<use xlink:href="#XMLID_50_"  style="overflow:visible;"/>
			</clipPath>
			<g id="XMLID_85_" class="st3">
				<defs>
					<rect id="XMLID_51_" x="114.4" y="23.8" width="64.6" height="17.2"/>
				</defs>
				<clipPath id="XMLID_16_">
					<use xlink:href="#XMLID_51_"  style="overflow:visible;"/>
				</clipPath>
			</g>
		</g>
	</g>
	<g id="XMLID_75_">
		<g id="XMLID_76_">
			<defs>
				<rect id="XMLID_47_" x="114.4" y="23.8" width="64.6" height="17.2"/>
			</defs>
			<clipPath id="XMLID_17_">
				<use xlink:href="#XMLID_47_"  style="overflow:visible;"/>
			</clipPath>
			<g id="XMLID_78_" class="st4">
				<defs>
					<rect id="XMLID_48_" x="114.4" y="23.8" width="64.6" height="17.2"/>
				</defs>
				<clipPath id="XMLID_18_">
					<use xlink:href="#XMLID_48_"  style="overflow:visible;"/>
				</clipPath>
				<g id="XMLID_80_" class="st5">
					<defs>
						<rect id="XMLID_49_" x="114.4" y="23.8" width="64.6" height="17.2"/>
					</defs>
					<clipPath id="XMLID_19_">
						<use xlink:href="#XMLID_49_"  style="overflow:visible;"/>
					</clipPath>
				</g>
			</g>
		</g>
	</g>
	<g id="XMLID_72_">
		<g id="XMLID_73_">
			<defs>
				<rect id="XMLID_46_" x="114.4" y="23.8" width="64.6" height="17.2"/>
			</defs>
			<clipPath id="XMLID_20_">
				<use xlink:href="#XMLID_46_"  style="overflow:visible;"/>
			</clipPath>
		</g>
	</g>
	<g id="XMLID_12_">
		<g id="XMLID_13_">
			<g id="XMLID_14_">
				<g id="XMLID_15_">
					<path id="XMLID_57_" class="st6" d="M138.9,30.6c-0.2,1.3-1.2,1.3-2.1,1.3h-0.5l0.4-2.4c0-0.1,0.1-0.3,0.3-0.3h0.2
						c0.6,0,1.3,0,1.6,0.4C138.9,29.8,139,30.2,138.9,30.6z M138.5,27.3H135c-0.2,0-0.5,0.2-0.5,0.4l-1.4,9.1c0,0.2,0.1,0.3,0.3,0.3
						h1.7c0.2,0,0.5-0.2,0.5-0.4l0.4-2.5c0-0.2,0.2-0.4,0.5-0.4h1.1c2.3,0,3.7-1.1,4.1-3.4c0.2-1,0-1.8-0.5-2.3
						C140.6,27.6,139.7,27.3,138.5,27.3z"/>
					<path id="XMLID_54_" class="st6" d="M146.8,33.9c-0.2,1-0.9,1.6-1.9,1.6c-0.5,0-0.9-0.2-1.1-0.5c-0.3-0.3-0.3-0.7-0.3-1.2
						c0.2-1,0.9-1.6,1.9-1.6c0.5,0,0.9,0.2,1.1,0.5C146.8,33,146.9,33.4,146.8,33.9z M149.2,30.6h-1.7c-0.1,0-0.3,0.1-0.3,0.3
						l-0.1,0.5l-0.1-0.2c-0.4-0.5-1.2-0.7-2-0.7c-1.9,0-3.5,1.4-3.8,3.4c-0.2,1,0.1,2,0.6,2.6c0.5,0.6,1.3,0.9,2.1,0.9
						c1.5,0,2.4-1,2.4-1l-0.1,0.5c0,0.2,0.1,0.3,0.3,0.3h1.5c0.2,0,0.5-0.2,0.5-0.4l0.9-5.8C149.5,30.7,149.3,30.6,149.2,30.6z"/>
					<path id="XMLID_33_" class="st6" d="M158.2,30.6h-1.7c-0.2,0-0.3,0.1-0.4,0.2l-2.4,3.5l-1-3.3c-0.1-0.2-0.3-0.4-0.5-0.4h-1.7
						c-0.2,0-0.3,0.2-0.3,0.4l1.9,5.5l-1.8,2.5c-0.1,0.2,0,0.5,0.2,0.5h1.7c0.2,0,0.3-0.1,0.4-0.2l5.7-8.2
						C158.6,30.8,158.5,30.6,158.2,30.6z"/>
					<path id="XMLID_38_" class="st7" d="M164.3,30.6c-0.2,1.3-1.2,1.3-2.1,1.3h-0.5l0.4-2.4c0-0.1,0.1-0.3,0.3-0.3h0.2
						c0.6,0,1.3,0,1.6,0.4C164.3,29.8,164.4,30.2,164.3,30.6z M163.9,27.3h-3.6c-0.2,0-0.5,0.2-0.5,0.4l-1.4,9.1
						c0,0.2,0.1,0.3,0.3,0.3h1.8c0.2,0,0.3-0.1,0.3-0.3l0.4-2.6c0-0.2,0.2-0.4,0.5-0.4h1.1c2.3,0,3.7-1.1,4.1-3.4
						c0.2-1,0-1.8-0.5-2.3C166,27.6,165.1,27.3,163.9,27.3z"/>
					<path id="XMLID_21_" class="st7" d="M172.2,33.9c-0.2,1-0.9,1.6-1.9,1.6c-0.5,0-0.9-0.2-1.1-0.5c-0.3-0.3-0.3-0.7-0.3-1.2
						c0.2-1,0.9-1.6,1.9-1.6c0.5,0,0.9,0.2,1.1,0.5C172.2,33,172.3,33.4,172.2,33.9z M174.6,30.6h-1.7c-0.1,0-0.3,0.1-0.3,0.3
						l-0.1,0.5l-0.1-0.2c-0.4-0.5-1.2-0.7-2-0.7c-1.9,0-3.5,1.4-3.8,3.4c-0.2,1,0.1,2,0.6,2.6c0.5,0.6,1.3,0.9,2.1,0.9
						c1.5,0,2.4-1,2.4-1l-0.1,0.5c0,0.2,0.1,0.3,0.3,0.3h1.5c0.2,0,0.5-0.2,0.5-0.4l0.9-5.8C174.9,30.7,174.8,30.6,174.6,30.6z"/>
					<path id="XMLID_28_" class="st7" d="M176.6,27.5l-1.5,9.3c0,0.2,0.1,0.3,0.3,0.3h1.5c0.2,0,0.5-0.2,0.5-0.4l1.4-9.1
						c0-0.2-0.1-0.3-0.3-0.3h-1.6C176.7,27.3,176.6,27.4,176.6,27.5z"/>
					<path id="XMLID_27_" class="st6" d="M118.2,38.9l0.3-1.7l-0.6,0H115l2-12.8c0,0,0-0.1,0.1-0.1c0,0,0.1,0,0.1,0h4.9
						c1.6,0,2.7,0.3,3.3,1c0.3,0.3,0.4,0.6,0.5,1c0.1,0.4,0.1,0.8,0,1.4l0,0v0.4l0.3,0.2c0.2,0.1,0.4,0.3,0.6,0.4
						c0.2,0.3,0.4,0.6,0.5,1c0.1,0.4,0,0.9-0.1,1.5c-0.1,0.6-0.3,1.2-0.6,1.7c-0.3,0.4-0.6,0.8-1,1c-0.4,0.3-0.8,0.5-1.3,0.6
						c-0.5,0.1-1,0.2-1.6,0.2h-0.4c-0.3,0-0.5,0.1-0.7,0.3c-0.2,0.2-0.3,0.4-0.4,0.7l0,0.2l-0.5,3l0,0.1c0,0,0,0.1,0,0.1
						c0,0,0,0-0.1,0H118.2z"/>
					<path id="XMLID_26_" class="st7" d="M126.5,27.8c0,0.1,0,0.2-0.1,0.3c-0.6,3.3-2.8,4.5-5.7,4.5h-1.4c-0.3,0-0.6,0.2-0.7,0.6
						l-0.7,4.7l-0.2,1.3c0,0.2,0.1,0.4,0.4,0.4h2.5c0.3,0,0.6-0.2,0.6-0.5l0-0.1l0.5-3l0-0.2c0-0.3,0.3-0.5,0.6-0.5h0.4
						c2.5,0,4.4-1,5-3.9c0.2-1.2,0.1-2.2-0.5-2.9C127,28.1,126.7,27.9,126.5,27.8z"/>
					<path id="XMLID_25_" class="st8" d="M125.8,27.5c-0.1,0-0.2-0.1-0.3-0.1c-0.1,0-0.2,0-0.3-0.1c-0.4-0.1-0.8-0.1-1.3-0.1h-3.8
						c-0.1,0-0.2,0-0.3,0.1c-0.2,0.1-0.3,0.3-0.3,0.5l-0.8,5.2l0,0.2c0.1-0.3,0.3-0.6,0.7-0.6h1.4c2.8,0,5-1.1,5.7-4.5
						c0-0.1,0-0.2,0.1-0.3c-0.2-0.1-0.3-0.2-0.5-0.2C125.9,27.5,125.8,27.5,125.8,27.5z"/>
					<path id="XMLID_24_" class="st6" d="M119.5,27.8c0-0.2,0.2-0.4,0.3-0.5c0.1,0,0.2-0.1,0.3-0.1h3.8c0.5,0,0.9,0,1.3,0.1
						c0.1,0,0.2,0,0.3,0.1c0.1,0,0.2,0,0.3,0.1c0,0,0.1,0,0.1,0c0.2,0.1,0.4,0.1,0.5,0.2c0.2-1.2,0-2.1-0.7-2.8
						c-0.7-0.8-2-1.2-3.7-1.2h-4.9c-0.3,0-0.6,0.2-0.7,0.6l-2,12.9c0,0.3,0.2,0.5,0.4,0.5h3l0.8-4.8L119.5,27.8z"/>
				</g>
			</g>
		</g>
	</g>
	<g id="XMLID_5_">
		<g id="XMLID_6_">
			<defs>
				<polyline id="XMLID_1_" points="179,23.8 179,40.9 114.4,40.9 114.4,23.8 				"/>
			</defs>
			<clipPath id="XMLID_22_">
				<use xlink:href="#XMLID_1_"  style="overflow:visible;"/>
			</clipPath>
			<g id="XMLID_8_" class="st9">
				<defs>
					<polyline id="XMLID_2_" points="179,23.8 179,40.9 114.4,40.9 114.4,23.8 					"/>
				</defs>
				<clipPath id="XMLID_23_">
					<use xlink:href="#XMLID_2_"  style="overflow:visible;"/>
				</clipPath>
				<g id="XMLID_10_" class="st10">
					<defs>
						<polyline id="XMLID_3_" points="179,23.8 179,40.9 114.4,40.9 114.4,23.8 						"/>
					</defs>
					<clipPath id="XMLID_39_">
						<use xlink:href="#XMLID_3_"  style="overflow:visible;"/>
					</clipPath>
				</g>
			</g>
		</g>
	</g>
</g>
</svg>
