<?xml version="1.0" encoding="utf-8"?>
<!-- Generator: Adobe Illustrator 22.1.0, SVG Export Plug-In . SVG Version: 6.00 Build 0)  -->
<svg version="1.1" id="Capa_1" xmlns="http://www.w3.org/2000/svg" xmlns:xlink="http://www.w3.org/1999/xlink" x="0px" y="0px"
	 viewBox="0 0 380 62" style="enable-background:new 0 0 380 62;" xml:space="preserve">
<style type="text/css">
	.st0{fill:#E20613;}
	.st1{fill:#002F87;}
	.st2{fill:none;}
	.st3{fill:#2071B7;}
	.st4{fill:#1C9AD7;}
	.st5{fill:#61B4E4;}
	.st6{fill:#9ACAEB;}
	.st7{fill:#BAD8EB;}
	.st8{fill:#EC2024;}
	.st9{fill:#104B84;}
	.st10{fill:#1D1D1B;}
	.st11{fill:#FFFFFF;}
	.st12{fill:#E42613;}
	.st13{fill:#0023A0;}
	.st14{fill:#FFAB00;}
	.st15{fill:#E20D17;}
	.st16{fill:#EA610A;}
	.st17{fill:#F59E00;}
	.st18{fill:url(#SVGID_1_);}
	.st19{fill:#E51E36;}
	.st20{fill:url(#SVGID_2_);}
	.st21{fill-rule:evenodd;clip-rule:evenodd;fill:#FFFFFF;}
</style>
<g>
	<path class="st0" d="M17.4-29.3c-0.4-0.7-0.5-1.6-0.5-2.4c0-2.5,2.2-4.5,4.5-4.5h7.2l-2.8,2.8h-4.4C19.5-33.4,17.3-31.6,17.4-29.3
		L17.4-29.3z M20.1-31.3c0.2-0.6,0.8-1.3,1.3-1.7c-1,0-2.2,0.5-3.1,1.7H20.1L20.1-31.3z M21.6-32.7c-0.4,0.4-0.9,0.9-1.1,1.4h2.2
		C22.4-31.8,21.9-32.3,21.6-32.7L21.6-32.7z M18.1-30.9c-0.3,0.5-0.4,1-0.4,1.6h2c0-0.5,0.1-1.1,0.3-1.6H18.1L18.1-30.9z M20.3-30.9
		c-0.2,0.5-0.3,1-0.3,1.6h3c0-0.5-0.1-1.1-0.3-1.6H20.3L20.3-30.9z M24.7-31.3c-0.9-1.3-2-1.7-3-1.7c0.5,0.4,1.1,1.2,1.3,1.7H24.7
		L24.7-31.3z M23.1-30.9c0.2,0.5,0.3,1,0.3,1.6h2c0-0.5-0.2-1.1-0.4-1.6H23.1L23.1-30.9z M18.3-27.2c0.9,1.3,2.1,1.8,3.1,1.8
		c-0.5-0.4-1.1-1.2-1.3-1.8H18.3L18.3-27.2z M21.6-25.7c0.4-0.4,0.8-0.9,1.1-1.4h-2.2C20.7-26.7,21.1-26.1,21.6-25.7L21.6-25.7z
		 M20-27.5c-0.2-0.5-0.3-1.1-0.3-1.6h-2c0,0.5,0.2,1.1,0.4,1.6H20L20-27.5z M22.8-27.5c0.2-0.5,0.3-1,0.3-1.6h-3
		c0,0.5,0.1,1.1,0.3,1.6H22.8L22.8-27.5z M23-27.2c-0.2,0.6-0.8,1.3-1.3,1.8c1,0,2.2-0.4,3-1.8H23L23-27.2z M25-27.5
		c0.3-0.5,0.4-1,0.4-1.6h-2c0,0.5-0.1,1-0.3,1.6H25L25-27.5z M25.7-29.2c0,2.4-2.1,4.2-3.9,4.2h-4.4l-2.8,2.8h7.2
		c2.3,0,4.5-2.1,4.5-4.5C26.3-27.5,26.2-28.5,25.7-29.2L25.7-29.2L25.7-29.2z"/>
	<polygon class="st0" points="93.8,-33.3 95.6,-33.3 95.6,-33 94.9,-33 94.9,-31 94.6,-31 94.6,-33 93.8,-33 	"/>
	<path class="st0" d="M97.7-31v-1.3c0-0.1,0-0.3,0-0.5h0L97.1-31h-0.3l-0.6-1.8h0c0,0.2,0,0.5,0,0.5v1.3h-0.3v-2.2h0.4l0.6,1.9h0
		l0.6-1.9H98v2.2H97.7L97.7-31z"/>
	<path class="st0" d="M46.7-25.4c-1.9,0-3.2-1.1-3.2-2.9c0-1.7,1.4-2.9,3.2-2.9c1.8,0,3.2,1.1,3.2,2.9
		C49.9-26.6,48.5-25.4,46.7-25.4L46.7-25.4z M78.6-31.1v5.5h-1.9l0-0.6h0c-0.2,0.2-0.6,0.7-1.8,0.7c-1.3,0-2.5-1.2-2.5-2.9
		c0-1.6,1-2.9,2.6-2.9c1.1,0,1.5,0.5,1.7,0.6h0l0-0.5L78.6-31.1L78.6-31.1z M64.2-31.1v5.5h-1.9l0-0.6h0c-0.2,0.2-0.6,0.7-1.8,0.7
		c-1.3,0-2.5-1.2-2.5-2.9c0-1.6,1-2.9,2.6-2.9c1.1,0,1.5,0.5,1.7,0.6h0l0-0.5L64.2-31.1L64.2-31.1z M55.2-31.1h1.9v5.5h-1.9V-31.1
		L55.2-31.1z M65.5-25.6v-7.8h1.9v2.7h0c0.1-0.1,0.8-0.5,1.7-0.5c1.5,0,2.6,1.2,2.6,2.8c0,2-1.2,3-2.6,3c-1,0-1.6-0.5-1.7-0.6h0
		l0,0.5H65.5L65.5-25.6z M46.7-26.8c0.8,0,1.2-0.7,1.2-1.5c0-0.8-0.4-1.5-1.2-1.5c-0.8,0-1.2,0.7-1.2,1.5
		C45.5-27.5,45.9-26.8,46.7-26.8L46.7-26.8z M54.3-27.1c-0.1,0-0.4,0.1-0.5,0.1c-0.4,0-0.8-0.2-0.8-0.9v-1.9h1.2v-1.4h-1.2v-1.8H51
		v1.8h-0.8v1.4H51v2.2c0,1.2,0.6,2.1,2,2.1c0.4,0,0.8-0.1,1-0.1L54.3-27.1L54.3-27.1z M32.5-25.8c0.5,0.2,1.3,0.3,2.2,0.3
		c1.6,0,3.3-0.6,3.3-2.4c0-2.5-3.4-2.1-3.4-3.1c0-0.5,0.5-0.6,1-0.6c0.7,0,1.6,0.3,1.8,0.4l0.2-1.7c-0.5-0.2-1.2-0.3-2-0.3
		c-1.6,0-3.2,0.6-3.2,2.2c0,2.4,3.4,1.9,3.4,3.2c0,0.5-0.5,0.7-1.1,0.7c-0.9,0-1.7-0.4-2-0.6L32.5-25.8L32.5-25.8z M74.3-28.4
		c0,0.9,0.5,1.5,1.2,1.5c0.6,0,1.2-0.6,1.2-1.4c0-0.9-0.5-1.4-1.2-1.4C74.8-29.7,74.3-29.1,74.3-28.4L74.3-28.4z M60-28.4
		c0,0.9,0.5,1.5,1.2,1.5c0.6,0,1.2-0.6,1.2-1.4c0-0.9-0.5-1.4-1.2-1.4C60.5-29.7,60-29.1,60-28.4L60-28.4z M43-31
		c-0.1,0-0.7-0.2-1.4-0.2c-1.7,0-3,1.1-3,2.9c0,1.6,1.2,2.9,2.9,2.9c0.8,0,1.3-0.2,1.4-0.2l-0.1-1.6c-0.1,0.1-0.5,0.3-1,0.3
		c-0.8,0-1.3-0.5-1.3-1.3c0-0.8,0.6-1.3,1.4-1.3c0.4,0,0.8,0.2,0.9,0.3L43-31L43-31z M86.7-25.5h1.9v-2.5h0l1.7,2.5h2.1l-2-2.9
		l2-2.6h-2.1l-1.6,2.3h0v-4.5h-1.9L86.7-25.5L86.7-25.5z M79.8-25.6h1.9v-2.8c0-0.7,0.4-1.1,1-1.1c0.6,0,1,0.4,1,1.1v2.8h1.9v-3.3
		c0-1.2-0.8-2.3-2.3-2.3c-1,0-1.5,0.5-1.7,0.7h0l0-0.6h-1.7L79.8-25.6L79.8-25.6z M56.1-33.8c-0.6,0-1.1,0.5-1.1,1.1
		c0,0.6,0.5,1.1,1.1,1.1c0.6,0,1.1-0.5,1.1-1.1C57.2-33.4,56.7-33.8,56.1-33.8L56.1-33.8z M69.7-28.3c0-0.7-0.4-1.4-1.2-1.4
		c-0.6,0-1.2,0.5-1.2,1.4c0,0.8,0.4,1.4,1.2,1.4C69.2-26.9,69.7-27.5,69.7-28.3L69.7-28.3z"/>
</g>
<g>
	<g>
		<path class="st1" d="M226.3,35.4v-7.8h2.3c0.4,0,0.7,0,1.1,0.1c0.3,0.1,0.6,0.2,0.9,0.4c0.2,0.1,0.3,0.3,0.4,0.5
			c0.1,0.3,0.2,0.6,0.2,0.9c0,0.4-0.1,0.7-0.2,1c-0.2,0.3-0.4,0.4-0.6,0.6c-0.1,0-0.1,0.1-0.2,0.1c0.1,0,0.3,0.1,0.4,0.1
			c0.2,0.1,0.4,0.3,0.6,0.5c0.1,0.1,0.2,0.3,0.3,0.5c0.1,0.2,0.1,0.5,0.1,0.8c0,0.4-0.1,0.8-0.3,1.1c-0.2,0.3-0.4,0.5-0.7,0.7
			c-0.2,0.1-0.4,0.2-0.7,0.3c-0.3,0.1-0.7,0.1-1.1,0.1L226.3,35.4 M228.7,34.7c0.3,0,0.6,0,0.8-0.1c0.2-0.1,0.5-0.2,0.6-0.3
			c0.1-0.1,0.2-0.2,0.3-0.4c0.1-0.2,0.1-0.4,0.1-0.7c0-0.3-0.1-0.6-0.2-0.7c-0.1-0.2-0.3-0.3-0.5-0.5c-0.1-0.1-0.3-0.1-0.5-0.2
			c-0.2-0.1-0.5-0.1-0.9-0.1h-1.4v2.9L228.7,34.7L228.7,34.7z M228.5,31c0.3,0,0.5,0,0.8-0.1c0.2-0.1,0.4-0.2,0.6-0.3
			c0.1-0.1,0.2-0.2,0.2-0.3c0.1-0.2,0.1-0.4,0.1-0.6c0-0.3-0.1-0.5-0.2-0.7c-0.1-0.2-0.2-0.3-0.4-0.4c-0.1-0.1-0.3-0.1-0.4-0.1
			c-0.2,0-0.4-0.1-0.7-0.1h-1.4V31C227.2,31,228.5,31,228.5,31z"/>
		<path class="st1" d="M236.6,30.4c-0.1-0.2-0.2-0.3-0.3-0.4c-0.2-0.2-0.4-0.3-0.7-0.4c-0.3-0.1-0.6-0.1-0.9-0.1
			c-1.1,0-1.7,0.3-2.1,0.6c0.3,0.6,0.6,0.5,1,0.3c0.3-0.1,0.7-0.2,1.1-0.2c0.2,0,0.4,0,0.6,0.1c0.1,0,0.2,0.1,0.3,0.1
			c0.1,0.1,0.2,0.2,0.3,0.3c0.1,0.1,0.1,0.3,0.1,0.5v0.8c-0.4-0.1-0.8-0.1-1.3-0.1c-0.3,0-0.6,0-0.9,0.1c-0.2,0.1-0.4,0.1-0.6,0.2
			c-0.3,0.1-0.5,0.3-0.6,0.6c-0.1,0.2-0.2,0.5-0.2,0.9c0,0.3,0,0.5,0.1,0.8c0.1,0.3,0.4,0.6,0.7,0.7c0.3,0.2,0.7,0.3,1.1,0.3
			c0,0,0,0,0,0c0.5,0,0.9-0.1,1.2-0.2c0.2-0.1,0.4-0.2,0.6-0.4c0,0.1,0,0.1,0,0.2c0,0.1,0,0.1,0.1,0.2c0,0,0,0.1,0.1,0.1
			c0.1,0,0.1,0.1,0.2,0.1c0.1,0,0.1,0,0.2,0h0.3v-4.2C236.7,30.9,236.7,30.7,236.6,30.4 M235.9,34c-0.2,0.2-0.4,0.4-0.7,0.6
			c-0.3,0.1-0.6,0.2-1,0.2c-0.2,0-0.3,0-0.5-0.1c-0.1,0-0.2-0.1-0.3-0.1c-0.1-0.1-0.2-0.2-0.3-0.3c-0.1-0.2-0.1-0.3-0.1-0.6
			c0-0.2,0-0.4,0.1-0.5c0.1-0.1,0.1-0.2,0.2-0.3c0.1-0.1,0.3-0.2,0.5-0.2c0.2-0.1,0.5-0.1,0.7-0.1c0.5,0,0.9,0.1,1.3,0.1L235.9,34
			L235.9,34z"/>
		<path class="st1" d="M241.9,35.4v-4.2c0-0.2,0-0.4-0.1-0.5c-0.1-0.1-0.1-0.2-0.2-0.3c-0.1,0-0.1-0.1-0.2-0.1c-0.1,0-0.3,0-0.4,0
			c-0.4,0-0.8,0.1-1.1,0.3c-0.3,0.2-0.7,0.4-1,0.6v4.3h-0.8v-5.8h0.4c0,0,0.1,0,0.1,0c0,0,0.1,0,0.1,0c0,0,0.1,0,0.1,0.1
			c0,0,0.1,0.1,0.1,0.1c0,0.1,0,0.1,0,0.2c0,0.1,0,0.2,0,0.3v0.1c0.3-0.2,0.6-0.4,0.9-0.5c0.4-0.2,0.9-0.3,1.4-0.3
			c0.2,0,0.5,0,0.7,0.1c0.2,0.1,0.4,0.2,0.5,0.3c0.1,0.1,0.2,0.2,0.2,0.4c0.1,0.2,0.1,0.5,0.1,0.8v4.3L241.9,35.4"/>
		<path class="st1" d="M250,35c-0.4-0.3-0.8-0.7-0.9-1.3c-0.1-0.4-0.2-0.8-0.2-1.2c0-0.7,0.2-1.3,0.4-1.7c0.3-0.5,0.7-0.8,1.2-1
			c0.3-0.1,0.7-0.2,1.1-0.2c0.6,0,1.1,0.2,1.6,0.5c0.4,0.3,0.8,0.7,1,1.3c0.1,0.4,0.2,0.8,0.2,1.2c0,0.7-0.1,1.3-0.4,1.7
			c-0.3,0.5-0.7,0.8-1.2,1c-0.3,0.1-0.7,0.2-1.1,0.2C251,35.5,250.5,35.3,250,35 M250.5,30.6c-0.3,0.2-0.5,0.5-0.7,1
			c-0.1,0.3-0.1,0.6-0.1,1c0,0.6,0.1,1,0.3,1.4c0.2,0.4,0.5,0.6,0.8,0.8c0.2,0.1,0.5,0.2,0.8,0.2c0.4,0,0.8-0.1,1.1-0.3
			c0.3-0.2,0.5-0.5,0.7-1c0.1-0.3,0.1-0.6,0.1-1c0-0.5-0.1-1-0.3-1.4c-0.2-0.4-0.5-0.6-0.8-0.8c-0.2-0.1-0.5-0.2-0.8-0.2
			C251.1,30.2,250.8,30.3,250.5,30.6z"/>
		<path class="st1" d="M262.4,35.4v-4.2c0-0.2,0-0.4-0.1-0.5c-0.1-0.1-0.1-0.2-0.2-0.3c-0.1,0-0.1-0.1-0.2-0.1c-0.1,0-0.2,0-0.4,0
			c-0.4,0-0.7,0.1-1,0.3c-0.3,0.1-0.6,0.4-0.8,0.6v4.4h-0.8v-4.2c0-0.2,0-0.4-0.1-0.5c-0.1-0.1-0.1-0.2-0.2-0.3
			c-0.1,0-0.1-0.1-0.2-0.1c-0.1,0-0.2,0-0.4,0c-0.4,0-0.7,0.1-1,0.3c-0.3,0.1-0.6,0.4-0.9,0.6v4.3h-0.8v-5.8h0.4c0,0,0.1,0,0.1,0
			c0,0,0.1,0,0.1,0c0,0,0.1,0,0.1,0.1c0,0,0.1,0.1,0.1,0.1c0,0.1,0,0.1,0,0.2c0,0.1,0,0.2,0,0.3v0c0.2-0.2,0.5-0.3,0.8-0.5
			c0.4-0.2,0.8-0.3,1.3-0.3c0.2,0,0.5,0,0.7,0.1c0.2,0.1,0.4,0.2,0.6,0.4c0.1,0.1,0.1,0.2,0.1,0.3c0.3-0.2,0.5-0.4,0.9-0.5
			c0.4-0.2,0.8-0.3,1.3-0.3c0.2,0,0.4,0,0.6,0.1c0.2,0.1,0.4,0.2,0.5,0.3c0.1,0.1,0.2,0.2,0.2,0.4c0.1,0.2,0.1,0.4,0.1,0.7v4.4
			L262.4,35.4"/>
		<path class="st1" d="M218.6,32.6l1.1-3.5l1.1,3.5H218.6 M221.4,28.5c-0.2-0.6-0.3-0.8-0.9-0.8H219l-2.4,7.8h1.2l0.5-1.7h2.8
			l0.5,1.7h2.1L221.4,28.5z"/>
		<path class="st1" d="M207.1,34.4v-5.7h1c0.5,0,0.9,0.4,0.9,0.9c0,0.2,0,0.3-0.2,0.6l-0.6,1c0.7,0.2,1.1,0.7,1.1,1.6
			c0,1.2-0.7,1.7-1.6,1.7L207.1,34.4 M209.6,30.7l0.4-0.6c0.8-1.2,0.2-2.5-1.3-2.5h-3.4v7.8h3.3C211.4,35.4,212.3,32.1,209.6,30.7"
			/>
		<path class="st1" d="M201.1,34.4h-0.5v-5.7h1c0.5,0,0.9,0.4,0.9,0.9c0,0.2,0,0.3-0.2,0.6l-0.7,1c0.7,0.2,1.1,0.7,1.1,1.6
			C202.7,33.9,202,34.4,201.1,34.4 M203.1,30.7l0.4-0.6c0.8-1.2,0.3-2.5-1.3-2.5h-3.4v7.8h3.3C204.9,35.4,205.7,32.1,203.1,30.7"/>
		<path class="st1" d="M213,28.7c-0.3-0.9-0.4-1-0.9-1h-1.4l2.5,7.8h1.9l2.4-7.8h-1.2l-1.8,5.9L213,28.7"/>
		<line class="st2" x1="198.7" y1="27.7" x2="202" y2="27.7"/>
		<path class="st1" d="M248.3,30.1c-0.3,0.6-0.6,0.4-1,0.3c-0.2-0.1-0.5-0.2-0.9-0.2c-0.4,0-0.8,0.1-1.1,0.3c-0.3,0.2-0.5,0.5-0.7,1
			c-0.1,0.3-0.1,0.6-0.1,1c0,0.4,0.1,0.8,0.2,1.1c0.1,0.3,0.3,0.6,0.5,0.7c0.1,0.1,0.3,0.2,0.5,0.3c0.2,0.1,0.5,0.1,0.8,0.1
			c0.4,0,0.7-0.1,1-0.2c0.4-0.2,0.7-0.4,1,0.2c-0.1,0.1-0.4,0.3-0.7,0.5c0,0-0.1,0-0.1,0.1c-0.3,0.1-0.7,0.2-1.2,0.2l0,0
			c-0.6,0-1.2-0.2-1.6-0.5c-0.4-0.3-0.8-0.7-0.9-1.3c-0.1-0.4-0.2-0.8-0.2-1.2c0-0.7,0.2-1.3,0.4-1.7c0.3-0.5,0.7-0.8,1.2-1
			c0.3-0.1,0.7-0.2,1.1-0.2C246.7,29.5,247.5,29.5,248.3,30.1"/>
		<path class="st1" d="M269,31.1c-0.1-0.3-0.2-0.5-0.3-0.7c-0.2-0.3-0.5-0.5-0.8-0.6c-0.3-0.1-0.7-0.2-1.1-0.2c-0.4,0-0.7,0.1-1,0.2
			c-0.5,0.2-0.9,0.6-1.1,1c-0.3,0.5-0.4,1.1-0.4,1.7c0,0.4,0.1,0.8,0.2,1.2c0.2,0.5,0.5,1,0.9,1.3c0.4,0.3,1,0.5,1.6,0.5h0
			c0.5,0,0.9-0.1,1.3-0.2c0.6-0.2,0.8-0.5,1-0.6c-0.4-0.5-0.6-0.3-1-0.1c-0.3,0.1-0.7,0.2-1.2,0.2c-0.3,0-0.6,0-0.9-0.1
			c-0.2-0.1-0.3-0.2-0.5-0.3c-0.2-0.2-0.4-0.4-0.5-0.7c-0.1-0.3-0.1-0.6-0.2-1h4.2v-0.1c0,0,0,0,0,0c0,0,0-0.1,0-0.2
			C269.2,31.8,269.1,31.4,269,31.1 M265,32c0-0.3,0.1-0.5,0.2-0.7c0.1-0.4,0.4-0.6,0.6-0.8c0.3-0.2,0.6-0.3,1-0.3
			c0.2,0,0.5,0,0.7,0.1c0.1,0.1,0.3,0.1,0.4,0.2c0.2,0.1,0.3,0.3,0.4,0.6c0.1,0.2,0.1,0.5,0.2,0.9L265,32L265,32z"/>
		<path class="st1" d="M272.6,29.6c-0.4,0-0.8,0.1-1.1,0.3c-0.2,0.1-0.4,0.3-0.6,0.4c0-0.1,0-0.2,0-0.3c0-0.1,0-0.1,0-0.2
			c0,0,0-0.1-0.1-0.1c0,0,0,0-0.1-0.1c0,0-0.1,0-0.1,0c0,0-0.1,0-0.1,0h-0.4v5.8h0.8v-4.2c0.3-0.3,0.5-0.5,0.7-0.7c0,0,0,0,0,0
			c0.3-0.2,0.6-0.3,0.8-0.3c0.4,0,0.6-0.1,0.7-0.7C273,29.6,272.8,29.6,272.6,29.6"/>
	</g>
	<g>
		<rect x="189.6" y="18.5" class="st1" width="3.8" height="3.8"/>
		<rect x="189.6" y="22.2" class="st3" width="3.8" height="3.8"/>
		<rect x="189.6" y="26" class="st4" width="3.8" height="3.8"/>
		<rect x="189.6" y="29.8" class="st5" width="3.8" height="3.8"/>
		<rect x="189.6" y="33.5" class="st6" width="3.8" height="3.8"/>
		<rect x="189.6" y="37.3" class="st7" width="3.8" height="3.8"/>
	</g>
</g>
<g>
	<path class="st8" d="M292.1-38.9c1-0.8,2.3-1.5,3.6-1.6c1,0,2-0.1,3,0.2c1.4,0.5,2.7,1.3,3.6,2.5l0.1,0.3c-0.5,0-1,0-1.5,0
		c-0.4-0.3-0.8-0.7-1.2-0.9c-1.8-1.2-4.2-1.2-5.9-0.1c-0.5,0.3-0.8,0.7-1.3,1c-0.5,0-1,0-1.5,0C291.1-38.1,291.6-38.5,292.1-38.9"/>
	<path class="st8" d="M358.6-38.9c0.6-0.3,1.4-0.6,2-0.4c0.6,0.3,1,1,1.4,1.6c0.5-0.5,0.7-1.3,1.4-1.4c1,0,1.8,0.7,2.4,1.4
		c0.4,0.5,0.8,1.1,0.6,1.7c-0.3,0.6-0.7,1-1.1,1.6c0.6,0.2,1.2,0.2,1.7,0.7c0.4,0.7,0.1,1.5-0.2,2.2c-0.3,0.6-0.7,1.3-1.3,1.6
		c-0.8,0.3-1.6-0.2-2.3-0.5c-0.1,0.7,0.3,1.6-0.4,2.1c-0.8,0.4-1.8,0.3-2.6,0.1c-0.6-0.2-1.3-0.4-1.5-1.1c-0.1-0.6-0.1-1.2,0-1.9
		c-0.7,0.2-1.5,0.8-2.1,0.2c-0.5-0.5-0.7-1.3-0.9-2c-0.1-0.7-0.2-1.5,0.3-2.1c0.6-0.4,1.3-0.5,2-0.7c-0.3-0.6-1.1-1.1-0.9-1.8
		C357.2-38.1,357.9-38.5,358.6-38.9 M359.2-36.8c-0.2,0.1-0.2,0.6,0.1,0.6c0.6-0.1,1.4-0.6,2,0c0.1-0.4,0.4-0.8,0.6-1.2
		C361-37.5,360-37.3,359.2-36.8 M363.2-36.1c0.3,0.5,0.8,1,0.5,1.6c0.4,0,0.9,0.1,1.3,0.2c-0.2-1-0.7-2-1.6-2.4
		C363-36.7,363.1-36.3,363.2-36.1 M359.3-34.3c0.5,0.6,0.8,1.5,0.8,2.3c0.8-0.3,1.7-0.4,2.5,0.1c-0.1-0.8,0.2-1.7,0.8-2.4
		c-0.8-0.2-1.6-0.7-2-1.5C360.8-35.1,360.1-34.5,359.3-34.3 M357.9-35.4c-0.2,0.6-0.4,1.1-0.4,1.8c0,0.4,0.1,1,0.5,1.3
		c0.7-0.5-0.1-1.7,0.8-2.1C358.5-34.7,358.2-35.1,357.9-35.4 M362.8-31.7c0.1,0.4,0.1,0.9,0.2,1.3c0.7-0.4,1.4-1.1,1.7-1.9
		c0.1-0.2,0-0.4,0-0.6C363.9-32.9,363.8-31.4,362.8-31.7 M358.6-31c0.8,0.7,1.8,1.2,2.9,1c0-0.2,0-0.5-0.2-0.5
		c-0.5-0.2-1.4-0.3-1.5-1C359.4-31.4,359-31.2,358.6-31"/>
	<path class="st9" d="M295.7-37.8c0.5-0.3,0.9-0.5,1.4-0.8c0,0.7,0,1.5,0,2.2c0.5,0,1,0,1.5,0c0,0.4,0,0.9,0,1.3h-1.5
		c0,1.2,0,2.5,0,3.7c0,0.3,0,0.6,0.3,0.8c0.5,0.2,1.1,0,1.5-0.3c-0.1,0.5-0.2,0.9-0.3,1.4c-0.6,0.3-1.4,0.5-2,0.1
		c-0.6-0.3-0.9-1-0.9-1.7c0-1.3,0-2.7,0-4c-0.4,0-0.8,0-1.2,0c0-0.5-0.1-0.9,0.1-1.4c0.4,0.1,0.8,0.1,1.2,0
		C295.7-36.8,295.7-37.3,295.7-37.8"/>
	<path class="st9" d="M303.8-37.8c0.5-0.3,0.9-0.5,1.4-0.8c0,0.9,0,1.9,0,2.8c0.6-0.5,1.3-0.8,2.1-0.8c1,0,1.9,0.6,2.3,1.5
		c0.5,1.1,0.5,2.3,0.3,3.4c-0.2,1.1-1.1,2.1-2.2,2.3c-0.9,0.2-1.8-0.1-2.5-0.7c0,0.2,0,0.4,0,0.6c-0.5,0-1,0-1.4,0
		C303.8-32.1,303.8-34.9,303.8-37.8 M305.2-34.3c0,1,0,2,0,3c0.4,0.4,0.8,0.7,1.3,0.8c0.7,0.2,1.4-0.1,1.8-0.7
		c0.4-0.8,0.4-1.7,0.2-2.6c-0.1-0.7-0.6-1.4-1.4-1.4C306.4-35.3,305.7-34.9,305.2-34.3"/>
	<path class="st9" d="M285.2-34.7c1.1-2,4.3-2.4,5.7-0.6c-0.1,0.4-0.5,0.7-0.8,1.1c-0.3-0.3-0.7-0.6-1.1-0.7c-1-0.3-2.1,0.2-2.5,1.1
		c-0.6,1.1-0.1,2.7,1.1,3.2c0.9,0.4,1.9,0,2.6-0.6c0.3,0.3,0.5,0.7,0.8,1c-0.6,0.7-1.3,1.1-2.2,1.2c-1.3,0.1-2.7-0.4-3.4-1.5
		C284.5-31.8,284.5-33.5,285.2-34.7"/>
	<path class="st9" d="M311.4-35.9c0.9-0.6,2.1-0.7,3.1-0.6c0.8,0.1,1.5,0.5,1.9,1.2c0.2,0.4,0.2,0.9,0.2,1.3c0,1.5,0,3.1,0,4.6
		c-0.5,0-1,0-1.4,0c0-0.2,0-0.5,0-0.7c-1,1-2.7,1.1-3.7,0.2c-0.7-0.6-0.9-1.7-0.6-2.6c0.2-0.7,0.9-1.1,1.5-1.3
		c0.9-0.3,1.9-0.2,2.8,0.1c0-0.6,0-1.2-0.6-1.5c-0.9-0.4-1.9-0.2-2.7,0.2C311.7-35.2,311.5-35.5,311.4-35.9 M312.3-32.2
		c-0.5,0.4-0.3,1.3,0.3,1.6c0.9,0.4,2,0.1,2.6-0.7c0.1-0.4,0-0.7,0-1.1c-0.4-0.2-0.8-0.3-1.3-0.3C313.4-32.6,312.7-32.6,312.3-32.2"
		/>
	<path class="st9" d="M319.3-35.8c0.9-0.8,2.3-1,3.3-0.4c0.8,0.5,1,1.5,1,2.4c0,1.5,0,3,0,4.5c-0.5,0-0.9,0-1.4,0c0-1.3,0-2.6,0-3.9
		c0-0.6-0.1-1.3-0.6-1.8c-0.5-0.3-1.1-0.3-1.6-0.1c-0.6,0.3-0.8,1-0.8,1.6c0,1.4,0,2.8,0,4.2c-0.5,0-0.9,0-1.4,0c0-2.4,0-4.7,0-7.1
		c0.5,0,1,0,1.4,0C319.3-36.2,319.3-35.9,319.3-35.8"/>
	<path class="st9" d="M325.2-35.9c1.2-0.6,2.6-0.8,3.8-0.3c0.8,0.3,1.4,1.2,1.4,2c0,1.6,0,3.3,0,4.9H329c0-0.2,0-0.4,0-0.7
		c-0.6,0.5-1.3,0.8-2,0.8c-0.8,0-1.7-0.4-2.1-1.1c-0.4-0.8-0.5-1.8,0-2.5c0.4-0.6,1-0.9,1.7-1c0.8-0.2,1.7-0.1,2.5,0.2
		c0-0.6,0-1.2-0.6-1.5c-0.9-0.4-1.9-0.1-2.7,0.2C325.5-35.2,325.4-35.5,325.2-35.9 M326.8-32.5c-0.3,0.1-0.7,0.3-0.8,0.6
		c-0.2,0.5,0,1.2,0.5,1.4c0.8,0.4,1.7,0.1,2.3-0.5c0.4-0.3,0.3-0.9,0.2-1.3C328.3-32.6,327.5-32.6,326.8-32.5"/>
	<path class="st9" d="M333.1-35.7c1-1,2.9-1,3.7,0.2c0.4-0.5,1-0.9,1.7-1c0.8-0.1,1.6-0.1,2.2,0.5c0.6,0.6,0.7,1.5,0.7,2.3
		c0,1.5,0,2.9,0,4.4c-0.5,0-0.9,0-1.4,0c0-1.4,0-2.8,0-4.2c0-0.6-0.1-1.3-0.7-1.6c-0.5-0.2-1.1-0.2-1.5,0.2c-0.4,0.4-0.5,1-0.5,1.6
		c0,1.4,0,2.7,0,4.1c-0.5,0-1,0-1.4,0c0-1.4,0-2.7,0-4.1c0-0.5-0.1-1.1-0.4-1.6c-0.6-0.5-1.6-0.4-2,0.3c-0.3,0.4-0.3,0.9-0.3,1.4
		c0,1.3,0,2.6,0,3.9c-0.5,0-1,0-1.4,0c0-2.4,0-4.7,0-7.1c0.5,0,1,0,1.4,0C333.1-36.1,333.1-35.9,333.1-35.7"/>
	<path class="st9" d="M343-35.2c1-1.5,3.4-1.8,4.7-0.5c0.9,0.9,1.1,2.2,1,3.4c-1.6,0-3.2,0-4.9,0c0.1,0.7,0.4,1.3,1,1.7
		c0.8,0.5,1.9,0.2,2.6-0.3c0.3,0.3,0.5,0.6,0.8,0.9c-1,0.9-2.5,1.2-3.8,0.6c-1-0.4-1.6-1.4-1.8-2.4C342.2-32.9,342.4-34.2,343-35.2
		 M344.3-34.7c-0.3,0.3-0.4,0.8-0.6,1.2c0.4,0.1,0.8,0.1,1.2,0.1c0.8,0,1.5,0,2.3,0c-0.1-0.4-0.1-0.8-0.4-1.1
		C346.3-35.4,345-35.5,344.3-34.7"/>
	<path class="st9" d="M291.7-36.3c0.5,0,1,0,1.4,0c0.1,0.4,0.1,0.8,0.1,1.2c-0.1,1.5,0.1,3.1,0,4.6c0,0.4,0,0.9,0,1.3
		c-0.5,0-1,0-1.5,0L291.7-36.3L291.7-36.3z"/>
	<path class="st9" d="M300-36.4c0.5,0,1,0,1.4,0c0,2.4,0,4.7,0,7.1c-0.5,0-1,0-1.4,0C300-31.6,300-34,300-36.4"/>
	<path class="st9" d="M350.8-32.9c-0.6-1.2-1.4-2.2-2-3.5c0.5,0,1.1,0,1.6,0.1c0.4,0.8,0.8,1.5,1.2,2.3c0.6-0.7,0.8-1.6,1.4-2.3
		c0.5,0,1,0,1.5,0c-0.5,1.2-1.3,2.3-1.9,3.4c0.7,1.2,1.5,2.4,2.2,3.7c-0.6,0-1.1,0-1.7,0c-0.5-0.9-0.9-1.8-1.4-2.6
		c-0.4,0.9-0.9,1.8-1.4,2.6c-0.5,0-1,0-1.6,0C349.4-30.5,350.1-31.7,350.8-32.9"/>
</g>
<g>
	<path class="st10" d="M220.6-32.9V-36c0-0.4-0.2-0.8-1.2-0.8v-0.3h3.8v0.3c-1,0-1.2,0.4-1.2,0.8v6.9c0,0.4,0.2,0.8,1.2,0.8v0.3
		h-3.8v-0.3c1,0,1.2-0.4,1.2-0.8v-3.3h-4.2v3.3c0,0.4,0.2,0.8,1.2,0.8v0.3h-3.8v-0.3c1,0,1.2-0.4,1.2-0.8V-36c0-0.4-0.2-0.8-1.2-0.8
		v-0.3h3.8v0.3c-1,0-1.2,0.4-1.2,0.8v3.1H220.6L220.6-32.9z"/>
	<path class="st10" d="M223.5-30.8h0.3c0.4,1.3,1.4,2.4,2.8,2.4c1.1,0,1.9-1,1.5-2c-0.6-1.9-4.3-2-4.3-4.6c0-1.4,1.1-2.3,2.4-2.3
		c1.5,0,2.1,1,2.4,0h0.3l0.3,2.9H229c-0.3-1.3-1.2-2.4-2.5-2.4c-0.8,0-1.4,0.5-1.4,1.3c0,0.8,0.9,1.4,1.5,1.7
		c1.9,1.1,3.1,1.7,3.1,3.4c0,1.2-1,2.5-2.9,2.5c-1.4,0-2.4-1-2.6,0h-0.3L223.5-30.8L223.5-30.8z"/>
	<path class="st10" d="M234.2-33c1.4,0,2.2-0.6,2.2-1.7c0-1-0.7-1.6-1.6-1.8c-1.3-0.1-1.7-0.1-1.7,0.4v3.1H234.2L234.2-33z
		 M233.1-29.3L233.1-29.3c0,0.5,0.1,0.7,1.1,0.7c1.4,0,2.5-0.4,2.5-2c0-1.6-1.6-1.9-2.9-1.9h-0.7L233.1-29.3L233.1-29.3z M231.7-36
		L231.7-36c0-0.4-0.2-0.8-1.3-0.8v-0.3h3.7c2.1,0,3.8,0.6,3.8,2.3c0,1.1-0.8,1.7-1.8,2v0c1.2,0.2,2.3,0.9,2.3,2.3
		c0,1.6-1.4,2.5-3.6,2.5h-4.3v-0.3c1.1,0,1.3-0.4,1.3-0.8L231.7-36L231.7-36z"/>
	<path class="st10" d="M246.5-34.3h-0.3c-0.4-1.5-1.4-2.5-3-2.5c-2.3,0-3.2,1.8-3.2,4.3c0,1.9,1,4,3.2,4c1.3,0,2.3-0.4,3.2-1.4
		l0.2,0.3c-0.8,1-2.2,1.7-3.6,1.7c-2.7,0-4.7-1.7-4.7-4.7c0-2.7,1.9-4.7,4.7-4.7c1.9,0,2.6,1.1,3,0h0.3L246.5-34.3L246.5-34.3z"/>
	<polygon class="st11" points="253.9,-37.3 263.1,-37.3 263.1,-28.1 253.9,-28.1 	"/>
	<polygon class="st12" points="253.9,-37.3 263.1,-37.3 258.5,-32.7 	"/>
	<polygon class="st12" points="253.9,-28.1 263.1,-28.1 258.5,-32.7 	"/>
	<polygon class="st12" points="253.9,-37.3 253.9,-28.1 249.3,-32.7 	"/>
	<polygon class="st12" points="263.1,-37.3 263.1,-28.1 267.7,-32.7 	"/>
</g>
<g>
	<path class="st13" d="M318.5,120.2c-4,0-6.8,2.1-6.9,5.2c0,2.3,2,3.5,3.6,4.3c1.6,0.8,2.1,1.3,2.1,2c0,1.1-1.3,1.5-2.4,1.5
		c-1.6,0-2.5-0.2-3.8-0.8l-0.5-0.3l-0.6,3.5c0.9,0.4,2.7,0.8,4.5,0.8c4.3,0,7-2.1,7.1-5.4c0-1.8-1.1-3.2-3.4-4.3
		c-1.4-0.7-2.3-1.2-2.3-2c0-0.7,0.7-1.4,2.3-1.4c1.3,0,2.3,0.3,3,0.6l0.4,0.2l0.6-3.4C321.3,120.5,320.1,120.2,318.5,120.2
		L318.5,120.2z M305.9,120.4l-2.5,15.7h4.1l2.5-15.7L305.9,120.4L305.9,120.4z M299.9,120.4l-4,10.7l-0.4-2.2
		c-1-2.7-3.1-5.5-5.6-6.6l3.6,13.8l4.3,0l6.4-15.7L299.9,120.4L299.9,120.4z M329.4,120.4c-1,0-1.7,0.3-2.1,1.3l-6,14.4h4.3
		c0,0,0.7-1.9,0.9-2.4c0.5,0,4.6,0,5.2,0c0.1,0.5,0.5,2.4,0.5,2.4h3.8l-3.3-15.7L329.4,120.4L329.4,120.4z M329.7,124.7l0.3,1.4
		c0,0,0.8,3.8,0.9,4.5h-3.4c0.3-0.9,1.6-4.4,1.6-4.4C329.1,126.2,329.5,125.3,329.7,124.7L329.7,124.7z"/>
	<path class="st14" d="M292.3,120.4h-6.6l0,0.3c5.1,1.3,8.5,4.5,9.9,8.3l-1.4-7.2C293.9,120.8,293.2,120.5,292.3,120.4"/>
</g>
<g>
	<path class="st15" d="M152.5,128.3c0-3.1,1.5-5.9,3.7-7.7c-1.7-1.3-3.8-2.1-6.1-2.1c-5.4,0-9.8,4.4-9.8,9.8c0,5.4,4.4,9.8,9.8,9.8
		c2.3,0,4.4-0.8,6.1-2.1C154,134.2,152.5,131.4,152.5,128.3z"/>
	<ellipse class="st16" cx="156.2" cy="128.3" rx="3.7" ry="7.7"/>
	<g>
		<path class="st10" d="M188.3,125.6c-0.2-0.2-0.5-0.4-0.8-0.5c-0.3-0.1-0.7-0.2-1-0.2c-0.2,0-0.4,0-0.6,0.1c-0.2,0-0.4,0.1-0.6,0.2
			c-0.2,0.1-0.4,0.2-0.6,0.4c-0.2,0.2-0.3,0.3-0.5,0.6c-0.2-0.4-0.5-0.6-0.9-0.9c-0.4-0.2-0.8-0.3-1.3-0.3c-0.2,0-0.3,0-0.5,0
			c-0.2,0-0.3,0.1-0.5,0.2c-0.2,0.1-0.3,0.2-0.5,0.3c-0.2,0.1-0.3,0.3-0.4,0.5v-0.8h-1.4v6.5h1.4V128c0-0.3,0-0.5,0.1-0.7
			c0.1-0.2,0.2-0.4,0.4-0.5c0.1-0.1,0.3-0.3,0.5-0.3c0.2-0.1,0.4-0.1,0.6-0.1c0.5,0,0.8,0.1,1.1,0.4c0.3,0.3,0.4,0.7,0.4,1.3v3.6
			h1.4V128c0-0.3,0-0.5,0.1-0.7c0.1-0.2,0.2-0.4,0.4-0.5c0.1-0.1,0.3-0.3,0.5-0.3c0.2-0.1,0.4-0.1,0.6-0.1c0.5,0,0.8,0.1,1.1,0.4
			c0.3,0.3,0.4,0.7,0.4,1.3v3.6h1.4v-4.1c0-0.4-0.1-0.7-0.2-1C188.7,126.1,188.5,125.9,188.3,125.6z"/>
		<path class="st10" d="M195.6,125.9c-0.2-0.3-0.5-0.5-0.8-0.7c-0.3-0.2-0.7-0.3-1.2-0.3c-0.5,0-0.9,0.1-1.3,0.3
			c-0.4,0.2-0.7,0.4-1,0.7c-0.3,0.3-0.5,0.7-0.7,1.1c-0.2,0.4-0.3,0.9-0.3,1.4c0,0.5,0.1,1,0.3,1.4c0.2,0.4,0.4,0.8,0.7,1.1
			c0.3,0.3,0.6,0.5,1,0.7c0.4,0.2,0.8,0.3,1.3,0.3c0.5,0,0.9-0.1,1.2-0.3c0.3-0.2,0.6-0.4,0.8-0.7v0.8h1.4v-6.5h-1.4V125.9z
			 M195.5,129.2c-0.1,0.3-0.2,0.5-0.4,0.7c-0.2,0.2-0.4,0.3-0.6,0.4c-0.2,0.1-0.5,0.2-0.8,0.2c-0.3,0-0.6-0.1-0.8-0.2
			c-0.2-0.1-0.4-0.3-0.6-0.4c-0.2-0.2-0.3-0.4-0.4-0.7c-0.1-0.3-0.1-0.5-0.1-0.8c0-0.3,0-0.6,0.1-0.8c0.1-0.3,0.2-0.5,0.4-0.7
			c0.2-0.2,0.4-0.3,0.6-0.4c0.2-0.1,0.5-0.2,0.8-0.2c0.3,0,0.6,0.1,0.8,0.2c0.2,0.1,0.4,0.3,0.6,0.4c0.2,0.2,0.3,0.4,0.4,0.7
			c0.1,0.3,0.1,0.5,0.1,0.8S195.6,128.9,195.5,129.2z"/>
		<path class="st10" d="M203.5,128.3c-0.4-0.3-1-0.5-1.7-0.6l-0.7-0.1c-0.1,0-0.3,0-0.4-0.1c-0.1,0-0.2-0.1-0.3-0.1
			c-0.1,0-0.2-0.1-0.2-0.2c-0.1-0.1-0.1-0.2-0.1-0.3c0-0.2,0.1-0.4,0.3-0.6c0.2-0.1,0.5-0.2,0.9-0.2c0.2,0,0.4,0,0.6,0.1
			c0.2,0,0.4,0.1,0.6,0.1c0.2,0.1,0.3,0.1,0.5,0.2c0.1,0.1,0.3,0.1,0.4,0.2l0.6-1.1c-0.3-0.2-0.7-0.4-1.2-0.5
			c-0.5-0.1-0.9-0.2-1.4-0.2c-0.4,0-0.8,0-1.1,0.1c-0.3,0.1-0.6,0.2-0.8,0.4c-0.2,0.2-0.4,0.4-0.5,0.7c-0.1,0.3-0.2,0.5-0.2,0.9
			c0,0.5,0.2,1,0.6,1.3c0.4,0.3,0.9,0.5,1.6,0.6l0.7,0.1c0.4,0.1,0.7,0.1,0.9,0.3c0.2,0.1,0.3,0.3,0.3,0.5c0,0.2-0.1,0.4-0.4,0.6
			c-0.2,0.1-0.6,0.2-1.1,0.2c-0.3,0-0.5,0-0.7-0.1c-0.2,0-0.4-0.1-0.6-0.1c-0.2-0.1-0.3-0.1-0.5-0.2c-0.1-0.1-0.3-0.2-0.4-0.3
			l-0.7,1.1c0.2,0.2,0.5,0.3,0.7,0.4c0.3,0.1,0.5,0.2,0.8,0.3c0.2,0.1,0.5,0.1,0.7,0.1c0.2,0,0.4,0,0.6,0c0.5,0,0.9-0.1,1.3-0.2
			c0.4-0.1,0.7-0.3,0.9-0.4c0.3-0.2,0.4-0.4,0.6-0.7s0.2-0.5,0.2-0.9C204.1,129.1,203.9,128.6,203.5,128.3z"/>
		<path class="st10" d="M216.8,125.9c-0.3-0.3-0.6-0.5-1-0.7c-0.4-0.2-0.8-0.2-1.2-0.2c-0.5,0-0.9,0.1-1.3,0.2
			c-0.4,0.2-0.7,0.4-1,0.7c-0.3,0.3-0.5,0.7-0.7,1.1c-0.2,0.4-0.2,0.9-0.2,1.4c0,0.5,0.1,1,0.2,1.4c0.2,0.4,0.4,0.8,0.7,1.1
			c0.3,0.3,0.6,0.5,1.1,0.7c0.4,0.2,0.9,0.2,1.3,0.2c0.5,0,1-0.1,1.4-0.2c0.4-0.1,0.9-0.4,1.3-0.7l-0.7-1c-0.3,0.2-0.6,0.4-0.9,0.5
			c-0.3,0.1-0.7,0.2-1,0.2c-0.2,0-0.5,0-0.7-0.1c-0.2-0.1-0.4-0.2-0.6-0.3c-0.2-0.1-0.3-0.3-0.4-0.5c-0.1-0.2-0.2-0.5-0.3-0.8h4.8
			c0-0.1,0-0.2,0-0.3c0-0.1,0-0.2,0-0.3c0-0.5-0.1-1-0.2-1.4C217.3,126.5,217.1,126.2,216.8,125.9z M212.8,127.8
			c0-0.2,0.1-0.5,0.2-0.6c0.1-0.2,0.2-0.4,0.3-0.5c0.1-0.1,0.3-0.3,0.5-0.3c0.2-0.1,0.4-0.1,0.7-0.1c0.5,0,0.8,0.1,1.1,0.4
			c0.3,0.3,0.5,0.7,0.5,1.2H212.8z"/>
		<path class="st10" d="M235.7,125.9c-0.2-0.3-0.5-0.5-0.8-0.7c-0.3-0.2-0.7-0.3-1.2-0.3c-0.5,0-0.9,0.1-1.3,0.3
			c-0.4,0.2-0.7,0.4-1,0.7c-0.3,0.3-0.5,0.7-0.7,1.1c-0.2,0.4-0.3,0.9-0.3,1.4c0,0.5,0.1,1,0.3,1.4c0.2,0.4,0.4,0.8,0.7,1.1
			c0.3,0.3,0.6,0.5,1,0.7c0.4,0.2,0.8,0.3,1.3,0.3c0.5,0,0.9-0.1,1.2-0.3c0.3-0.2,0.6-0.4,0.8-0.7v0.8h1.4v-6.5h-1.4V125.9z
			 M235.6,129.2c-0.1,0.3-0.2,0.5-0.4,0.7c-0.2,0.2-0.4,0.3-0.6,0.4c-0.2,0.1-0.5,0.2-0.8,0.2c-0.3,0-0.6-0.1-0.8-0.2
			s-0.4-0.3-0.6-0.4c-0.2-0.2-0.3-0.4-0.4-0.7c-0.1-0.3-0.1-0.5-0.1-0.8c0-0.3,0-0.6,0.1-0.8c0.1-0.3,0.2-0.5,0.4-0.7
			c0.2-0.2,0.4-0.3,0.6-0.4c0.2-0.1,0.5-0.2,0.8-0.2c0.3,0,0.6,0.1,0.8,0.2c0.2,0.1,0.4,0.3,0.6,0.4c0.2,0.2,0.3,0.4,0.4,0.7
			c0.1,0.3,0.1,0.5,0.1,0.8S235.7,128.9,235.6,129.2z"/>
		<path class="st10" d="M209.6,130.3c-0.2,0.1-0.5,0.1-0.7,0.1c-0.1,0-0.3,0-0.4-0.1c-0.1,0-0.2-0.1-0.3-0.2
			c-0.1-0.1-0.2-0.2-0.2-0.4s-0.1-0.3-0.1-0.6v-2.8h2.3v-1.3h-2.3v-2h-1.4v2h-1.3v1.3h1.3v2.9c0,0.9,0.2,1.5,0.6,1.9
			c0.4,0.4,1,0.6,1.7,0.6c0.4,0,0.8-0.1,1.1-0.2c0.2-0.1,0.4-0.2,0.6-0.3l-0.5-1.2C209.9,130.2,209.7,130.2,209.6,130.3z"/>
		<path class="st10" d="M222.4,124.9c-0.4,0-0.8,0.1-1.1,0.2c-0.3,0.1-0.6,0.5-0.8,0.8v-0.9h-1.3v6.5h1.3V128c0-0.3,0-0.5,0.1-0.7
			c0.1-0.2,0.2-0.4,0.3-0.6c0.1-0.1,0.3-0.3,0.5-0.3c0.2-0.1,0.4-0.1,0.6-0.1c0.2,0,0.4,0,0.6,0.1c0.1,0,0.2,0,0.3,0.1l0.4-1.4
			c-0.1,0-0.2-0.1-0.3-0.1C222.8,124.9,222.6,124.9,222.4,124.9z"/>
		<path class="st10" d="M242.2,124.9c-0.4,0-0.8,0.1-1.1,0.2c-0.3,0.1-0.6,0.5-0.8,0.8v-0.9H239v6.5h1.3V128c0-0.3,0-0.5,0.1-0.7
			c0.1-0.2,0.2-0.4,0.3-0.6c0.1-0.1,0.3-0.3,0.5-0.3c0.2-0.1,0.4-0.1,0.6-0.1c0.2,0,0.4,0,0.6,0.1c0.1,0,0.2,0,0.3,0.1l0.4-1.4
			c-0.1,0-0.2-0.1-0.3-0.1C242.6,124.9,242.4,124.9,242.2,124.9z"/>
		<path class="st10" d="M248.8,122.4v3.4c-0.2-0.3-0.5-0.5-0.8-0.7c-0.3-0.2-0.7-0.3-1.2-0.3c-0.5,0-0.9,0.1-1.3,0.3
			c-0.4,0.2-0.7,0.4-1,0.7c-0.3,0.3-0.5,0.7-0.7,1.1c-0.2,0.4-0.3,0.9-0.3,1.4c0,0.5,0.1,1,0.3,1.4c0.2,0.4,0.4,0.8,0.7,1.1
			c0.3,0.3,0.6,0.5,1,0.7c0.4,0.2,0.8,0.3,1.3,0.3c0.5,0,0.9-0.1,1.2-0.3c0.3-0.2,0.6-0.4,0.8-0.7v0.8h1.4v-9.2H248.8z M248.7,129.2
			c-0.1,0.3-0.2,0.5-0.4,0.7c-0.2,0.2-0.4,0.3-0.6,0.4c-0.2,0.1-0.5,0.2-0.8,0.2c-0.3,0-0.6-0.1-0.8-0.2c-0.2-0.1-0.4-0.3-0.6-0.4
			c-0.2-0.2-0.3-0.4-0.4-0.7c-0.1-0.3-0.1-0.5-0.1-0.8c0-0.3,0-0.6,0.1-0.8c0.1-0.3,0.2-0.5,0.4-0.7c0.2-0.2,0.4-0.3,0.6-0.4
			c0.2-0.1,0.5-0.2,0.8-0.2c0.3,0,0.6,0.1,0.8,0.2c0.2,0.1,0.4,0.3,0.6,0.4c0.2,0.2,0.3,0.4,0.4,0.7c0.1,0.3,0.1,0.5,0.1,0.8
			S248.8,128.9,248.7,129.2z"/>
		<path class="st10" d="M225.8,126.8c0.2-0.2,0.4-0.3,0.6-0.4c0.2-0.1,0.5-0.2,0.8-0.2v0c0.3,0,0.6,0.1,0.9,0.2
			c0.3,0.1,0.5,0.2,0.7,0.4l0.7-1.1c-0.3-0.2-0.5-0.4-0.9-0.5c-0.4-0.2-0.9-0.3-1.4-0.3c-0.5,0-1,0.1-1.4,0.3
			c-0.4,0.2-0.8,0.4-1.1,0.7c-0.3,0.3-0.6,0.7-0.7,1.1c-0.2,0.4-0.3,0.9-0.3,1.4c0,0.5,0.1,0.9,0.3,1.4c0.2,0.4,0.4,0.8,0.7,1.1
			c0.3,0.3,0.7,0.5,1.1,0.7s0.9,0.3,1.4,0.3c0.5,0,1-0.1,1.4-0.3c0.3-0.1,0.6-0.3,0.9-0.5l-0.7-1.1c-0.2,0.2-0.4,0.3-0.7,0.4
			c-0.3,0.1-0.6,0.2-0.9,0.2v0c-0.3,0-0.6-0.1-0.8-0.2c-0.2-0.1-0.5-0.2-0.6-0.4c-0.2-0.2-0.3-0.4-0.4-0.7c-0.1-0.3-0.2-0.5-0.2-0.8
			c0-0.3,0.1-0.6,0.2-0.8C225.5,127.2,225.6,127,225.8,126.8z"/>
	</g>
	<path class="st17" d="M171.4,133.7v-0.3h-0.1v-0.1h0.4v0.1h-0.1v0.3H171.4z M172.1,133.7v-0.3V133.7l-0.2,0l-0.1-0.3v0.3h-0.1v-0.4
		h0.1l0.1,0.3l0.1-0.3h0.1v0.4H172.1z"/>
	<g>
		<path class="st10" d="M252,131c0.1,0,0.1,0,0.2,0c0.1,0,0.1,0.1,0.2,0.1c0,0,0.1,0.1,0.1,0.2c0,0.1,0,0.1,0,0.2c0,0.1,0,0.1,0,0.2
			c0,0.1-0.1,0.1-0.1,0.2c0,0-0.1,0.1-0.2,0.1c-0.1,0-0.1,0-0.2,0c-0.1,0-0.1,0-0.2,0s-0.1-0.1-0.2-0.1c0,0-0.1-0.1-0.1-0.2
			c0-0.1,0-0.1,0-0.2c0-0.1,0-0.1,0-0.2c0-0.1,0.1-0.1,0.1-0.2c0,0,0.1-0.1,0.2-0.1C251.8,131,251.9,131,252,131z M252,131.8
			c0,0,0.1,0,0.1,0s0.1,0,0.1-0.1c0,0,0.1-0.1,0.1-0.1c0,0,0-0.1,0-0.1c0,0,0-0.1,0-0.1c0,0,0-0.1-0.1-0.1c0,0-0.1-0.1-0.1-0.1
			c0,0-0.1,0-0.1,0c-0.1,0-0.1,0-0.1,0c0,0-0.1,0-0.1,0.1c0,0-0.1,0.1-0.1,0.1c0,0,0,0.1,0,0.1c0,0.1,0,0.1,0,0.1c0,0,0,0.1,0.1,0.1
			c0,0,0.1,0.1,0.1,0.1C251.9,131.8,251.9,131.8,252,131.8z M252,131.2c0.1,0,0.1,0,0.1,0c0,0,0,0.1,0,0.1c0,0,0,0.1,0,0.1
			c0,0-0.1,0-0.1,0l0.1,0.2H252l-0.1-0.2h0v0.2h-0.1v-0.4H252z M251.9,131.4L251.9,131.4L251.9,131.4c0.1,0.1,0.1,0.1,0.1,0.1
			c0,0,0,0,0,0c0,0,0,0,0,0C252,131.4,252,131.4,251.9,131.4L251.9,131.4z"/>
	</g>
	<path class="st17" d="M162.3,118.5c-2.3,0-4.4,0.8-6.1,2.1c2.3,1.8,3.7,4.6,3.7,7.7c0,3.1-1.5,5.9-3.7,7.7c1.7,1.3,3.8,2.1,6.1,2.1
		c5.4,0,9.8-4.4,9.8-9.8C172.1,122.9,167.7,118.5,162.3,118.5z"/>
</g>
<g>
	
		<radialGradient id="SVGID_1_" cx="-78.2993" cy="218.0156" r="34.4491" gradientTransform="matrix(1 0 0 -1 149.0522 334.3086)" gradientUnits="userSpaceOnUse">
		<stop  offset="0" style="stop-color:#9DD5F6"/>
		<stop  offset="7.110000e-02" style="stop-color:#98D3F5"/>
		<stop  offset="0.1575" style="stop-color:#89CEF3"/>
		<stop  offset="0.2516" style="stop-color:#70C6EF"/>
		<stop  offset="0.3514" style="stop-color:#4EBBEA"/>
		<stop  offset="0.4546" style="stop-color:#23ADE3"/>
		<stop  offset="0.5" style="stop-color:#0DA6E0"/>
		<stop  offset="1" style="stop-color:#2E77BC"/>
	</radialGradient>
	<path class="st18" d="M101,109.9H64.3v36.8H101v-12.2c0.1-0.2,0.2-0.5,0.2-0.8c0-0.4-0.1-0.6-0.2-0.8"/>
	<path class="st11" d="M67.6,125.8l-0.7-1.7l-0.7,1.7 M83.1,125.1c-0.1,0.1-0.3,0.1-0.5,0.1h-1.3v-1h1.3c0.2,0,0.4,0,0.5,0.1
		c0.1,0.1,0.2,0.2,0.2,0.4C83.4,124.9,83.3,125,83.1,125.1z M92.1,125.8l-0.7-1.7l-0.7,1.7H92.1z M75.4,127.7h-1.1l0-3.4l-1.5,3.4
		H72l-1.5-3.4v3.4h-2.1l-0.4-1h-2.1l-0.4,1h-1.1l1.8-4.3h1.5l1.8,4.1v-4.1h1.7l1.4,2.9l1.2-2.9h1.7L75.4,127.7L75.4,127.7z
		 M79.6,127.7h-3.4v-4.3h3.4v0.9h-2.4v0.8h2.4v0.9h-2.4v0.9h2.4V127.7z M84.5,124.5c0,0.7-0.5,1-0.7,1.2c0.2,0.1,0.4,0.2,0.5,0.4
		c0.1,0.2,0.2,0.4,0.2,0.8v0.8h-1l0-0.5c0-0.3,0-0.6-0.2-0.8c-0.2-0.2-0.4-0.2-0.8-0.2h-1.1v1.6h-1v-4.3h2.4c0.5,0,0.9,0,1.2,0.2
		C84.3,123.7,84.5,124,84.5,124.5z M86.1,127.7h-1.1v-4.3h1.1V127.7z M98.4,127.7h-1.5l-2-3.2v3.2h-2.1l-0.4-1h-2.1l-0.4,1h-1.2
		c-0.5,0-1.1-0.1-1.5-0.5c-0.4-0.4-0.6-0.9-0.6-1.6c0-0.6,0.1-1.2,0.6-1.7c0.3-0.3,0.9-0.5,1.6-0.5h1v0.9h-1c-0.4,0-0.6,0.1-0.8,0.3
		c-0.2,0.2-0.3,0.5-0.3,1c0,0.5,0.1,0.8,0.3,1c0.2,0.2,0.4,0.2,0.7,0.2h0.5l1.5-3.4h1.5l1.7,4.1v-4.1h1.6l1.8,3v-3h1.1V127.7
		L98.4,127.7z M64.3,128.5H66l0.4-1h0.9l0.4,1h3.5v-0.7l0.3,0.7h1.8l0.3-0.7v0.7h8.6l0-1.6h0.2c0.1,0,0.2,0,0.2,0.2v1.4H87v-0.4
		c0.4,0.2,0.9,0.4,1.7,0.4h1.9l0.4-1h0.9l0.4,1h3.6v-0.9l0.5,0.9h2.9v-6h-2.9v0.7l-0.4-0.7h-2.9v0.7l-0.4-0.7h-4
		c-0.7,0-1.2,0.1-1.7,0.4v-0.4h-2.7v0.4c-0.3-0.3-0.7-0.4-1.2-0.4h-10l-0.7,1.6l-0.7-1.6h-3.2v0.7l-0.3-0.7h-2.7l-1.2,2.9
		L64.3,128.5L64.3,128.5z"/>
	<path class="st11" d="M101,131.7h-1.9c-0.2,0-0.3,0-0.4,0.1c-0.1,0.1-0.2,0.2-0.2,0.3c0,0.2,0.1,0.3,0.2,0.3c0.1,0,0.2,0,0.4,0
		l0.6,0c0.6,0,0.9,0.1,1.2,0.3c0,0,0.1,0.1,0.1,0.1 M101,134.5c-0.3,0.4-0.7,0.6-1.4,0.6h-2v-0.9h2c0.2,0,0.3,0,0.4-0.1
		c0.1-0.1,0.1-0.2,0.1-0.3c0-0.1-0.1-0.2-0.1-0.3c-0.1-0.1-0.2-0.1-0.4-0.1c-1,0-2.2,0-2.2-1.3c0-0.6,0.4-1.3,1.5-1.3h2.1v-0.9h-1.9
		c-0.6,0-1,0.1-1.3,0.4v-0.4H95c-0.5,0-1,0.1-1.2,0.4v-0.4h-5v0.4c-0.4-0.3-1.1-0.4-1.4-0.4H84v0.4c-0.3-0.3-1-0.4-1.5-0.4h-3.7
		l-0.9,0.9l-0.8-0.9h-5.6v6H77l0.9-0.9l0.8,0.9l3.4,0v-1.4h0.3c0.4,0,1,0,1.4-0.2v1.6h2.8v-1.6h0.1c0.2,0,0.2,0,0.2,0.2v1.4h8.4
		c0.5,0,1.1-0.1,1.4-0.4v0.4h2.7c0.6,0,1.1-0.1,1.5-0.3V134.5L101,134.5z M96.9,132.8c0.2,0.2,0.3,0.5,0.3,0.9
		c0,0.9-0.6,1.4-1.6,1.4h-2v-0.9h2c0.2,0,0.3,0,0.4-0.1c0.1-0.1,0.1-0.2,0.1-0.3c0-0.1-0.1-0.2-0.1-0.3c-0.1-0.1-0.2-0.1-0.4-0.1
		c-1,0-2.2,0-2.2-1.3c0-0.6,0.4-1.3,1.5-1.3H97v0.9h-1.9c-0.2,0-0.3,0-0.4,0.1c-0.1,0.1-0.2,0.2-0.2,0.3c0,0.2,0.1,0.3,0.2,0.3
		c0.1,0,0.2,0,0.4,0l0.6,0C96.3,132.5,96.6,132.6,96.9,132.8z M87.6,132.5c-0.1,0.1-0.3,0.1-0.5,0.1h-1.3v-1h1.3
		c0.2,0,0.4,0,0.5,0.1c0.1,0.1,0.2,0.2,0.2,0.4C87.8,132.3,87.7,132.5,87.6,132.5z M88.2,133.1c0.2,0.1,0.4,0.2,0.5,0.4
		c0.1,0.2,0.2,0.4,0.2,0.8v0.9h-1v-0.5c0-0.3,0-0.6-0.2-0.8c-0.2-0.2-0.4-0.2-0.8-0.2h-1.1v1.6h-1v-4.3h2.4c0.5,0,0.9,0,1.2,0.2
		c0.3,0.2,0.5,0.5,0.5,1C88.9,132.6,88.5,133,88.2,133.1z M89.5,130.8h3.4v0.9h-2.4v0.8h2.4v0.9h-2.4v0.9l2.4,0v0.9h-3.4V130.8z
		 M82.5,132.8h-1.3v-1.1h1.3c0.4,0,0.6,0.2,0.6,0.5C83.2,132.6,82.9,132.8,82.5,132.8z M80.2,134.7l-1.6-1.8l1.6-1.7V134.7z
		 M76.1,134.2h-2.5v-0.9h2.3v-0.9h-2.3v-0.8h2.6l1.1,1.3L76.1,134.2z M84.3,132.2c0,1.2-0.9,1.4-1.8,1.4h-1.3v1.4h-2l-1.3-1.4
		l-1.3,1.4h-4.1v-4.3h4.2l1.3,1.4l1.3-1.4h3.3C83.4,130.8,84.3,131,84.3,132.2z"/>
</g>
<g>
	<rect x="293.1" y="19.4" class="st19" width="74.8" height="20.7"/>
	<g>
		<path class="st11" d="M304.7,23.2c0,1.5,2.4,3.1,2.4,4.7c0,0,0,0.2-0.1,0.3c2.3,0.5,3.9,1.6,3.9,2.9c0,1.8-2.9,3.3-6.4,3.3
			c-3.6,0-6.5-1.5-6.5-3.2c0-1.3,1.8-2.4,3.9-3c0,0.7,2.4,3.1,2.5,4c0,0.1,0,0.2,0,0.3c0.5-0.3,0.5-1.1,0.5-1.1c0-2-2.3-2.9-2.3-4.9
			c0-0.8,0.4-1.4,0.7-1.5v0.6c0,1.5,2.5,3.1,2.5,4.4v0.4c0.6-0.2,0.6-1.3,0.6-1.3c0-1.8-2.3-2.9-2.3-4.9c0-0.8,0.4-1.4,0.7-1.5V23.2
			z"/>
		<path class="st11" d="M316.1,33.9c-1.2,0-2.1-0.4-2.1-0.4v-2.2h0.3c0.2,1.1,1,2,2,2c1,0,1.7-0.5,1.7-1.4c0-0.9-0.9-1.4-1.5-1.7
			l-0.9-0.4c-0.8-0.4-1.5-1.1-1.5-2.1c0-1.2,0.9-2.2,2.6-2.2c1.2,0,2.1,0.4,2.1,0.4v1.9h-0.3c-0.2-1-0.7-1.8-1.9-1.8
			c-0.9,0-1.4,0.6-1.4,1.2c0,0.8,0.5,1.1,1.2,1.5l0.9,0.4c0.8,0.4,1.8,1.1,1.8,2.3C319,32.9,318,33.9,316.1,33.9"/>
		<path class="st11" d="M321.8,31.6c-0.2,0.1-0.7,0.3-0.7,0.8c0,0.3,0.2,0.8,0.8,0.8c0.3,0,0.7-0.2,1-0.4v-1.7L321.8,31.6z
			 M321.4,33.9c-0.8,0-1.3-0.5-1.3-1.3c0-0.5,0.4-1,1.3-1.3l1.5-0.6v-0.5c0-0.7-0.3-1.2-0.8-1.2c-0.3,0-0.7,0.2-0.8,0.4
			c-0.1,0.1-0.1,0.3-0.1,0.4c0,0.2,0.1,0.4,0.1,0.4l-0.7,0.3c-0.1-0.2-0.2-0.4-0.2-0.6c0,0,0-0.1,0-0.1c0.1-0.4,0.4-0.7,0.9-1
			c0.5-0.3,0.9-0.4,1.1-0.4c1.4,0,1.7,1.1,1.7,1.5v2.4c0,0.4,0,0.6,0.3,0.6c0.1,0,0.1,0,0.3,0l0.3-0.1v0.3l-1.6,0.6
			c-0.2-0.2-0.3-0.5-0.4-0.7C322.5,33.5,321.9,33.9,321.4,33.9"/>
		<path class="st11" d="M325.2,33.8v-0.3l0.4-0.1c0.2,0,0.4-0.2,0.4-0.4v-3.1c0-0.3-0.1-0.4-0.4-0.4c-0.1,0-0.2,0-0.3,0l-0.1,0.1
			v-0.3l1.6-0.7h0.2v0.8c0.5-0.6,1.1-0.8,1.6-0.8c1.2,0,1.7,0.8,1.7,1.8V33c0,0.2,0.2,0.4,0.4,0.4l0.4,0.1v0.3h-2.7v-0.3l0.4-0.1
			c0.2,0,0.4-0.2,0.4-0.4v-2.6c0-0.3-0.1-1.1-1-1.1c-0.5,0-0.9,0.3-1.2,0.5V33c0,0.2,0.2,0.4,0.4,0.4l0.4,0.1v0.3H325.2z"/>
		<path class="st11" d="M335.1,29.3h-1.6v2.8c0,0.6,0.3,1,0.8,1c0.2,0,0.5-0.1,0.8-0.2l0.1,0.3l-1,0.7c0,0-0.2,0-0.3,0
			c-1,0-1.5-0.6-1.5-1.8v-2.7h-0.8V29c0,0,1.2-0.5,1.7-1.7h0.2v1.5h1.8L335.1,29.3z"/>
		<path class="st11" d="M337.5,31.6c-0.2,0.1-0.7,0.3-0.7,0.8c0,0.3,0.2,0.8,0.8,0.8c0.3,0,0.7-0.2,1-0.4v-1.7L337.5,31.6z
			 M337,33.9c-0.8,0-1.3-0.5-1.3-1.3c0-0.5,0.4-1,1.3-1.3l1.5-0.6v-0.5c0-0.7-0.3-1.2-0.8-1.2c-0.3,0-0.7,0.2-0.8,0.4
			c-0.1,0.1-0.1,0.3-0.1,0.4c0,0.2,0.1,0.4,0.1,0.4l-0.7,0.3c-0.1-0.2-0.2-0.4-0.2-0.6c0,0,0-0.1,0-0.1c0.1-0.4,0.4-0.7,0.9-1
			c0.5-0.3,0.9-0.4,1.1-0.4c1.4,0,1.7,1.1,1.7,1.5v2.4c0,0.4,0,0.6,0.3,0.6c0.1,0,0.1,0,0.3,0l0.3-0.1v0.3l-1.6,0.6
			c-0.2-0.2-0.3-0.5-0.4-0.7C338.2,33.5,337.5,33.9,337,33.9"/>
		<path class="st11" d="M340.9,33.8v-0.3l0.4-0.1c0.2,0,0.4-0.2,0.4-0.4v-3.1c0-0.3-0.1-0.4-0.4-0.4c-0.1,0-0.2,0-0.3,0l-0.1,0.1
			v-0.3l1.6-0.7h0.2v0.8c0.5-0.6,1.1-0.8,1.6-0.8c1.1,0,1.7,0.8,1.7,1.8V33c0,0.2,0.2,0.4,0.4,0.4l0.4,0.1v0.3h-2.7v-0.3l0.4-0.1
			c0.2,0,0.4-0.2,0.4-0.4v-2.6c0-0.3-0.1-1.1-1-1.1c-0.5,0-0.9,0.3-1.2,0.5V33c0,0.2,0.2,0.4,0.4,0.4l0.4,0.1v0.3H340.9z"/>
		<path class="st11" d="M350.2,29.1c-0.8,0-1.6,0.5-1.6,2.1c0,1.3,0.6,2.1,1.6,2.1c0.6,0,1-0.4,1.1-0.5v-3
			C351.1,29.3,350.7,29.1,350.2,29.1 M349.7,33.9c-1.1,0-2.3-0.8-2.3-2.5c0-1.5,1.2-2.8,2.7-2.8c0.5,0,0.9,0.1,1.2,0.2v-2.6
			c0-0.3-0.1-0.4-0.3-0.4c-0.1,0-0.2,0-0.3,0.1l-0.2,0.1v-0.3l1.8-0.8h0.2v7.5c0,0.4,0.1,0.7,0.4,0.7c0.1,0,0.1,0,0.3,0l0.3-0.1v0.3
			l-1.6,0.6c-0.2-0.2-0.4-0.5-0.4-0.8C351,33.4,350.4,33.9,349.7,33.9"/>
		<path class="st11" d="M357.2,30.3L357.2,30.3c0-0.9-0.5-1.3-1-1.3c-0.6,0-1.1,0.4-1.2,1.3H357.2z M354.9,30.8L354.9,30.8
			c0,1.6,0.8,2.3,1.9,2.3c0.5,0,1-0.2,1.4-0.5v0.5c-0.5,0.4-1.1,0.8-2,0.8c-1.8,0-2.5-1.3-2.5-2.6c0-1.5,1.1-2.7,2.6-2.7
			c1.2,0,2.1,0.8,2.1,2.1v0.1H354.9z"/>
		<path class="st11" d="M359.1,33.8v-0.3l0.4-0.1c0.2,0,0.4-0.2,0.4-0.4v-3.1c0-0.3-0.1-0.4-0.3-0.4c-0.1,0-0.2,0-0.3,0l-0.1,0.1
			v-0.3l1.6-0.7h0.2v1.1c0.4-0.8,0.9-1.1,1.4-1.1c0.5,0,0.6,0.1,0.6,0.1v1.2h-0.2c-0.1-0.3-0.3-0.5-0.6-0.5c-0.4,0-0.8,0.1-1.1,0.8
			V33c0,0.2,0.2,0.4,0.4,0.4l0.5,0.1v0.3H359.1z"/>
	</g>
</g>
<g>
	<linearGradient id="SVGID_2_" gradientUnits="userSpaceOnUse" x1="113.3473" y1="21.7694" x2="113.3473" y2="37.7433">
		<stop  offset="0" style="stop-color:#5A0A00"/>
		<stop  offset="1" style="stop-color:#DB0812"/>
	</linearGradient>
	<rect x="73.3" y="21.8" class="st20" width="80.2" height="16"/>
	<g>
		<g>
			<g>
				<path class="st21" d="M90.9,29.4h4.7c0,0,0.3,0,0.3,0.4c0,0.3,0,0.7,0,0.7s0,0.3-0.3,0.3c-0.3,0-4.7,0-4.7,0V29.4z M90.9,27.9
					c0,0,4.3,0,4.7,0c0.3,0,0.3-0.3,0.3-0.3s0-0.4,0-0.7c0-0.3-0.3-0.4-0.3-0.4h-4.7V27.9z M97.5,30.1c0,1.2-1,2.1-2.1,2.1h-5.9v0
					v-7.1H95l0.3,0c1.2,0,2.1,1,2.1,2.1c0,0,0.1,0.7-0.5,1.4C97,28.7,97.5,29.2,97.5,30.1z"/>
				<g>
					<path class="st11" d="M101.1,25.1h1.9l3.6,7.1H105l-1.1-2.1h-3.7l-1.1,2.1h-1.7L101.1,25.1z M103.2,28.7l-1.1-2.1l-1.1,2.1
						H103.2z"/>
					<g>
						<path class="st21" d="M119.8,32.2c-2,0-3.6-1.6-3.6-3.6c0-2,1.6-3.6,3.6-3.6h2.3c2,0,3.6,1.6,3.6,3.6c0,2-1.6,3.6-3.6,3.6
							H119.8z M122,30.6c1.1,0,2-0.9,2-2c0-1.1-0.9-2-2-2h-2.1c-1.1,0-2,0.9-2,2c0,1.1,0.9,2,2,2H122z"/>
						<g>
							<path class="st21" d="M133,27.6c0,0.2-0.2,0.3-0.3,0.3H128v-1.4h4.7c0.2,0,0.3,0.2,0.3,0.3L133,27.6z M128,32.2v-2.8h2.9
								l1.9,2.8h1.8l-1.9-2.8c1.9-0.3,1.9-2.1,1.9-2.1c0-1.2-1-2.1-2.1-2.1l-0.1,0h-5.9v7.1H128z"/>
						</g>
						<polygon class="st11" points="107.4,32.2 108.8,32.2 108.8,27.6 114.2,32.2 115.7,32.2 115.7,25.1 114.2,25.1 114.2,29.7 
							108.8,25.1 107.4,25.1 						"/>
						<polygon class="st11" points="135.5,26.6 138.3,26.6 138.3,32.2 139.9,32.2 139.9,26.6 142.7,26.6 142.7,25.1 135.5,25.1 
													"/>
						<polygon class="st11" points="143.6,25.1 150.8,25.1 150.8,26.5 145.1,26.5 145.1,28 149.7,28 149.7,29.4 145.1,29.4 
							145.1,30.8 150.8,30.8 150.8,32.2 143.6,32.2 						"/>
					</g>
				</g>
			</g>
			<g>
				<path class="st11" d="M81.2,28.1l1.1-3l0,3c0.2,0,0.3,0,0.5,0c3,0,5.5-0.8,5.5-1.9c0-1.1-2.5-2-5.5-2c-3,0-5.5,0.9-5.5,2
					C77.3,27.1,78.9,27.9,81.2,28.1L81.2,28.1z"/>
				<path class="st11" d="M81.1,28.4c-2.9,0-5.2,0.9-5.2,2c0,0.9,1.6,1.6,3.8,1.9L81.1,28.4L81.1,28.4z"/>
				<path class="st11" d="M82.3,28.4v3.9c2.6-0.2,4.5-0.9,4.5-1.9C86.8,29.4,84.9,28.5,82.3,28.4L82.3,28.4z"/>
			</g>
		</g>
		<g>
			<path class="st11" d="M77.2,33.7h-1v0.4h0.9v0.3h-0.9v0.5h1v0.3h-1.4v-1.8h1.4V33.7z"/>
			<path class="st11" d="M79.4,34.9h0.9v0.3H79v-1.8h0.4V34.9z"/>
			<path class="st11" d="M84.3,33.4h0.9c0.5,0,0.6,0.3,0.6,0.5c0,0.3-0.1,0.3-0.2,0.4c0.2,0.1,0.3,0.3,0.3,0.4
				c0,0.1-0.1,0.3-0.2,0.4c-0.1,0.1-0.2,0.2-0.6,0.2h-0.8V33.4z M84.7,34.1h0.5c0.2,0,0.3-0.1,0.3-0.2c0-0.2-0.1-0.2-0.3-0.2h-0.4
				V34.1z M84.7,34.9h0.5c0.2,0,0.3-0.1,0.3-0.3c0-0.2-0.1-0.2-0.3-0.2h-0.5V34.9z"/>
			<path class="st11" d="M87.9,35.3h-0.4l0.7-1.8h0.4l0.6,1.8h-0.4l-0.1-0.4H88L87.9,35.3z M88.1,34.6h0.5l-0.2-0.7h0L88.1,34.6z"/>
			<path class="st11" d="M92.1,33.4h0.4v1.8h-0.4l-0.8-1.3h0v1.3H91v-1.8h0.4l0.7,1.3h0V33.4z"/>
			<path class="st11" d="M95.5,34c0-0.1-0.1-0.3-0.4-0.3c-0.2,0-0.5,0.1-0.5,0.6c0,0.3,0.1,0.6,0.5,0.6c0.2,0,0.4-0.1,0.4-0.3h0.4
				c-0.1,0.4-0.3,0.7-0.8,0.7c-0.5,0-0.8-0.3-0.8-1c0-0.6,0.4-1,0.8-1c0.6,0,0.8,0.4,0.8,0.7H95.5z"/>
			<path class="st11" d="M98.5,33.4c0.2,0,0.9,0.1,0.9,1c0,0.9-0.6,1-0.9,1c-0.2,0-0.9-0.1-0.9-1C97.6,33.5,98.2,33.4,98.5,33.4z
				 M98.5,35c0.2,0,0.5-0.1,0.5-0.6c0-0.5-0.3-0.6-0.5-0.6c-0.2,0-0.5,0.1-0.5,0.6C98,34.8,98.3,35,98.5,35z"/>
			<path class="st11" d="M103.7,35.3h-0.4v-1.8h1.3v0.3h-0.9v0.4h0.8v0.3h-0.8V35.3z"/>
			<path class="st11" d="M107.9,34.6c0,0.5-0.3,0.7-0.8,0.7c-0.2,0-0.4,0-0.6-0.2c-0.1-0.1-0.1-0.3-0.1-0.4v-1.2h0.4v1.2
				c0,0.3,0.1,0.4,0.3,0.4c0.3,0,0.4-0.1,0.4-0.4v-1.2h0.4V34.6z"/>
			<path class="st11" d="M111.1,33.7h-1v0.4h0.9v0.3h-0.9v0.5h1v0.3h-1.4v-1.8h1.4V33.7z"/>
			<path class="st11" d="M113,33.4h0.9c0.5,0,0.6,0.4,0.6,0.5c0,0.2-0.1,0.4-0.3,0.4c0.2,0.1,0.2,0.1,0.2,0.5c0,0.3,0,0.3,0.1,0.4v0
				h-0.4c0-0.1,0-0.2,0-0.4c0-0.3,0-0.3-0.3-0.3h-0.4v0.7H113V33.4z M113.8,34.2c0.2,0,0.3-0.1,0.3-0.3c0-0.1,0-0.2-0.3-0.2h-0.5
				v0.5H113.8z"/>
			<path class="st11" d="M117.1,35.3h-0.4v-1.5h-0.6v-0.3h1.5v0.3h-0.6V35.3z"/>
			<path class="st11" d="M120.7,33.7h-1v0.4h0.9v0.3h-0.9v0.5h1v0.3h-1.4v-1.8h1.4V33.7z"/>
			<path class="st11" d="M124.8,33.4h0.8c0.6,0,0.7,0.5,0.7,0.9c0,0.4-0.2,1-0.8,1h-0.8V33.4z M125.2,34.9h0.4
				c0.3,0,0.4-0.3,0.4-0.6c0-0.5-0.3-0.6-0.4-0.6h-0.4V34.9z"/>
			<path class="st11" d="M129.5,33.7h-1v0.4h0.9v0.3h-0.9v0.5h1v0.3h-1.4v-1.8h1.4V33.7z"/>
			<path class="st11" d="M135.3,35.3H135v-1.5h0l-0.3,1.5h-0.4l-0.3-1.5h0v1.5h-0.4v-1.8h0.6l0.3,1.5h0l0.3-1.5h0.6V35.3z"/>
			<path class="st11" d="M138.5,33.7h-1v0.4h0.9v0.3h-0.9v0.5h1v0.3h-1.4v-1.8h1.4V33.7z"/>
			<path class="st11" d="M141.9,35.3h-0.5l-0.3-0.6l-0.4,0.6h-0.4l0.6-0.9l-0.6-0.9h0.5L141,34l0.3-0.6h0.4l-0.6,0.9L141.9,35.3z"/>
			<path class="st11" d="M143.9,35.3h-0.4v-1.8h0.4V35.3z"/>
			<path class="st11" d="M147,34c0-0.1-0.1-0.3-0.4-0.3c-0.2,0-0.5,0.1-0.5,0.6c0,0.3,0.1,0.6,0.5,0.6c0.2,0,0.4-0.1,0.4-0.3h0.4
				c-0.1,0.4-0.3,0.7-0.8,0.7c-0.5,0-0.8-0.3-0.8-1c0-0.6,0.4-1,0.8-1c0.6,0,0.8,0.4,0.8,0.7H147z"/>
			<path class="st11" d="M150,33.4c0.2,0,0.9,0.1,0.9,1c0,0.9-0.6,1-0.9,1c-0.2,0-0.9-0.1-0.9-1C149.1,33.5,149.7,33.4,150,33.4z
				 M150,35c0.2,0,0.5-0.1,0.5-0.6c0-0.5-0.3-0.6-0.5-0.6c-0.2,0-0.5,0.1-0.5,0.6C149.5,34.8,149.8,35,150,35z"/>
		</g>
	</g>
</g>
</svg>
