<?xml version="1.0" encoding="utf-8"?>
<!-- Generator: Adobe Illustrator 17.0.0, SVG Export Plug-In . SVG Version: 6.00 Build 0)  -->
<!DOCTYPE svg PUBLIC "-//W3C//DTD SVG 1.1//EN" "http://www.w3.org/Graphics/SVG/1.1/DTD/svg11.dtd">
<svg version="1.1" id="Capa_1" xmlns="http://www.w3.org/2000/svg" xmlns:xlink="http://www.w3.org/1999/xlink" x="0px" y="0px"
	 width="904.5px" height="91.575px" viewBox="0 0 904.5 91.575" enable-background="new 0 0 904.5 91.575" xml:space="preserve">
<polygon opacity="0.3" enable-background="new    " points="281.289,84.032 311.072,43.228 307.75,43.038 280.5,81.038 
	166.75,81.276 166.75,84.032 "/>
<polygon opacity="0.3" enable-background="new    " points="428.622,84.032 459.405,43.228 456.083,43.038 426.833,81.038 
	285.083,81.276 285.083,84.032 "/>
<polygon opacity="0.3" enable-background="new    " points="576.872,84.032 606.655,43.228 604.333,43.038 576.083,81.038 
	433.333,81.276 433.333,84.032 "/>
<polygon opacity="0.3" enable-background="new    " points="726.122,84.032 755.905,43.228 752.583,43.038 724.333,81.038 
	581.583,81.276 581.583,84.032 "/>
<polygon opacity="0.3" enable-background="new    " points="851.717,84.032 871.5,43.228 868.178,43.038 849.928,81.038 
	730.178,81.276 730.178,84.032 "/>
</svg>
