<?xml version="1.0" encoding="utf-8"?>
<!-- Generator: Adobe Illustrator 17.0.0, SVG Export Plug-In . SVG Version: 6.00 Build 0)  -->
<!DOCTYPE svg PUBLIC "-//W3C//DTD SVG 1.1//EN" "http://www.w3.org/Graphics/SVG/1.1/DTD/svg11.dtd">
<svg version="1.1" id="Capa_1" xmlns="http://www.w3.org/2000/svg" xmlns:xlink="http://www.w3.org/1999/xlink" x="0px" y="0px"
	 width="904.5px" height="91.575px" viewBox="0 0 904.5 91.575" enable-background="new 0 0 904.5 91.575" xml:space="preserve">
<polygon opacity="0.3" enable-background="new    " points="257.289,84.032 287.072,43.228 283.75,43.038 256.5,81.038 
	155.75,81.276 155.75,84.032 "/>
<polygon opacity="0.3" enable-background="new    " points="392.622,84.032 423.405,43.228 420.083,43.038 390.833,81.038 
	261.083,81.276 261.083,84.032 "/>
<polygon opacity="0.3" enable-background="new    " points="528.872,84.032 558.655,43.228 556.333,43.038 528.083,81.038 
	397.333,81.276 397.333,84.032 "/>
<polygon opacity="0.3" enable-background="new    " points="666.122,84.032 695.905,43.228 692.583,43.038 664.333,81.038 
	533.583,81.276 533.583,84.032 "/>
<polygon opacity="0.3" enable-background="new    " points="781.717,84.032 801.5,43.228 798.178,43.038 779.928,81.038 
	670.178,81.276 670.178,84.032 "/>
</svg>
